<?xml version="1.0" encoding="utf-8"?>
<!-- Generator: Adobe Illustrator 21.0.0, SVG Export Plug-In . SVG Version: 6.00 Build 0)  -->
<svg version="1.1" id="Layer_1" xmlns="http://www.w3.org/2000/svg" xmlns:xlink="http://www.w3.org/1999/xlink" x="0px" y="0px"
	 viewBox="0 0 721 216" style="enable-background:new 0 0 721 216;" xml:space="preserve">
<style type="text/css">
	.st0{opacity:0.8;fill:#FFFDFF;}
	.st1{fill:#00A99D;}
	.st2{fill:#1B1464;}
	.st3{fill:#FFFFFF;}
	.st4{fill:#FF00F6;}
</style>
<rect x="1" y="1" class="st0" width="721" height="216"/>
<g>
	<g>
		<path class="st1" d="M323,79.5c-6.3,0-11.5-5.2-11.5-11.5V27c0-6.3,5.2-11.5,11.5-11.5h46c6.3,0,11.5,5.2,11.5,11.5v41
			c0,6.3-5.2,11.5-11.5,11.5H323z"/>
		<path class="st2" d="M369,16c6.1,0,11,4.9,11,11v41c0,6.1-4.9,11-11,11h-46c-6.1,0-11-4.9-11-11V27c0-6.1,4.9-11,11-11H369
			 M369,15h-46c-6.6,0-12,5.4-12,12v41c0,6.6,5.4,12,12,12h46c6.6,0,12-5.4,12-12V27C381,20.4,375.6,15,369,15L369,15z"/>
	</g>
	<g>
		<path class="st3" d="M334,28.2c3.8,0,6.8,1.3,8.9,3.9c2.6,3,3.8,8.1,3.8,15.2c0,7-1.3,12.1-3.9,15.2c-2.1,2.5-5.1,3.8-8.9,3.8
			c-3.8,0-6.9-1.4-9.2-4.2c-2.3-2.8-3.5-7.7-3.5-14.9c0-7,1.3-12.1,3.9-15.1C327.3,29.5,330.2,28.2,334,28.2z M334,34.2
			c-0.9,0-1.7,0.3-2.4,0.8c-0.7,0.6-1.3,1.5-1.7,3c-0.5,1.8-0.8,5-0.8,9.3s0.2,7.4,0.7,9c0.5,1.6,1,2.7,1.8,3.3
			c0.7,0.5,1.5,0.8,2.4,0.8c0.9,0,1.7-0.3,2.4-0.8c0.7-0.5,1.3-1.5,1.7-3c0.5-1.8,0.8-4.9,0.8-9.3s-0.2-7.4-0.7-9
			c-0.5-1.6-1-2.7-1.8-3.3C335.8,34.4,335,34.2,334,34.2z"/>
		<path class="st3" d="M371.1,65.6h-7.5V38.7c-2.7,2.4-6,4.2-9.7,5.4v-6.5c2-0.6,4.1-1.8,6.4-3.5c2.3-1.7,3.9-3.7,4.7-6h6.1V65.6z"
			/>
	</g>
</g>
<g>
</g>
<g>
</g>
<g>
</g>
<g>
</g>
<g>
	<path class="st4" d="M119,101.1V121c-0.4-0.2-0.6-0.3-0.7-0.3c-0.1,0-0.2-0.1-0.3-0.1c-0.4-0.2-1-0.3-1.6-0.6
		c-0.3-0.1-0.6-0.2-0.9-0.3c-0.3-0.1-0.5-0.2-0.7-0.3c-0.3-0.1-0.5-0.2-0.7-0.3c-0.9-0.3-1.7-0.6-2.5-1c-0.8-0.3-1.5-0.7-2.1-1
		c-1.5-0.8-2.8-1.9-3.9-3.1c-1.1-1.2-2.1-2.7-2.9-4.5c0.7-0.4,1.3-0.7,1.9-1c0.6-0.3,1.2-0.6,1.8-1c0.8-0.5,1.4-0.9,1.9-1.2
		c0.5-0.3,1-0.5,1.3-0.7c-0.7-0.9-1.4-1.7-2.2-2.5c-0.8-0.8-1.7-1.4-2.7-2.1h-3.9v-2.5h21.9l0.1,2.5H119z M115.3,101.1h-5.9
		c0.3,0.3,0.5,0.6,0.8,0.9c0.3,0.3,0.5,0.6,0.8,1c0.3,0.4,0.6,0.8,0.9,1.2c0.3,0.4,0.6,1,0.9,1.5c-0.8,0.5-1.7,1.1-2.7,1.7
		c-1,0.6-2.2,1.3-3.6,2c0.3,1.5,0.9,2.8,1.9,3.9c1,1.2,2.4,2.2,4.1,3l2.8,1.3V101.1z"/>
	<path class="st4" d="M128,101.1v19.3h1.7l-0.1,0.8h-6.8l0.1-0.8h1.4v-19.3h-2.9v-2.5h10.1c0,0.4,0,0.8,0,1.1c0,0.3,0,0.8,0,1.3H128
		z"/>
	<path class="st4" d="M145.7,101.1v19.8c-0.9-0.6-1.7-1.2-2.4-1.6c-0.7-0.4-1.4-0.9-2.2-1.3c-1.2-0.6-2.1-1.2-2.9-1.6
		c-0.7-0.4-1.2-0.7-1.5-0.9c-1.7-1.1-3-2.3-3.8-3.4c-0.9-1.2-1.3-2.4-1.3-3.6c0-2.1,1.4-3.7,4.1-4.9h6.2v-2.3h-12.7v-2.5h20.6v2.5
		c-0.4,0-0.7,0-0.9,0c-0.2,0-0.4,0-0.6,0H145.7z M136.4,119.4c-0.5,0.3-1.1,0.5-1.8,0.5c-0.7,0-1.3-0.2-1.8-0.5
		c-0.5-0.4-0.8-0.9-0.8-1.5c0-0.6,0.2-1,0.7-1.4c0.4-0.4,1-0.6,1.6-0.6c1,0,1.7,0.2,2.3,0.5c0.5,0.3,0.8,0.8,0.8,1.5
		C137.3,118.6,137,119.1,136.4,119.4z M142,105h-4c-1.6,1-2.4,2.3-2.4,3.9c0,1.1,0.8,2.4,2.3,3.8c0.4,0.3,0.9,0.7,1.6,1.2
		c0.7,0.5,1.5,1.1,2.6,1.8V105z"/>
	<path class="st4" d="M154.7,101.1v19.3h1.7l-0.1,0.8h-6.8l0.1-0.8h1.4v-19.3h-2.9v-2.5h10.1c0,0.4,0,0.8,0,1.1c0,0.3,0,0.8,0,1.3
		H154.7z"/>
	<path class="st4" d="M198.3,101.1h-4.1v19.2h2.1v1.1h-7.3v-0.9h1.6v-4.4l-2-1.5c-0.8,1.9-1.9,3.3-3.3,4.2c-1.4,0.9-3.1,1.4-5.2,1.4
		c-1.9,0-3.7-0.5-5.3-1.6c-1.7-1-3-2.4-3.8-4c-0.8-1.7-1.5-3.2-2-4.7s-1-3-1.3-4.6l4.9-0.8c0.1,1.3,0.2,2.3,0.3,3
		c0.1,0.7,0.1,1.2,0.2,1.6c0.2,1.6,0.4,3,0.9,4.2c1.3,3.7,3.4,5.5,6.3,5.5c1.9,0,3.3-1.1,4.3-3.2c0.7-1.5,1.1-3.2,1.1-5.1
		c0-2.7-0.3-4.5-0.9-5.5c-0.4-0.6-1-1.3-1.7-2l-0.2-0.2c-0.2-0.2-0.3-0.3-0.5-0.4c-0.1-0.1-0.2-0.1-0.3-0.1c-0.4,0-0.8,0.2-1.2,0.5
		c-0.4,0.3-0.8,0.9-1.1,1.8c-0.5,1.3-0.8,2.4-0.8,3.4c0,0.2,0.1,0.7,0.2,1.5c0.2,0.8,0.4,2,0.9,3.7c-1.7-1.2-2.9-2.3-3.6-3.4
		c-0.7-1.1-1-2.2-1-3.4c0-1.4,0.7-2.8,2.1-4.2l1.1-1h-12.9c0-0.6,0-1,0-1.4c0-0.3,0-0.7-0.1-1.1h32.8L198.3,101.1z M190.5,101.1
		h-4.8l1.4,1.7c0.3,0.4,0.6,0.8,0.8,1.2c0.2,0.4,0.4,0.8,0.6,1.1c0.5,1.2,0.8,2.8,0.8,4.8c0,0.9-0.2,1.8-0.6,2.7l1.8,1.6V101.1z"/>
	<path class="st4" d="M203.2,101.1c-0.4,0.4-0.6,0.8-0.8,1.1c-0.2,0.4-0.2,0.7-0.2,1.1c0,0.2,0.1,0.4,0.2,0.6
		c0.1,0.2,0.4,0.5,0.7,0.9c0.2,0.2,0.4,0.4,0.6,0.6c0.2,0.2,0.5,0.5,0.9,0.9c1.1,1.1,1.6,2.1,1.6,2.9c0,1.3-0.3,2.7-0.8,4.2
		c-0.6,1.5-1.4,3-2.5,4.5l-0.7-0.4c0.1-0.2,0.2-0.4,0.3-0.6c0.1-0.2,0.2-0.5,0.3-0.7c0.3-0.9,0.6-1.6,0.7-2.2
		c0.1-0.6,0.2-1.1,0.2-1.5c0-1.3-0.3-2.5-0.9-3.6c-0.2-0.4-0.7-1.2-1.6-2.4c-0.7-0.9-1-1.7-1-2.5c0-1.1,0.3-2.1,1-3h-4.6v-2.5h11.6
		v2.5H203.2z"/>
	<path class="st4" d="M213.3,101.1v19.3h1.7l-0.1,0.8h-6.8l0.1-0.8h1.4v-19.3h-2.9v-2.5h10.1c0,0.4,0,0.8,0,1.1c0,0.3,0,0.8,0,1.3
		H213.3z"/>
	<path class="st4" d="M236.4,101.1v19.2h1.4v1h-6.6v-1h1.5v-10.4l-2.2-1.6c-0.4,0.4-1,1-1.6,1.7c-0.6,0.7-1.4,1.5-2.3,2.4
		c-1,1-1.9,1.8-2.6,2.3s-1.4,0.8-1.9,0.8c-0.8,0-1.5-0.1-2.3-0.4c-0.8-0.3-1.7-0.8-2.6-1.4l0.1-1.9c0.8,0.6,1.3,1,1.7,1.2
		c0.4,0.2,0.7,0.3,1,0.3c0.8,0,1.8-0.6,3-1.8c0.6-0.6,1.1-1.2,1.3-1.7c0.3-0.5,0.4-0.9,0.4-1.3c0-0.6-0.1-1.1-0.3-1.4
		c-0.2-0.3-0.5-0.4-0.9-0.4c-0.4,0-1,0.2-1.7,0.5l-1.8,0.8c-1-0.2-1.7-0.5-2.1-0.8c-0.5-0.4-0.7-1-0.7-1.9c0-0.6,0.6-1.9,1.9-3.9
		h-4.4v-2.5h25.7v2.5H236.4z M232.7,101.1h-11.2c-0.3,0.3-0.5,0.7-0.7,1c-0.2,0.4-0.4,0.7-0.6,1.1c-0.1,0.2-0.2,0.5-0.2,0.7
		c0,0.2,0.1,0.3,0.2,0.4s0.3,0.1,0.7,0.1c0.4,0,1-0.1,1.8-0.4c0.4-0.1,0.8-0.2,1.1-0.3c0.3-0.1,0.6-0.1,0.8-0.1
		c0.7,0,1.3,0.3,1.6,0.8c0.3,0.5,0.5,1.3,0.5,2.3c0,0.2,0,0.4,0,0.6c0,0.2,0,0.5-0.1,0.8l3.5-2.7c0.4,0.2,0.8,0.4,1.2,0.7
		c0.4,0.3,0.9,0.6,1.4,1V101.1z"/>
	<path class="st4" d="M245.5,101.1v19.3h1.7l-0.1,0.8h-6.8l0.1-0.8h1.4v-19.3h-2.9v-2.5H249c0,0.4,0,0.8,0,1.1c0,0.3,0,0.8,0,1.3
		H245.5z"/>
	<path class="st4" d="M261.1,101.1c0.9,0.7,1.6,1.4,2.1,2.1c0.4,0.7,0.6,1.4,0.6,2.2c0,2.2-1.3,4.3-3.8,6.1
		c-0.9,0.6-1.8,1.2-2.9,1.7c-1.1,0.5-2.3,1-3.7,1.4c0.7,2.1,1.8,3.9,3.3,5.2c0.9,0.8,2.7,2,5.4,3.8c0.2,0.1,0.3,0.2,0.5,0.3
		c0.2,0.1,0.3,0.2,0.4,0.3l-0.5,0.7l-3-1.6c-2.2-1.1-4.2-2.4-5.9-3.8c-1.7-1.4-3.2-3-4.6-4.8c1.6-0.4,2.9-0.9,4-1.3
		c1.1-0.5,2.1-1,2.9-1.5c1.2-0.8,2.1-1.6,2.6-2.5c0.6-0.9,0.8-1.8,0.8-2.8c0-0.9-0.2-1.9-0.7-2.8c-0.6-1.2-1.5-1.7-2.4-1.7
		c-0.5,0-0.9,0.2-1.4,0.5c-0.5,0.3-0.9,0.9-1.4,1.6c-0.8,1.2-1.1,2.3-1.1,3.2c0,0.3,0,0.5,0.1,0.8c0,0.3,0.1,0.6,0.3,0.9
		c0.1,0.3,0.3,0.7,0.6,1.1c0.2,0.4,0.6,0.9,1,1.5c-1-0.5-1.9-1-2.6-1.5c-0.7-0.5-1.2-1-1.6-1.4c-0.4-0.5-0.7-1-0.9-1.4
		c-0.2-0.5-0.3-1-0.3-1.5c0-0.8,0.2-1.5,0.7-2.3c0.5-0.7,1.2-1.5,2.2-2.4h-5v-2.5H257v-1.2c-0.9-1.1-2-1.7-3.3-1.7
		c-1.3,0-3,0.3-5.2,0.9c-0.7,0.2-1.4,0.4-2,0.6s-1.1,0.3-1.6,0.4l-0.3-0.8c0.8-0.3,1.5-0.7,2.3-1c0.7-0.3,1.4-0.6,2.1-0.9
		c2.2-0.9,4.3-1.3,6.3-1.3c0.6,0,1.2,0.1,1.7,0.2c0.5,0.1,1,0.3,1.5,0.5c0.3,0.2,0.6,0.4,1,0.7s0.8,0.7,1.2,1.2v2.2h5.4v2.5H261.1z"
		/>
	<path class="st4" d="M281.2,101.1v19.3h1.7v0.8h-6.5l-0.1-0.9h1.3v-12.7l-3.4-2.1c-1.4,0.4-2.3,0.7-2.8,1.1
		c-0.8,0.6-1.2,1.4-1.2,2.6v0.1c0,0.1,0,0.2,0.1,0.4c0,0.1,0,0.3,0,0.5v1.1c0,0.5,0.1,1,0.2,1.5c0.1,0.5,0.3,1.1,0.5,1.7
		c0,0.1,0.1,0.2,0.2,0.3c0.1,0.1,0.2,0.4,0.4,0.7c0.2,0.3,0.4,0.8,0.8,1.4c0.3,0.6,0.7,1.3,1.3,2.3c-0.8-0.8-1.4-1.4-2-2
		c-0.5-0.5-1-1-1.3-1.4c-0.4-0.4-0.7-0.7-1-1c-0.3-0.3-0.5-0.6-0.8-0.8c-1.1-1.2-1.7-2.9-1.7-5c0-1.8,1-3.2,2.9-4.4c1-0.6,2-1,2.9-1
		c0.8,0,1.4,0,1.7,0c0.9,0.2,1.8,0.8,2.8,1.7l0.5,0.4v-4.6h-12.9v-2.5h20.7v2.5H281.2z"/>
	<path class="st4" d="M293.8,101.1c-1,0.8-1.8,1.5-2.5,2.2c-0.7,0.7-1.2,1.3-1.6,1.9c-0.9,1.5-1.4,3.4-1.4,5.6
		c0,0.7,0.1,1.5,0.2,2.2c0.1,0.8,0.4,1.6,0.7,2.5c0.3,0.9,0.8,1.9,1.3,3c0.6,1.1,1.3,2.4,2.2,3.9c-1.1-1.1-1.9-2-2.6-2.7
		c-0.7-0.8-1.3-1.4-1.7-1.9c-0.4-0.5-0.8-1-1.1-1.3c-0.3-0.4-0.5-0.7-0.7-1c-1.1-1.9-1.6-4.1-1.6-6.7c0-0.7,0.1-1.4,0.2-2
		c0.1-0.6,0.3-1.2,0.5-1.7c0.3-0.6,0.7-1.3,1.2-1.9s1.3-1.3,2.1-2.1h-5.9c0-0.4,0-0.7,0.1-0.9c0-0.2,0-0.4,0-0.5c0-0.1,0-0.3,0-0.4
		c0-0.1,0-0.4-0.1-0.7h12.9v2.5H293.8z"/>
	<path class="st4" d="M311.9,101.1v19.4h1.7v0.9H307l-0.1-0.9l1.3-0.2v-8.3c-0.5-1-1-1.7-1.6-2.2c-0.6-0.4-1.2-0.7-1.9-0.7
		c-1.4,0-2.6,0.4-3.4,1.2c-0.9,0.8-1.3,1.9-1.3,3.3c0,0.4,0,0.8,0.1,1.3c0.1,0.4,0.2,0.9,0.4,1.4c0.2,0.5,0.4,1.1,0.7,1.8
		c0.3,0.7,0.7,1.4,1.2,2.3c-0.6-0.5-1.2-1-1.6-1.4c-0.4-0.4-0.8-0.7-1.2-1c-0.3-0.3-0.6-0.5-0.8-0.7s-0.4-0.4-0.7-0.6
		c-1.1-1-1.6-2.4-1.6-4.2c0-1.5,1.1-2.9,3.3-4.2c-0.2-0.1-0.3-0.2-0.5-0.3c-0.2-0.1-0.4-0.2-0.6-0.4c-1.6-1.1-2.4-2.3-2.4-3.5
		c0-0.6,0.2-1.2,0.6-1.7c0.4-0.5,1-0.9,1.9-1.4h-4.4v-2.5h21.9v2.5H311.9z M308.2,101.1h-5.8c-0.4,0.2-0.7,0.4-1,0.6
		c-0.3,0.2-0.7,0.4-1,0.6c-0.6,0.5-1,1.1-1,1.8c0,0.5,0.2,1.2,0.5,1.9c0.2,0.2,0.3,0.5,0.4,0.8c0.1,0.3,0.3,0.6,0.4,0.9
		c0.9-0.3,1.8-0.5,2.7-0.5c0.7,0,1.4,0.2,2.2,0.6c0.8,0.4,1.6,0.9,2.5,1.7V101.1z"/>
	<path class="st4" d="M323.9,106.3c-0.5-0.7-1.1-1.1-1.8-1.3c-0.6-0.1-1.2-0.1-1.8,0.1c-0.5,0.2-1,0.5-1.3,0.8s-0.5,0.7-0.5,1
		c0,0.5,0.1,1,0.4,1.6c0.3,0.6,0.9,1.4,1.7,2.4c-1-0.1-1.7-0.3-2.2-0.5s-0.9-0.5-1.3-0.9c-0.9-0.8-1.3-1.7-1.3-2.7
		c0-0.6,0.2-1.1,0.5-1.6c0.3-0.5,0.7-0.8,1.2-1.1c0.5-0.3,1-0.5,1.6-0.7s1.1-0.2,1.6-0.2c0.5,0,1,0.1,1.6,0.3
		c0.5,0.2,1.1,0.5,1.6,0.9v-3.2h-13v-2.5h16.6v13c-1,0-1.7,0-2.2,0c-0.5,0-1,0-1.4,0V106.3z"/>
	<path class="st4" d="M327.2,101.1v16.8c0,0.2,0.1,0.4,0.4,0.6c0.2,0.2,0.5,0.4,0.9,0.7c1.7-0.9,2.9-2.6,3.9-5.1
		c0.8-2.2,1.2-4.3,1.2-6.3c0-0.5-0.1-0.9-0.2-1c-0.1-0.2-0.3-0.3-0.5-0.3c-0.2,0-0.5,0.1-0.9,0.3c-0.4,0.2-0.9,0.5-1.5,0.9l-1.2-0.4
		l4.7-2.8l2.7,1.4v0.8c0,3.1-0.7,5.9-2.1,8.2c-1.4,2.4-3.6,4.4-6.6,6.1c-0.4-0.2-1-0.5-1.7-1c-0.7-0.5-1.6-1.2-2.6-2v-16.9h-2.6
		v-2.5h12.6c0-0.2,0-0.3,0-0.5c0-0.2,0-0.3,0-0.5c0.1-0.5,0.1-0.9,0.1-1.2c0-0.5-0.4-1-1.1-1.3c-0.6-0.3-1.3-0.4-2.1-0.4
		c-2,0-4.7,0.4-8.1,1.2l-0.3-0.8c3.8-1.6,7.2-2.4,10.2-2.4c2,0,3.5,0.9,4.4,2.6v3.2h4v2.5H327.2z"/>
	<path class="st4" d="M358.5,101.2h-0.3c-0.1,0-0.3,0-0.4,0c-0.2,0-0.3,0-0.5,0c-0.4,0-0.9,0-1.5,0c-0.6,0-1.1,0-1.7,0
		c-1.1,0-2.2,0-3.3,0c-1.1,0-1.9,0-2.4-0.1v-2.5h32.8v2.5h-19v0.7c0.9,0.3,1.8,0.7,2.7,1c0.9,0.4,2,0.7,3.1,1.1
		c1.1,0.4,2.1,0.6,3.1,0.7c1,0.1,2,0.2,3,0.2c0.4,0,1,0,1.5-0.1c0.6-0.1,1.2-0.2,2-0.4l1.8,2.8c-1.2,0.9-2.1,1.6-2.7,2.2
		c-0.7,0.6-1.2,1.1-1.5,1.5c-0.9,1.2-1.3,2.7-1.3,4.5c0,0,0,0.2,0,0.4c0,0.2,0.1,0.5,0.1,1c0.1,0.5,0.2,1.1,0.3,1.9
		c0.1,0.8,0.3,1.9,0.4,3.1c-0.5-1.1-1-2.1-1.3-2.9c-0.3-0.8-0.6-1.5-0.8-2.2c-0.2-0.6-0.3-1.2-0.4-1.6c-0.1-0.5-0.1-0.9-0.1-1.4
		c0-2,0.4-3.6,1.2-5c0.1-0.1,0.2-0.3,0.4-0.6c0.2-0.3,0.4-0.6,0.6-1c-2.3-0.2-4.4-0.6-6.4-1.2c-2-0.6-3.9-1.4-5.8-2.5v5.9
		c0,0.6,0.3,1.1,0.8,1.4c0.5,0.4,1.2,0.6,1.8,0.6c0.7,0,1.3-0.2,1.7-0.6c0.1-0.2,0.3-0.3,0.4-0.6c0.2-0.2,0.4-0.5,0.5-0.9l0-2.3
		l3.5,0.3c0,0.6,0,1.2,0.1,1.7c0,0.5,0,1.1,0,1.6c0,2.4-0.6,4.6-1.8,6.6c-1.6,2.6-3.8,3.9-6.7,3.9c-3.3,0-6.2-1.9-8.5-5.6
		c-0.8-1.3-1.5-2.8-2.1-4.3c-0.6-1.5-1-3.1-1.3-5l4.7-0.6c0,0.6-0.1,1-0.1,1.3c0,0.3,0,0.5,0,0.8c0,2.4,0.5,4.8,1.6,7.4
		c0.7,1.7,1.5,3,2.4,3.8s1.9,1.2,3.1,1.2c1.7,0,3-1,4-3c0.7-1.5,1.1-3,1.1-4.6c0-0.1,0-0.2,0-0.4c0-0.2,0-0.4-0.1-0.6
		c-1.4,1.2-2.8,1.8-4.1,1.8c-1.3,0-2.4-0.4-3.3-1.2c-1-0.8-1.5-1.8-1.5-2.9V101.2z"/>
	<path class="st4" d="M397.5,101.1v19.4h1.7v0.9h-6.6l-0.1-0.9l1.3-0.2v-8.3c-0.5-1-1-1.7-1.6-2.2c-0.6-0.4-1.2-0.7-1.9-0.7
		c-1.4,0-2.6,0.4-3.4,1.2c-0.9,0.8-1.3,1.9-1.3,3.3c0,0.4,0,0.8,0.1,1.3c0.1,0.4,0.2,0.9,0.4,1.4c0.2,0.5,0.4,1.1,0.7,1.8
		c0.3,0.7,0.7,1.4,1.2,2.3c-0.6-0.5-1.2-1-1.6-1.4c-0.4-0.4-0.8-0.7-1.2-1c-0.3-0.3-0.6-0.5-0.8-0.7s-0.4-0.4-0.7-0.6
		c-1.1-1-1.6-2.4-1.6-4.2c0-1.5,1.1-2.9,3.3-4.2c-0.2-0.1-0.3-0.2-0.5-0.3c-0.2-0.1-0.4-0.2-0.6-0.4c-1.6-1.1-2.4-2.3-2.4-3.5
		c0-0.6,0.2-1.2,0.6-1.7c0.4-0.5,1-0.9,1.9-1.4h-4.4v-2.5h21.9v2.5H397.5z M393.9,101.1h-5.8c-0.4,0.2-0.7,0.4-1,0.6s-0.7,0.4-1,0.6
		c-0.6,0.5-1,1.1-1,1.8c0,0.5,0.2,1.2,0.5,1.9c0.2,0.2,0.3,0.5,0.4,0.8c0.1,0.3,0.3,0.6,0.4,0.9c0.9-0.3,1.8-0.5,2.7-0.5
		c0.7,0,1.4,0.2,2.2,0.6s1.6,0.9,2.5,1.7V101.1z"/>
	<path class="st4" d="M406.7,101.1v19.3h1.7l-0.1,0.8h-6.8l0.1-0.8h1.4v-19.3h-2.9v-2.5h10.1c0,0.4,0,0.8,0,1.1c0,0.3,0,0.8,0,1.3
		H406.7z"/>
	<path class="st4" d="M439.4,96.2l0.9-0.2v1.2c-1-0.4-1.9-0.7-2.8-0.9c-0.9-0.2-1.8-0.5-2.8-0.7c-1.1-0.2-2.2-0.4-3-0.5
		c-0.9-0.1-1.7-0.2-2.4-0.2c-1.6,0-2.8,0.2-3.4,0.5s-1,0.8-1,1.4v1.8h4.5v2.5h-4v19.4h0.7v0.9h-5.6v-0.9h1.2v-19.4h-4.1v-2.5h4.1
		v-0.1c0-1.9,0.3-3.4,1-4.3c0.8-1.2,2.2-1.7,4.3-1.7c0.8,0,1.8,0.1,3,0.3c1.1,0.2,2.5,0.6,3.9,1c1.1,0.4,2.2,0.7,3.1,1.1
		S438.6,95.8,439.4,96.2L439.4,96.2z"/>
	<path class="st4" d="M434.8,101.1v11.7c0.5-0.8,1.1-1.5,1.7-2.1s1.2-1.2,1.8-1.8l4.6-4.2c0.3,0.2,0.5,0.4,0.7,0.6
		c0.2,0.2,0.5,0.4,0.7,0.6c0.2,0.1,0.3,0.2,0.5,0.3c0.2,0.1,0.3,0.2,0.4,0.3l0.4,0.4v13.4h2.1v1.1h-7.3v-1.1l1.6,0v-12.4
		c-0.5,0.6-1.1,1.4-1.8,2.1c-0.7,0.8-1.4,1.6-2.2,2.6c-0.7,0.9-1.4,1.7-2,2.6c-0.6,0.9-1.1,1.8-1.6,2.9l-3.3-2.2v-14.7h-3.3v-2.5
		h22.9v2.5H434.8z"/>
	<path class="st4" d="M458.3,101.1c-1,0.8-1.8,1.5-2.5,2.2c-0.7,0.7-1.2,1.3-1.6,1.9c-0.9,1.5-1.4,3.4-1.4,5.6
		c0,0.7,0.1,1.5,0.2,2.2c0.1,0.8,0.4,1.6,0.7,2.5c0.3,0.9,0.8,1.9,1.3,3c0.6,1.1,1.3,2.4,2.2,3.9c-1.1-1.1-1.9-2-2.6-2.7
		c-0.7-0.8-1.3-1.4-1.7-1.9c-0.4-0.5-0.8-1-1.1-1.3s-0.5-0.7-0.7-1c-1.1-1.9-1.6-4.1-1.6-6.7c0-0.7,0.1-1.4,0.2-2
		c0.1-0.6,0.3-1.2,0.5-1.7c0.3-0.6,0.7-1.3,1.2-1.9s1.3-1.3,2.1-2.1h-5.9c0-0.4,0-0.7,0.1-0.9c0-0.2,0-0.4,0-0.5c0-0.1,0-0.3,0-0.4
		c0-0.1,0-0.4-0.1-0.7h12.9v2.5H458.3z"/>
	<path class="st4" d="M477.5,101.1c1.3,1,2.2,2.3,2.7,3.8c0.6,1.5,0.8,3.3,0.8,5.4c0,2.7-0.7,5-2.1,6.9c-1.7,2.5-4.1,3.7-7.2,3.7
		c-1.5,0-2.8-0.4-3.9-1.1c-2-1.4-3.4-2.7-4.3-4c-0.7-1.1-1.6-3-2.5-5.7c-0.2-0.6-0.4-1.5-0.6-2.8c-0.1-0.5-0.2-1-0.3-1.5
		c-0.1-0.5-0.3-1-0.5-1.6l5.2-0.4c-0.1,0.9-0.2,1.7-0.2,2.2c0,0.6,0,1,0,1.4c0,1.3,0.1,2.5,0.3,3.7c0.2,1.2,0.6,2.4,1,3.6
		c0.7,1.7,1.5,2.9,2.4,3.7c0.9,0.8,2,1.2,3.2,1.2c2.1,0,3.6-1.3,4.6-3.9c0.7-1.8,1-3.8,1-5.9c0-1.8-0.2-3.5-0.6-5.1
		c-0.3-1.2-0.7-2.1-1.2-2.6c-0.4-0.5-0.9-0.8-1.5-0.8c-0.5,0-1,0.2-1.4,0.7c-0.4,0.5-0.8,1.3-1.2,2.4c-0.4,1.5-0.7,3-0.7,4.4
		c0,0.6,0.1,1.2,0.2,1.8c0.1,0.6,0.4,1.4,0.8,2.4c-0.8-0.4-1.5-0.9-2.1-1.3s-1-0.9-1.4-1.4c-0.4-0.5-0.6-1-0.8-1.5
		c-0.2-0.5-0.2-1.1-0.2-1.7c0-1.3,0.2-2.4,0.7-3.4c0.5-1,1.2-1.9,2.3-2.7h-11.7v-2.5h25.3c0,0.2,0,0.3,0,0.5c0,0.1,0,0.3,0,0.4
		s0,0.4,0,0.6s0,0.6,0,1H477.5z"/>
	<path class="st4" d="M512.7,101.1v19.4h1.5v0.8h-5.1v-12.9l-0.5-0.5l-8.2,5.7c-0.3-0.1-0.5-0.2-0.8-0.4c-0.3-0.1-0.6-0.3-0.9-0.6
		c-0.4-0.2-0.8-0.5-1.2-0.8s-1-0.8-1.7-1.2l3,0.7c0.4-0.3,0.9-0.6,1.3-0.9c0.4-0.3,0.8-0.6,1.3-1c0.2-0.6,0.1-1.2-0.3-1.5
		c-0.4-0.4-0.9-0.5-1.7-0.5c-0.4,0-1.1,0.2-1.8,0.5c-0.9,0.4-1.4,0.6-1.7,0.6c-1.5,0-2.3-0.8-2.2-2.4c0-2.2,0.9-4,2.6-5.1
		c1.5-1.1,3.5-1.6,5.8-1.6c1.6,0,2.9,0.2,4.1,0.7c0.4,0.2,0.9,0.4,1.3,0.7c0.5,0.3,1,0.7,1.6,1.2v-3.3h7.4v2.5H512.7z M508.4,104.1
		c-1.9-1.7-4.1-2.5-6.5-2.5c-0.5,0-1.1,0.1-1.7,0.2c-0.6,0.1-1.2,0.3-1.7,0.6c-0.5,0.3-1,0.6-1.3,0.9c-0.4,0.4-0.5,0.8-0.5,1.2
		c0,0.2,0.1,0.3,0.3,0.5c0.2,0.2,0.5,0.2,0.8,0.2c0.1,0,0.2,0,0.5-0.1c0.1,0,0.2-0.1,0.3-0.1c0.1,0,0.2-0.1,0.3-0.1
		c0.3-0.1,0.6-0.2,0.8-0.2c0.3-0.1,0.5-0.1,0.7,0c0.8,0.2,1.3,0.4,1.7,0.8c0.4,0.3,0.6,0.9,0.7,1.7c0,0.4,0.2,0.6,0.6,0.7l3.2-2.5
		c0.3,0.1,0.6,0.2,0.8,0.3c0.2,0.1,0.4,0.1,0.6,0.2l0.6,0.2V104.1z"/>
	<path class="st4" d="M521.8,101.1v19.3h1.7l-0.1,0.8h-6.8l0.1-0.8h1.4v-19.3h-2.9v-2.5h10.1c0,0.4,0,0.8,0,1.1c0,0.3,0,0.8,0,1.3
		H521.8z"/>
	<path class="st4" d="M533.2,101.1c-1,0.8-1.8,1.5-2.5,2.2c-0.7,0.7-1.2,1.3-1.6,1.9c-0.9,1.5-1.4,3.4-1.4,5.6
		c0,0.7,0.1,1.5,0.2,2.2c0.1,0.8,0.4,1.6,0.7,2.5c0.3,0.9,0.8,1.9,1.3,3c0.6,1.1,1.3,2.4,2.2,3.9c-1.1-1.1-1.9-2-2.6-2.7
		c-0.7-0.8-1.3-1.4-1.7-1.9c-0.4-0.5-0.8-1-1.1-1.3s-0.5-0.7-0.7-1c-1.1-1.9-1.6-4.1-1.6-6.7c0-0.7,0.1-1.4,0.2-2
		c0.1-0.6,0.3-1.2,0.5-1.7c0.3-0.6,0.7-1.3,1.2-1.9s1.3-1.3,2.1-2.1h-5.9c0-0.4,0-0.7,0.1-0.9c0-0.2,0-0.4,0-0.5c0-0.1,0-0.3,0-0.4
		c0-0.1,0-0.4-0.1-0.7h12.9v2.5H533.2z"/>
	<path class="st4" d="M549.9,101.1v19.8c-0.9-0.6-1.7-1.2-2.4-1.6c-0.7-0.4-1.4-0.9-2.2-1.3c-1.2-0.6-2.1-1.2-2.9-1.6
		c-0.7-0.4-1.2-0.7-1.5-0.9c-1.7-1.1-3-2.3-3.8-3.4c-0.9-1.2-1.3-2.4-1.3-3.6c0-2.1,1.4-3.7,4.1-4.9h6.2v-2.3h-12.7v-2.5h20.6v2.5
		c-0.4,0-0.7,0-0.9,0s-0.4,0-0.6,0H549.9z M540.7,119.4c-0.5,0.3-1.1,0.5-1.8,0.5c-0.7,0-1.3-0.2-1.8-0.5c-0.5-0.4-0.8-0.9-0.8-1.5
		c0-0.6,0.2-1,0.7-1.4c0.4-0.4,1-0.6,1.6-0.6c1,0,1.7,0.2,2.3,0.5c0.5,0.3,0.8,0.8,0.8,1.5C541.6,118.6,541.3,119.1,540.7,119.4z
		 M546.3,105h-4c-1.6,1-2.4,2.3-2.4,3.9c0,1.1,0.8,2.4,2.3,3.8c0.4,0.3,0.9,0.7,1.6,1.2c0.7,0.5,1.5,1.1,2.6,1.8V105z"/>
	<path class="st4" d="M569,101.1v19.3h1.7v0.8h-6.5l-0.1-0.9h1.3v-12.7l-3.4-2.1c-1.4,0.4-2.3,0.7-2.8,1.1c-0.8,0.6-1.2,1.4-1.2,2.6
		v0.1c0,0.1,0,0.2,0.1,0.4c0,0.1,0,0.3,0,0.5v1.1c0,0.5,0.1,1,0.2,1.5s0.3,1.1,0.5,1.7c0,0.1,0.1,0.2,0.2,0.3
		c0.1,0.1,0.2,0.4,0.4,0.7c0.2,0.3,0.4,0.8,0.8,1.4c0.3,0.6,0.8,1.3,1.3,2.3c-0.8-0.8-1.4-1.4-2-2c-0.5-0.5-1-1-1.3-1.4
		c-0.4-0.4-0.7-0.7-1-1c-0.3-0.3-0.5-0.6-0.8-0.8c-1.1-1.2-1.7-2.9-1.7-5c0-1.8,1-3.2,2.9-4.4c1-0.6,2-1,2.9-1c0.8,0,1.4,0,1.7,0
		c0.9,0.2,1.8,0.8,2.8,1.7l0.5,0.4v-4.6h-12.9v-2.5h20.7v2.5H569z"/>
	<path class="st4" d="M587.9,101.1v19.3h1.7v0.8h-6.5l-0.1-0.9h1.3v-12.7l-3.4-2.1c-1.4,0.4-2.3,0.7-2.8,1.1
		c-0.8,0.6-1.2,1.4-1.2,2.6v0.1c0,0.1,0,0.2,0.1,0.4c0,0.1,0,0.3,0,0.5v1.1c0,0.5,0.1,1,0.2,1.5s0.3,1.1,0.5,1.7
		c0,0.1,0.1,0.2,0.2,0.3c0.1,0.1,0.2,0.4,0.4,0.7c0.2,0.3,0.4,0.8,0.8,1.4c0.3,0.6,0.8,1.3,1.3,2.3c-0.8-0.8-1.4-1.4-2-2
		c-0.5-0.5-1-1-1.3-1.4c-0.4-0.4-0.7-0.7-1-1c-0.3-0.3-0.5-0.6-0.8-0.8c-1.1-1.2-1.7-2.9-1.7-5c0-1.8,1-3.2,2.9-4.4c1-0.6,2-1,2.9-1
		c0.8,0,1.4,0,1.7,0c0.9,0.2,1.8,0.8,2.8,1.7l0.5,0.4v-4.6h-12.9v-2.5h20.7v2.5H587.9z"/>
	<path class="st4" d="M598,101.1v19.2h1v1.1h-5.6v-1.1h0.9v-19.2h-3.8v-2.5h3.7c0-0.2,0.1-0.5,0.1-0.7c0-0.2,0-0.4,0-0.7
		c0-0.2,0-0.4,0-0.7c0-0.2-0.1-0.5-0.2-0.7c-0.8-0.6-2.2-0.9-4.1-0.9c-2.4,0-5.2,0.5-8.6,1.5l-0.4-0.8c1.4-0.7,3.2-1.3,5.6-1.9
		c2.8-0.7,4.9-1.1,6.3-1.1c1,0,1.9,0.2,2.7,0.6c0.7,0.4,1.3,0.9,1.8,1.7c0.3,0.6,0.5,1.9,0.6,3.7h4.5v2.5H598z"/>
	<path class="st4" d="M139.1,148.6c1.3,1,2.2,2.3,2.7,3.8c0.6,1.5,0.8,3.3,0.8,5.4c0,2.7-0.7,5-2.1,6.9c-1.7,2.5-4.1,3.7-7.2,3.7
		c-1.5,0-2.8-0.4-3.9-1.1c-2-1.4-3.4-2.7-4.3-4c-0.7-1.1-1.6-3-2.5-5.7c-0.2-0.6-0.4-1.5-0.6-2.8c-0.1-0.5-0.2-1-0.3-1.5
		c-0.1-0.5-0.3-1-0.5-1.6l5.2-0.4c-0.1,0.9-0.2,1.7-0.2,2.2c0,0.6,0,1,0,1.4c0,1.3,0.1,2.5,0.3,3.7c0.2,1.2,0.6,2.4,1,3.6
		c0.7,1.7,1.5,2.9,2.4,3.7s2,1.2,3.2,1.2c2.1,0,3.6-1.3,4.6-3.9c0.7-1.8,1-3.8,1-5.9c0-1.8-0.2-3.5-0.6-5.1
		c-0.3-1.2-0.7-2.1-1.2-2.6c-0.4-0.5-0.9-0.8-1.5-0.8c-0.5,0-1,0.2-1.4,0.7c-0.4,0.5-0.8,1.3-1.2,2.4c-0.4,1.5-0.7,3-0.7,4.4
		c0,0.6,0.1,1.2,0.2,1.8c0.1,0.6,0.4,1.4,0.8,2.4c-0.8-0.4-1.5-0.9-2.1-1.3c-0.6-0.4-1-0.9-1.4-1.4c-0.4-0.5-0.6-1-0.8-1.5
		c-0.2-0.5-0.2-1.1-0.2-1.7c0-1.3,0.2-2.4,0.7-3.4s1.2-1.9,2.3-2.7h-11.7v-2.5h25.3c0,0.2,0,0.3,0,0.5c0,0.1,0,0.3,0,0.4
		c0,0.2,0,0.4,0,0.6c0,0.2,0,0.6,0,1H139.1z"/>
	<path class="st4" d="M150.5,148.6v19.3h1.7l-0.1,0.8h-6.8l0.1-0.8h1.4v-19.3h-2.9v-2.5H154c0,0.4,0,0.8,0,1.1c0,0.3,0,0.8,0,1.3
		H150.5z"/>
	<path class="st4" d="M168.2,148.6v19.8c-0.9-0.7-1.7-1.2-2.4-1.6c-0.7-0.4-1.4-0.9-2.2-1.3c-1.2-0.6-2.1-1.2-2.9-1.6
		c-0.7-0.4-1.2-0.7-1.5-0.9c-1.7-1.1-3-2.3-3.8-3.4c-0.9-1.2-1.3-2.4-1.3-3.6c0-2.1,1.4-3.7,4.1-4.9h6.2v-2.3h-12.7v-2.5h20.6v2.5
		c-0.4,0-0.7,0-0.9,0c-0.2,0-0.4,0-0.6,0H168.2z M158.9,166.9c-0.5,0.3-1.1,0.5-1.8,0.5c-0.7,0-1.3-0.2-1.8-0.5
		c-0.5-0.4-0.8-0.9-0.8-1.5c0-0.6,0.2-1,0.7-1.4c0.4-0.4,1-0.6,1.6-0.6c1,0,1.7,0.2,2.3,0.5c0.5,0.3,0.8,0.8,0.8,1.5
		C159.8,166.1,159.5,166.6,158.9,166.9z M164.5,152.5h-4c-1.6,1-2.4,2.3-2.4,3.9c0,1.1,0.8,2.4,2.3,3.8c0.4,0.3,0.9,0.7,1.6,1.2
		c0.7,0.5,1.5,1.1,2.6,1.8V152.5z"/>
	<path class="st4" d="M177.2,148.6v19.3h1.7l-0.1,0.8H172l0.1-0.8h1.4v-19.3h-2.9v-2.5h10.1c0,0.4,0,0.8,0,1.1c0,0.3,0,0.8,0,1.3
		H177.2z"/>
	<path class="st4" d="M209.9,148.6v19.2h1.4v1h-6.6v-1h1.5v-10.4l-2.2-1.6c-0.4,0.4-1,1-1.6,1.7s-1.4,1.5-2.3,2.4
		c-1,1-1.9,1.8-2.6,2.3c-0.8,0.5-1.4,0.8-1.9,0.8c-0.8,0-1.5-0.1-2.3-0.4c-0.8-0.3-1.7-0.8-2.6-1.4l0.1-1.9c0.8,0.6,1.3,1,1.7,1.2
		c0.4,0.2,0.7,0.3,1,0.3c0.8,0,1.8-0.6,3-1.8c0.6-0.6,1.1-1.2,1.3-1.7c0.3-0.5,0.4-0.9,0.4-1.3c0-0.6-0.1-1.1-0.3-1.4
		c-0.2-0.3-0.5-0.4-0.9-0.4c-0.4,0-1,0.2-1.7,0.5l-1.8,0.8c-1-0.2-1.7-0.5-2.1-0.8c-0.5-0.4-0.7-1-0.7-1.9c0-0.6,0.6-1.9,1.9-3.9
		h-4.4v-2.5h25.7v2.5H209.9z M206.2,148.6H195c-0.3,0.3-0.5,0.7-0.7,1c-0.2,0.4-0.4,0.7-0.6,1.1c-0.1,0.2-0.2,0.5-0.2,0.7
		c0,0.2,0.1,0.3,0.2,0.4s0.3,0.1,0.7,0.1c0.4,0,1-0.1,1.8-0.4c0.4-0.1,0.8-0.2,1.1-0.3c0.3-0.1,0.6-0.1,0.8-0.1
		c0.7,0,1.3,0.3,1.6,0.8c0.3,0.5,0.5,1.3,0.5,2.3c0,0.2,0,0.4,0,0.6s0,0.5-0.1,0.8l3.5-2.7c0.4,0.2,0.8,0.4,1.2,0.7
		c0.4,0.3,0.9,0.6,1.4,1V148.6z"/>
	<path class="st4" d="M219.1,148.6c-0.4,0.4-0.6,0.8-0.8,1.1c-0.2,0.4-0.2,0.7-0.2,1.1c0,0.2,0.1,0.4,0.2,0.6
		c0.1,0.2,0.4,0.5,0.7,0.9c0.2,0.2,0.4,0.4,0.6,0.6c0.2,0.2,0.5,0.5,0.9,0.9c1.1,1.1,1.6,2.1,1.6,2.9c0,1.3-0.3,2.7-0.8,4.2
		c-0.6,1.5-1.4,3-2.5,4.5l-0.7-0.4c0.1-0.2,0.2-0.4,0.3-0.6c0.1-0.2,0.2-0.5,0.3-0.7c0.3-0.9,0.6-1.6,0.7-2.2s0.2-1.1,0.2-1.5
		c0-1.3-0.3-2.5-0.9-3.6c-0.2-0.4-0.7-1.2-1.6-2.4c-0.7-0.9-1-1.7-1-2.5c0-1.1,0.3-2.1,1-3h-4.6v-2.5H224v2.5H219.1z"/>
	<path class="st4" d="M229.2,148.6v19.3h1.7l-0.1,0.8h-6.8l0.1-0.8h1.4v-19.3h-2.9v-2.5h10.1c0,0.4,0,0.8,0,1.1c0,0.3,0,0.8,0,1.3
		H229.2z"/>
	<path class="st4" d="M240.6,148.6c-1,0.8-1.8,1.5-2.5,2.2c-0.7,0.7-1.2,1.3-1.6,1.9c-0.9,1.5-1.4,3.4-1.4,5.6
		c0,0.7,0.1,1.5,0.2,2.2c0.1,0.8,0.4,1.6,0.7,2.5c0.3,0.9,0.8,1.9,1.3,3c0.6,1.1,1.3,2.4,2.2,3.9c-1.1-1.1-1.9-2-2.6-2.7
		c-0.7-0.8-1.3-1.4-1.7-1.9c-0.4-0.5-0.8-1-1.1-1.3c-0.3-0.4-0.5-0.7-0.7-1c-1.1-1.9-1.6-4.1-1.6-6.7c0-0.7,0.1-1.4,0.2-2
		c0.1-0.6,0.3-1.2,0.5-1.7c0.3-0.6,0.7-1.3,1.2-1.9c0.5-0.6,1.3-1.3,2.1-2.1H230c0-0.4,0-0.7,0.1-0.9c0-0.2,0-0.4,0-0.5
		c0-0.1,0-0.3,0-0.4c0-0.1,0-0.4-0.1-0.7h12.9v2.5H240.6z"/>
	<path class="st4" d="M257.3,148.6v19.8c-0.9-0.7-1.7-1.2-2.4-1.6c-0.7-0.4-1.4-0.9-2.2-1.3c-1.2-0.6-2.1-1.2-2.9-1.6
		c-0.7-0.4-1.2-0.7-1.5-0.9c-1.7-1.1-3-2.3-3.8-3.4c-0.9-1.2-1.3-2.4-1.3-3.6c0-2.1,1.4-3.7,4.1-4.9h6.2v-2.3H241v-2.5h20.6v2.5
		c-0.4,0-0.7,0-0.9,0c-0.2,0-0.4,0-0.6,0H257.3z M248.1,166.9c-0.5,0.3-1.1,0.5-1.8,0.5c-0.7,0-1.3-0.2-1.8-0.5
		c-0.5-0.4-0.8-0.9-0.8-1.5c0-0.6,0.2-1,0.7-1.4c0.4-0.4,1-0.6,1.6-0.6c1,0,1.7,0.2,2.3,0.5c0.5,0.3,0.8,0.8,0.8,1.5
		C249,166.1,248.7,166.6,248.1,166.9z M253.6,152.5h-4c-1.6,1-2.4,2.3-2.4,3.9c0,1.1,0.8,2.4,2.3,3.8c0.4,0.3,0.9,0.7,1.6,1.2
		c0.7,0.5,1.5,1.1,2.6,1.8V152.5z"/>
	<path class="st4" d="M276.2,148.6v19.8c-0.9-0.7-1.7-1.2-2.4-1.6c-0.7-0.4-1.4-0.9-2.2-1.3c-1.2-0.6-2.1-1.2-2.9-1.6
		c-0.7-0.4-1.2-0.7-1.5-0.9c-1.7-1.1-3-2.3-3.8-3.4c-0.9-1.2-1.3-2.4-1.3-3.6c0-2.1,1.4-3.7,4.1-4.9h6.2v-2.3h-12.7v-2.5h20.6v2.5
		c-0.4,0-0.7,0-0.9,0c-0.2,0-0.4,0-0.6,0H276.2z M266.9,166.9c-0.5,0.3-1.1,0.5-1.8,0.5c-0.7,0-1.3-0.2-1.8-0.5
		c-0.5-0.4-0.8-0.9-0.8-1.5c0-0.6,0.2-1,0.7-1.4c0.4-0.4,1-0.6,1.6-0.6c1,0,1.7,0.2,2.3,0.5c0.5,0.3,0.8,0.8,0.8,1.5
		C267.8,166.1,267.5,166.6,266.9,166.9z M272.5,152.5h-4c-1.6,1-2.4,2.3-2.4,3.9c0,1.1,0.8,2.4,2.3,3.8c0.4,0.3,0.9,0.7,1.6,1.2
		c0.7,0.5,1.5,1.1,2.6,1.8V152.5z"/>
	<path class="st4" d="M310.1,148.6v19.2h1.4v1h-6.6v-1h1.5v-10.4l-2.2-1.6c-0.4,0.4-1,1-1.6,1.7s-1.4,1.5-2.3,2.4
		c-1,1-1.9,1.8-2.6,2.3c-0.8,0.5-1.4,0.8-1.9,0.8c-0.8,0-1.5-0.1-2.3-0.4c-0.8-0.3-1.7-0.8-2.6-1.4l0.1-1.9c0.8,0.6,1.3,1,1.7,1.2
		c0.4,0.2,0.7,0.3,1,0.3c0.8,0,1.8-0.6,3-1.8c0.6-0.6,1.1-1.2,1.3-1.7c0.3-0.5,0.4-0.9,0.4-1.3c0-0.6-0.1-1.1-0.3-1.4
		c-0.2-0.3-0.5-0.4-0.9-0.4c-0.4,0-1,0.2-1.7,0.5l-1.8,0.8c-1-0.2-1.7-0.5-2.1-0.8c-0.5-0.4-0.7-1-0.7-1.9c0-0.6,0.6-1.9,1.9-3.9
		h-4.4v-2.5H314v2.5H310.1z M306.4,148.6h-11.2c-0.3,0.3-0.5,0.7-0.7,1c-0.2,0.4-0.4,0.7-0.6,1.1c-0.1,0.2-0.2,0.5-0.2,0.7
		c0,0.2,0.1,0.3,0.2,0.4s0.3,0.1,0.7,0.1c0.4,0,1-0.1,1.8-0.4c0.4-0.1,0.8-0.2,1.1-0.3c0.3-0.1,0.6-0.1,0.8-0.1
		c0.7,0,1.3,0.3,1.6,0.8c0.3,0.5,0.5,1.3,0.5,2.3c0,0.2,0,0.4,0,0.6s0,0.5-0.1,0.8l3.5-2.7c0.4,0.2,0.8,0.4,1.2,0.7
		c0.4,0.3,0.9,0.6,1.4,1V148.6z"/>
	<path class="st4" d="M319.1,148.6v19.3h1.7l-0.1,0.8h-6.8l0.1-0.8h1.4v-19.3h-2.9v-2.5h10.1c0,0.4,0,0.8,0,1.1c0,0.3,0,0.8,0,1.3
		H319.1z"/>
	<path class="st4" d="M330.6,148.6c-1,0.8-1.8,1.5-2.5,2.2c-0.7,0.7-1.2,1.3-1.6,1.9c-0.9,1.5-1.4,3.4-1.4,5.6
		c0,0.7,0.1,1.5,0.2,2.2c0.1,0.8,0.4,1.6,0.7,2.5c0.3,0.9,0.8,1.9,1.3,3c0.6,1.1,1.3,2.4,2.2,3.9c-1.1-1.1-1.9-2-2.6-2.7
		c-0.7-0.8-1.3-1.4-1.7-1.9c-0.4-0.5-0.8-1-1.1-1.3c-0.3-0.4-0.5-0.7-0.7-1c-1.1-1.9-1.6-4.1-1.6-6.7c0-0.7,0.1-1.4,0.2-2
		c0.1-0.6,0.3-1.2,0.5-1.7c0.3-0.6,0.7-1.3,1.2-1.9c0.5-0.6,1.3-1.3,2.1-2.1H320c0-0.4,0-0.7,0.1-0.9c0-0.2,0-0.4,0-0.5
		c0-0.1,0-0.3,0-0.4c0-0.1,0-0.4-0.1-0.7h12.9v2.5H330.6z"/>
	<path class="st4" d="M349.1,148.6v19.8c-0.2,0-0.3,0.1-0.4,0.1s-0.1,0-0.1,0c-1.9-0.1-4.5-0.8-7.8-2.2c-3.5-1.4-5.8-2.8-6.9-4.1
		c-0.1-0.1-0.3-0.4-0.5-0.8c-0.2-0.4-0.6-1-1.1-1.8c1.7-0.7,3.1-1.4,4.2-2.1c1.2-0.7,2.2-1.6,3-2.5c0.3-1.1,0.4-1.9,0.5-2.4
		c0.1-0.5,0.2-0.9,0.2-1c0-0.4,0-0.7-0.1-1.1s-0.2-0.8-0.4-1.2c-0.3-0.5-0.5-0.9-0.9-1.2c-0.3-0.2-0.6-0.4-1-0.4
		c-0.3,0-0.5,0.1-0.9,0.4c-0.3,0.3-0.7,0.8-1.1,1.4c-0.6,1.1-0.9,1.9-0.9,2.6c0,0.3,0.1,0.8,0.2,1.6c0.2,0.8,0.4,1.9,0.8,3.5
		c-1.5-1.2-2.6-2.3-3.2-3.3c-0.6-0.9-0.9-1.9-0.9-2.8c0-1.5,0.5-2.7,1.6-3.7c1.1-1,2.4-1.5,3.9-1.5c1.5,0,2.9,0.5,4.2,1.5
		c1.3,1,1.9,2.2,1.9,3.7c0,2.3-1.2,4.3-3.5,5.9c-0.6,0.3-1.3,0.7-2,1.1c-0.7,0.4-1.6,1-2.5,1.6c0.4,0.9,0.9,1.6,1.6,2.3
		c0.7,0.7,1.5,1.2,2.5,1.7l5.7,2.1v-20h7.4v2.5H349.1z"/>
	<path class="st4" d="M371.4,148.6c-1,0.8-1.8,1.5-2.5,2.2c-0.7,0.7-1.2,1.3-1.6,1.9c-0.5,0.8-0.8,1.6-1.1,2.5
		c-0.2,0.9-0.4,1.9-0.4,3c0,0.7,0.1,1.5,0.2,2.2c0.1,0.7,0.3,1.6,0.7,2.5s0.8,1.9,1.4,3.1s1.3,2.4,2.2,3.9c-1.1-1.1-1.9-2-2.6-2.7
		c-0.7-0.8-1.3-1.4-1.7-1.9s-0.8-1-1.1-1.3c-0.3-0.4-0.5-0.7-0.6-1c-1.1-1.9-1.7-4.1-1.7-6.7c0-1,0-1.8,0.1-2.5
		c0.1-0.7,0.2-1.3,0.5-1.7c1.4-2.7,3.7-4.7,6.9-6h3.7v2.5H371.4z"/>
	<path class="st4" d="M390,148.6v19.9c-0.4-0.2-0.6-0.3-0.7-0.3c-0.1,0-0.2-0.1-0.3-0.1c-0.4-0.2-1-0.3-1.6-0.6
		c-0.3-0.1-0.6-0.2-0.9-0.3s-0.5-0.2-0.7-0.3c-0.3-0.1-0.5-0.2-0.7-0.3c-0.9-0.3-1.7-0.6-2.5-1c-0.8-0.3-1.5-0.7-2.1-1
		c-1.5-0.8-2.8-1.9-3.9-3.1c-1.1-1.2-2.1-2.7-2.9-4.5c0.7-0.4,1.3-0.7,1.9-1c0.6-0.3,1.2-0.6,1.8-1c0.8-0.5,1.4-0.9,1.9-1.2
		c0.5-0.3,1-0.5,1.3-0.7c-0.7-0.9-1.4-1.7-2.2-2.5c-0.8-0.8-1.7-1.4-2.7-2.1h-3.9v-2.5h21.9l0.1,2.5H390z M386.3,148.6h-5.9
		c0.3,0.3,0.5,0.6,0.8,0.9c0.3,0.3,0.5,0.6,0.8,1c0.3,0.4,0.6,0.8,0.9,1.2s0.6,1,0.9,1.5c-0.8,0.5-1.7,1.1-2.7,1.7
		c-1,0.6-2.2,1.3-3.6,2c0.3,1.5,0.9,2.8,1.9,3.9c1,1.2,2.4,2.2,4.1,3l2.8,1.3V148.6z"/>
	<path class="st4" d="M399,148.6v19.3h1.7l-0.1,0.8h-6.8l0.1-0.8h1.4v-19.3h-2.9v-2.5h10.1c0,0.4,0,0.8,0,1.1s0,0.8,0,1.3H399z"/>
	<path class="st4" d="M419.5,148.6V168h1.5v0.9h-6.7v-0.8h1.4v-15.6c0-0.1-0.1-0.3-0.2-0.5c-0.1-0.2-0.3-0.5-0.5-0.8
		c-0.2-0.4-0.4-0.7-0.6-0.9c-0.2-0.2-0.3-0.4-0.4-0.5c-0.5-0.6-1.3-1.1-2.4-1.5c-1-0.4-2-0.6-3-0.6c-1.3,0-2.5,0.4-3.6,1.3
		c-1.1,0.9-1.6,1.9-1.6,3.1c0,0.6,0.4,1,1.1,1.2c0.9-0.5,1.8-0.9,2.6-1.1c0.8-0.2,1.6-0.4,2.3-0.4c1.2,0,2.2,0.4,3,1.1
		c0.8,0.7,1.2,1.7,1.2,2.8c0,0.7-0.2,1.3-0.5,2.1c-0.3,0.7-0.9,1.5-1.8,2.4c-0.8,0.9-1.9,1.9-3.3,3c-1.4,1.1-3,2.4-5,3.8
		c0.9-1,1.6-1.8,2.2-2.4c0.6-0.6,1.1-1.2,1.4-1.6c0.4-0.4,0.7-0.8,0.9-1c0.2-0.3,0.5-0.5,0.7-0.8c1.3-1.5,2-3.1,2-4.6
		c0-0.6-0.1-1.1-0.4-1.4s-0.6-0.4-1.1-0.4c-0.3,0-1.1,0.3-2.4,0.8c-1.3,0.5-2.2,0.8-2.8,0.8c-0.9,0-1.6-0.3-2.2-0.8
		c-0.6-0.6-0.8-1.3-0.8-2c0-2.1,0.9-3.9,2.6-5.4s3.7-2.3,5.8-2.3c1.5,0,3,0.5,4.3,1.4c0.5,0.3,0.9,0.7,1.3,1.1
		c0.4,0.4,0.7,0.9,1,1.4v-3.5h7.7v2.5H419.5z"/>
	<path class="st4" d="M428.5,148.6v19.3h1.7l-0.1,0.8h-6.8l0.1-0.8h1.4v-19.3h-2.9v-2.5H432c0,0.4,0,0.8,0,1.1c0,0.3,0,0.8,0,1.3
		H428.5z"/>
	<path class="st4" d="M439.9,148.6c-1,0.8-1.8,1.5-2.5,2.2c-0.7,0.7-1.2,1.3-1.6,1.9c-0.9,1.5-1.4,3.4-1.4,5.6
		c0,0.7,0.1,1.5,0.2,2.2c0.1,0.8,0.4,1.6,0.7,2.5c0.3,0.9,0.8,1.9,1.3,3s1.3,2.4,2.2,3.9c-1.1-1.1-1.9-2-2.6-2.7s-1.3-1.4-1.7-1.9
		c-0.4-0.5-0.8-1-1.1-1.3c-0.3-0.4-0.5-0.7-0.7-1c-1.1-1.9-1.6-4.1-1.6-6.7c0-0.7,0.1-1.4,0.2-2c0.1-0.6,0.3-1.2,0.5-1.7
		c0.3-0.6,0.7-1.3,1.2-1.9c0.5-0.6,1.3-1.3,2.1-2.1h-5.9c0-0.4,0-0.7,0.1-0.9c0-0.2,0-0.4,0-0.5c0-0.1,0-0.3,0-0.4
		c0-0.1,0-0.4-0.1-0.7h12.9v2.5H439.9z"/>
	<path class="st4" d="M458.4,148.6v19.9c-0.4-0.2-0.6-0.3-0.7-0.3c-0.1,0-0.2-0.1-0.3-0.1c-0.4-0.2-1-0.3-1.6-0.6
		c-0.3-0.1-0.6-0.2-0.9-0.3c-0.3-0.1-0.5-0.2-0.7-0.3c-0.3-0.1-0.5-0.2-0.7-0.3c-0.9-0.3-1.7-0.6-2.5-1c-0.8-0.3-1.5-0.7-2.1-1
		c-1.5-0.8-2.8-1.9-3.9-3.1s-2.1-2.7-2.9-4.5c0.7-0.4,1.3-0.7,1.9-1c0.6-0.3,1.2-0.6,1.8-1c0.8-0.5,1.4-0.9,1.9-1.2
		c0.5-0.3,1-0.5,1.3-0.7c-0.7-0.9-1.4-1.7-2.2-2.5c-0.8-0.8-1.7-1.4-2.7-2.1h-3.9v-2.5h21.9l0.1,2.5H458.4z M454.8,148.6h-5.9
		c0.3,0.3,0.5,0.6,0.8,0.9c0.3,0.3,0.5,0.6,0.8,1c0.3,0.4,0.6,0.8,0.9,1.2s0.6,1,0.9,1.5c-0.8,0.5-1.7,1.1-2.7,1.7
		c-1,0.6-2.2,1.3-3.6,2c0.3,1.5,0.9,2.8,1.9,3.9c1,1.2,2.4,2.2,4.1,3l2.8,1.3V148.6z"/>
	<path class="st4" d="M467.5,148.6v19.3h1.7l-0.1,0.8h-6.8l0.1-0.8h1.4v-19.3h-2.9v-2.5H471c0,0.4,0,0.8,0,1.1c0,0.3,0,0.8,0,1.3
		H467.5z"/>
	<path class="st4" d="M488,148.6V168h1.5v0.9h-6.7v-0.8h1.4v-15.6c0-0.1-0.1-0.3-0.2-0.5c-0.1-0.2-0.3-0.5-0.5-0.8
		c-0.2-0.4-0.4-0.7-0.6-0.9c-0.2-0.2-0.3-0.4-0.4-0.5c-0.5-0.6-1.3-1.1-2.4-1.5c-1-0.4-2-0.6-3-0.6c-1.3,0-2.5,0.4-3.6,1.3
		c-1.1,0.9-1.6,1.9-1.6,3.1c0,0.6,0.4,1,1.1,1.2c0.9-0.5,1.8-0.9,2.6-1.1c0.8-0.2,1.6-0.4,2.3-0.4c1.2,0,2.2,0.4,3,1.1
		c0.8,0.7,1.2,1.7,1.2,2.8c0,0.7-0.2,1.3-0.5,2.1c-0.3,0.7-0.9,1.5-1.8,2.4c-0.8,0.9-1.9,1.9-3.3,3c-1.4,1.1-3,2.4-5.1,3.8
		c0.9-1,1.6-1.8,2.2-2.4c0.6-0.6,1.1-1.2,1.4-1.6c0.4-0.4,0.7-0.8,0.9-1c0.2-0.3,0.5-0.5,0.7-0.8c1.3-1.5,2-3.1,2-4.6
		c0-0.6-0.1-1.1-0.4-1.4s-0.6-0.4-1.1-0.4c-0.3,0-1.1,0.3-2.4,0.8c-1.3,0.5-2.2,0.8-2.8,0.8c-0.9,0-1.6-0.3-2.2-0.8
		c-0.6-0.6-0.9-1.3-0.9-2c0-2.1,0.9-3.9,2.6-5.4c1.7-1.5,3.7-2.3,5.8-2.3c1.5,0,3,0.5,4.3,1.4c0.5,0.3,0.9,0.7,1.3,1.1
		c0.4,0.4,0.7,0.9,1,1.4v-3.5h7.7v2.5H488z"/>
	<path class="st4" d="M517.5,148.6v3.3h1.3c2.1,0,3.5,0.2,4.4,0.6c1.1,0.5,1.7,1.6,1.7,3.2c0,1.1-0.6,2.4-1.9,4.1
		c-0.2,0.3-0.4,0.5-0.7,0.8c-0.2,0.3-0.5,0.6-0.9,1c-0.4,0.4-0.8,0.8-1.3,1.3c-0.5,0.5-1.1,1.1-1.9,1.8c0.6-1.2,1.2-2.3,1.6-3.2
		c0.4-0.9,0.8-1.7,1-2.5s0.4-1.4,0.5-2s0.1-1.2,0.1-1.7c0-0.6-0.1-1-0.4-1.3c-0.1-0.1-0.2-0.2-0.4-0.4c-0.2-0.1-0.4-0.3-0.7-0.5
		h-2.4v15.4c-4.6-2.2-8.1-4.4-10.3-6.5s-3.3-4.3-3.3-6.4c0-1.6,0.9-2.7,2.6-3.2c0.5-0.2,1.1-0.3,1.8-0.4c0.7-0.1,1.6-0.1,2.6,0
		l2.9,0.1v-3.4h-14v-2.5h27.8v2.5H517.5z M513.8,153.2h-3.4c-0.9,0.3-1.5,0.8-1.8,1.2c-0.1,0.2-0.3,0.5-0.3,0.9s-0.1,0.8-0.1,1.3
		c0,1.5,0.6,3.1,1.9,4.9c1.1,1.4,2.3,2.5,3.8,3.3V153.2z"/>
	<path class="st4" d="M541.1,148.6v19.8c-0.9-0.7-1.7-1.2-2.4-1.6c-0.7-0.4-1.4-0.9-2.2-1.3c-1.2-0.6-2.1-1.2-2.9-1.6
		c-0.7-0.4-1.2-0.7-1.5-0.9c-1.7-1.1-3-2.3-3.8-3.4c-0.9-1.2-1.3-2.4-1.3-3.6c0-2.1,1.4-3.7,4.1-4.9h6.2v-2.3h-12.7v-2.5h20.6v2.5
		c-0.4,0-0.7,0-0.9,0s-0.4,0-0.6,0H541.1z M531.9,166.9c-0.5,0.3-1.1,0.5-1.8,0.5c-0.7,0-1.3-0.2-1.8-0.5c-0.5-0.4-0.8-0.9-0.8-1.5
		c0-0.6,0.2-1,0.7-1.4c0.4-0.4,1-0.6,1.6-0.6c1,0,1.7,0.2,2.3,0.5c0.5,0.3,0.8,0.8,0.8,1.5C532.8,166.1,532.5,166.6,531.9,166.9z
		 M537.4,152.5h-4c-1.6,1-2.4,2.3-2.4,3.9c0,1.1,0.8,2.4,2.3,3.8c0.4,0.3,0.9,0.7,1.6,1.2c0.7,0.5,1.5,1.1,2.6,1.8V152.5z"/>
	<path class="st4" d="M546.7,160.2c-0.7,0.7-1.5,1-2.3,1c-1.7,0-3.3-0.9-4.7-2.7v-2.2c0.7,0.8,1.3,1.3,1.7,1.5
		c0.5,0.2,1,0.4,1.6,0.4c0.5,0,0.9-0.2,1.2-0.5c0.3-0.3,0.4-0.9,0.4-1.6c0-0.2,0-0.4,0-0.7c0-0.2-0.1-0.5-0.1-0.8
		c-0.1-0.3-0.1-0.7-0.2-1.2s-0.2-1-0.4-1.6c0.8,0.8,1.4,1.4,1.9,2s0.9,1.1,1.2,1.6c0.3,0.5,0.5,0.9,0.7,1.3s0.2,0.8,0.2,1.1
		C547.7,158.8,547.4,159.5,546.7,160.2z M541.4,148.6v-2.5h9.2v2.5H541.4z"/>
	<path class="st4" d="M565.6,148.6v19.3h1.7v0.8h-6.5l-0.1-0.9h1.3v-12.7l-3.4-2c-1.4,0.4-2.3,0.7-2.8,1.1c-0.8,0.6-1.2,1.4-1.2,2.6
		v0.1c0,0.1,0,0.2,0.1,0.4s0,0.3,0,0.5v1.1c0,0.5,0.1,1,0.2,1.5s0.3,1.1,0.5,1.7c0,0.1,0.1,0.2,0.2,0.3c0.1,0.1,0.2,0.4,0.4,0.7
		c0.2,0.3,0.4,0.8,0.8,1.4c0.3,0.6,0.8,1.3,1.3,2.3c-0.8-0.8-1.4-1.4-2-2c-0.5-0.5-1-1-1.3-1.4c-0.4-0.4-0.7-0.7-1-1
		c-0.3-0.3-0.5-0.6-0.8-0.8c-1.1-1.2-1.7-2.9-1.7-5c0-1.8,1-3.2,2.9-4.4c1-0.6,2-1,2.9-1c0.8,0,1.4,0,1.7,0c0.9,0.2,1.8,0.8,2.8,1.7
		l0.5,0.4v-4.6H549v-2.5h20.7v2.5H565.6z"/>
	<path class="st4" d="M577.8,168.6v-23.3h3.7v23.3H577.8z"/>
</g>
<g>
</g>
<g>
</g>
<g>
</g>
<g>
</g>
<g>
</g>
<g>
</g>
<g>
</g>
<g>
</g>
<g>
</g>
<g>
</g>
<g>
</g>
<g>
</g>
<g>
</g>
<g>
</g>
<g>
</g>
</svg>
