<?xml version="1.0" encoding="utf-8"?>
<!-- Generator: Adobe Illustrator 21.0.0, SVG Export Plug-In . SVG Version: 6.00 Build 0)  -->
<svg version="1.1" id="Layer_1" xmlns="http://www.w3.org/2000/svg" xmlns:xlink="http://www.w3.org/1999/xlink" x="0px" y="0px"
	 viewBox="0 0 721 216" style="enable-background:new 0 0 721 216;" xml:space="preserve">
<style type="text/css">
	.st0{opacity:0.8;fill:#FFFDFF;}
	.st1{fill:#00A99D;}
	.st2{fill:#1B1464;}
	.st3{fill:#FFFFFF;}
	.st4{fill:#FF00F6;}
</style>
<rect x="1" y="1" class="st0" width="721" height="216"/>
<g>
	<g>
		<path class="st1" d="M323,79.5c-6.3,0-11.5-5.2-11.5-11.5V27c0-6.3,5.2-11.5,11.5-11.5h46c6.3,0,11.5,5.2,11.5,11.5v41
			c0,6.3-5.2,11.5-11.5,11.5H323z"/>
		<path class="st2" d="M369,16c6.1,0,11,4.9,11,11v41c0,6.1-4.9,11-11,11h-46c-6.1,0-11-4.9-11-11V27c0-6.1,4.9-11,11-11H369
			 M369,15h-46c-6.6,0-12,5.4-12,12v41c0,6.6,5.4,12,12,12h46c6.6,0,12-5.4,12-12V27C381,20.4,375.6,15,369,15L369,15z"/>
	</g>
	<g>
		<path class="st3" d="M332,28.2c3.8,0,6.8,1.3,8.9,3.9c2.6,3,3.8,8.1,3.8,15.2c0,7-1.3,12.1-3.9,15.2c-2.1,2.5-5.1,3.8-8.9,3.8
			c-3.8,0-6.9-1.4-9.2-4.2c-2.3-2.8-3.5-7.7-3.5-14.9c0-7,1.3-12.1,3.9-15.1C325.3,29.5,328.2,28.2,332,28.2z M332,34.2
			c-0.9,0-1.7,0.3-2.4,0.8c-0.7,0.6-1.3,1.5-1.7,3c-0.5,1.8-0.8,5-0.8,9.3s0.2,7.4,0.7,9c0.5,1.6,1,2.7,1.8,3.3
			c0.7,0.5,1.5,0.8,2.4,0.8c0.9,0,1.7-0.3,2.4-0.8c0.7-0.5,1.3-1.5,1.7-3c0.5-1.8,0.8-4.9,0.8-9.3s-0.2-7.4-0.7-9
			c-0.5-1.6-1-2.7-1.8-3.3C333.8,34.4,333,34.2,332,34.2z"/>
		<path class="st3" d="M375.2,59v6.6h-26.4c0.3-2.5,1.1-4.9,2.6-7.1c1.4-2.2,4.2-5.2,8.5-8.9c3.4-3,5.5-5,6.2-6.1
			c1-1.5,1.6-2.9,1.6-4.4c0-1.6-0.5-2.8-1.4-3.7c-0.9-0.9-2.1-1.3-3.7-1.3c-1.6,0-2.8,0.4-3.7,1.3c-0.9,0.9-1.5,2.4-1.6,4.5
			l-7.5-0.7c0.4-3.9,1.8-6.7,4.2-8.5s5.3-2.6,8.8-2.6c3.9,0,6.9,1,9.1,3c2.2,2,3.3,4.4,3.3,7.4c0,1.7-0.3,3.3-1,4.8
			c-0.6,1.5-1.6,3.1-3,4.8c-0.9,1.1-2.6,2.7-4.9,4.7c-2.4,2.1-3.9,3.4-4.5,4.1c-0.6,0.7-1.1,1.3-1.5,2H375.2z"/>
	</g>
</g>
<g>
</g>
<g>
</g>
<g>
</g>
<g>
</g>
<g>
	<path class="st4" d="M144.7,123.7c-0.9,0.6-1.7,1-2.6,1.3c-0.8,0.3-1.5,0.5-2.2,0.5c-1.4,0-2.6-0.5-3.7-1.6c-1-1.1-1.5-2.2-1.5-3.5
		c0-1.2,0.2-2.4,0.7-3.6c0.3-0.9,0.7-1.5,1.2-1.9c0.4-0.4,1-0.7,1.6-0.7c1,0,1.8,0.5,2.5,1.4c0.6,0.8,0.9,1.7,0.9,2.6
		c0,1.8-1.2,3.6-3.5,5.4c0.4,0.3,0.7,0.5,1,0.6c0.3,0.1,0.5,0.2,0.7,0.2c0.8-0.1,1.6-0.7,2.6-1.7c1-0.9,1.7-1.8,1.9-2.5
		c0.5-1.1,0.7-2.9,0.7-5.4c0-2.4-0.5-4.5-1.6-6.1c-0.3-0.5-0.8-1.1-1.5-1.9c-0.7-0.8-1.7-1.7-2.8-2.8c-0.9-0.9-1.6-1.7-2.2-2.6
		c-0.5-0.9-0.9-1.8-1-2.9l3.6-0.1c0.2,1.3,0.4,2.4,0.7,3.1c0.2,0.7,0.5,1.2,0.8,1.6c0.4,0.4,1,0.9,1.7,1.4c0.5,0.4,0.9,0.7,1.2,0.9
		c0.3,0.2,0.6,0.4,0.7,0.5c2.8,2.4,4.3,5.2,4.3,8.3C149.1,118.7,147.6,121.9,144.7,123.7z"/>
	<path class="st4" d="M166.7,101.1v19.4h1.7v0.9h-6.6l-0.1-0.9l1.3-0.2v-8.3c-0.5-1-1-1.7-1.6-2.2c-0.6-0.4-1.2-0.7-1.9-0.7
		c-1.4,0-2.6,0.4-3.4,1.2c-0.9,0.8-1.3,1.9-1.3,3.3c0,0.4,0,0.8,0.1,1.3c0.1,0.4,0.2,0.9,0.4,1.4c0.2,0.5,0.4,1.1,0.7,1.8
		c0.3,0.7,0.7,1.4,1.2,2.3c-0.6-0.5-1.2-1-1.6-1.4c-0.4-0.4-0.8-0.7-1.2-1c-0.3-0.3-0.6-0.5-0.8-0.7s-0.4-0.4-0.7-0.6
		c-1.1-1-1.6-2.4-1.6-4.2c0-1.5,1.1-2.9,3.3-4.2c-0.2-0.1-0.3-0.2-0.5-0.3c-0.2-0.1-0.4-0.2-0.6-0.4c-1.6-1.1-2.4-2.3-2.4-3.5
		c0-0.6,0.2-1.2,0.6-1.7c0.4-0.5,1-0.9,1.9-1.4h-4.4v-2.5H171v2.5H166.7z M163,101.1h-5.8c-0.4,0.2-0.7,0.4-1,0.6
		c-0.3,0.2-0.7,0.4-1,0.6c-0.6,0.5-1,1.1-1,1.8c0,0.5,0.2,1.2,0.5,1.9c0.2,0.2,0.3,0.5,0.4,0.8c0.1,0.3,0.3,0.6,0.4,0.9
		c0.9-0.3,1.8-0.5,2.7-0.5c0.7,0,1.4,0.2,2.2,0.6c0.8,0.4,1.6,0.9,2.5,1.7V101.1z"/>
	<path class="st4" d="M189.1,101.1c-1,0.8-1.8,1.5-2.5,2.2c-0.7,0.7-1.2,1.3-1.6,1.9c-0.9,1.5-1.4,3.4-1.4,5.6
		c0,0.7,0.1,1.5,0.2,2.2c0.1,0.8,0.4,1.6,0.7,2.5c0.3,0.9,0.8,1.9,1.3,3c0.6,1.1,1.3,2.4,2.2,3.9c-1.1-1.1-1.9-2-2.6-2.7
		c-0.7-0.8-1.3-1.4-1.7-1.9c-0.4-0.5-0.8-1-1.1-1.3c-0.3-0.4-0.5-0.7-0.7-1c-1.1-1.9-1.6-4.1-1.6-6.7c0-0.7,0.1-1.4,0.2-2
		c0.1-0.6,0.3-1.2,0.5-1.7c0.3-0.6,0.7-1.3,1.2-1.9s1.3-1.3,2.1-2.1h-5.9c0-0.4,0-0.7,0.1-0.9c0-0.2,0-0.4,0-0.5c0-0.1,0-0.3,0-0.4
		c0-0.1,0-0.4-0.1-0.7h12.9v2.5H189.1z"/>
	<path class="st4" d="M211.3,101.1v19.2h1.4v1h-6.6v-1h1.5v-10.4l-2.2-1.6c-0.4,0.4-1,1-1.6,1.7c-0.6,0.7-1.4,1.5-2.3,2.4
		c-1,1-1.9,1.8-2.6,2.3s-1.4,0.8-1.9,0.8c-0.8,0-1.5-0.1-2.3-0.4c-0.8-0.3-1.7-0.8-2.6-1.4l0.1-1.9c0.8,0.6,1.3,1,1.7,1.2
		c0.4,0.2,0.7,0.3,1,0.3c0.8,0,1.8-0.6,3-1.8c0.6-0.6,1.1-1.2,1.3-1.7c0.3-0.5,0.4-0.9,0.4-1.3c0-0.6-0.1-1.1-0.3-1.4
		c-0.2-0.3-0.5-0.4-0.9-0.4c-0.4,0-1,0.2-1.7,0.5l-1.8,0.8c-1-0.2-1.7-0.5-2.1-0.8c-0.5-0.4-0.7-1-0.7-1.9c0-0.6,0.6-1.9,1.9-3.9
		h-4.4v-2.5h25.7v2.5H211.3z M207.6,101.1h-11.2c-0.3,0.3-0.5,0.7-0.7,1c-0.2,0.4-0.4,0.7-0.6,1.1c-0.1,0.2-0.2,0.5-0.2,0.7
		c0,0.2,0.1,0.3,0.2,0.4s0.3,0.1,0.7,0.1c0.4,0,1-0.1,1.8-0.4c0.4-0.1,0.8-0.2,1.1-0.3c0.3-0.1,0.6-0.1,0.8-0.1
		c0.7,0,1.3,0.3,1.6,0.8c0.3,0.5,0.5,1.3,0.5,2.3c0,0.2,0,0.4,0,0.6c0,0.2,0,0.5-0.1,0.8l3.5-2.7c0.4,0.2,0.8,0.4,1.2,0.7
		c0.4,0.3,0.9,0.6,1.4,1V101.1z"/>
	<path class="st4" d="M235.6,96.2l0.9-0.2v1.2c-1-0.4-1.9-0.7-2.8-0.9c-0.9-0.2-1.8-0.5-2.8-0.7c-1.1-0.2-2.2-0.4-3-0.5
		c-0.9-0.1-1.7-0.2-2.4-0.2c-1.6,0-2.8,0.2-3.4,0.5c-0.7,0.3-1,0.8-1,1.4v1.8h4.5v2.5h-4v19.4h0.7v0.9h-5.6v-0.9h1.2v-19.4h-4.1
		v-2.5h4.1v-0.1c0-1.9,0.3-3.4,1-4.3c0.8-1.2,2.2-1.7,4.3-1.7c0.8,0,1.8,0.1,3,0.3c1.1,0.2,2.5,0.6,3.9,1c1.1,0.4,2.2,0.7,3.1,1.1
		C233.9,95.4,234.8,95.8,235.6,96.2L235.6,96.2z"/>
	<path class="st4" d="M241.7,101.1v19.4h1.7v0.9h-6.6l-0.1-0.9l1.3-0.2v-8.3c-0.5-1-1-1.7-1.6-2.2c-0.6-0.4-1.2-0.7-1.9-0.7
		c-1.4,0-2.6,0.4-3.4,1.2c-0.9,0.8-1.3,1.9-1.3,3.3c0,0.4,0,0.8,0.1,1.3c0.1,0.4,0.2,0.9,0.4,1.4c0.2,0.5,0.4,1.1,0.7,1.8
		c0.3,0.7,0.7,1.4,1.2,2.3c-0.6-0.5-1.2-1-1.6-1.4c-0.4-0.4-0.8-0.7-1.2-1c-0.3-0.3-0.6-0.5-0.8-0.7s-0.4-0.4-0.7-0.6
		c-1.1-1-1.6-2.4-1.6-4.2c0-1.5,1.1-2.9,3.3-4.2c-0.2-0.1-0.3-0.2-0.5-0.3c-0.2-0.1-0.4-0.2-0.6-0.4c-1.6-1.1-2.4-2.3-2.4-3.5
		c0-0.6,0.2-1.2,0.6-1.7c0.4-0.5,1-0.9,1.9-1.4h-4.4v-2.5H246v2.5H241.7z M238,101.1h-5.8c-0.4,0.2-0.7,0.4-1,0.6
		c-0.3,0.2-0.7,0.4-1,0.6c-0.6,0.5-1,1.1-1,1.8c0,0.5,0.2,1.2,0.5,1.9c0.2,0.2,0.3,0.5,0.4,0.8c0.1,0.3,0.3,0.6,0.4,0.9
		c0.9-0.3,1.8-0.5,2.7-0.5c0.7,0,1.4,0.2,2.2,0.6c0.8,0.4,1.6,0.9,2.5,1.7V101.1z"/>
	<path class="st4" d="M264.1,101.1v16c0,0.2,0,0.4,0.1,0.6c0,0.2,0.1,0.5,0.3,0.7c0.2,0.4,0.5,0.7,0.8,0.9c3.3-2.2,5-5.4,5-9.7
		c0-0.3-0.1-0.5-0.2-0.7c-0.1-0.1-0.4-0.2-0.8-0.2c-0.2,0.1-0.5,0.3-0.8,0.5c-0.3,0.2-0.8,0.5-1.4,0.9l-0.5-1.6l3.9-1.6l3,1.3
		c-0.3,3.2-1.1,5.9-2.4,8c-1.3,2.1-3.1,3.7-5.6,4.9c-1.2-0.3-2.2-0.7-3-1.1c-0.8-0.5-1.5-1-2.1-1.8v-10.8c-0.5-0.1-1-0.2-1.3-0.2
		c-1,0.6-2.3,1.7-3.9,3c-0.9,0.7-1.6,1.3-2.3,1.9c-0.6,0.5-1.2,1-1.8,1.4l-4.7-2.2l0.4-1.6l1.9,1.2l1.2,0.1c0.4-0.4,0.9-0.8,1.5-1.3
		c0.5-0.5,1.1-0.9,1.8-1.5v-0.1c0-0.4-0.1-0.8-0.4-1s-0.6-0.3-1.2-0.3c-0.2,0-0.7,0.2-1.2,0.6c-0.7,0.4-1.2,0.7-1.6,0.7
		c-0.6,0-1.1-0.3-1.6-0.9c-0.5-0.6-0.7-1.2-0.7-1.7c0-0.8,0.2-2.3,0.6-4.4h-3v-2.5h26.3v-1.7c-0.6-1.1-1.5-1.7-2.8-1.7
		c-1.9,0-4.5,0.4-7.9,1.2l-0.2-0.8c0.5-0.2,1.1-0.4,1.7-0.6c0.6-0.2,1.2-0.4,1.9-0.6c1.3-0.3,2.4-0.6,3.3-0.8c1-0.2,1.8-0.3,2.5-0.3
		c1.1,0,2.1,0.2,3,0.7c0.3,0.2,0.6,0.4,0.9,0.7c0.3,0.3,0.7,0.7,1.2,1.2v2.7h2.6v2.5H264.1z M260.4,101.1h-11.2
		c-0.1,0.5-0.2,0.9-0.2,1.3c0,0.3-0.1,0.6-0.1,0.8c0,0.6,0.1,1,0.3,1.2c0.2,0.2,0.4,0.3,0.7,0.3c0.2,0,0.4-0.1,0.6-0.2l0.2-0.2
		c0.5-0.4,1-0.6,1.7-0.6c0.8,0,1.4,0.1,1.8,0.4c0.4,0.3,0.7,0.8,0.7,1.4c0,0.2,0,0.3-0.1,0.5c0,0.2-0.1,0.4-0.1,0.6l2.6-2.6l1.2,0.1
		l1.8,1.1V101.1z"/>
	<path class="st4" d="M281.5,101.1v19.3h1.7l-0.1,0.8h-6.8l0.1-0.8h1.4v-19.3h-2.9v-2.5H285c0,0.4,0,0.8,0,1.1c0,0.3,0,0.8,0,1.3
		H281.5z"/>
	<path class="st4" d="M299.1,101.1v19.8c-0.9-0.6-1.7-1.2-2.4-1.6c-0.7-0.4-1.4-0.9-2.2-1.3c-1.2-0.6-2.1-1.2-2.9-1.6
		c-0.7-0.4-1.2-0.7-1.5-0.9c-1.7-1.1-3-2.3-3.8-3.4c-0.9-1.2-1.3-2.4-1.3-3.6c0-2.1,1.4-3.7,4.1-4.9h6.2v-2.3h-12.7v-2.5h20.6v2.5
		c-0.4,0-0.7,0-0.9,0c-0.2,0-0.4,0-0.6,0H299.1z M289.9,119.4c-0.5,0.3-1.1,0.5-1.8,0.5c-0.7,0-1.3-0.2-1.8-0.5
		c-0.5-0.4-0.8-0.9-0.8-1.5c0-0.6,0.2-1,0.7-1.4c0.4-0.4,1-0.6,1.6-0.6c1,0,1.7,0.2,2.3,0.5c0.5,0.3,0.8,0.8,0.8,1.5
		C290.8,118.6,290.5,119.1,289.9,119.4z M295.4,105h-4c-1.6,1-2.4,2.3-2.4,3.9c0,1.1,0.8,2.4,2.3,3.8c0.4,0.3,0.9,0.7,1.6,1.2
		c0.7,0.5,1.5,1.1,2.6,1.8V105z"/>
	<path class="st4" d="M321,101.1c0.3,0.3,0.5,0.6,0.8,0.9c0.3,0.3,0.5,0.6,0.8,1c0.3,0.4,0.6,0.8,0.9,1.2c0.3,0.4,0.6,1,0.9,1.6
		c-0.9,0.5-1.8,1-2.9,1.5c-1.1,0.5-2.3,1.2-3.7,1.8c0.2,0.9,0.4,1.6,0.7,2.3c0.3,0.7,0.7,1.3,1.2,1.9c0.4,0.5,1,1,1.6,1.5
		c0.6,0.5,1.4,1,2.3,1.5c0.2,0.1,0.5,0.3,1.1,0.6c0.5,0.3,1.2,0.6,2.1,1.1v-15.9h0.9c0.2,0,0.4,0,0.6,0c0.2,0,0.4,0,0.6,0
		c2.4,0,4.3,0.5,5.9,1.5c1.8,1.2,2.7,2.9,2.7,5c0,0.7-0.1,1.3-0.2,2c-0.2,0.7-0.4,1.4-0.8,2.2c-0.4,0.8-0.8,1.7-1.4,2.6
		c-0.6,0.9-1.3,2-2.2,3.1c0.4-1.3,0.7-2.3,0.9-3.2c0.2-0.9,0.4-1.6,0.6-2.2c0.1-0.6,0.2-1.1,0.3-1.5c0.1-0.4,0.1-0.7,0.1-0.9
		c0-1.7-0.3-2.9-1-3.6c-0.3-0.3-0.7-0.6-1.3-0.9c-0.5-0.3-1.2-0.6-2-0.8v15.7c-1.6-0.4-3.2-1-4.7-1.7s-3-1.6-4.6-2.6
		c-1.7-1.1-3.1-2.3-4.3-3.4c-1.2-1.1-2.1-2.4-2.7-3.6c0.2-0.1,0.4-0.2,0.4-0.3c0.1-0.1,0.2-0.1,0.3-0.2c0.2-0.1,0.4-0.2,0.6-0.3
		c0.2-0.1,0.5-0.3,0.8-0.5c0.6-0.3,1.3-0.7,2.1-1.1c0.8-0.4,1.8-1,2.9-1.6c-1.2-1.6-2.8-3.1-5.1-4.5h-5.2v-2.5h28.5v2.5H321z"/>
	<path class="st4" d="M344.3,101.1v19.3h1.7l-0.1,0.8h-6.8l0.1-0.8h1.4v-19.3h-2.9v-2.5h10.1c0,0.4,0,0.8,0,1.1c0,0.3,0,0.8,0,1.3
		H344.3z"/>
	<path class="st4" d="M360,101.1c0.9,0.7,1.6,1.4,2.1,2.1c0.4,0.7,0.6,1.4,0.6,2.2c0,2.2-1.3,4.3-3.8,6.1c-0.9,0.6-1.8,1.2-2.9,1.7
		c-1.1,0.5-2.3,1-3.7,1.4c0.7,2.1,1.8,3.9,3.3,5.2c0.9,0.8,2.7,2,5.4,3.8c0.2,0.1,0.3,0.2,0.5,0.3c0.2,0.1,0.3,0.2,0.4,0.3l-0.5,0.7
		l-3-1.6c-2.2-1.1-4.2-2.4-5.9-3.8c-1.7-1.4-3.2-3-4.6-4.8c1.6-0.4,2.9-0.9,4-1.3c1.1-0.5,2.1-1,2.9-1.5c1.2-0.8,2.1-1.6,2.6-2.5
		c0.6-0.9,0.8-1.8,0.8-2.8c0-0.9-0.2-1.9-0.7-2.8c-0.6-1.2-1.5-1.7-2.4-1.7c-0.5,0-0.9,0.2-1.4,0.5c-0.5,0.3-0.9,0.9-1.4,1.6
		c-0.8,1.2-1.1,2.3-1.1,3.2c0,0.3,0,0.5,0.1,0.8c0,0.3,0.1,0.6,0.3,0.9c0.1,0.3,0.3,0.7,0.6,1.1c0.2,0.4,0.6,0.9,1,1.5
		c-1-0.5-1.9-1-2.6-1.5c-0.7-0.5-1.2-1-1.6-1.4c-0.4-0.5-0.7-1-0.9-1.4c-0.2-0.5-0.3-1-0.3-1.5c0-0.8,0.2-1.5,0.7-2.3
		c0.5-0.7,1.2-1.5,2.2-2.4h-5v-2.5h10.2v-1.2c-0.9-1.1-2-1.7-3.3-1.7c-1.3,0-3,0.3-5.2,0.9c-0.7,0.2-1.4,0.4-2,0.6s-1.1,0.3-1.6,0.4
		l-0.3-0.8c0.8-0.3,1.5-0.7,2.3-1c0.7-0.3,1.4-0.6,2.1-0.9c2.2-0.9,4.3-1.3,6.3-1.3c0.6,0,1.2,0.1,1.7,0.2c0.5,0.1,1,0.3,1.5,0.5
		c0.3,0.2,0.6,0.4,1,0.7s0.8,0.7,1.2,1.2v2.2h5.4v2.5H360z"/>
	<path class="st4" d="M380.1,101.1v19.3h1.7v0.8h-6.5l-0.1-0.9h1.3v-12.7l-3.4-2.1c-1.4,0.4-2.3,0.7-2.8,1.1
		c-0.8,0.6-1.2,1.4-1.2,2.6v0.1c0,0.1,0,0.2,0.1,0.4c0,0.1,0,0.3,0,0.5v1.1c0,0.5,0.1,1,0.2,1.5s0.3,1.1,0.5,1.7
		c0,0.1,0.1,0.2,0.2,0.3c0.1,0.1,0.2,0.4,0.4,0.7s0.4,0.8,0.8,1.4s0.7,1.3,1.3,2.3c-0.8-0.8-1.4-1.4-2-2c-0.5-0.5-1-1-1.3-1.4
		c-0.4-0.4-0.7-0.7-1-1c-0.3-0.3-0.5-0.6-0.8-0.8c-1.1-1.2-1.7-2.9-1.7-5c0-1.8,1-3.2,2.9-4.4c1-0.6,2-1,2.9-1c0.8,0,1.4,0,1.7,0
		c0.9,0.2,1.8,0.8,2.8,1.7l0.5,0.4v-4.6h-12.9v-2.5h20.7v2.5H380.1z"/>
	<path class="st4" d="M389,101.1v19.3h1.7l-0.1,0.8h-6.8l0.1-0.8h1.4v-19.3h-2.9v-2.5h10.1c0,0.4,0,0.8,0,1.1c0,0.3,0,0.8,0,1.3H389
		z"/>
	<path class="st4" d="M400.5,101.1c-1,0.8-1.8,1.5-2.5,2.2c-0.7,0.7-1.2,1.3-1.6,1.9c-0.9,1.5-1.4,3.4-1.4,5.6
		c0,0.7,0.1,1.5,0.2,2.2c0.1,0.8,0.4,1.6,0.7,2.5c0.3,0.9,0.8,1.9,1.3,3c0.6,1.1,1.3,2.4,2.2,3.9c-1.1-1.1-1.9-2-2.6-2.7
		c-0.7-0.8-1.3-1.4-1.7-1.9c-0.4-0.5-0.8-1-1.1-1.3s-0.5-0.7-0.7-1c-1.1-1.9-1.6-4.1-1.6-6.7c0-0.7,0.1-1.4,0.2-2
		c0.1-0.6,0.3-1.2,0.5-1.7c0.3-0.6,0.7-1.3,1.2-1.9s1.3-1.3,2.1-2.1h-5.9c0-0.4,0-0.7,0.1-0.9c0-0.2,0-0.4,0-0.5c0-0.1,0-0.3,0-0.4
		c0-0.1,0-0.4-0.1-0.7h12.9v2.5H400.5z"/>
	<path class="st4" d="M421.5,101.1v19.3h0.5l0,0.8h-4.2v-12.4c0-0.5-0.4-1-1.1-1.4c-0.7-0.4-1.4-0.6-2.1-0.6c-0.3,0-0.7,0.2-1,0.5
		c-0.4,0.3-0.8,1-1.3,2c-0.7-1-1.2-1.6-1.7-2c-0.4-0.3-0.8-0.5-1.1-0.5c-1,0-1.8,0.3-2.3,1c-0.5,0.7-0.8,1.7-0.8,3.2
		c0,1.3,0.2,2.3,0.5,3.1c0.1,0.3,0.4,0.7,0.7,1.1c0.3,0.4,0.7,0.9,1.2,1.4c0.1,0.1,0.2,0.2,0.4,0.3c0.1,0.1,0.4,0.3,0.6,0.5
		c0.3,0.2,0.7,0.5,1.1,0.9s1.1,0.9,1.8,1.5c-1.1-0.5-2-0.9-2.8-1.3c-0.8-0.4-1.4-0.7-2-1.1c-0.5-0.3-1-0.7-1.3-1
		c-0.4-0.3-0.7-0.6-1-0.9c-1.6-1.7-2.4-3.6-2.4-5.7c0-1.9,0.5-3.3,1.5-4.4c1-1.1,2.5-1.7,4.5-1.7c1.2,0,2,0.6,2.7,1.9
		c0.1,0.2,0.2,0.4,0.3,0.6l0.3-0.7c0.5-1,1.5-1.5,2.9-1.5c0.5,0,0.9,0.2,1.3,0.5c0.4,0.3,0.8,0.8,1.2,1.3c0,0,0.1,0.1,0.1,0.1
		s0,0.1,0.1,0.1v-5h-17.2v-2.5h24.8l0.1,2.5H421.5z"/>
	<path class="st4" d="M440.4,101.1v19.8c-0.9-0.6-1.7-1.2-2.4-1.6c-0.7-0.4-1.4-0.9-2.2-1.3c-1.2-0.6-2.1-1.2-2.9-1.6
		c-0.7-0.4-1.2-0.7-1.5-0.9c-1.7-1.1-3-2.3-3.8-3.4c-0.9-1.2-1.3-2.4-1.3-3.6c0-2.1,1.4-3.7,4.1-4.9h6.2v-2.3H424v-2.5h20.6v2.5
		c-0.4,0-0.7,0-0.9,0s-0.4,0-0.6,0H440.4z M431.1,119.4c-0.5,0.3-1.1,0.5-1.8,0.5c-0.7,0-1.3-0.2-1.8-0.5c-0.5-0.4-0.8-0.9-0.8-1.5
		c0-0.6,0.2-1,0.7-1.4c0.4-0.4,1-0.6,1.6-0.6c1,0,1.7,0.2,2.3,0.5c0.5,0.3,0.8,0.8,0.8,1.5C432,118.6,431.7,119.1,431.1,119.4z
		 M436.7,105h-4c-1.6,1-2.4,2.3-2.4,3.9c0,1.1,0.8,2.4,2.3,3.8c0.4,0.3,0.9,0.7,1.6,1.2c0.7,0.5,1.5,1.1,2.6,1.8V105z"/>
	<path class="st4" d="M462.2,101.1c0.3,0.3,0.5,0.6,0.8,0.9c0.3,0.3,0.5,0.6,0.8,1c0.3,0.4,0.6,0.8,0.9,1.2c0.3,0.4,0.6,1,0.9,1.6
		c-0.9,0.5-1.8,1-2.9,1.5s-2.3,1.2-3.7,1.8c0.2,0.9,0.4,1.6,0.7,2.3c0.3,0.7,0.7,1.3,1.2,1.9c0.4,0.5,1,1,1.6,1.5
		c0.6,0.5,1.4,1,2.3,1.5c0.2,0.1,0.5,0.3,1.1,0.6s1.2,0.6,2.1,1.1v-15.9h0.9c0.2,0,0.4,0,0.6,0c0.2,0,0.4,0,0.6,0
		c2.4,0,4.3,0.5,5.9,1.5c1.8,1.2,2.7,2.9,2.7,5c0,0.7-0.1,1.3-0.2,2c-0.2,0.7-0.4,1.4-0.8,2.2c-0.4,0.8-0.8,1.7-1.4,2.6
		c-0.6,0.9-1.3,2-2.2,3.1c0.4-1.3,0.7-2.3,0.9-3.2c0.2-0.9,0.4-1.6,0.6-2.2c0.1-0.6,0.2-1.1,0.3-1.5c0.1-0.4,0.1-0.7,0.1-0.9
		c0-1.7-0.3-2.9-1-3.6c-0.3-0.3-0.7-0.6-1.3-0.9c-0.5-0.3-1.2-0.6-2-0.8v15.7c-1.6-0.4-3.2-1-4.7-1.7c-1.5-0.7-3-1.6-4.6-2.6
		c-1.7-1.1-3.1-2.3-4.3-3.4c-1.2-1.1-2.1-2.4-2.7-3.6c0.2-0.1,0.4-0.2,0.4-0.3c0.1-0.1,0.2-0.1,0.3-0.2c0.2-0.1,0.4-0.2,0.6-0.3
		c0.2-0.1,0.5-0.3,0.8-0.5c0.6-0.3,1.3-0.7,2.1-1.1c0.8-0.4,1.8-1,2.9-1.6c-1.2-1.6-2.8-3.1-5.1-4.5h-5.2v-2.5h28.5v2.5H462.2z"/>
	<path class="st4" d="M499.7,101.1v19.3h0.5l0,0.8H496v-12.4c0-0.5-0.4-1-1.1-1.4c-0.7-0.4-1.4-0.6-2.1-0.6c-0.3,0-0.7,0.2-1,0.5
		c-0.4,0.3-0.8,1-1.3,2c-0.7-1-1.2-1.6-1.7-2c-0.4-0.3-0.8-0.5-1.1-0.5c-1,0-1.8,0.3-2.3,1c-0.5,0.7-0.8,1.7-0.8,3.2
		c0,1.3,0.2,2.3,0.5,3.1c0.1,0.3,0.4,0.7,0.7,1.1c0.3,0.4,0.7,0.9,1.2,1.4c0.1,0.1,0.2,0.2,0.4,0.3c0.1,0.1,0.4,0.3,0.6,0.5
		c0.3,0.2,0.7,0.5,1.1,0.9s1.1,0.9,1.8,1.5c-1.1-0.5-2.1-0.9-2.8-1.3s-1.4-0.7-2-1.1c-0.5-0.3-1-0.7-1.3-1c-0.4-0.3-0.7-0.6-1-0.9
		c-1.6-1.7-2.4-3.6-2.4-5.7c0-1.9,0.5-3.3,1.5-4.4c1-1.1,2.5-1.7,4.5-1.7c1.2,0,2,0.6,2.7,1.9c0.1,0.2,0.2,0.4,0.3,0.6l0.3-0.7
		c0.5-1,1.5-1.5,2.9-1.5c0.5,0,0.9,0.2,1.3,0.5c0.4,0.3,0.8,0.8,1.2,1.3c0,0,0.1,0.1,0.1,0.1s0,0.1,0.1,0.1v-5h-17.2v-2.5h24.8
		l0.1,2.5H499.7z"/>
	<path class="st4" d="M508.7,101.1v19.3h1.7l-0.1,0.8h-6.8l0.1-0.8h1.4v-19.3h-2.9v-2.5h10.1c0,0.4,0,0.8,0,1.1c0,0.3,0,0.8,0,1.3
		H508.7z"/>
	<path class="st4" d="M519.7,101.1c0.3,0.3,0.5,0.6,0.8,0.9c0.3,0.3,0.5,0.6,0.8,1c0.3,0.4,0.6,0.8,0.9,1.2c0.3,0.4,0.6,1,0.9,1.6
		c-0.9,0.5-1.8,1-2.9,1.5s-2.3,1.2-3.7,1.8c0.2,0.9,0.4,1.6,0.7,2.3c0.3,0.7,0.7,1.3,1.2,1.9c0.4,0.5,1,1,1.6,1.5
		c0.6,0.5,1.4,1,2.3,1.5c0.2,0.1,0.5,0.3,1.1,0.6s1.2,0.6,2.1,1.1v-15.9h0.9c0.2,0,0.4,0,0.6,0c0.2,0,0.4,0,0.6,0
		c2.4,0,4.3,0.5,5.9,1.5c1.8,1.2,2.7,2.9,2.7,5c0,0.7-0.1,1.3-0.2,2c-0.2,0.7-0.4,1.4-0.8,2.2c-0.4,0.8-0.8,1.7-1.4,2.6
		c-0.6,0.9-1.3,2-2.2,3.1c0.4-1.3,0.7-2.3,0.9-3.2c0.2-0.9,0.4-1.6,0.6-2.2c0.1-0.6,0.2-1.1,0.3-1.5c0.1-0.4,0.1-0.7,0.1-0.9
		c0-1.7-0.3-2.9-1-3.6c-0.3-0.3-0.7-0.6-1.3-0.9c-0.5-0.3-1.2-0.6-2-0.8v15.7c-1.6-0.4-3.2-1-4.7-1.7c-1.5-0.7-3-1.6-4.6-2.6
		c-1.7-1.1-3.1-2.3-4.3-3.4c-1.2-1.1-2.1-2.4-2.7-3.6c0.2-0.1,0.4-0.2,0.4-0.3c0.1-0.1,0.2-0.1,0.3-0.2c0.2-0.1,0.4-0.2,0.6-0.3
		c0.2-0.1,0.5-0.3,0.8-0.5c0.6-0.3,1.3-0.7,2.1-1.1c0.8-0.4,1.8-1,2.9-1.6c-1.2-1.6-2.8-3.1-5.1-4.5h-5.2v-2.5h28.5v2.5H519.7z"/>
	<path class="st4" d="M557.2,101.1v19.3h0.5l0,0.8h-4.2v-12.4c0-0.5-0.4-1-1.1-1.4c-0.7-0.4-1.4-0.6-2.1-0.6c-0.3,0-0.7,0.2-1,0.5
		c-0.4,0.3-0.8,1-1.3,2c-0.7-1-1.2-1.6-1.7-2c-0.4-0.3-0.8-0.5-1.1-0.5c-1,0-1.8,0.3-2.3,1c-0.5,0.7-0.8,1.7-0.8,3.2
		c0,1.3,0.2,2.3,0.5,3.1c0.1,0.3,0.4,0.7,0.7,1.1c0.3,0.4,0.7,0.9,1.2,1.4c0.1,0.1,0.2,0.2,0.4,0.3c0.1,0.1,0.4,0.3,0.6,0.5
		c0.3,0.2,0.7,0.5,1.1,0.9s1.1,0.9,1.8,1.5c-1.1-0.5-2.1-0.9-2.8-1.3s-1.4-0.7-2-1.1c-0.5-0.3-1-0.7-1.3-1c-0.4-0.3-0.7-0.6-1-0.9
		c-1.6-1.7-2.4-3.6-2.4-5.7c0-1.9,0.5-3.3,1.5-4.4c1-1.1,2.5-1.7,4.5-1.7c1.2,0,2,0.6,2.7,1.9c0.1,0.2,0.2,0.4,0.3,0.6l0.3-0.7
		c0.5-1,1.5-1.5,2.9-1.5c0.5,0,0.9,0.2,1.3,0.5c0.4,0.3,0.8,0.8,1.2,1.3c0,0,0.1,0.1,0.1,0.1s0,0.1,0.1,0.1v-5h-17.2v-2.5h24.8
		l0.1,2.5H557.2z"/>
	<path class="st4" d="M247.6,148.6V168h1.5v0.8H244v-12.9l-0.5-0.5l-8.2,5.7c-0.3-0.1-0.5-0.2-0.8-0.4c-0.3-0.1-0.6-0.3-0.9-0.6
		c-0.4-0.2-0.8-0.5-1.2-0.8c-0.5-0.3-1-0.8-1.7-1.2l3,0.7c0.4-0.3,0.9-0.6,1.3-0.9c0.4-0.3,0.8-0.6,1.3-1c0.2-0.6,0.1-1.2-0.3-1.5
		c-0.4-0.4-0.9-0.5-1.7-0.5c-0.4,0-1.1,0.2-1.8,0.5c-0.9,0.4-1.4,0.6-1.7,0.6c-1.5,0-2.3-0.8-2.2-2.4c0-2.2,0.9-4,2.6-5.1
		c1.5-1.1,3.5-1.6,5.8-1.6c1.6,0,2.9,0.2,4.1,0.7c0.4,0.2,0.9,0.4,1.3,0.7c0.5,0.3,1,0.7,1.6,1.2v-3.3h7.4v2.5H247.6z M243.3,151.6
		c-1.9-1.7-4.1-2.5-6.5-2.5c-0.5,0-1.1,0.1-1.7,0.2c-0.6,0.1-1.2,0.3-1.7,0.6c-0.5,0.3-1,0.6-1.3,0.9c-0.4,0.4-0.5,0.8-0.5,1.2
		c0,0.2,0.1,0.3,0.3,0.5c0.2,0.2,0.5,0.2,0.8,0.2c0.1,0,0.2,0,0.5-0.1c0.1,0,0.2-0.1,0.3-0.1c0.1,0,0.2-0.1,0.3-0.1
		c0.3-0.1,0.6-0.2,0.8-0.2c0.3-0.1,0.5-0.1,0.7,0c0.8,0.2,1.3,0.4,1.7,0.8s0.6,0.9,0.7,1.7c0,0.4,0.2,0.6,0.6,0.7l3.2-2.5
		c0.3,0.1,0.6,0.2,0.8,0.3c0.2,0.1,0.4,0.1,0.6,0.2l0.6,0.2V151.6z"/>
	<path class="st4" d="M243,173l-0.2-0.6h1.2v-0.8c-1-0.9-2-1.3-2.9-1.3c-0.1,0-0.3,0.1-0.7,0.3c-0.3,0.2-0.8,0.4-1.4,0.7
		c-1.4,0.6-2.5,1-3.3,1c-2.2,0-3.9-0.9-5.1-2.7c-0.3-0.4-0.6-1.3-1-2.6c0-0.2-0.1-0.4-0.1-0.6c0-0.2-0.1-0.5-0.1-0.8
		c0-0.3-0.1-0.7-0.2-1.2c-0.1-0.5-0.1-1.1-0.2-1.9c0.7,1.5,1.3,2.6,1.9,3.6c0.6,0.9,1.1,1.7,1.6,2.2c0.5,0.6,1,0.9,1.5,1.2
		c0.5,0.2,1,0.3,1.5,0.3c0.5,0,1.3-0.2,2.3-0.5c1-0.4,1.8-0.5,2.4-0.5c0.7,0,1.3,0.1,1.8,0.2l1.9,1.3v-2.9h3.7v6h-5.2v-0.5L243,173z
		"/>
	<path class="st4" d="M267.5,148.6v3.3h1.3c2.1,0,3.5,0.2,4.4,0.6c1.1,0.5,1.7,1.6,1.7,3.2c0,1.1-0.6,2.4-1.9,4.1
		c-0.2,0.3-0.4,0.5-0.7,0.8c-0.2,0.3-0.5,0.6-0.9,1c-0.4,0.4-0.8,0.8-1.3,1.3c-0.5,0.5-1.1,1.1-1.9,1.8c0.6-1.2,1.2-2.3,1.6-3.2
		s0.8-1.7,1-2.5s0.4-1.4,0.5-2c0.1-0.6,0.1-1.2,0.1-1.7c0-0.6-0.1-1-0.4-1.3c-0.1-0.1-0.2-0.2-0.4-0.4s-0.4-0.3-0.7-0.5h-2.4v15.4
		c-4.6-2.2-8.1-4.4-10.3-6.5c-2.2-2.1-3.3-4.3-3.3-6.4c0-1.6,0.9-2.7,2.6-3.2c0.5-0.2,1.1-0.3,1.8-0.4c0.7-0.1,1.6-0.1,2.6,0
		l2.9,0.1v-3.4h-14v-2.5h27.8v2.5H267.5z M263.9,153.2h-3.4c-0.9,0.3-1.5,0.8-1.8,1.2c-0.1,0.2-0.3,0.5-0.3,0.9
		c-0.1,0.3-0.1,0.8-0.1,1.3c0,1.5,0.6,3.1,1.9,4.9c1.1,1.4,2.3,2.5,3.8,3.3V153.2z"/>
	<path class="st4" d="M281.3,148.6v19.3h1.7l-0.1,0.8h-6.8l0.1-0.8h1.4v-19.3h-2.9v-2.5h10.1c0,0.4,0,0.8,0,1.1c0,0.3,0,0.8,0,1.3
		H281.3z"/>
	<path class="st4" d="M305.1,148.6h-1.3v20.2h-5.1l-0.1-0.9h1.6v-13.8c-1.1-2-2.1-3.3-3-3.8c-0.5,0.4-1,0.7-1.2,0.9
		c-0.3,0.2-0.5,0.4-0.6,0.5c-0.5,0.5-0.7,1.2-0.7,2.1c0,0.6,0.1,1.3,0.2,1.9c0.1,0.7,0.4,1.5,0.7,2.4c0.3,0.9,0.8,1.9,1.4,3.1
		c0.6,1.2,1.3,2.6,2.2,4.2c-1.1-1.2-2-2.2-2.8-3.1c-0.8-0.9-1.4-1.7-2-2.4c-0.6-0.7-1-1.3-1.4-1.9c-0.4-0.6-0.7-1.1-1-1.6
		c-0.3,0.6-0.7,1.2-1.1,1.9s-0.9,1.2-1.5,1.9c-0.2,0.2-0.4,0.5-0.7,0.8c-0.2,0.3-0.5,0.6-0.9,0.9c-0.4,0.4-0.8,0.8-1.3,1.3
		s-1.2,1.2-2.1,2c0.6-1,1.2-1.8,1.6-2.5c0.4-0.7,0.7-1.2,1-1.7c0.2-0.5,0.4-0.9,0.6-1.2s0.3-0.7,0.4-1c0.7-2,1.1-3.8,1.1-5.2
		c0-1.5-0.3-2.7-0.9-3.5c-0.1-0.1-0.3-0.3-0.4-0.4s-0.4-0.3-0.7-0.5c-0.3-0.2-0.7-0.4-1.2-0.7c-0.5-0.2-1.1-0.5-1.8-0.9h5.4
		c0.7,0.6,1.2,1.1,1.7,1.7s0.8,1.1,1,1.8c0.2-0.4,0.5-0.7,0.7-1c0.2-0.3,0.5-0.6,0.8-0.8c0.2-0.2,0.4-0.4,0.7-0.7s0.7-0.7,1.2-1.2
		c1.8,0.5,3.1,1.2,3.9,2c0.1,0.1,0.2,0.3,0.4,0.5s0.3,0.5,0.4,0.9v-4.8h7.4v2.5H305.1z"/>
	<path class="st4" d="M333.3,148.6v3.3h1.3c2.1,0,3.5,0.2,4.4,0.6c1.1,0.5,1.7,1.6,1.7,3.2c0,1.1-0.6,2.4-1.9,4.1
		c-0.2,0.3-0.4,0.5-0.7,0.8c-0.2,0.3-0.5,0.6-0.9,1c-0.4,0.4-0.8,0.8-1.3,1.3c-0.5,0.5-1.1,1.1-1.9,1.8c0.6-1.2,1.2-2.3,1.6-3.2
		s0.8-1.7,1-2.5s0.4-1.4,0.5-2c0.1-0.6,0.1-1.2,0.1-1.7c0-0.6-0.1-1-0.4-1.3c-0.1-0.1-0.2-0.2-0.4-0.4s-0.4-0.3-0.7-0.5h-2.4v15.4
		c-4.6-2.2-8.1-4.4-10.3-6.5c-2.2-2.1-3.3-4.3-3.3-6.4c0-1.6,0.9-2.7,2.6-3.2c0.5-0.2,1.1-0.3,1.8-0.4c0.7-0.1,1.6-0.1,2.6,0
		l2.9,0.1v-3.4h-14v-2.5h27.8v2.5H333.3z M329.6,153.2h-3.4c-0.9,0.3-1.5,0.8-1.8,1.2c-0.1,0.2-0.3,0.5-0.3,0.9
		c-0.1,0.3-0.1,0.8-0.1,1.3c0,1.5,0.6,3.1,1.9,4.9c1.1,1.4,2.3,2.5,3.8,3.3V153.2z"/>
	<path class="st4" d="M356.9,148.6v19.8c-0.9-0.7-1.7-1.2-2.4-1.6c-0.7-0.4-1.4-0.9-2.2-1.3c-1.2-0.6-2.1-1.2-2.9-1.6
		c-0.7-0.4-1.2-0.7-1.5-0.9c-1.7-1.1-3-2.3-3.8-3.4c-0.9-1.2-1.3-2.4-1.3-3.6c0-2.1,1.4-3.7,4.1-4.9h6.2v-2.3h-12.7v-2.5h20.6v2.5
		c-0.4,0-0.7,0-0.9,0c-0.2,0-0.4,0-0.6,0H356.9z M347.7,166.9c-0.5,0.3-1.1,0.5-1.8,0.5c-0.7,0-1.3-0.2-1.8-0.5
		c-0.5-0.4-0.8-0.9-0.8-1.5c0-0.6,0.2-1,0.7-1.4c0.4-0.4,1-0.6,1.6-0.6c1,0,1.7,0.2,2.3,0.5c0.5,0.3,0.8,0.8,0.8,1.5
		C348.6,166.1,348.3,166.6,347.7,166.9z M353.2,152.5h-4c-1.6,1-2.4,2.3-2.4,3.9c0,1.1,0.8,2.4,2.3,3.8c0.4,0.3,0.9,0.7,1.6,1.2
		c0.7,0.5,1.5,1.1,2.6,1.8V152.5z"/>
	<path class="st4" d="M365.9,148.6v19.3h1.7l-0.1,0.8h-6.8l0.1-0.8h1.4v-19.3h-2.9v-2.5h10.1c0,0.4,0,0.8,0,1.1c0,0.3,0,0.8,0,1.3
		H365.9z"/>
	<path class="st4" d="M391.4,148.6c0.9,0.7,1.6,1.3,2,2c0.4,0.7,0.6,1.5,0.6,2.3c0,1.8-0.9,3.4-2.6,4.8c-1.7,1.4-4.3,2.6-7.8,3.7
		c0.7,2.1,1.9,3.9,3.4,5.2c0.4,0.4,1.1,0.9,2,1.5s2,1.4,3.4,2.2c0.2,0.1,0.4,0.2,0.5,0.3c0.2,0.1,0.3,0.2,0.5,0.3l-0.5,0.7
		c-1.6-0.8-2.9-1.6-4.1-2.3c-1.2-0.7-2.2-1.3-3-1.9c-1.3-0.9-2.4-1.9-3.5-3s-2-2.3-3-3.7c3.8-1,6.5-2,8.2-3.2
		c1.7-1.2,2.6-2.5,2.6-3.9c0-1-0.3-1.9-1-2.8c-0.7-1-1.5-1.4-2.5-1.4c-1,0-1.8,0.2-2.4,0.7c-0.7,0.5-1.1,1.1-1.1,2
		c0,0.3,0,0.7,0.1,1c0,0.3,0.1,0.7,0.3,1.1c0.1,0.4,0.3,0.8,0.6,1.3s0.6,1,0.9,1.6c-0.6-0.3-1.2-0.6-1.6-0.9
		c-0.4-0.2-0.8-0.4-1.1-0.6c-0.3-0.2-0.6-0.4-0.7-0.5c-0.2-0.2-0.4-0.3-0.5-0.4c-0.9-0.9-1.3-2.1-1.2-3.5c0.1-0.8,0.6-1.6,1.6-2.2
		c0,0,0.1-0.1,0.2-0.2c0.1-0.1,0.2-0.1,0.4-0.2h-5.2v-2.5h19.9v2.5H391.4z"/>
	<path class="st4" d="M405.1,148.6c-1,0.8-1.8,1.5-2.5,2.2c-0.7,0.7-1.2,1.3-1.6,1.9c-0.9,1.5-1.4,3.4-1.4,5.6
		c0,0.7,0.1,1.5,0.2,2.2c0.1,0.8,0.4,1.6,0.7,2.5c0.3,0.9,0.8,1.9,1.3,3s1.3,2.4,2.2,3.9c-1.1-1.1-1.9-2-2.6-2.7
		c-0.7-0.8-1.3-1.4-1.7-1.9c-0.4-0.5-0.8-1-1.1-1.3c-0.3-0.4-0.5-0.7-0.7-1c-1.1-1.9-1.6-4.1-1.6-6.7c0-0.7,0.1-1.4,0.2-2
		c0.1-0.6,0.3-1.2,0.5-1.7c0.3-0.6,0.7-1.3,1.2-1.9c0.5-0.6,1.3-1.3,2.1-2.1h-5.9c0-0.4,0-0.7,0.1-0.9c0-0.2,0-0.4,0-0.5
		c0-0.1,0-0.3,0-0.4c0-0.1,0-0.4-0.1-0.7h12.9v2.5H405.1z"/>
	<path class="st4" d="M425.1,148.6v20.1c-0.9-0.5-1.7-0.9-2.5-1.3c-0.7-0.4-1.6-0.8-2.5-1.2c-1.1-0.5-2.1-1-2.8-1.4
		c-0.8-0.4-1.3-0.7-1.7-0.9c-1.7-0.9-3.1-2-4.3-3.3c-1.2-1.3-2.3-2.8-3.2-4.5l5.5-3.9c-0.7-0.9-1.4-1.6-2-2.2
		c-0.6-0.6-1.2-1.1-1.7-1.4h-4.7v-2.5h24.1v2.5H425.1z M416,168.3c-0.6,0.3-1.2,0.5-1.9,0.5s-1.3-0.2-1.8-0.6
		c-0.6-0.4-0.9-1-0.9-1.6c0-0.6,0.3-1.1,1-1.5c0.6-0.3,1.2-0.4,1.8-0.4c0.3,0,0.6,0,1,0.1c0.3,0.1,0.6,0.2,0.8,0.4
		c0.6,0.4,0.9,1,0.9,1.6C416.9,167.4,416.6,167.9,416,168.3z M421.5,148.6h-6.4l2.6,4.1l-5.8,3.7c0.7,1.3,1.4,2.3,2.1,3
		c0.7,0.8,1.4,1.3,2.1,1.7c0.1,0.1,0.7,0.3,1.5,0.7c0.9,0.4,2.2,1,3.9,1.8V148.6z"/>
	<path class="st4" d="M434.4,148.6v1.7c0.7,0.5,1.2,0.9,1.8,1.1c0.5,0.2,1,0.3,1.4,0.3c0.4,0,0.8-0.1,1.3-0.3c0.5-0.2,1-0.5,1.6-0.8
		l3.7,2l-1,1.1c1.7,0.3,2.9,0.8,3.8,1.3s1.3,1.3,1.3,2.2c0,0.8-0.4,1.5-1.2,2.2c-0.8,0.7-2,1.3-3.5,2c-0.4,0.1-1,0.4-2.1,0.7
		c-1,0.3-2.4,0.8-4.1,1.3c0.7,2.1,1.8,3.8,3.3,5.2c0.3,0.3,0.8,0.7,1.4,1.2s1.4,1,2.3,1.6l-0.5,0.7c-1.3-0.6-2.4-1.1-3.3-1.6
		c-0.9-0.5-1.7-0.9-2.3-1.3c-1.1-0.7-2.2-1.5-3.1-2.4s-1.9-2.1-2.9-3.5c4.1-1.1,7-2.3,8.8-3.4c1.8-1.2,2.7-2.4,2.7-3.6
		c0-0.1-0.1-0.3-0.2-0.5c-0.2-0.2-0.4-0.4-0.9-0.7l-0.3-0.2c-0.3,0.5-0.7,1-1.2,1.6c-0.4,0.6-1,1.3-1.5,2c-0.4,0.4-1,0.9-1.7,1.4
		c-0.7,0.5-1.5,1-2.5,1.6c-0.8-0.3-1.6-0.7-2.3-1.1c-0.8-0.4-1.6-0.9-2.5-1.4v-10.6h-3.5v-2.5H451v2.5H434.4z M439.8,152.7
		c-1.2,0.9-2.3,1.4-3.3,1.4c-0.3,0-0.7,0-1-0.1s-0.7-0.1-1.1-0.2v5.3l1.3,1.1c0.6-0.5,1.1-1,1.6-1.6c0.4-0.5,0.8-1.1,1.1-1.6
		c0.1-0.2,0.7-1.4,1.8-3.9C440.2,153,440,152.8,439.8,152.7z"/>
	<path class="st4" d="M465.2,173.9c-0.6,0.3-1.3,0.5-2,0.5c-0.6,0-1.2-0.2-1.8-0.7c-0.5-0.5-0.8-1-0.8-1.6c0-0.6,0.3-1.1,1-1.5
		c0.5-0.3,1.1-0.4,1.8-0.4c0.6,0,1.3,0.2,1.8,0.6c0.6,0.4,0.9,0.9,0.9,1.5C466.2,173,465.9,173.5,465.2,173.9z M461.5,168.8v-18.8
		h3.5v18.8H461.5z"/>
	<path class="st4" d="M473.3,173.9c-0.6,0.3-1.3,0.5-2,0.5c-0.6,0-1.2-0.2-1.8-0.7c-0.5-0.5-0.8-1-0.8-1.6c0-0.6,0.3-1.1,1-1.5
		c0.5-0.3,1.1-0.4,1.8-0.4c0.6,0,1.3,0.2,1.8,0.6c0.6,0.4,0.9,0.9,0.9,1.5C474.2,173,473.9,173.5,473.3,173.9z M469.5,168.8v-18.8
		h3.5v18.8H469.5z"/>
</g>
<g>
</g>
<g>
</g>
<g>
</g>
<g>
</g>
<g>
</g>
<g>
</g>
<g>
</g>
<g>
</g>
<g>
</g>
<g>
</g>
<g>
</g>
<g>
</g>
<g>
</g>
<g>
</g>
<g>
</g>
</svg>
