<?xml version="1.0" encoding="utf-8"?>
<!-- Generator: Adobe Illustrator 21.0.0, SVG Export Plug-In . SVG Version: 6.00 Build 0)  -->
<svg version="1.1" id="Layer_1" xmlns="http://www.w3.org/2000/svg" xmlns:xlink="http://www.w3.org/1999/xlink" x="0px" y="0px"
	 viewBox="0 0 721 216" style="enable-background:new 0 0 721 216;" xml:space="preserve">
<style type="text/css">
	.st0{opacity:0.8;fill:#FFFDFF;}
	.st1{fill:#00A99D;}
	.st2{fill:#1B1464;}
	.st3{fill:#FFFFFF;}
	.st4{fill:#FF00F6;}
</style>
<rect x="1" y="1" class="st0" width="721" height="216"/>
<g>
	<g>
		<path class="st1" d="M323,79.5c-6.3,0-11.5-5.2-11.5-11.5V27c0-6.3,5.2-11.5,11.5-11.5h46c6.3,0,11.5,5.2,11.5,11.5v41
			c0,6.3-5.2,11.5-11.5,11.5H323z"/>
		<path class="st2" d="M369,16c6.1,0,11,4.9,11,11v41c0,6.1-4.9,11-11,11h-46c-6.1,0-11-4.9-11-11V27c0-6.1,4.9-11,11-11H369
			 M369,15h-46c-6.6,0-12,5.4-12,12v41c0,6.6,5.4,12,12,12h46c6.6,0,12-5.4,12-12V27C381,20.4,375.6,15,369,15L369,15z"/>
	</g>
	<g>
		<path class="st3" d="M332,28.2c3.8,0,6.8,1.3,8.9,3.9c2.6,3,3.8,8.1,3.8,15.2c0,7-1.3,12.1-3.9,15.2c-2.1,2.5-5.1,3.8-8.9,3.8
			c-3.8,0-6.9-1.4-9.2-4.2c-2.3-2.8-3.5-7.7-3.5-14.9c0-7,1.3-12.1,3.9-15.1C325.3,29.5,328.2,28.2,332,28.2z M332,34.2
			c-0.9,0-1.7,0.3-2.4,0.8c-0.7,0.6-1.3,1.5-1.7,3c-0.5,1.8-0.8,5-0.8,9.3s0.2,7.4,0.7,9c0.5,1.6,1,2.7,1.8,3.3
			c0.7,0.5,1.5,0.8,2.4,0.8c0.9,0,1.7-0.3,2.4-0.8c0.7-0.5,1.3-1.5,1.7-3c0.5-1.8,0.8-4.9,0.8-9.3s-0.2-7.4-0.7-9
			c-0.5-1.6-1-2.7-1.8-3.3C333.8,34.4,333,34.2,332,34.2z"/>
		<path class="st3" d="M349.6,55.7l7.3-0.8c0.2,1.8,0.9,3.1,1.9,4c1,0.9,2.2,1.4,3.7,1.4c1.6,0,2.9-0.6,3.9-1.7s1.6-2.6,1.6-4.5
			c0-1.8-0.5-3.2-1.5-4.3s-2.3-1.6-3.7-1.6c-1,0-2.1,0.2-3.5,0.5l0.8-5.8c2,0.1,3.6-0.4,4.7-1.3c1.1-0.9,1.6-2.1,1.6-3.5
			c0-1.3-0.4-2.3-1.2-3c-0.8-0.7-1.8-1.1-3.1-1.1c-1.3,0-2.4,0.4-3.3,1.3c-0.9,0.8-1.5,2.1-1.7,3.7l-6.9-1.1c0.5-2.3,1.2-4,2.2-5.4
			c1-1.3,2.3-2.4,4.1-3.2c1.7-0.8,3.7-1.2,5.9-1.2c3.7,0,6.7,1.1,8.9,3.4c1.8,1.8,2.8,3.9,2.8,6.2c0,3.3-1.9,5.9-5.6,7.8
			c2.2,0.5,4,1.5,5.4,3.1c1.3,1.6,2,3.5,2,5.8c0,3.3-1.3,6.1-3.8,8.4c-2.5,2.3-5.6,3.5-9.4,3.5c-3.6,0-6.5-1-8.8-2.9
			C351.3,61.4,349.9,58.9,349.6,55.7z"/>
	</g>
</g>
<g>
</g>
<g>
</g>
<g>
</g>
<g>
</g>
<g>
	<path class="st4" d="M133.1,101.1v3.3h1.3c2.1,0,3.5,0.2,4.4,0.6c1.1,0.5,1.7,1.6,1.7,3.2c0,1.1-0.6,2.4-1.9,4.1
		c-0.2,0.3-0.4,0.5-0.7,0.8c-0.2,0.3-0.5,0.6-0.9,1c-0.4,0.4-0.8,0.8-1.3,1.3c-0.5,0.5-1.1,1.1-1.9,1.8c0.6-1.2,1.2-2.3,1.6-3.2
		c0.4-0.9,0.8-1.7,1-2.5s0.4-1.4,0.5-2c0.1-0.6,0.1-1.2,0.1-1.7s-0.1-1-0.4-1.3c-0.1-0.1-0.2-0.2-0.4-0.4c-0.2-0.1-0.4-0.3-0.7-0.5
		h-2.4v15.4c-4.6-2.2-8.1-4.4-10.3-6.5c-2.2-2.1-3.3-4.3-3.3-6.4c0-1.6,0.9-2.7,2.6-3.2c0.5-0.2,1.1-0.3,1.8-0.4
		c0.7-0.1,1.6-0.1,2.6,0l2.9,0.1v-3.4h-14v-2.5h27.8v2.5H133.1z M129.5,105.7H126c-0.9,0.3-1.5,0.8-1.8,1.2
		c-0.1,0.2-0.3,0.5-0.3,0.9c-0.1,0.3-0.1,0.8-0.1,1.3c0,1.5,0.6,3.1,1.9,4.9c1.1,1.4,2.3,2.5,3.8,3.3V105.7z"/>
	<path class="st4" d="M124.3,120.9c0-0.4,0.1-0.7,0.2-1.1s0.3-0.6,0.6-0.9c0.6-0.6,1.3-0.8,2.1-0.8c0.4,0,0.8,0.1,1.2,0.4
		c0.4,0.2,0.8,0.6,1.3,1.1v-4h3.7v9.3h1.8v1.1h-7v-1h1.6v-1.6c0,0,0-0.2,0-0.5c0-0.3,0-0.7,0-1.3c-0.4-0.6-0.8-1-1.1-1.2
		c-0.3-0.2-0.6-0.4-1-0.4c-0.3,0-0.7,0.3-1.1,0.8c-0.4,0.5-0.8,1.6-1.4,3.1c-0.4-0.7-0.7-1.2-0.9-1.5c-0.2-0.3-0.4-0.6-0.7-0.8
		c-0.4-0.3-0.7-0.5-1-0.7c-0.3-0.1-0.6-0.2-0.9-0.2c-0.4,0-0.7,0-0.8,0.1s-0.2,0.2-0.2,0.3c0,0.6,0.3,1.3,1,1.9
		c0.1,0.1,0.2,0.2,0.2,0.3c0.1,0.1,0.2,0.2,0.4,0.4c0.2,0.2,0.3,0.4,0.6,0.6c0.2,0.2,0.5,0.5,0.9,0.9c-2.1-0.6-3.5-1.2-4.3-1.9
		c-0.8-0.7-1.2-1.6-1.2-2.6c0-0.6,0.2-1.2,0.7-1.8c0.4-0.6,1-0.8,1.7-0.8c0.7,0,1.3,0.2,1.9,0.6C123.1,119.3,123.7,120,124.3,120.9z
		"/>
	<path class="st4" d="M146.9,101.1v19.3h1.7l-0.1,0.8h-6.8l0.1-0.8h1.4v-19.3h-2.9v-2.5h10.1c0,0.4,0,0.8,0,1.1c0,0.3,0,0.8,0,1.3
		H146.9z"/>
	<path class="st4" d="M170,101.1v19.2h1.4v1h-6.6v-1h1.5v-10.4l-2.2-1.6c-0.4,0.4-1,1-1.6,1.7c-0.6,0.7-1.4,1.5-2.3,2.4
		c-1,1-1.9,1.8-2.6,2.3s-1.4,0.8-1.9,0.8c-0.8,0-1.5-0.1-2.3-0.4c-0.8-0.3-1.7-0.8-2.6-1.4l0.1-1.9c0.8,0.6,1.3,1,1.7,1.2
		c0.4,0.2,0.7,0.3,1,0.3c0.8,0,1.8-0.6,3-1.8c0.6-0.6,1.1-1.2,1.3-1.7c0.3-0.5,0.4-0.9,0.4-1.3c0-0.6-0.1-1.1-0.3-1.4
		c-0.2-0.3-0.5-0.4-0.9-0.4c-0.4,0-1,0.2-1.7,0.5l-1.8,0.8c-1-0.2-1.7-0.5-2.1-0.8c-0.5-0.4-0.7-1-0.7-1.9c0-0.6,0.6-1.9,1.9-3.9
		h-4.4v-2.5h25.7v2.5H170z M166.3,101.1h-11.2c-0.3,0.3-0.5,0.7-0.7,1c-0.2,0.4-0.4,0.7-0.6,1.1c-0.1,0.2-0.2,0.5-0.2,0.7
		c0,0.2,0.1,0.3,0.2,0.4s0.3,0.1,0.7,0.1c0.4,0,1-0.1,1.8-0.4c0.4-0.1,0.8-0.2,1.1-0.3c0.3-0.1,0.6-0.1,0.8-0.1
		c0.7,0,1.3,0.3,1.6,0.8c0.3,0.5,0.5,1.3,0.5,2.3c0,0.2,0,0.4,0,0.6c0,0.2,0,0.5-0.1,0.8l3.5-2.7c0.4,0.2,0.8,0.4,1.2,0.7
		c0.4,0.3,0.9,0.6,1.4,1V101.1z"/>
	<path class="st4" d="M192.4,101.1c-1,0.8-1.8,1.5-2.5,2.2c-0.7,0.7-1.2,1.3-1.6,1.9c-0.5,0.8-0.8,1.6-1.1,2.5
		c-0.2,0.9-0.4,1.9-0.4,3c0,0.7,0.1,1.5,0.2,2.2c0.1,0.7,0.3,1.6,0.7,2.5c0.3,0.9,0.8,1.9,1.4,3.1c0.6,1.1,1.3,2.4,2.2,3.9
		c-1.1-1.1-1.9-2-2.6-2.7c-0.7-0.8-1.3-1.4-1.7-1.9c-0.5-0.5-0.8-1-1.1-1.3c-0.3-0.4-0.5-0.7-0.6-1c-1.1-1.9-1.7-4.1-1.7-6.7
		c0-1,0-1.8,0.1-2.5c0.1-0.7,0.2-1.3,0.5-1.7c1.4-2.7,3.7-4.7,6.9-6h3.7v2.5H192.4z"/>
	<path class="st4" d="M199.6,101.1v16.8c0,0.2,0.1,0.4,0.4,0.6c0.2,0.2,0.5,0.4,0.9,0.7c1.7-0.9,2.9-2.6,3.9-5.1
		c0.8-2.2,1.2-4.3,1.2-6.3c0-0.5-0.1-0.9-0.2-1c-0.1-0.2-0.3-0.3-0.5-0.3c-0.2,0-0.5,0.1-0.9,0.3c-0.4,0.2-0.9,0.5-1.5,0.9l-1.2-0.4
		l4.7-2.8l2.7,1.4v0.8c0,3.1-0.7,5.9-2.1,8.2c-1.4,2.4-3.6,4.4-6.6,6.1c-0.4-0.2-1-0.5-1.7-1c-0.7-0.5-1.6-1.2-2.6-2v-16.9h-2.6
		v-2.5h12.6c0-0.2,0-0.3,0-0.5c0-0.2,0-0.3,0-0.5c0.1-0.5,0.1-0.9,0.1-1.2c0-0.5-0.4-1-1.1-1.3c-0.6-0.3-1.3-0.4-2.1-0.4
		c-2,0-4.7,0.4-8.1,1.2l-0.3-0.8c3.8-1.6,7.2-2.4,10.2-2.4c2,0,3.5,0.9,4.4,2.6v3.2h4v2.5H199.6z"/>
	<path class="st4" d="M229.2,101.1v16.5c0,0.3,0.1,0.5,0.3,0.7c0.2,0.2,0.4,0.4,0.7,0.6c0.5,0.4,1,0.6,1.5,0.7
		c0.9-0.6,1.7-1.3,2.3-1.9c0.6-0.7,1.1-1.3,1.5-2.1c0.4-0.7,0.7-1.6,0.9-2.5s0.3-1.9,0.3-3c0-0.3-0.1-0.5-0.2-0.7
		c-0.2-0.1-0.4-0.2-0.8-0.2l-2.2,1.2l-0.8-1.2l4.3-1.9l2.9,1.3c-0.1,1.6-0.4,3-0.7,4.2c-0.4,1.2-0.8,2.3-1.5,3.3
		c-1.2,1.9-3.1,3.7-5.8,5.4c-1.3-0.2-2.6-0.4-3.8-0.8c-1.3-0.4-2.6-0.8-3.9-1.4c-2.7-1.2-5-2.6-6.9-4.2c-0.4-0.3-0.8-0.7-1.2-1.1
		c-0.4-0.4-0.8-0.9-1.1-1.5c-0.1-0.2-0.3-0.4-0.5-0.7c-0.2-0.2-0.4-0.6-0.6-1c-0.2-0.4-0.5-0.9-0.9-1.4l7.8-4.2l-1.5-1.8
		c-0.3-0.4-0.6-0.7-0.9-0.9c-0.3-0.2-0.7-0.5-1-0.6c-0.5-0.2-1.2-0.4-2.2-0.5c-1-0.1-2.3-0.2-3.9-0.2v-2.5h23.2v-2.4
		c0-0.4-0.2-0.8-0.5-1.2c-0.4-0.3-0.8-0.5-1.2-0.5c-1.2,0-2.5,0.1-4,0.3c-1.5,0.2-3.2,0.5-5.1,1l-0.3-0.8c0.5-0.2,1.1-0.4,1.8-0.7
		c0.6-0.2,1.3-0.4,2-0.6c2.4-0.7,4.4-1,5.9-1c1.8,0,3.6,0.9,5.3,2.6v3.3h3.5v2.5H229.2z M225.5,109.4l-2.8-3.2l-6.7,3.4
		c0.3,0.6,0.8,1.5,1.5,2.5l1.4,1.5c0.3,0.4,0.7,0.9,1,1.2c0.3,0.4,0.7,0.7,1.1,0.9c0.2,0.2,0.5,0.4,1,0.6c0.5,0.2,1,0.5,1.7,0.9
		c0.2,0.1,0.4,0.2,0.6,0.4c0.2,0.1,0.4,0.2,0.6,0.4c0.1,0.1,0.3,0.2,0.6,0.4V109.4z M225.5,101.1H220c0.4,0.5,0.8,1,1.3,1.5
		c0.4,0.5,0.9,1,1.5,1.5l2.8,2.7V101.1z"/>
	<path class="st4" d="M270.9,118.7c-2,1.5-4.1,2.3-6.4,2.3c-1.2,0-2.4-0.3-3.5-0.8c-1.1-0.5-2.2-1.3-3.2-2.4
		c-0.8-0.8-1.5-1.7-2.1-2.6c-0.6-0.9-1.1-1.9-1.5-3c-0.1-0.6-0.4-1.4-0.7-2.5c-0.3-1-0.8-2.4-1.4-4l4.8-0.8c0.2,1.9,0.4,3.5,0.6,4.8
		c0.2,1.3,0.5,2.4,0.8,3.2c0.9,2.8,2.6,4.9,4.9,6.5c0.2,0.1,0.4,0.1,0.6,0.1c0.2,0,0.4,0,0.6,0c1.7,0,3.1-0.7,4.2-2.2
		c0.9-1.2,1.3-2.5,1.3-3.8c0-0.8-0.1-1.3-0.4-1.6c-0.3-0.3-0.8-0.4-1.6-0.4c-0.1,0-0.3,0-0.4,0.1c-0.1,0-0.3,0.1-0.5,0.2
		c-0.1,0-0.2,0.1-0.3,0.1c-0.1,0-0.2,0.1-0.4,0.2c-0.2,0.1-0.4,0.2-0.7,0.4c-0.3,0.1-0.6,0.3-1,0.6c0.3-0.5,0.5-1,0.8-1.4
		s0.4-0.8,0.6-1.1c0.2-0.3,0.4-0.7,0.5-1c0.2-0.3,0.3-0.6,0.5-1c0.6-1.2,0.9-2.5,0.9-4c0-0.9-0.2-1.7-0.7-2.3c-0.5-0.7-1.2-1-2-1
		c-0.4,0-0.7,0.1-1.1,0.4c-0.4,0.3-0.8,0.7-1.3,1.3c-0.8,1.1-1.2,2-1.2,2.8c0,0.2,0,0.3,0.1,0.5c0,0.2,0.1,0.4,0.2,0.8
		c0.1,0.3,0.3,0.7,0.4,1.2c0.2,0.5,0.4,1.1,0.7,1.7c-0.8-0.7-1.5-1.3-2.1-1.9c-0.6-0.6-1-1.1-1.4-1.5c-0.3-0.5-0.6-0.9-0.7-1.3
		c-0.1-0.4-0.2-0.8-0.2-1.1c0-0.7,0.2-1.4,0.6-2.1c0.4-0.7,1-1.3,1.7-1.9c1.4-1.1,2.9-1.6,4.5-1.6c1.8,0,3.3,0.4,4.5,1.3
		c1.3,1,2,2.3,2,4c0,1.1-0.3,2.1-0.9,3.1s-1.6,2.1-3,3.2c0.6-0.2,1-0.3,1.4-0.4c0.4-0.1,0.7-0.1,1-0.1c0.9,0,1.7,0.3,2.3,1
		c0.6,0.6,0.9,1.4,0.9,2.3C273.9,115.3,272.9,117.1,270.9,118.7z"/>
	<path class="st4" d="M305.8,96.2l0.9-0.2v1.2c-1-0.4-1.9-0.7-2.8-0.9c-0.9-0.2-1.8-0.5-2.8-0.7c-1.1-0.2-2.2-0.4-3-0.5
		c-0.9-0.1-1.7-0.2-2.4-0.2c-1.6,0-2.8,0.2-3.4,0.5c-0.7,0.3-1,0.8-1,1.4v1.8h4.5v2.5h-4v19.4h0.7v0.9h-5.6v-0.9h1.2v-19.4h-4.1
		v-2.5h4.1v-0.1c0-1.9,0.3-3.4,1-4.3c0.8-1.2,2.2-1.7,4.3-1.7c0.8,0,1.8,0.1,3,0.3c1.1,0.2,2.5,0.6,3.9,1c1.1,0.4,2.2,0.7,3.1,1.1
		C304.1,95.4,305,95.8,305.8,96.2L305.8,96.2z"/>
	<path class="st4" d="M310.4,120.9c-0.8-0.6-1.6-1.1-2.3-1.5c-0.7-0.4-1.5-0.9-2.3-1.4c-2-1.2-3.4-2.1-4.3-2.7
		c-3.4-2.4-5.1-4.8-5.1-7.3c0-2.1,1.4-3.7,4.1-4.9h6.2v-1.9h-12.6v-2.5h20.6v2.5c-0.3,0-0.6,0-1,0c-0.4,0-0.8,0-1.2,0
		c-0.4,0-0.8,0-1.2,0c-0.4,0-0.7,0-0.9,0V120.9z M306.7,104.5h-4c-1.6,1-2.4,2.3-2.4,3.9c0,0.9,0.5,1.9,1.5,3c1,1.2,2.7,2.5,4.9,4
		V104.5z"/>
	<path class="st4" d="M332,101.1v19.4h1.5v0.9h-6.7v-0.8h1.4V105c0-0.1-0.1-0.3-0.2-0.5c-0.1-0.2-0.3-0.5-0.5-0.8
		c-0.2-0.4-0.4-0.7-0.6-0.9c-0.2-0.2-0.3-0.4-0.4-0.5c-0.5-0.6-1.3-1.1-2.4-1.5c-1-0.4-2-0.6-3-0.6c-1.3,0-2.5,0.4-3.6,1.3
		c-1.1,0.9-1.6,1.9-1.6,3.1c0,0.6,0.4,1,1.1,1.2c0.9-0.5,1.8-0.9,2.6-1.1c0.8-0.2,1.6-0.4,2.3-0.4c1.2,0,2.2,0.4,3,1.1
		c0.8,0.7,1.2,1.7,1.2,2.8c0,0.7-0.2,1.3-0.5,2.1c-0.3,0.7-0.9,1.5-1.8,2.4c-0.8,0.9-1.9,1.9-3.3,3c-1.4,1.1-3,2.4-5.1,3.8
		c0.9-1,1.6-1.8,2.2-2.4c0.6-0.6,1.1-1.2,1.4-1.6c0.4-0.4,0.7-0.8,0.9-1c0.2-0.3,0.5-0.5,0.7-0.8c1.3-1.5,2-3.1,2-4.6
		c0-0.6-0.1-1.1-0.4-1.4c-0.2-0.3-0.6-0.4-1.1-0.4c-0.3,0-1.1,0.3-2.4,0.8c-1.3,0.5-2.2,0.8-2.8,0.8c-0.9,0-1.6-0.3-2.2-0.8
		c-0.6-0.6-0.9-1.3-0.9-2c0-2.1,0.9-3.9,2.6-5.4c1.7-1.5,3.7-2.3,5.8-2.3c1.5,0,3,0.5,4.3,1.4c0.5,0.3,0.9,0.7,1.3,1.1
		c0.4,0.4,0.7,0.9,1,1.4v-3.5h7.7v2.5H332z"/>
	<path class="st4" d="M353.4,101.1c1.3,1,2.2,2.3,2.7,3.8c0.6,1.5,0.8,3.3,0.8,5.4c0,2.7-0.7,5-2.1,6.9c-1.7,2.5-4.1,3.7-7.2,3.7
		c-1.5,0-2.8-0.4-3.9-1.1c-2-1.4-3.4-2.7-4.3-4c-0.7-1.1-1.6-3-2.5-5.7c-0.2-0.6-0.4-1.5-0.6-2.8c-0.1-0.5-0.2-1-0.3-1.5
		c-0.1-0.5-0.3-1-0.5-1.6l5.2-0.4c-0.1,0.9-0.2,1.7-0.2,2.2c0,0.6,0,1,0,1.4c0,1.3,0.1,2.5,0.3,3.7c0.2,1.2,0.6,2.4,1,3.6
		c0.7,1.7,1.5,2.9,2.4,3.7c0.9,0.8,2,1.2,3.2,1.2c2.1,0,3.6-1.3,4.6-3.9c0.7-1.8,1-3.8,1-5.9c0-1.8-0.2-3.5-0.6-5.1
		c-0.3-1.2-0.7-2.1-1.2-2.6c-0.4-0.5-0.9-0.8-1.5-0.8c-0.5,0-1,0.2-1.4,0.7c-0.4,0.5-0.8,1.3-1.2,2.4c-0.4,1.5-0.7,3-0.7,4.4
		c0,0.6,0.1,1.2,0.2,1.8c0.1,0.6,0.4,1.4,0.8,2.4c-0.8-0.4-1.5-0.9-2.1-1.3s-1-0.9-1.4-1.4c-0.4-0.5-0.6-1-0.8-1.5
		c-0.2-0.5-0.2-1.1-0.2-1.7c0-1.3,0.2-2.4,0.7-3.4c0.5-1,1.2-1.9,2.3-2.7h-11.7v-2.5h25.3c0,0.2,0,0.3,0,0.5c0,0.1,0,0.3,0,0.4
		c0,0.2,0,0.4,0,0.6s0,0.6,0,1H353.4z"/>
	<path class="st4" d="M389.7,101.1v19.2h1.4v1h-6.6v-1h1.5v-10.4l-2.2-1.6c-0.4,0.4-1,1-1.6,1.7c-0.6,0.7-1.4,1.5-2.3,2.4
		c-1,1-1.9,1.8-2.6,2.3c-0.8,0.5-1.4,0.8-1.9,0.8c-0.8,0-1.5-0.1-2.3-0.4c-0.8-0.3-1.7-0.8-2.6-1.4l0.1-1.9c0.8,0.6,1.3,1,1.7,1.2
		c0.4,0.2,0.7,0.3,1,0.3c0.8,0,1.8-0.6,3-1.8c0.6-0.6,1.1-1.2,1.3-1.7s0.4-0.9,0.4-1.3c0-0.6-0.1-1.1-0.3-1.4
		c-0.2-0.3-0.5-0.4-0.9-0.4c-0.4,0-1,0.2-1.7,0.5l-1.8,0.8c-1-0.2-1.7-0.5-2.1-0.8c-0.5-0.4-0.7-1-0.7-1.9c0-0.6,0.7-1.9,2-3.9H368
		v-2.5h25.7v2.5H389.7z M386.1,101.1h-11.2c-0.3,0.3-0.5,0.7-0.7,1c-0.2,0.4-0.4,0.7-0.6,1.1c-0.1,0.2-0.2,0.5-0.2,0.7
		c0,0.2,0.1,0.3,0.2,0.4c0.1,0.1,0.3,0.1,0.7,0.1c0.4,0,1-0.1,1.8-0.4c0.4-0.1,0.8-0.2,1.1-0.3c0.3-0.1,0.6-0.1,0.8-0.1
		c0.7,0,1.3,0.3,1.6,0.8c0.3,0.5,0.5,1.3,0.5,2.3c0,0.2,0,0.4,0,0.6c0,0.2,0,0.5-0.1,0.8l3.5-2.7c0.4,0.2,0.8,0.4,1.2,0.7
		c0.4,0.3,0.9,0.6,1.4,1V101.1z"/>
	<path class="st4" d="M398.8,101.1v19.3h1.7l-0.1,0.8h-6.8l0.1-0.8h1.4v-19.3h-2.9v-2.5h10.1c0,0.4,0,0.8,0,1.1c0,0.3,0,0.8,0,1.3
		H398.8z"/>
	<path class="st4" d="M410.3,101.1c-1,0.8-1.8,1.5-2.5,2.2c-0.7,0.7-1.2,1.3-1.6,1.9c-0.9,1.5-1.4,3.4-1.4,5.6
		c0,0.7,0.1,1.5,0.2,2.2c0.1,0.8,0.4,1.6,0.7,2.5c0.3,0.9,0.8,1.9,1.3,3c0.6,1.1,1.3,2.4,2.2,3.9c-1.1-1.1-1.9-2-2.6-2.7
		c-0.7-0.8-1.3-1.4-1.7-1.9c-0.4-0.5-0.8-1-1.1-1.3s-0.5-0.7-0.7-1c-1.1-1.9-1.6-4.1-1.6-6.7c0-0.7,0.1-1.4,0.2-2
		c0.1-0.6,0.3-1.2,0.5-1.7c0.3-0.6,0.7-1.3,1.2-1.9c0.5-0.6,1.3-1.3,2.1-2.1h-5.9c0-0.4,0-0.7,0.1-0.9c0-0.2,0-0.4,0-0.5
		c0-0.1,0-0.3,0-0.4c0-0.1,0-0.4-0.1-0.7h12.9v2.5H410.3z"/>
	<path class="st4" d="M431.3,101.1v19.3h0.5l0,0.8h-4.2v-12.4c0-0.5-0.4-1-1.1-1.4c-0.7-0.4-1.4-0.6-2.1-0.6c-0.3,0-0.7,0.2-1,0.5
		c-0.4,0.3-0.8,1-1.3,2c-0.7-1-1.2-1.6-1.7-2c-0.4-0.3-0.8-0.5-1.1-0.5c-1,0-1.8,0.3-2.3,1c-0.5,0.7-0.8,1.7-0.8,3.2
		c0,1.3,0.2,2.3,0.5,3.1c0.1,0.3,0.4,0.7,0.7,1.1c0.3,0.4,0.7,0.9,1.2,1.4c0.1,0.1,0.2,0.2,0.4,0.3c0.1,0.1,0.4,0.3,0.6,0.5
		s0.7,0.5,1.1,0.9s1.1,0.9,1.8,1.5c-1.1-0.5-2.1-0.9-2.8-1.3s-1.4-0.7-2-1.1c-0.5-0.3-1-0.7-1.3-1c-0.4-0.3-0.7-0.6-1-0.9
		c-1.6-1.7-2.4-3.6-2.4-5.7c0-1.9,0.5-3.3,1.5-4.4c1-1.1,2.5-1.7,4.5-1.7c1.2,0,2,0.6,2.7,1.9c0.1,0.2,0.2,0.4,0.3,0.6l0.3-0.7
		c0.5-1,1.5-1.5,2.9-1.5c0.5,0,0.9,0.2,1.3,0.5c0.4,0.3,0.8,0.8,1.2,1.3c0,0,0.1,0.1,0.1,0.1s0,0.1,0.1,0.1v-5h-17.2v-2.5h24.8
		l0.1,2.5H431.3z"/>
	<path class="st4" d="M450.1,101.1v19.8c-0.9-0.6-1.7-1.2-2.4-1.6c-0.7-0.4-1.4-0.9-2.2-1.3c-1.2-0.6-2.1-1.2-2.9-1.6
		c-0.7-0.4-1.2-0.7-1.5-0.9c-1.7-1.1-3-2.3-3.8-3.4c-0.9-1.2-1.3-2.4-1.3-3.6c0-2.1,1.4-3.7,4.1-4.9h6.2v-2.3h-12.7v-2.5h20.6v2.5
		c-0.4,0-0.7,0-0.9,0s-0.4,0-0.6,0H450.1z M440.9,119.4c-0.5,0.3-1.1,0.5-1.8,0.5c-0.7,0-1.3-0.2-1.8-0.5c-0.5-0.4-0.8-0.9-0.8-1.5
		c0-0.6,0.2-1,0.7-1.4c0.4-0.4,1-0.6,1.6-0.6c1,0,1.7,0.2,2.3,0.5c0.5,0.3,0.8,0.8,0.8,1.5C441.8,118.6,441.5,119.1,440.9,119.4z
		 M446.5,105h-4c-1.6,1-2.4,2.3-2.4,3.9c0,1.1,0.8,2.4,2.3,3.8c0.4,0.3,0.9,0.7,1.6,1.2c0.7,0.5,1.5,1.1,2.6,1.8V105z"/>
	<path class="st4" d="M482.9,101.1v19.4h1.5v0.8h-5.1v-12.9l-0.5-0.5l-8.2,5.7c-0.3-0.1-0.5-0.2-0.8-0.4c-0.3-0.1-0.6-0.3-0.9-0.6
		c-0.4-0.2-0.8-0.5-1.2-0.8s-1-0.8-1.7-1.2l3,0.7c0.4-0.3,0.9-0.6,1.3-0.9c0.4-0.3,0.8-0.6,1.3-1c0.2-0.6,0.1-1.2-0.3-1.5
		c-0.4-0.4-0.9-0.5-1.7-0.5c-0.4,0-1.1,0.2-1.8,0.5c-0.9,0.4-1.4,0.6-1.7,0.6c-1.5,0-2.3-0.8-2.2-2.4c0-2.2,0.9-4,2.6-5.1
		c1.5-1.1,3.5-1.6,5.8-1.6c1.6,0,2.9,0.2,4.1,0.7c0.4,0.2,0.9,0.4,1.3,0.7c0.5,0.3,1,0.7,1.6,1.2v-3.3h7.4v2.5H482.9z M478.6,104.1
		c-1.9-1.7-4.1-2.5-6.5-2.5c-0.5,0-1.1,0.1-1.7,0.2c-0.6,0.1-1.2,0.3-1.7,0.6c-0.5,0.3-1,0.6-1.3,0.9c-0.4,0.4-0.5,0.8-0.5,1.2
		c0,0.2,0.1,0.3,0.3,0.5c0.2,0.2,0.5,0.2,0.8,0.2c0.1,0,0.2,0,0.5-0.1c0.1,0,0.2-0.1,0.3-0.1c0.1,0,0.2-0.1,0.3-0.1
		c0.3-0.1,0.6-0.2,0.8-0.2c0.3-0.1,0.5-0.1,0.7,0c0.8,0.2,1.3,0.4,1.7,0.8c0.4,0.3,0.6,0.9,0.7,1.7c0,0.4,0.2,0.6,0.6,0.7l3.2-2.5
		c0.3,0.1,0.6,0.2,0.8,0.3c0.2,0.1,0.4,0.1,0.6,0.2l0.6,0.2V104.1z"/>
	<path class="st4" d="M478.3,125.5l-0.2-0.6h1.2v-0.8c-1-0.9-2-1.3-2.9-1.3c-0.1,0-0.3,0.1-0.7,0.3s-0.8,0.4-1.4,0.7
		c-1.4,0.6-2.5,1-3.3,1c-2.2,0-3.9-0.9-5.1-2.7c-0.3-0.4-0.6-1.3-1-2.6c0-0.2-0.1-0.4-0.1-0.6c0-0.2-0.1-0.5-0.1-0.8
		c0-0.3-0.1-0.7-0.2-1.2c-0.1-0.5-0.1-1.1-0.2-1.9c0.7,1.5,1.3,2.6,1.9,3.6s1.1,1.7,1.6,2.2c0.5,0.6,1,0.9,1.5,1.2
		c0.5,0.2,1,0.3,1.5,0.3s1.3-0.2,2.3-0.5c1-0.4,1.8-0.5,2.4-0.5c0.7,0,1.3,0.1,1.8,0.2l1.9,1.3v-2.9h3.7v6h-5.2v-0.5L478.3,125.5z"
		/>
	<path class="st4" d="M507.9,101.1h-1.3v20.2h-5.1l-0.1-0.9h1.6v-13.8c-1.1-2-2.1-3.3-3-3.8c-0.5,0.4-1,0.7-1.2,0.9
		c-0.3,0.2-0.5,0.4-0.6,0.5c-0.5,0.5-0.7,1.2-0.7,2c0,0.6,0.1,1.3,0.2,1.9c0.1,0.7,0.4,1.5,0.7,2.4c0.3,0.9,0.8,1.9,1.4,3.1
		c0.6,1.2,1.3,2.6,2.2,4.2c-1.1-1.2-2-2.2-2.8-3.1c-0.8-0.9-1.4-1.7-2-2.4c-0.6-0.7-1-1.3-1.4-1.9c-0.4-0.6-0.7-1.1-1-1.6
		c-0.3,0.6-0.7,1.2-1.1,1.9c-0.4,0.6-0.9,1.2-1.5,1.9c-0.2,0.2-0.4,0.5-0.7,0.8c-0.2,0.3-0.5,0.6-0.9,0.9s-0.8,0.8-1.3,1.3
		c-0.5,0.5-1.2,1.2-2.1,2c0.6-1,1.2-1.8,1.6-2.5c0.4-0.7,0.7-1.2,1-1.7s0.4-0.9,0.6-1.2c0.2-0.3,0.3-0.7,0.4-1
		c0.7-2,1.1-3.8,1.1-5.2c0-1.5-0.3-2.7-0.9-3.5c-0.1-0.1-0.3-0.3-0.4-0.4c-0.2-0.1-0.4-0.3-0.7-0.5c-0.3-0.2-0.7-0.4-1.2-0.7
		c-0.5-0.2-1.1-0.5-1.8-0.9h5.4c0.7,0.6,1.2,1.1,1.7,1.7c0.4,0.5,0.8,1.1,1,1.8c0.2-0.4,0.5-0.7,0.7-1c0.2-0.3,0.5-0.6,0.8-0.8
		c0.2-0.2,0.4-0.4,0.7-0.7c0.3-0.3,0.7-0.7,1.2-1.2c1.8,0.5,3.1,1.2,3.9,2c0.1,0.1,0.2,0.3,0.4,0.5c0.1,0.2,0.3,0.5,0.4,0.9v-4.8
		h7.4v2.5H507.9z"/>
	<path class="st4" d="M501.1,126.3v-1.1h1.9v-3.5c0-0.2-0.1-0.5-0.3-0.8s-0.5-0.6-1-0.9c-0.9-0.7-1.7-1.1-2.2-1.1
		c-2.2,0-3.3,0.8-3.3,2.5c0,0.5,0.1,1.1,0.4,1.6c0.3,0.5,0.6,1.1,1,1.5l0.2,0.1l-0.6,0.2l0.1-0.1c-0.1,0-0.2-0.1-0.3-0.1
		c-0.1,0-0.2-0.1-0.2-0.1c-0.8-0.4-1.6-1-2.2-1.6c-1.1-1-1.7-2-1.7-3c0-0.5,0.2-1,0.7-1.3c0.4-0.4,1.1-0.6,1.9-0.9
		c1-0.3,2.2-0.4,3.6-0.4c1.4,0,2.8,0.8,4,2.5v-3.4c0.1-0.1,0.4-0.2,0.6-0.4c0.3-0.2,0.6-0.4,0.9-0.6c0.3-0.2,0.7-0.4,1.1-0.7
		c0.4-0.2,0.7-0.4,1-0.6v11.2h1.7v1.1H501.1z"/>
	<path class="st4" d="M537.3,121.3l0.2-0.8h1.3l-0.2-1.2c-0.8-1.2-2.2-1.8-4.1-1.9c-2.5-0.1-4.4-0.4-5.6-1c-1.4-0.7-2.8-2-4.2-4
		c-0.4-0.7-0.9-1.4-1.2-2.3c-0.4-0.9-0.7-1.9-0.9-3c-0.1-0.3-0.1-0.6-0.2-1c-0.1-0.4-0.1-0.9-0.2-1.6c0.7-0.3,1.5-0.5,2.2-0.7
		c0.7-0.1,1.6-0.2,2.6-0.3c-0.1,0.4-0.1,0.6-0.2,0.8c0,0.2-0.1,0.3-0.2,0.5c-0.1,0.4-0.2,0.8-0.2,1.2c0,1.3,0.3,2.7,0.9,4.3
		c0.6,1.6,1.3,2.9,2.1,3.8c0.9,0.9,1.9,1.4,3.2,1.4h0.2c0.1,0,0.3,0,0.5,0c0.2,0,0.4,0,0.7,0c0.8,0,1.5,0.1,2.3,0.4
		c0.7,0.3,1.4,0.7,2.2,1.3v-16.1c-0.2-0.2-0.4-0.3-0.6-0.4c-0.2-0.1-0.5-0.2-0.8-0.3c-1.4,1.1-2.5,2.1-3.2,3c-0.7,0.9-1,1.7-1,2.5
		c0,0.4,0,0.8,0.1,1.2c0,0.4,0.1,0.9,0.3,1.3c0.1,0.5,0.3,1,0.6,1.7s0.6,1.3,1,2.2c-1-0.9-1.8-1.7-2.5-2.4c-0.7-0.7-1.2-1.4-1.6-2.1
		c-0.4-0.6-0.7-1.3-0.9-1.8c-0.2-0.6-0.2-1.2-0.2-1.8c0-0.6,0.1-1.2,0.3-1.8c0.2-0.5,0.6-1,1-1.4c0.4-0.2,0.8-0.6,1.3-1
		c0.5-0.4,1.2-0.9,2-1.5c1,0.2,1.8,0.4,2.5,0.6c0.7,0.2,1.2,0.4,1.6,0.6c1,0.4,2.3,1.2,3.7,2.2v18.5h2l0.1,0.8H537.3z"/>
	<path class="st4" d="M560.8,120.9c-0.8-0.6-1.6-1.1-2.3-1.5c-0.7-0.4-1.5-0.9-2.3-1.4c-2-1.2-3.4-2.1-4.3-2.7
		c-3.4-2.4-5.1-4.8-5.1-7.3c0-2.1,1.4-3.7,4.1-4.9h6.2v-1.9h-12.6v-2.5h20.6v2.5c-0.3,0-0.6,0-1,0c-0.4,0-0.8,0-1.2,0
		c-0.4,0-0.8,0-1.2,0s-0.7,0-0.9,0V120.9z M557.2,104.5h-4c-1.6,1-2.4,2.3-2.4,3.9c0,0.9,0.5,1.9,1.5,3c1,1.2,2.7,2.5,4.9,4V104.5z"
		/>
	<path class="st4" d="M570.9,108.9c-0.1,0-0.2,0-0.2-0.1l-0.1,0.1h-0.1c-1,0-1.9-0.5-2.8-1.5c-0.8-1-1.2-1.9-1.2-2.9
		c0-0.2,0.1-0.6,0.2-1c0.1-0.4,0.3-0.9,0.6-1.4c0.3-0.7,0.6-1.2,0.8-1.5s0.4-0.4,0.5-0.5c1.2-0.3,1.9-0.5,2.2-0.5
		c1.1,0,2,0.4,2.7,1.1c0.8,0.7,1.1,1.6,1.1,2.6c0,1.6-0.3,2.9-0.9,3.8S572.2,108.7,570.9,108.9z M572.3,122.7
		c0.3-0.8,0.5-1.4,0.7-1.8c0.2-0.4,0.3-0.8,0.4-1c0.1-0.2,0.1-0.4,0.2-0.5c0-0.1,0-0.2,0-0.3c0-0.7-0.2-1.3-0.7-1.9
		s-1.3-1.1-2.3-1.5h-4.1v-2.9h5.2c1.3,0,2.3,0.5,3,1.4c0.7,0.8,1,1.8,1,3.2c0,0.2,0,0.5-0.1,0.8c-0.1,0.3-0.2,0.6-0.5,1
		s-0.6,0.9-1,1.5C573.6,121.1,573,121.8,572.3,122.7z M572.2,102.5c0,0-0.1-0.1-0.2-0.2l-0.2-0.2c-0.3-0.3-0.9-0.5-1.7-0.4
		c-0.7,1-1.1,1.9-1.1,2.7c0,0.8,0.1,1.4,0.4,1.9c0.4,0.7,0.8,1,1.4,1c0.6,0,1.1-0.2,1.4-0.7s0.5-1.2,0.5-2.3
		C572.7,103.9,572.5,103.2,572.2,102.5z"/>
	<path class="st4" d="M98.1,148.6c0.3,0.3,0.5,0.6,0.8,0.9c0.3,0.3,0.5,0.6,0.8,1c0.3,0.4,0.6,0.8,0.9,1.2c0.3,0.4,0.6,1,0.9,1.6
		c-0.9,0.5-1.8,1-2.9,1.5c-1.1,0.5-2.3,1.2-3.7,1.8c0.2,0.9,0.4,1.6,0.7,2.3c0.3,0.7,0.7,1.3,1.2,1.9c0.4,0.5,1,1,1.6,1.5
		c0.6,0.5,1.4,1,2.3,1.5c0.2,0.1,0.5,0.3,1.1,0.6c0.5,0.3,1.2,0.6,2.1,1.1v-15.9h0.9c0.2,0,0.4,0,0.6,0c0.2,0,0.4,0,0.6,0
		c2.4,0,4.3,0.5,5.9,1.5c1.8,1.2,2.7,2.9,2.7,5c0,0.6-0.1,1.3-0.2,2c-0.2,0.7-0.4,1.4-0.8,2.2c-0.4,0.8-0.8,1.7-1.4,2.6
		c-0.6,0.9-1.3,2-2.2,3.1c0.4-1.3,0.7-2.3,0.9-3.2c0.2-0.9,0.4-1.6,0.6-2.2c0.1-0.6,0.2-1.1,0.3-1.5c0.1-0.4,0.1-0.7,0.1-0.9
		c0-1.7-0.3-2.9-1-3.6c-0.3-0.3-0.7-0.6-1.3-0.9c-0.5-0.3-1.2-0.6-2-0.8v15.7c-1.6-0.4-3.2-1-4.7-1.7c-1.5-0.7-3-1.6-4.6-2.6
		c-1.7-1.1-3.1-2.3-4.3-3.4c-1.2-1.1-2.1-2.4-2.7-3.6c0.2-0.1,0.4-0.2,0.4-0.3c0.1-0.1,0.2-0.1,0.3-0.2c0.2-0.1,0.4-0.2,0.6-0.3
		c0.2-0.1,0.5-0.3,0.8-0.5c0.6-0.3,1.3-0.7,2.1-1.1c0.8-0.4,1.8-1,2.9-1.6c-1.2-1.6-2.8-3.1-5.1-4.5h-5.2v-2.5h28.5v2.5H98.1z"/>
	<path class="st4" d="M135.6,148.6v19.3h0.5l0,0.8h-4.2v-12.4c0-0.5-0.4-1-1.1-1.4c-0.7-0.4-1.4-0.6-2.1-0.6c-0.3,0-0.7,0.2-1,0.5
		s-0.8,1-1.3,2c-0.7-1-1.2-1.6-1.7-2c-0.4-0.3-0.8-0.5-1.1-0.5c-1,0-1.8,0.3-2.3,1c-0.5,0.7-0.8,1.7-0.8,3.2c0,1.3,0.2,2.3,0.5,3.1
		c0.1,0.3,0.4,0.7,0.7,1.1c0.3,0.4,0.7,0.9,1.2,1.4c0.1,0.1,0.2,0.2,0.4,0.3c0.1,0.1,0.4,0.3,0.6,0.5c0.3,0.2,0.7,0.5,1.1,0.9
		c0.5,0.4,1.1,0.9,1.8,1.5c-1.1-0.5-2-0.9-2.8-1.3c-0.8-0.4-1.4-0.7-2-1.1c-0.5-0.3-1-0.7-1.3-1c-0.4-0.3-0.7-0.6-1-0.9
		c-1.6-1.7-2.4-3.6-2.4-5.7c0-1.9,0.5-3.3,1.5-4.4c1-1.1,2.5-1.7,4.5-1.7c1.2,0,2,0.6,2.7,1.9c0.1,0.2,0.2,0.4,0.3,0.6l0.3-0.7
		c0.5-1,1.5-1.5,2.9-1.5c0.5,0,0.9,0.2,1.3,0.5c0.4,0.3,0.8,0.8,1.2,1.3c0,0,0.1,0.1,0.1,0.1c0,0,0,0.1,0.1,0.1v-5h-17.2v-2.5h24.8
		l0.1,2.5H135.6z"/>
	<path class="st4" d="M144.7,148.6v19.3h1.7l-0.1,0.8h-6.8l0.1-0.8h1.4v-19.3h-2.9v-2.5h10.1c0,0.4,0,0.8,0,1.1c0,0.3,0,0.8,0,1.3
		H144.7z"/>
	<path class="st4" d="M155.7,148.6c0.3,0.3,0.5,0.6,0.8,0.9c0.3,0.3,0.5,0.6,0.8,1c0.3,0.4,0.6,0.8,0.9,1.2c0.3,0.4,0.6,1,0.9,1.6
		c-0.9,0.5-1.8,1-2.9,1.5c-1.1,0.5-2.3,1.2-3.7,1.8c0.2,0.9,0.4,1.6,0.7,2.3c0.3,0.7,0.7,1.3,1.2,1.9c0.4,0.5,1,1,1.6,1.5
		c0.6,0.5,1.4,1,2.3,1.5c0.2,0.1,0.5,0.3,1.1,0.6c0.5,0.3,1.2,0.6,2.1,1.1v-15.9h0.9c0.2,0,0.4,0,0.6,0c0.2,0,0.4,0,0.6,0
		c2.4,0,4.3,0.5,5.9,1.5c1.8,1.2,2.7,2.9,2.7,5c0,0.6-0.1,1.3-0.2,2c-0.2,0.7-0.4,1.4-0.8,2.2c-0.4,0.8-0.8,1.7-1.4,2.6
		c-0.6,0.9-1.3,2-2.2,3.1c0.4-1.3,0.7-2.3,0.9-3.2c0.2-0.9,0.4-1.6,0.6-2.2c0.1-0.6,0.2-1.1,0.3-1.5c0.1-0.4,0.1-0.7,0.1-0.9
		c0-1.7-0.3-2.9-1-3.6c-0.3-0.3-0.7-0.6-1.3-0.9c-0.5-0.3-1.2-0.6-2-0.8v15.7c-1.6-0.4-3.2-1-4.7-1.7c-1.5-0.7-3-1.6-4.6-2.6
		c-1.7-1.1-3.1-2.3-4.3-3.4c-1.2-1.1-2.1-2.4-2.7-3.6c0.2-0.1,0.4-0.2,0.4-0.3c0.1-0.1,0.2-0.1,0.3-0.2c0.2-0.1,0.4-0.2,0.6-0.3
		c0.2-0.1,0.5-0.3,0.8-0.5c0.6-0.3,1.3-0.7,2.1-1.1c0.8-0.4,1.8-1,2.9-1.6c-1.2-1.6-2.8-3.1-5.1-4.5h-5.2v-2.5h28.5v2.5H155.7z"/>
	<path class="st4" d="M193.1,148.6v19.3h0.5l0,0.8h-4.2v-12.4c0-0.5-0.4-1-1.1-1.4c-0.7-0.4-1.4-0.6-2.1-0.6c-0.3,0-0.7,0.2-1,0.5
		s-0.8,1-1.3,2c-0.7-1-1.2-1.6-1.7-2c-0.4-0.3-0.8-0.5-1.1-0.5c-1,0-1.8,0.3-2.3,1c-0.5,0.7-0.8,1.7-0.8,3.2c0,1.3,0.2,2.3,0.5,3.1
		c0.1,0.3,0.4,0.7,0.7,1.1c0.3,0.4,0.7,0.9,1.2,1.4c0.1,0.1,0.2,0.2,0.4,0.3c0.1,0.1,0.4,0.3,0.6,0.5c0.3,0.2,0.7,0.5,1.1,0.9
		c0.5,0.4,1.1,0.9,1.8,1.5c-1.1-0.5-2-0.9-2.8-1.3c-0.8-0.4-1.4-0.7-2-1.1c-0.5-0.3-1-0.7-1.3-1c-0.4-0.3-0.7-0.6-1-0.9
		c-1.6-1.7-2.4-3.6-2.4-5.7c0-1.9,0.5-3.3,1.5-4.4c1-1.1,2.5-1.7,4.5-1.7c1.2,0,2,0.6,2.7,1.9c0.1,0.2,0.2,0.4,0.3,0.6l0.3-0.7
		c0.5-1,1.5-1.5,2.9-1.5c0.5,0,0.9,0.2,1.3,0.5c0.4,0.3,0.8,0.8,1.2,1.3c0,0,0.1,0.1,0.1,0.1c0,0,0,0.1,0.1,0.1v-5h-17.2v-2.5H197
		l0.1,2.5H193.1z"/>
	<path class="st4" d="M215.5,148.6c-1,0.8-1.8,1.5-2.5,2.2c-0.7,0.7-1.2,1.3-1.6,1.9c-0.5,0.8-0.8,1.6-1.1,2.5
		c-0.2,0.9-0.4,1.9-0.4,3c0,0.7,0.1,1.5,0.2,2.2c0.1,0.7,0.3,1.6,0.7,2.5c0.3,0.9,0.8,1.9,1.4,3.1s1.3,2.4,2.2,3.9
		c-1.1-1.1-1.9-2-2.6-2.7c-0.7-0.8-1.3-1.4-1.7-1.9c-0.5-0.5-0.8-1-1.1-1.3c-0.3-0.4-0.5-0.7-0.6-1c-1.1-1.9-1.7-4.1-1.7-6.7
		c0-1,0-1.8,0.1-2.5c0.1-0.7,0.2-1.3,0.5-1.7c1.4-2.7,3.7-4.7,6.9-6h3.7v2.5H215.5z"/>
	<path class="st4" d="M225.6,148.6c0.3,0.3,0.5,0.6,0.8,0.9c0.3,0.3,0.5,0.6,0.8,1c0.3,0.4,0.6,0.8,0.9,1.2c0.3,0.4,0.6,1,0.9,1.6
		c-0.9,0.5-1.8,1-2.9,1.5c-1.1,0.5-2.3,1.2-3.7,1.8c0.2,0.9,0.4,1.6,0.7,2.3c0.3,0.7,0.7,1.3,1.2,1.9c0.4,0.5,1,1,1.6,1.5
		c0.6,0.5,1.4,1,2.3,1.5c0.2,0.1,0.5,0.3,1.1,0.6c0.5,0.3,1.2,0.6,2.1,1.1v-15.9h0.9c0.2,0,0.4,0,0.6,0c0.2,0,0.4,0,0.6,0
		c2.4,0,4.3,0.5,5.9,1.5c1.8,1.2,2.7,2.9,2.7,5c0,0.6-0.1,1.3-0.2,2c-0.2,0.7-0.4,1.4-0.8,2.2c-0.4,0.8-0.8,1.7-1.4,2.6
		c-0.6,0.9-1.3,2-2.2,3.1c0.4-1.3,0.7-2.3,0.9-3.2c0.2-0.9,0.4-1.6,0.6-2.2c0.1-0.6,0.2-1.1,0.3-1.5c0.1-0.4,0.1-0.7,0.1-0.9
		c0-1.7-0.3-2.9-1-3.6c-0.3-0.3-0.7-0.6-1.3-0.9c-0.5-0.3-1.2-0.6-2-0.8v15.7c-1.6-0.4-3.2-1-4.7-1.7c-1.5-0.7-3-1.6-4.6-2.6
		c-1.7-1.1-3.1-2.3-4.3-3.4c-1.2-1.1-2.1-2.4-2.7-3.6c0.2-0.1,0.4-0.2,0.4-0.3c0.1-0.1,0.2-0.1,0.3-0.2c0.2-0.1,0.4-0.2,0.6-0.3
		c0.2-0.1,0.5-0.3,0.8-0.5c0.6-0.3,1.3-0.7,2.1-1.1c0.8-0.4,1.8-1,2.9-1.6c-1.2-1.6-2.8-3.1-5.1-4.5h-5.2v-2.5h28.5v2.5H225.6z"/>
	<path class="st4" d="M256.9,148.6c0.9,0.7,1.6,1.4,2.1,2.1c0.4,0.7,0.6,1.4,0.6,2.2c0,2.2-1.3,4.3-3.8,6.1
		c-0.9,0.7-1.8,1.2-2.9,1.7c-1.1,0.5-2.3,1-3.7,1.4c0.7,2.1,1.8,3.9,3.3,5.2c0.9,0.8,2.7,2,5.4,3.8c0.2,0.1,0.3,0.2,0.5,0.3
		c0.2,0.1,0.3,0.2,0.4,0.3l-0.5,0.7l-3-1.6c-2.2-1.1-4.2-2.4-5.9-3.8c-1.7-1.4-3.2-3-4.6-4.8c1.6-0.4,2.9-0.9,4-1.3
		c1.1-0.5,2.1-1,2.9-1.5c1.2-0.8,2.1-1.6,2.6-2.5c0.6-0.9,0.8-1.8,0.8-2.8c0-0.9-0.2-1.9-0.7-2.8c-0.6-1.2-1.5-1.7-2.4-1.7
		c-0.5,0-0.9,0.2-1.4,0.5c-0.5,0.3-0.9,0.9-1.4,1.6c-0.8,1.2-1.1,2.3-1.1,3.2c0,0.3,0,0.5,0.1,0.8c0,0.3,0.1,0.6,0.3,0.9
		c0.1,0.3,0.3,0.7,0.6,1.1c0.2,0.4,0.6,0.9,1,1.5c-1-0.5-1.9-1-2.6-1.5c-0.7-0.5-1.2-1-1.6-1.4c-0.4-0.5-0.7-1-0.9-1.4
		c-0.2-0.5-0.3-1-0.3-1.5c0-0.8,0.2-1.5,0.7-2.3c0.5-0.7,1.2-1.5,2.2-2.4h-5v-2.5h10.2V145c-0.9-1.1-2-1.7-3.3-1.7
		c-1.3,0-3,0.3-5.2,0.9c-0.7,0.2-1.4,0.4-2,0.6s-1.1,0.3-1.6,0.4l-0.3-0.8c0.8-0.3,1.5-0.7,2.3-1c0.7-0.3,1.4-0.6,2.1-0.9
		c2.2-0.9,4.3-1.3,6.3-1.3c0.6,0,1.2,0.1,1.7,0.2c0.5,0.1,1,0.3,1.5,0.5c0.3,0.2,0.6,0.4,1,0.7s0.8,0.7,1.2,1.2v2.2h5.4v2.5H256.9z"
		/>
	<path class="st4" d="M282.2,148.6v19.2h1.4v1H277v-1h1.5v-10.4l-2.2-1.6c-0.4,0.4-1,1-1.6,1.7s-1.4,1.5-2.3,2.4
		c-1,1-1.9,1.8-2.6,2.3c-0.8,0.5-1.4,0.8-1.9,0.8c-0.8,0-1.5-0.1-2.3-0.4c-0.8-0.3-1.7-0.8-2.6-1.4l0.1-1.9c0.8,0.6,1.3,1,1.7,1.2
		c0.4,0.2,0.7,0.3,1,0.3c0.8,0,1.8-0.6,3-1.8c0.6-0.6,1.1-1.2,1.3-1.7c0.3-0.5,0.4-0.9,0.4-1.3c0-0.6-0.1-1.1-0.3-1.4
		c-0.2-0.3-0.5-0.4-0.9-0.4c-0.4,0-1,0.2-1.7,0.5l-1.8,0.8c-1-0.2-1.7-0.5-2.1-0.8c-0.5-0.4-0.7-1-0.7-1.9c0-0.6,0.6-1.9,1.9-3.9
		h-4.4v-2.5h25.7v2.5H282.2z M278.5,148.6h-11.2c-0.3,0.3-0.5,0.7-0.7,1c-0.2,0.4-0.4,0.7-0.6,1.1c-0.1,0.2-0.2,0.5-0.2,0.7
		c0,0.2,0.1,0.3,0.2,0.4s0.3,0.1,0.7,0.1c0.4,0,1-0.1,1.8-0.4c0.4-0.1,0.8-0.2,1.1-0.3c0.3-0.1,0.6-0.1,0.8-0.1
		c0.7,0,1.3,0.3,1.6,0.8c0.3,0.5,0.5,1.3,0.5,2.3c0,0.2,0,0.4,0,0.6s0,0.5-0.1,0.8l3.5-2.7c0.4,0.2,0.8,0.4,1.2,0.7
		c0.4,0.3,0.9,0.6,1.4,1V148.6z"/>
	<path class="st4" d="M300.9,168.4c-0.8-0.6-1.6-1.1-2.3-1.5c-0.7-0.4-1.5-0.9-2.3-1.4c-2-1.2-3.4-2.1-4.3-2.7
		c-3.4-2.4-5.1-4.8-5.1-7.3c0-2.1,1.4-3.7,4.1-4.9h6.2v-1.9h-12.6v-2.5h20.6v2.5c-0.3,0-0.6,0-1,0c-0.4,0-0.8,0-1.2,0
		c-0.4,0-0.8,0-1.2,0c-0.4,0-0.7,0-0.9,0V168.4z M297.3,152h-4c-1.6,1-2.4,2.3-2.4,3.9c0,0.9,0.5,1.9,1.5,3c1,1.2,2.7,2.5,4.9,4V152
		z"/>
	<path class="st4" d="M300.1,172.9c-2.3,2.4-4.7,3.5-7.4,3.5c-1.3,0-2.4-0.2-3.5-0.6c-0.7-0.3-1.2-0.7-1.6-1.1
		c-0.4-0.4-0.5-0.9-0.5-1.5c0-0.7,0.3-1.4,0.8-1.9c0.5-0.5,1.2-1,2.2-1.3c0.6-0.2,1.3-0.4,2.1-0.5c0.8-0.1,1.6-0.2,2.5-0.2
		c0.8,0,1.7,0.1,2.7,0.3v-4.2h3.7v5.2c3.1,0.8,7,3.1,11.8,6.9l-0.5,0.7C307.4,175.7,303.3,173.9,300.1,172.9z M294.7,172
		c-1.8,0-3.1,0.2-3.9,0.5c-0.8,0.3-1.1,0.7-1.1,1.2c0,0.2,0.1,0.5,0.4,0.6s0.9,0.3,1.7,0.3c0.7,0,1.4-0.2,2.3-0.6s1.8-1,2.8-1.8
		c-0.5,0-0.9-0.1-1.2-0.1C295.3,172,295,172,294.7,172z"/>
	<path class="st4" d="M320.8,148.6v3.3h1.3c2.1,0,3.5,0.2,4.4,0.6c1.1,0.5,1.7,1.6,1.7,3.2c0,1.1-0.6,2.4-1.9,4.1
		c-0.2,0.3-0.4,0.5-0.7,0.8c-0.2,0.3-0.5,0.6-0.9,1c-0.4,0.4-0.8,0.8-1.3,1.3c-0.5,0.5-1.1,1.1-1.9,1.8c0.6-1.2,1.2-2.3,1.6-3.2
		s0.8-1.7,1-2.5s0.4-1.4,0.5-2c0.1-0.6,0.1-1.2,0.1-1.7c0-0.6-0.1-1-0.4-1.3c-0.1-0.1-0.2-0.2-0.4-0.4s-0.4-0.3-0.7-0.5h-2.4v15.4
		c-4.6-2.2-8.1-4.4-10.3-6.5c-2.2-2.1-3.3-4.3-3.3-6.4c0-1.6,0.9-2.7,2.6-3.2c0.5-0.2,1.1-0.3,1.8-0.4c0.7-0.1,1.6-0.1,2.6,0
		l2.9,0.1v-3.4h-14v-2.5H331v2.5H320.8z M317.2,153.2h-3.4c-0.9,0.3-1.5,0.8-1.8,1.2c-0.1,0.2-0.3,0.5-0.3,0.9
		c-0.1,0.3-0.1,0.8-0.1,1.3c0,1.5,0.6,3.1,1.9,4.9c1.1,1.4,2.3,2.5,3.8,3.3V153.2z"/>
	<path class="st4" d="M357,148.6V168h1.5v0.9h-6.7v-0.8h1.4v-15.6c0-0.1-0.1-0.3-0.2-0.5c-0.1-0.2-0.3-0.5-0.5-0.8
		c-0.2-0.4-0.4-0.7-0.6-0.9c-0.2-0.2-0.3-0.4-0.4-0.5c-0.5-0.6-1.3-1.1-2.4-1.5c-1-0.4-2-0.6-3-0.6c-1.3,0-2.5,0.4-3.6,1.3
		c-1.1,0.9-1.6,1.9-1.6,3.1c0,0.6,0.4,1,1.1,1.2c0.9-0.5,1.8-0.9,2.6-1.1c0.8-0.2,1.6-0.4,2.3-0.4c1.2,0,2.2,0.4,3,1.1
		c0.8,0.7,1.2,1.7,1.2,2.8c0,0.7-0.2,1.3-0.5,2.1c-0.3,0.7-0.9,1.5-1.8,2.4c-0.8,0.9-1.9,1.9-3.3,3c-1.4,1.1-3,2.4-5.1,3.8
		c0.9-1,1.6-1.8,2.2-2.4c0.6-0.6,1.1-1.2,1.4-1.6c0.4-0.4,0.7-0.8,0.9-1c0.2-0.3,0.5-0.5,0.7-0.8c1.3-1.5,2-3.1,2-4.6
		c0-0.6-0.1-1.1-0.4-1.4s-0.6-0.4-1.1-0.4c-0.3,0-1.1,0.3-2.4,0.8c-1.3,0.5-2.2,0.8-2.8,0.8c-0.9,0-1.6-0.3-2.2-0.8
		c-0.6-0.6-0.9-1.3-0.9-2c0-2.1,0.9-3.9,2.6-5.4c1.7-1.5,3.7-2.3,5.8-2.3c1.5,0,3,0.5,4.3,1.4c0.5,0.3,0.9,0.7,1.3,1.1
		c0.4,0.4,0.7,0.9,1,1.4v-3.5h7.7v2.5H357z"/>
	<path class="st4" d="M352.3,173l-0.2-0.6h1.2v-0.8c-1-0.9-2-1.3-2.9-1.3c-0.1,0-0.3,0.1-0.7,0.3c-0.3,0.2-0.8,0.4-1.4,0.7
		c-1.4,0.6-2.5,1-3.3,1c-2.2,0-3.9-0.9-5.1-2.7c-0.3-0.4-0.6-1.3-1-2.6c0-0.2-0.1-0.4-0.1-0.6c0-0.2-0.1-0.5-0.1-0.8
		c0-0.3-0.1-0.7-0.2-1.2c-0.1-0.5-0.1-1.1-0.2-1.9c0.7,1.5,1.3,2.6,1.9,3.6c0.6,0.9,1.1,1.7,1.6,2.2c0.5,0.6,1,0.9,1.5,1.2
		c0.5,0.2,1,0.3,1.5,0.3c0.5,0,1.3-0.2,2.3-0.5c1-0.4,1.8-0.5,2.4-0.5c0.7,0,1.3,0.1,1.8,0.2l1.9,1.3v-2.9h3.7v6h-5.2v-0.5
		L352.3,173z"/>
	<path class="st4" d="M362.5,160.2c-0.7,0.7-1.5,1-2.3,1c-1.7,0-3.3-0.9-4.7-2.7v-2.2c0.7,0.8,1.3,1.3,1.7,1.5
		c0.5,0.2,1,0.4,1.6,0.4c0.5,0,0.9-0.2,1.2-0.5c0.3-0.3,0.4-0.9,0.4-1.6c0-0.2,0-0.4,0-0.7c0-0.2-0.1-0.5-0.1-0.8
		c-0.1-0.3-0.1-0.7-0.2-1.2s-0.2-1-0.4-1.6c0.8,0.8,1.4,1.4,1.9,2c0.5,0.6,0.9,1.1,1.2,1.6c0.3,0.5,0.5,0.9,0.7,1.3
		c0.1,0.4,0.2,0.8,0.2,1.1C363.6,158.8,363.3,159.5,362.5,160.2z M357.2,148.6v-2.5h9.2v2.5H357.2z"/>
	<path class="st4" d="M375,148.6c-1,0.8-1.8,1.5-2.5,2.2c-0.7,0.7-1.2,1.3-1.6,1.9c-0.9,1.5-1.4,3.4-1.4,5.6c0,0.7,0.1,1.5,0.2,2.2
		c0.1,0.8,0.4,1.6,0.7,2.5c0.3,0.9,0.8,1.9,1.3,3c0.6,1.1,1.3,2.4,2.2,3.9c-1.1-1.1-1.9-2-2.6-2.7s-1.3-1.4-1.7-1.9
		c-0.4-0.5-0.8-1-1.1-1.3c-0.3-0.4-0.5-0.7-0.7-1c-1.1-1.9-1.6-4.1-1.6-6.7c0-0.7,0.1-1.4,0.2-2c0.1-0.6,0.3-1.2,0.5-1.7
		c0.3-0.6,0.7-1.3,1.2-1.9c0.5-0.6,1.3-1.3,2.1-2.1h-5.9c0-0.4,0-0.7,0.1-0.9c0-0.2,0-0.4,0-0.5c0-0.1,0-0.3,0-0.4s0-0.4-0.1-0.7
		h12.9v2.5H375z"/>
	<path class="st4" d="M396,148.6V168h1.5v0.8h-5.1v-12.9l-0.5-0.5l-8.2,5.7c-0.3-0.1-0.5-0.2-0.8-0.4c-0.3-0.1-0.6-0.3-0.9-0.6
		c-0.4-0.2-0.8-0.5-1.2-0.8c-0.5-0.3-1-0.8-1.7-1.2l3,0.7c0.4-0.3,0.9-0.6,1.3-0.9c0.4-0.3,0.8-0.6,1.3-1c0.2-0.6,0.1-1.2-0.3-1.5
		c-0.4-0.4-0.9-0.5-1.7-0.5c-0.4,0-1.1,0.2-1.8,0.5c-0.9,0.4-1.4,0.6-1.7,0.6c-1.5,0-2.3-0.8-2.2-2.4c0-2.2,0.9-4,2.6-5.1
		c1.5-1.1,3.5-1.6,5.8-1.6c1.6,0,2.9,0.2,4.1,0.7c0.4,0.2,0.9,0.4,1.3,0.7c0.5,0.3,1,0.7,1.6,1.2v-3.3h7.4v2.5H396z M391.7,151.6
		c-1.9-1.7-4.1-2.5-6.5-2.5c-0.5,0-1.1,0.1-1.7,0.2c-0.6,0.1-1.2,0.3-1.7,0.6c-0.5,0.3-1,0.6-1.3,0.9c-0.4,0.4-0.5,0.8-0.5,1.2
		c0,0.2,0.1,0.3,0.3,0.5c0.2,0.2,0.5,0.2,0.8,0.2c0.1,0,0.2,0,0.5-0.1c0.1,0,0.2-0.1,0.3-0.1c0.1,0,0.2-0.1,0.3-0.1
		c0.3-0.1,0.6-0.2,0.8-0.2c0.3-0.1,0.5-0.1,0.7,0c0.8,0.2,1.3,0.4,1.7,0.8c0.4,0.3,0.6,0.9,0.7,1.7c0,0.4,0.2,0.6,0.6,0.7l3.2-2.5
		c0.3,0.1,0.6,0.2,0.8,0.3c0.2,0.1,0.4,0.1,0.6,0.2l0.6,0.2V151.6z"/>
	<path class="st4" d="M418.4,148.6c-1,0.8-1.8,1.5-2.5,2.2c-0.7,0.7-1.2,1.3-1.6,1.9c-0.5,0.8-0.8,1.6-1.1,2.5
		c-0.2,0.9-0.4,1.9-0.4,3c0,0.7,0.1,1.5,0.2,2.2c0.1,0.7,0.3,1.6,0.7,2.5c0.3,0.9,0.8,1.9,1.4,3.1c0.6,1.1,1.3,2.4,2.2,3.9
		c-1.1-1.1-1.9-2-2.6-2.7c-0.7-0.8-1.3-1.4-1.7-1.9c-0.5-0.5-0.8-1-1.1-1.3c-0.3-0.4-0.5-0.7-0.6-1c-1.1-1.9-1.7-4.1-1.7-6.7
		c0-1,0-1.8,0.1-2.5c0.1-0.7,0.2-1.3,0.5-1.7c1.4-2.7,3.7-4.7,6.9-6h3.7v2.5H418.4z"/>
	<path class="st4" d="M425.9,148.6v11.7c0.5-0.8,1.1-1.5,1.7-2.1s1.2-1.2,1.8-1.8l4.6-4.2c0.3,0.2,0.5,0.4,0.7,0.6s0.5,0.4,0.7,0.6
		c0.2,0.1,0.3,0.2,0.5,0.3c0.2,0.1,0.3,0.2,0.4,0.3l0.4,0.4v13.4h2.1v1.1h-7.3v-1.1l1.6,0v-12.4c-0.5,0.7-1.1,1.3-1.8,2.1
		c-0.7,0.8-1.4,1.6-2.2,2.6c-0.7,0.9-1.4,1.7-2,2.6s-1.1,1.8-1.6,2.9l-3.3-2.2v-14.7h-3.3v-2.5h22.9v2.5H425.9z"/>
	<path class="st4" d="M460.3,166.2c-2,1.5-4.1,2.3-6.4,2.3c-1.2,0-2.4-0.3-3.5-0.8c-1.1-0.5-2.2-1.3-3.2-2.4
		c-0.8-0.8-1.5-1.7-2.1-2.6s-1.1-1.9-1.5-3c-0.1-0.6-0.4-1.4-0.7-2.5c-0.3-1-0.8-2.4-1.4-4l4.8-0.8c0.2,1.9,0.4,3.5,0.6,4.8
		c0.2,1.3,0.5,2.4,0.8,3.2c0.9,2.8,2.6,4.9,4.9,6.5c0.2,0.1,0.4,0.1,0.6,0.1s0.4,0,0.6,0c1.7,0,3.1-0.7,4.2-2.2
		c0.9-1.2,1.3-2.5,1.3-3.8c0-0.8-0.1-1.3-0.4-1.6c-0.3-0.3-0.8-0.4-1.6-0.4c-0.1,0-0.3,0-0.4,0.1s-0.3,0.1-0.5,0.2
		c-0.1,0-0.2,0.1-0.3,0.1c-0.1,0-0.2,0.1-0.4,0.2c-0.2,0.1-0.4,0.2-0.7,0.4c-0.3,0.1-0.6,0.3-1,0.6c0.3-0.5,0.5-1,0.8-1.4
		s0.4-0.8,0.6-1.1s0.4-0.7,0.5-1c0.2-0.3,0.3-0.6,0.5-1c0.6-1.2,0.9-2.5,0.9-4c0-0.9-0.2-1.7-0.7-2.3c-0.5-0.7-1.2-1-2-1
		c-0.4,0-0.7,0.1-1.1,0.4c-0.4,0.3-0.8,0.7-1.3,1.3c-0.8,1.1-1.2,2-1.2,2.8c0,0.2,0,0.3,0.1,0.5c0,0.2,0.1,0.4,0.2,0.8
		c0.1,0.3,0.3,0.7,0.4,1.2s0.4,1.1,0.7,1.7c-0.8-0.7-1.5-1.3-2.1-1.9c-0.6-0.6-1-1.1-1.4-1.5c-0.3-0.5-0.6-0.9-0.7-1.3
		c-0.1-0.4-0.2-0.8-0.2-1.1c0-0.7,0.2-1.4,0.6-2.1c0.4-0.7,1-1.3,1.7-1.9c1.4-1.1,2.9-1.6,4.5-1.6c1.8,0,3.3,0.4,4.5,1.3
		c1.3,1,2,2.3,2,4c0,1.1-0.3,2.1-0.9,3.1s-1.6,2.1-3,3.2c0.6-0.2,1-0.3,1.4-0.4c0.4-0.1,0.7-0.1,1-0.1c0.9,0,1.7,0.3,2.3,1
		c0.6,0.6,0.9,1.4,0.9,2.3C463.3,162.8,462.3,164.6,460.3,166.2z"/>
	<path class="st4" d="M483.4,148.6v20.1c-0.9-0.5-1.7-0.9-2.5-1.3c-0.7-0.4-1.6-0.8-2.5-1.2c-1.1-0.5-2.1-1-2.8-1.4
		s-1.3-0.7-1.7-0.9c-1.7-0.9-3.1-2-4.3-3.3s-2.3-2.8-3.2-4.5l5.5-3.9c-0.7-0.9-1.4-1.6-2-2.2c-0.6-0.6-1.2-1.1-1.7-1.4h-4.7v-2.5
		h24.1v2.5H483.4z M474.3,168.3c-0.6,0.3-1.2,0.5-1.9,0.5s-1.3-0.2-1.8-0.6c-0.6-0.4-0.9-1-0.9-1.6c0-0.6,0.3-1.1,1-1.5
		c0.6-0.3,1.2-0.4,1.8-0.4c0.3,0,0.7,0,1,0.1c0.3,0.1,0.6,0.2,0.9,0.4c0.6,0.4,0.9,1,0.9,1.6C475.2,167.4,474.9,167.9,474.3,168.3z
		 M479.8,148.6h-6.4l2.6,4.1l-5.8,3.7c0.7,1.3,1.4,2.3,2.1,3c0.7,0.8,1.4,1.3,2.1,1.7c0.1,0.1,0.7,0.3,1.5,0.7
		c0.9,0.4,2.2,1,3.9,1.8V148.6z"/>
	<path class="st4" d="M492.5,148.6v19.3h1.7l-0.1,0.8h-6.8l0.1-0.8h1.4v-19.3h-2.9v-2.5H496c0,0.4,0,0.8,0,1.1c0,0.3,0,0.8,0,1.3
		H492.5z"/>
	<path class="st4" d="M518,148.6c0.9,0.7,1.6,1.3,2,2c0.4,0.7,0.6,1.5,0.6,2.3c0,1.8-0.9,3.4-2.6,4.8c-1.7,1.4-4.3,2.6-7.8,3.7
		c0.7,2.1,1.9,3.9,3.4,5.2c0.4,0.4,1.1,0.9,2,1.5c0.9,0.6,2,1.4,3.4,2.2c0.2,0.1,0.4,0.2,0.5,0.3s0.3,0.2,0.5,0.3l-0.5,0.7
		c-1.6-0.8-2.9-1.6-4.1-2.3c-1.2-0.7-2.2-1.3-3-1.9c-1.3-0.9-2.4-1.9-3.5-3s-2-2.3-3-3.7c3.8-1,6.5-2,8.2-3.2
		c1.7-1.2,2.6-2.5,2.6-3.9c0-1-0.3-1.9-1-2.8c-0.7-1-1.5-1.4-2.5-1.4c-1,0-1.8,0.2-2.4,0.7c-0.7,0.5-1.1,1.1-1.1,2
		c0,0.3,0,0.7,0.1,1c0,0.3,0.1,0.7,0.3,1.1c0.1,0.4,0.3,0.8,0.6,1.3s0.6,1,0.9,1.6c-0.6-0.3-1.2-0.6-1.6-0.9
		c-0.4-0.2-0.8-0.4-1.1-0.6c-0.3-0.2-0.6-0.4-0.7-0.5c-0.2-0.2-0.4-0.3-0.5-0.4c-0.9-0.9-1.3-2.1-1.2-3.5c0.1-0.8,0.6-1.6,1.6-2.2
		c0,0,0.1-0.1,0.2-0.2c0.1-0.1,0.2-0.1,0.4-0.2h-5.2v-2.5h19.9v2.5H518z"/>
	<path class="st4" d="M531.6,148.6c-1,0.8-1.8,1.5-2.5,2.2c-0.7,0.7-1.2,1.3-1.6,1.9c-0.9,1.5-1.4,3.4-1.4,5.6
		c0,0.7,0.1,1.5,0.2,2.2c0.1,0.8,0.4,1.6,0.7,2.5c0.3,0.9,0.8,1.9,1.3,3s1.3,2.4,2.2,3.9c-1.1-1.1-1.9-2-2.6-2.7s-1.3-1.4-1.7-1.9
		c-0.4-0.5-0.8-1-1.1-1.3c-0.3-0.4-0.5-0.7-0.7-1c-1.1-1.9-1.6-4.1-1.6-6.7c0-0.7,0.1-1.4,0.2-2c0.1-0.6,0.3-1.2,0.5-1.7
		c0.3-0.6,0.7-1.3,1.2-1.9c0.5-0.6,1.3-1.3,2.1-2.1H521c0-0.4,0-0.7,0.1-0.9c0-0.2,0-0.4,0-0.5c0-0.1,0-0.3,0-0.4
		c0-0.1,0-0.4-0.1-0.7h12.9v2.5H531.6z"/>
	<path class="st4" d="M551.7,148.6v20.1c-0.9-0.5-1.7-0.9-2.5-1.3c-0.7-0.4-1.6-0.8-2.5-1.2c-1.1-0.5-2.1-1-2.8-1.4
		s-1.3-0.7-1.7-0.9c-1.7-0.9-3.1-2-4.3-3.3s-2.3-2.8-3.2-4.5l5.5-3.9c-0.7-0.9-1.4-1.6-2-2.2c-0.6-0.6-1.2-1.1-1.7-1.4h-4.7v-2.5
		h24.1v2.5H551.7z M542.5,168.3c-0.6,0.3-1.2,0.5-1.9,0.5s-1.3-0.2-1.8-0.6c-0.6-0.4-0.9-1-0.9-1.6c0-0.6,0.3-1.1,1-1.5
		c0.6-0.3,1.2-0.4,1.8-0.4c0.3,0,0.7,0,1,0.1c0.3,0.1,0.6,0.2,0.9,0.4c0.6,0.4,0.9,1,0.9,1.6C543.4,167.4,543.1,167.9,542.5,168.3z
		 M548.1,148.6h-6.4l2.6,4.1l-5.8,3.7c0.7,1.3,1.4,2.3,2.1,3c0.7,0.8,1.4,1.3,2.1,1.7c0.1,0.1,0.7,0.3,1.5,0.7
		c0.9,0.4,2.2,1,3.9,1.8V148.6z"/>
	<path class="st4" d="M564.3,148.6c-1,0.8-1.8,1.5-2.5,2.2c-0.7,0.7-1.2,1.3-1.6,1.9c-0.9,1.5-1.4,3.4-1.4,5.6
		c0,0.7,0.1,1.5,0.2,2.2c0.1,0.8,0.4,1.6,0.7,2.5c0.3,0.9,0.8,1.9,1.3,3s1.3,2.4,2.2,3.9c-1.1-1.1-1.9-2-2.6-2.7s-1.3-1.4-1.7-1.9
		c-0.4-0.5-0.8-1-1.1-1.3c-0.3-0.4-0.5-0.7-0.7-1c-1.1-1.9-1.6-4.1-1.6-6.7c0-0.7,0.1-1.4,0.2-2c0.1-0.6,0.3-1.2,0.5-1.7
		c0.3-0.6,0.7-1.3,1.2-1.9c0.5-0.6,1.3-1.3,2.1-2.1h-5.9c0-0.4,0-0.7,0.1-0.9c0-0.2,0-0.4,0-0.5c0-0.1,0-0.3,0-0.4
		c0-0.1,0-0.4-0.1-0.7h12.9v2.5H564.3z"/>
	<path class="st4" d="M571.5,148.6v1.7c0.7,0.5,1.2,0.9,1.8,1.1c0.5,0.2,1,0.3,1.4,0.3c0.4,0,0.8-0.1,1.3-0.3c0.5-0.2,1-0.5,1.6-0.8
		l3.7,2l-1,1.1c1.7,0.3,2.9,0.8,3.8,1.3s1.3,1.3,1.3,2.2c0,0.8-0.4,1.5-1.2,2.2c-0.8,0.7-2,1.3-3.5,2c-0.4,0.1-1,0.4-2.1,0.7
		c-1,0.3-2.4,0.8-4.1,1.3c0.7,2.1,1.8,3.8,3.3,5.2c0.3,0.3,0.8,0.7,1.4,1.2s1.4,1,2.3,1.6l-0.5,0.7c-1.3-0.6-2.4-1.1-3.3-1.6
		c-0.9-0.5-1.7-0.9-2.3-1.3c-1.1-0.7-2.2-1.5-3.1-2.4s-1.9-2.1-2.9-3.5c4.1-1.1,7-2.3,8.8-3.4c1.8-1.2,2.7-2.4,2.7-3.6
		c0-0.1-0.1-0.3-0.2-0.5c-0.2-0.2-0.4-0.4-0.9-0.7l-0.3-0.2c-0.3,0.5-0.7,1-1.2,1.6c-0.4,0.6-1,1.3-1.5,2c-0.4,0.4-1,0.9-1.7,1.4
		c-0.7,0.5-1.5,1-2.5,1.6c-0.8-0.3-1.6-0.7-2.3-1.1c-0.8-0.4-1.6-0.9-2.5-1.4v-10.6h-3.5v-2.5h23.7v2.5H571.5z M576.9,152.7
		c-1.2,0.9-2.3,1.4-3.3,1.4c-0.3,0-0.7,0-1-0.1s-0.7-0.1-1.1-0.2v5.3l1.3,1.1c0.6-0.5,1.1-1,1.6-1.6c0.4-0.5,0.8-1.1,1.1-1.6
		c0.1-0.2,0.7-1.4,1.8-3.9C577.2,153,577.1,152.8,576.9,152.7z"/>
	<path class="st4" d="M596,168.6v-23.3h3.7v23.3H596z"/>
	<path class="st4" d="M609.6,168.6v-23.3h3.7v23.3H609.6z"/>
</g>
<g>
</g>
<g>
</g>
<g>
</g>
<g>
</g>
<g>
</g>
<g>
</g>
<g>
</g>
<g>
</g>
<g>
</g>
<g>
</g>
<g>
</g>
<g>
</g>
<g>
</g>
<g>
</g>
<g>
</g>
</svg>
