<?xml version="1.0" encoding="utf-8"?>
<!-- Generator: Adobe Illustrator 21.0.0, SVG Export Plug-In . SVG Version: 6.00 Build 0)  -->
<svg version="1.1" id="Layer_1" xmlns="http://www.w3.org/2000/svg" xmlns:xlink="http://www.w3.org/1999/xlink" x="0px" y="0px"
	 viewBox="0 0 721 216" style="enable-background:new 0 0 721 216;" xml:space="preserve">
<style type="text/css">
	.st0{opacity:0.8;fill:#FFFDFF;}
	.st1{fill:#00A99D;}
	.st2{fill:#1B1464;}
	.st3{fill:#FFFFFF;}
	.st4{fill:#FF00F6;}
</style>
<rect x="1" y="1" class="st0" width="721" height="216"/>
<g>
	<g>
		<path class="st1" d="M323,79.5c-6.3,0-11.5-5.2-11.5-11.5V27c0-6.3,5.2-11.5,11.5-11.5h46c6.3,0,11.5,5.2,11.5,11.5v41
			c0,6.3-5.2,11.5-11.5,11.5H323z"/>
		<path class="st2" d="M369,16c6.1,0,11,4.9,11,11v41c0,6.1-4.9,11-11,11h-46c-6.1,0-11-4.9-11-11V27c0-6.1,4.9-11,11-11H369
			 M369,15h-46c-6.6,0-12,5.4-12,12v41c0,6.6,5.4,12,12,12h46c6.6,0,12-5.4,12-12V27C381,20.4,375.6,15,369,15L369,15z"/>
	</g>
	<g>
		<path class="st3" d="M332,28.2c3.8,0,6.8,1.3,8.9,3.9c2.6,3,3.8,8.1,3.8,15.2c0,7-1.3,12.1-3.9,15.2c-2.1,2.5-5.1,3.8-8.9,3.8
			c-3.8,0-6.9-1.4-9.2-4.2c-2.3-2.8-3.5-7.7-3.5-14.9c0-7,1.3-12.1,3.9-15.1C325.3,29.5,328.2,28.2,332,28.2z M332,34.2
			c-0.9,0-1.7,0.3-2.4,0.8c-0.7,0.6-1.3,1.5-1.7,3c-0.5,1.8-0.8,5-0.8,9.3s0.2,7.4,0.7,9c0.5,1.6,1,2.7,1.8,3.3
			c0.7,0.5,1.5,0.8,2.4,0.8c0.9,0,1.7-0.3,2.4-0.8c0.7-0.5,1.3-1.5,1.7-3c0.5-1.8,0.8-4.9,0.8-9.3s-0.2-7.4-0.7-9
			c-0.5-1.6-1-2.7-1.8-3.3C333.8,34.4,333,34.2,332,34.2z"/>
		<path class="st3" d="M364.6,65.6v-7.5h-16.1v-6.2l17-23.6h6.3v23.6h4.9v6.3h-4.9v7.5H364.6z M364.6,51.9V39.1l-9,12.7H364.6z"/>
	</g>
</g>
<g>
</g>
<g>
</g>
<g>
</g>
<g>
</g>
<g>
	<path class="st4" d="M149.2,101.1v19.4h1.5v0.8h-5.1v-12.9l-0.5-0.5l-8.2,5.7c-0.3-0.1-0.5-0.2-0.8-0.4c-0.3-0.1-0.6-0.3-0.9-0.6
		c-0.4-0.2-0.8-0.5-1.2-0.8c-0.5-0.3-1-0.8-1.7-1.2l3,0.7c0.4-0.3,0.9-0.6,1.3-0.9c0.4-0.3,0.8-0.6,1.3-1c0.2-0.6,0.1-1.2-0.3-1.5
		c-0.4-0.4-0.9-0.5-1.7-0.5c-0.4,0-1.1,0.2-1.8,0.5c-0.9,0.4-1.4,0.6-1.7,0.6c-1.5,0-2.3-0.8-2.2-2.4c0-2.2,0.9-4,2.6-5.1
		c1.5-1.1,3.5-1.6,5.8-1.6c1.6,0,2.9,0.2,4.1,0.7c0.4,0.2,0.9,0.4,1.3,0.7c0.5,0.3,1,0.7,1.6,1.2v-3.3h7.4v2.5H149.2z M144.9,104.1
		c-1.9-1.7-4.1-2.5-6.5-2.5c-0.5,0-1.1,0.1-1.7,0.2c-0.6,0.1-1.2,0.3-1.7,0.6c-0.5,0.3-1,0.6-1.3,0.9c-0.4,0.4-0.5,0.8-0.5,1.2
		c0,0.2,0.1,0.3,0.3,0.5c0.2,0.2,0.5,0.2,0.8,0.2c0.1,0,0.2,0,0.5-0.1c0.1,0,0.2-0.1,0.3-0.1c0.1,0,0.2-0.1,0.3-0.1
		c0.3-0.1,0.6-0.2,0.8-0.2c0.3-0.1,0.5-0.1,0.7,0c0.8,0.2,1.3,0.4,1.7,0.8c0.4,0.3,0.6,0.9,0.7,1.7c0,0.4,0.2,0.6,0.6,0.7l3.2-2.5
		c0.3,0.1,0.6,0.2,0.8,0.3c0.2,0.1,0.4,0.1,0.6,0.2l0.6,0.2V104.1z"/>
	<path class="st4" d="M168.1,101.1v19.8c-0.9-0.6-1.7-1.2-2.4-1.6c-0.7-0.4-1.4-0.9-2.2-1.3c-1.2-0.6-2.1-1.2-2.9-1.6
		c-0.7-0.4-1.2-0.7-1.5-0.9c-1.7-1.1-3-2.3-3.8-3.4c-0.9-1.2-1.3-2.4-1.3-3.6c0-2.1,1.4-3.7,4.1-4.9h6.2v-2.3h-12.7v-2.5h20.6v2.5
		c-0.4,0-0.7,0-0.9,0c-0.2,0-0.4,0-0.6,0H168.1z M158.8,119.4c-0.5,0.3-1.1,0.5-1.8,0.5c-0.7,0-1.3-0.2-1.8-0.5
		c-0.5-0.4-0.8-0.9-0.8-1.5c0-0.6,0.2-1,0.7-1.4c0.4-0.4,1-0.6,1.6-0.6c1,0,1.7,0.2,2.3,0.5c0.5,0.3,0.8,0.8,0.8,1.5
		C159.8,118.6,159.5,119.1,158.8,119.4z M164.4,105h-4c-1.6,1-2.4,2.3-2.4,3.9c0,1.1,0.8,2.4,2.3,3.8c0.4,0.3,0.9,0.7,1.6,1.2
		c0.7,0.5,1.5,1.1,2.6,1.8V105z"/>
	<path class="st4" d="M178.2,101.1v19.2h1v1.1h-5.6v-1.1h0.9v-19.2h-3.8v-2.5h3.7c0-0.2,0.1-0.5,0.1-0.7c0-0.2,0-0.4,0-0.7
		c0-0.2,0-0.4,0-0.7c0-0.2-0.1-0.5-0.2-0.7c-0.8-0.6-2.2-0.9-4.1-0.9c-2.4,0-5.2,0.5-8.6,1.5l-0.4-0.8c1.4-0.7,3.2-1.3,5.6-1.9
		c2.8-0.7,4.9-1.1,6.3-1.1c1,0,1.9,0.2,2.7,0.6c0.7,0.4,1.3,0.9,1.8,1.7c0.3,0.6,0.5,1.9,0.6,3.7h4.5v2.5H178.2z"/>
	<path class="st4" d="M199.5,101.1v7.5c0.7,0.2,1.3,0.3,1.9,0.6c0.6,0.2,1.2,0.5,1.8,0.8c0.8,0.4,1.3,0.9,1.8,1.3
		c0.4,0.4,0.6,0.9,0.6,1.4c0,1.1-0.4,2.1-1.3,3c-0.3,0.3-0.8,0.6-1.3,0.9c-0.5,0.3-1.4,0.6-2.6,1c0.4-0.4,0.7-0.8,0.9-1.1
		c0.2-0.3,0.4-0.6,0.5-0.8c0.1-0.2,0.2-0.4,0.2-0.6c0-0.2,0.1-0.4,0.1-0.6c0-0.5-0.2-1.1-0.6-1.7c-0.4-0.6-1.1-1.4-2.1-2.2v10.8
		c-2.3-0.4-4.3-1-6.1-1.7c-1.8-0.7-3.4-1.5-4.9-2.5c-1.7-1.1-3.1-2.3-4-3.6c-0.9-1.3-1.4-2.7-1.5-4.2c0.9-0.1,1.7-0.4,2.5-0.7
		c0.8-0.3,1.5-0.7,2.3-1.2c0.9-0.6,1.5-1.2,1.9-1.8c0.4-0.6,0.6-1.2,0.6-1.8c0-0.2-0.1-0.4-0.2-0.7c-0.1-0.3-0.3-0.6-0.6-0.9
		c-0.4-0.6-0.8-1-1.2-1.2c-1.1,0.6-1.9,1.2-2.4,1.8c-0.5,0.6-0.7,1.3-0.7,2c0,0.1,0,0.2,0,0.4c0,0.2,0,0.4,0.1,0.6
		c0.1,0.2,0.1,0.6,0.2,1c0.1,0.4,0.2,0.9,0.4,1.5c-0.6-0.7-1.2-1.4-1.6-1.9c-0.4-0.5-0.7-1-1-1.5c-0.2-0.4-0.4-0.8-0.5-1.2
		c-0.1-0.4-0.1-0.7-0.1-1c0-0.6,0.4-1.2,1.3-1.7h-2.7v-2.5h26.1v2.5H199.5z M192,106.5c-0.2,0.4-0.4,0.8-0.7,1.2
		c-0.3,0.4-0.6,0.7-0.9,1c-0.4,0.4-1.5,1.2-3.2,2.5c0.4,1,0.8,1.9,1.3,2.6c0.5,0.7,1.1,1.3,1.7,1.8c0.3,0.2,0.7,0.5,1.2,0.8
		c0.5,0.3,1,0.6,1.7,1c0.2,0.1,0.6,0.3,1,0.5c0.4,0.2,0.9,0.4,1.5,0.7v-9.7C194,108.2,192.8,107.4,192,106.5z M190,101.1
		c0.4,0.4,0.7,0.8,1,1c0.3,0.3,0.5,0.4,0.6,0.5c0.1-0.2,0.3-0.4,0.5-0.7c0.2-0.2,0.4-0.5,0.7-0.8H190z M195.8,101.4l-1.1,1.4
		c-0.4,0.6-0.7,1.2-0.7,1.9c0,0.5,0.1,0.9,0.4,1.3c0.2,0.4,0.7,0.8,1.4,1.2V101.4z"/>
	<path class="st4" d="M212.3,101.1v19.3h1.7l-0.1,0.8h-6.8l0.1-0.8h1.4v-19.3h-2.9v-2.5h10.1c0,0.4,0,0.8,0,1.1c0,0.3,0,0.8,0,1.3
		H212.3z"/>
	<path class="st4" d="M230,101.1v19.8c-0.9-0.6-1.7-1.2-2.4-1.6c-0.7-0.4-1.4-0.9-2.2-1.3c-1.2-0.6-2.1-1.2-2.9-1.6
		c-0.7-0.4-1.2-0.7-1.5-0.9c-1.7-1.1-3-2.3-3.8-3.4c-0.9-1.2-1.3-2.4-1.3-3.6c0-2.1,1.4-3.7,4.1-4.9h6.2v-2.3h-12.7v-2.5h20.6v2.5
		c-0.4,0-0.7,0-0.9,0c-0.2,0-0.4,0-0.6,0H230z M220.7,119.4c-0.5,0.3-1.1,0.5-1.8,0.5c-0.7,0-1.3-0.2-1.8-0.5
		c-0.5-0.4-0.8-0.9-0.8-1.5c0-0.6,0.2-1,0.7-1.4c0.4-0.4,1-0.6,1.6-0.6c1,0,1.7,0.2,2.3,0.5c0.5,0.3,0.8,0.8,0.8,1.5
		C221.6,118.6,221.3,119.1,220.7,119.4z M226.3,105h-4c-1.6,1-2.4,2.3-2.4,3.9c0,1.1,0.8,2.4,2.3,3.8c0.4,0.3,0.9,0.7,1.6,1.2
		c0.7,0.5,1.5,1.1,2.6,1.8V105z"/>
	<path class="st4" d="M258.5,101.1v19.8c-0.9-0.6-1.7-1.2-2.4-1.6c-0.7-0.4-1.4-0.9-2.2-1.3c-1.2-0.6-2.1-1.2-2.9-1.6
		c-0.7-0.4-1.2-0.7-1.5-0.9c-1.7-1.1-3-2.3-3.8-3.4c-0.9-1.2-1.3-2.4-1.3-3.6c0-2.1,1.4-3.7,4.1-4.9h6.2v-2.3h-12.7v-2.5h20.6v2.5
		c-0.4,0-0.7,0-0.9,0c-0.2,0-0.4,0-0.6,0H258.5z M249.2,119.4c-0.5,0.3-1.1,0.5-1.8,0.5c-0.7,0-1.3-0.2-1.8-0.5
		c-0.5-0.4-0.8-0.9-0.8-1.5c0-0.6,0.2-1,0.7-1.4c0.4-0.4,1-0.6,1.6-0.6c1,0,1.7,0.2,2.3,0.5c0.5,0.3,0.8,0.8,0.8,1.5
		C250.1,118.6,249.8,119.1,249.2,119.4z M254.8,105h-4c-1.6,1-2.4,2.3-2.4,3.9c0,1.1,0.8,2.4,2.3,3.8c0.4,0.3,0.9,0.7,1.6,1.2
		c0.7,0.5,1.5,1.1,2.6,1.8V105z"/>
	<path class="st4" d="M264,112.7c-0.7,0.7-1.5,1-2.3,1c-1.7,0-3.3-0.9-4.7-2.7v-2.2c0.7,0.8,1.3,1.3,1.7,1.5c0.5,0.2,1,0.4,1.6,0.4
		c0.5,0,0.9-0.2,1.2-0.5c0.3-0.3,0.4-0.9,0.4-1.6c0-0.2,0-0.4,0-0.7s-0.1-0.5-0.1-0.8c-0.1-0.3-0.1-0.7-0.2-1.2
		c-0.1-0.4-0.2-1-0.4-1.6c0.8,0.8,1.4,1.4,1.9,2c0.5,0.6,0.9,1.1,1.2,1.6c0.3,0.5,0.5,0.9,0.7,1.3c0.1,0.4,0.2,0.8,0.2,1.1
		C265.1,111.3,264.7,112,264,112.7z M258.7,101.1v-2.5h9.2v2.5H258.7z"/>
	<path class="st4" d="M288.2,96.2L289,96v1.2c-1-0.4-1.9-0.7-2.8-0.9c-0.9-0.2-1.8-0.5-2.8-0.7c-1.1-0.2-2.2-0.4-3-0.5
		c-0.9-0.1-1.7-0.2-2.4-0.2c-1.6,0-2.8,0.2-3.4,0.5c-0.7,0.3-1,0.8-1,1.4v1.8h4.5v2.5h-4v19.4h0.7v0.9h-5.6v-0.9h1.2v-19.4h-4.1
		v-2.5h4.1v-0.1c0-1.9,0.3-3.4,1-4.3c0.8-1.2,2.2-1.7,4.3-1.7c0.8,0,1.8,0.1,3,0.3c1.1,0.2,2.5,0.6,3.9,1c1.1,0.4,2.2,0.7,3.1,1.1
		C286.5,95.4,287.3,95.8,288.2,96.2L288.2,96.2z"/>
	<path class="st4" d="M283.2,101.1v16.8c0,0.2,0.1,0.4,0.4,0.6c0.2,0.2,0.5,0.4,0.9,0.7c1.7-0.9,2.9-2.6,3.9-5.1
		c0.8-2.2,1.2-4.3,1.2-6.3c0-0.5-0.1-0.9-0.2-1c-0.1-0.2-0.3-0.3-0.5-0.3c-0.2,0-0.5,0.1-0.9,0.3c-0.4,0.2-0.9,0.5-1.5,0.9l-1.2-0.4
		l4.7-2.8l2.7,1.4v0.8c0,3.1-0.7,5.9-2.1,8.2c-1.4,2.4-3.6,4.4-6.6,6.1c-0.4-0.2-1-0.5-1.7-1c-0.7-0.5-1.6-1.2-2.6-2v-16.9H277v-2.5
		h12.6c0-0.2,0-0.3,0-0.5c0-0.2,0-0.3,0-0.5c0.1-0.5,0.1-0.9,0.1-1.2c0-0.5-0.4-1-1.1-1.3c-0.6-0.3-1.3-0.4-2.1-0.4
		c-2,0-4.7,0.4-8.1,1.2l-0.3-0.8c3.8-1.6,7.2-2.4,10.2-2.4c2,0,3.5,0.9,4.4,2.6v3.2h4v2.5H283.2z"/>
	<path class="st4" d="M311.4,101.1v19.3h1.7v0.8h-6.5l-0.1-0.9h1.3v-12.7l-3.4-2.1c-1.4,0.4-2.3,0.7-2.8,1.1
		c-0.8,0.6-1.2,1.4-1.2,2.6v0.1c0,0.1,0,0.2,0.1,0.4c0,0.1,0,0.3,0,0.5v1.1c0,0.5,0.1,1,0.2,1.5c0.1,0.5,0.3,1.1,0.5,1.7
		c0,0.1,0.1,0.2,0.2,0.3c0.1,0.1,0.2,0.4,0.4,0.7c0.2,0.3,0.4,0.8,0.8,1.4c0.3,0.6,0.7,1.3,1.3,2.3c-0.8-0.8-1.4-1.4-2-2
		c-0.5-0.5-1-1-1.3-1.4c-0.4-0.4-0.7-0.7-1-1c-0.3-0.3-0.5-0.6-0.8-0.8c-1.1-1.2-1.7-2.9-1.7-5c0-1.8,1-3.2,2.9-4.4c1-0.6,2-1,2.9-1
		c0.8,0,1.4,0,1.7,0c0.9,0.2,1.8,0.8,2.8,1.7l0.5,0.4v-4.6h-12.9v-2.5h20.7v2.5H311.4z"/>
	<path class="st4" d="M344.6,118.7c-2,1.5-4.1,2.3-6.4,2.3c-1.2,0-2.4-0.3-3.5-0.8c-1.1-0.5-2.2-1.3-3.2-2.4
		c-0.8-0.8-1.5-1.7-2.1-2.6c-0.6-0.9-1.1-1.9-1.5-3c-0.1-0.6-0.4-1.4-0.7-2.5c-0.3-1-0.8-2.4-1.4-4l4.8-0.8c0.2,1.9,0.4,3.5,0.6,4.8
		c0.2,1.3,0.5,2.4,0.8,3.2c0.9,2.8,2.6,4.9,4.9,6.5c0.2,0.1,0.4,0.1,0.6,0.1c0.2,0,0.4,0,0.6,0c1.7,0,3.1-0.7,4.2-2.2
		c0.9-1.2,1.3-2.5,1.3-3.8c0-0.8-0.1-1.3-0.4-1.6c-0.3-0.3-0.8-0.4-1.6-0.4c-0.1,0-0.3,0-0.4,0.1c-0.1,0-0.3,0.1-0.5,0.2
		c-0.1,0-0.2,0.1-0.3,0.1c-0.1,0-0.2,0.1-0.4,0.2c-0.2,0.1-0.4,0.2-0.7,0.4c-0.3,0.1-0.6,0.3-1,0.6c0.3-0.5,0.5-1,0.8-1.4
		s0.4-0.8,0.6-1.1c0.2-0.3,0.4-0.7,0.5-1c0.2-0.3,0.3-0.6,0.5-1c0.6-1.2,0.9-2.5,0.9-4c0-0.9-0.2-1.7-0.7-2.3c-0.5-0.7-1.2-1-2-1
		c-0.4,0-0.7,0.1-1.1,0.4c-0.4,0.3-0.8,0.7-1.3,1.3c-0.8,1.1-1.2,2-1.2,2.8c0,0.2,0,0.3,0.1,0.5c0,0.2,0.1,0.4,0.2,0.8
		c0.1,0.3,0.3,0.7,0.4,1.2c0.2,0.5,0.4,1.1,0.7,1.7c-0.8-0.7-1.5-1.3-2.1-1.9c-0.6-0.6-1-1.1-1.4-1.5c-0.3-0.5-0.6-0.9-0.7-1.3
		c-0.1-0.4-0.2-0.8-0.2-1.1c0-0.7,0.2-1.4,0.6-2.1c0.4-0.7,1-1.3,1.7-1.9c1.4-1.1,2.9-1.6,4.5-1.6c1.8,0,3.3,0.4,4.5,1.3
		c1.3,1,2,2.3,2,4c0,1.1-0.3,2.1-0.9,3.1s-1.6,2.1-3,3.2c0.6-0.2,1-0.3,1.4-0.4c0.4-0.1,0.7-0.1,1-0.1c0.9,0,1.7,0.3,2.3,1
		c0.6,0.6,0.9,1.4,0.9,2.3C347.6,115.3,346.6,117.1,344.6,118.7z"/>
	<path class="st4" d="M358.2,101.1c-1,0.8-1.8,1.5-2.5,2.2c-0.7,0.7-1.2,1.3-1.6,1.9c-0.9,1.5-1.4,3.4-1.4,5.6
		c0,0.7,0.1,1.5,0.2,2.2c0.1,0.8,0.4,1.6,0.7,2.5c0.3,0.9,0.8,1.9,1.3,3c0.6,1.1,1.3,2.4,2.2,3.9c-1.1-1.1-1.9-2-2.6-2.7
		c-0.7-0.8-1.3-1.4-1.7-1.9c-0.4-0.5-0.8-1-1.1-1.3c-0.3-0.4-0.5-0.7-0.7-1c-1.1-1.9-1.6-4.1-1.6-6.7c0-0.7,0.1-1.4,0.2-2
		c0.1-0.6,0.3-1.2,0.5-1.7c0.3-0.6,0.7-1.3,1.2-1.9s1.3-1.3,2.1-2.1h-5.9c0-0.4,0-0.7,0.1-0.9c0-0.2,0-0.4,0-0.5c0-0.1,0-0.3,0-0.4
		c0-0.1,0-0.4-0.1-0.7h12.9v2.5H358.2z"/>
	<path class="st4" d="M378.3,101.1v20.1c-0.9-0.5-1.7-0.9-2.5-1.3c-0.7-0.4-1.6-0.8-2.5-1.2c-1.1-0.5-2.1-1-2.8-1.4
		c-0.8-0.4-1.3-0.7-1.7-0.9c-1.7-0.9-3.1-2-4.3-3.3c-1.2-1.3-2.3-2.8-3.2-4.5l5.5-3.9c-0.7-0.9-1.4-1.6-2-2.2
		c-0.6-0.6-1.2-1.1-1.7-1.4h-4.7v-2.5h24.1v2.5H378.3z M369.1,120.8c-0.6,0.3-1.2,0.5-1.9,0.5s-1.3-0.2-1.8-0.6
		c-0.6-0.4-0.9-1-0.9-1.6c0-0.6,0.3-1.1,1-1.5c0.6-0.3,1.2-0.4,1.8-0.4c0.3,0,0.6,0,1,0.1c0.3,0.1,0.6,0.2,0.9,0.4
		c0.6,0.4,0.9,1,0.9,1.6C370,119.9,369.7,120.4,369.1,120.8z M374.6,101.1h-6.4l2.6,4.1L365,109c0.7,1.3,1.4,2.3,2.1,3
		c0.7,0.8,1.4,1.3,2.1,1.7c0.1,0.1,0.7,0.3,1.5,0.7c0.9,0.4,2.2,1,3.9,1.8V101.1z"/>
	<path class="st4" d="M397,120.9c-0.8-0.6-1.6-1.1-2.3-1.5c-0.7-0.4-1.5-0.9-2.3-1.4c-2-1.2-3.4-2.1-4.3-2.7
		c-3.4-2.4-5.1-4.8-5.1-7.3c0-2.1,1.4-3.7,4.1-4.9h6.2v-1.9h-12.6v-2.5h20.6v2.5c-0.3,0-0.6,0-1,0c-0.4,0-0.8,0-1.2,0s-0.8,0-1.2,0
		s-0.7,0-0.9,0V120.9z M393.4,104.5h-4c-1.6,1-2.4,2.3-2.4,3.9c0,0.9,0.5,1.9,1.5,3c1,1.2,2.7,2.5,4.9,4V104.5z"/>
	<path class="st4" d="M431,101.1v19.2h1.4v1h-6.6v-1h1.5v-10.4l-2.2-1.6c-0.4,0.4-1,1-1.6,1.7c-0.7,0.7-1.4,1.5-2.3,2.4
		c-1,1-1.9,1.8-2.6,2.3c-0.8,0.5-1.4,0.8-1.9,0.8c-0.8,0-1.5-0.1-2.3-0.4c-0.8-0.3-1.7-0.8-2.6-1.4l0.1-1.9c0.8,0.6,1.3,1,1.7,1.2
		c0.4,0.2,0.7,0.3,1,0.3c0.8,0,1.8-0.6,3-1.8c0.6-0.6,1.1-1.2,1.3-1.7s0.4-0.9,0.4-1.3c0-0.6-0.1-1.1-0.3-1.4
		c-0.2-0.3-0.5-0.4-0.9-0.4c-0.4,0-1,0.2-1.7,0.5l-1.8,0.8c-1-0.2-1.7-0.5-2.1-0.8c-0.5-0.4-0.7-1-0.7-1.9c0-0.6,0.7-1.9,2-3.9h-4.4
		v-2.5h25.7v2.5H431z M427.3,101.1H416c-0.3,0.3-0.5,0.7-0.7,1c-0.2,0.4-0.4,0.7-0.6,1.1c-0.1,0.2-0.2,0.5-0.2,0.7
		c0,0.2,0.1,0.3,0.2,0.4c0.1,0.1,0.3,0.1,0.7,0.1c0.4,0,1-0.1,1.8-0.4c0.4-0.1,0.8-0.2,1.1-0.3c0.3-0.1,0.6-0.1,0.8-0.1
		c0.7,0,1.3,0.3,1.6,0.8c0.3,0.5,0.5,1.3,0.5,2.3c0,0.2,0,0.4,0,0.6c0,0.2,0,0.5-0.1,0.8l3.5-2.7c0.4,0.2,0.8,0.4,1.2,0.7
		c0.4,0.3,0.9,0.6,1.4,1V101.1z"/>
	<path class="st4" d="M440,101.1v19.3h1.7l-0.1,0.8h-6.8l0.1-0.8h1.4v-19.3h-2.9v-2.5h10.1c0,0.4,0,0.8,0,1.1c0,0.3,0,0.8,0,1.3H440
		z"/>
	<path class="st4" d="M455.7,101.1c0.9,0.7,1.6,1.4,2.1,2.1c0.4,0.7,0.6,1.4,0.6,2.2c0,2.2-1.3,4.3-3.8,6.1
		c-0.9,0.6-1.8,1.2-2.9,1.7c-1.1,0.5-2.3,1-3.7,1.4c0.7,2.1,1.8,3.9,3.3,5.2c0.9,0.8,2.7,2,5.4,3.8c0.2,0.1,0.3,0.2,0.5,0.3
		c0.2,0.1,0.3,0.2,0.4,0.3l-0.5,0.7l-3-1.6c-2.2-1.1-4.2-2.4-5.9-3.8c-1.7-1.4-3.2-3-4.6-4.8c1.6-0.4,2.9-0.9,4-1.3
		c1.1-0.5,2.1-1,2.9-1.5c1.2-0.8,2.1-1.6,2.6-2.5c0.6-0.9,0.8-1.8,0.8-2.8c0-0.9-0.2-1.9-0.7-2.8c-0.6-1.2-1.5-1.7-2.4-1.7
		c-0.5,0-0.9,0.2-1.4,0.5s-0.9,0.9-1.4,1.6c-0.8,1.2-1.1,2.3-1.1,3.2c0,0.3,0,0.5,0.1,0.8c0,0.3,0.1,0.6,0.3,0.9
		c0.1,0.3,0.3,0.7,0.6,1.1c0.2,0.4,0.6,0.9,1,1.5c-1-0.5-1.9-1-2.6-1.5c-0.7-0.5-1.2-1-1.6-1.4c-0.4-0.5-0.7-1-0.9-1.4
		c-0.2-0.5-0.3-1-0.3-1.5c0-0.8,0.2-1.5,0.7-2.3c0.5-0.7,1.2-1.5,2.2-2.4h-5v-2.5h10.2v-1.2c-0.9-1.1-2-1.7-3.3-1.7s-3,0.3-5.2,0.9
		c-0.7,0.2-1.4,0.4-2,0.6s-1.1,0.3-1.6,0.4l-0.3-0.8c0.8-0.3,1.5-0.7,2.3-1c0.7-0.3,1.4-0.6,2.1-0.9c2.2-0.9,4.3-1.3,6.3-1.3
		c0.6,0,1.2,0.1,1.7,0.2c0.5,0.1,1,0.3,1.5,0.5c0.3,0.2,0.6,0.4,1,0.7c0.4,0.3,0.8,0.7,1.2,1.2v2.2h5.4v2.5H455.7z"/>
	<path class="st4" d="M469.4,101.1c-1,0.8-1.8,1.5-2.5,2.2c-0.7,0.7-1.2,1.3-1.6,1.9c-0.9,1.5-1.4,3.4-1.4,5.6
		c0,0.7,0.1,1.5,0.2,2.2c0.1,0.8,0.4,1.6,0.7,2.5c0.3,0.9,0.8,1.9,1.3,3c0.6,1.1,1.3,2.4,2.2,3.9c-1.1-1.1-1.9-2-2.6-2.7
		c-0.7-0.8-1.3-1.4-1.7-1.9c-0.4-0.5-0.8-1-1.1-1.3s-0.5-0.7-0.7-1c-1.1-1.9-1.6-4.1-1.6-6.7c0-0.7,0.1-1.4,0.2-2
		c0.1-0.6,0.3-1.2,0.5-1.7c0.3-0.6,0.7-1.3,1.2-1.9s1.3-1.3,2.1-2.1h-5.9c0-0.4,0-0.7,0.1-0.9c0-0.2,0-0.4,0-0.5c0-0.1,0-0.3,0-0.4
		c0-0.1,0-0.4-0.1-0.7h12.9v2.5H469.4z"/>
	<path class="st4" d="M476.5,101.1v16.8c0,0.2,0.1,0.4,0.4,0.6s0.5,0.4,0.9,0.7c1.7-0.9,2.9-2.6,3.9-5.1c0.8-2.2,1.2-4.3,1.2-6.3
		c0-0.5-0.1-0.9-0.2-1s-0.3-0.3-0.5-0.3c-0.2,0-0.5,0.1-0.9,0.3s-0.9,0.5-1.5,0.9l-1.2-0.4l4.7-2.8l2.7,1.4v0.8
		c0,3.1-0.7,5.9-2.1,8.2c-1.4,2.4-3.6,4.4-6.6,6.1c-0.4-0.2-1-0.5-1.7-1c-0.7-0.5-1.6-1.2-2.6-2v-16.9h-2.6v-2.5h12.6
		c0-0.2,0-0.3,0-0.5c0-0.2,0-0.3,0-0.5c0.1-0.5,0.1-0.9,0.1-1.2c0-0.5-0.4-1-1.1-1.3c-0.6-0.3-1.3-0.4-2.1-0.4c-2,0-4.7,0.4-8.1,1.2
		l-0.3-0.8c3.8-1.6,7.2-2.4,10.2-2.4c2,0,3.5,0.9,4.4,2.6v3.2h4v2.5H476.5z"/>
	<path class="st4" d="M504.5,101.1v19.8c-0.9-0.6-1.7-1.2-2.4-1.6c-0.7-0.4-1.4-0.9-2.2-1.3c-1.2-0.6-2.1-1.2-2.9-1.6
		c-0.7-0.4-1.2-0.7-1.5-0.9c-1.7-1.1-3-2.3-3.8-3.4c-0.9-1.2-1.3-2.4-1.3-3.6c0-2.1,1.4-3.7,4.1-4.9h6.2v-2.3h-12.7v-2.5h20.6v2.5
		c-0.4,0-0.7,0-0.9,0s-0.4,0-0.6,0H504.5z M495.3,119.4c-0.5,0.3-1.1,0.5-1.8,0.5c-0.7,0-1.3-0.2-1.8-0.5c-0.5-0.4-0.8-0.9-0.8-1.5
		c0-0.6,0.2-1,0.7-1.4c0.4-0.4,1-0.6,1.6-0.6c1,0,1.7,0.2,2.3,0.5c0.5,0.3,0.8,0.8,0.8,1.5C496.2,118.6,495.9,119.1,495.3,119.4z
		 M500.8,105h-4c-1.6,1-2.4,2.3-2.4,3.9c0,1.1,0.8,2.4,2.3,3.8c0.4,0.3,0.9,0.7,1.6,1.2c0.7,0.5,1.5,1.1,2.6,1.8V105z"/>
	<path class="st4" d="M538.5,96.2l0.9-0.2v1.2c-1-0.4-1.9-0.7-2.8-0.9c-0.9-0.2-1.8-0.5-2.8-0.7c-1.1-0.2-2.2-0.4-3-0.5
		c-0.9-0.1-1.7-0.2-2.4-0.2c-1.6,0-2.8,0.2-3.4,0.5c-0.7,0.3-1,0.8-1,1.4v1.8h4.5v2.5h-4v19.4h0.7v0.9h-5.6v-0.9h1.2v-19.4h-4.1
		v-2.5h4.1v-0.1c0-1.9,0.3-3.4,1-4.3c0.8-1.2,2.2-1.7,4.3-1.7c0.8,0,1.8,0.1,3,0.3c1.1,0.2,2.5,0.6,3.9,1c1.1,0.4,2.2,0.7,3.1,1.1
		C536.8,95.4,537.6,95.8,538.5,96.2L538.5,96.2z"/>
	<path class="st4" d="M543.3,101.1v19.3h1.7v0.8h-6.5l-0.1-0.9h1.3v-12.7l-3.4-2.1c-1.4,0.4-2.3,0.7-2.8,1.1
		c-0.8,0.6-1.2,1.4-1.2,2.6v0.1c0,0.1,0,0.2,0.1,0.4c0,0.1,0,0.3,0,0.5v1.1c0,0.5,0.1,1,0.2,1.5s0.3,1.1,0.5,1.7
		c0,0.1,0.1,0.2,0.2,0.3c0.1,0.1,0.2,0.4,0.4,0.7c0.2,0.3,0.4,0.8,0.8,1.4c0.3,0.6,0.8,1.3,1.3,2.3c-0.8-0.8-1.4-1.4-2-2
		c-0.5-0.5-1-1-1.3-1.4c-0.4-0.4-0.7-0.7-1-1c-0.3-0.3-0.5-0.6-0.8-0.8c-1.1-1.2-1.7-2.9-1.7-5c0-1.8,1-3.2,2.9-4.4c1-0.6,2-1,2.9-1
		c0.8,0,1.4,0,1.7,0c0.9,0.2,1.8,0.8,2.8,1.7l0.5,0.4v-4.6h-12.9v-2.5h20.7v2.5H543.3z"/>
	<path class="st4" d="M555.9,101.1c-1,0.8-1.8,1.5-2.5,2.2c-0.7,0.7-1.2,1.3-1.6,1.9c-0.9,1.5-1.4,3.4-1.4,5.6
		c0,0.7,0.1,1.5,0.2,2.2c0.1,0.8,0.4,1.6,0.7,2.5c0.3,0.9,0.8,1.9,1.3,3c0.6,1.1,1.3,2.4,2.2,3.9c-1.1-1.1-1.9-2-2.6-2.7
		c-0.7-0.8-1.3-1.4-1.7-1.9c-0.4-0.5-0.8-1-1.1-1.3s-0.5-0.7-0.7-1c-1.1-1.9-1.6-4.1-1.6-6.7c0-0.7,0.1-1.4,0.2-2
		c0.1-0.6,0.3-1.2,0.5-1.7c0.3-0.6,0.7-1.3,1.2-1.9s1.3-1.3,2.1-2.1h-5.9c0-0.4,0-0.7,0.1-0.9c0-0.2,0-0.4,0-0.5c0-0.1,0-0.3,0-0.4
		c0-0.1,0-0.4-0.1-0.7h12.9v2.5H555.9z"/>
	<path class="st4" d="M562.1,101.1c0,0.1,0,0.2,0,0.3c0,0.1,0,0.2,0,0.3c0,0.2,0,0.4,0,0.5c0,0.1,0,0.2,0,0.4c0,0.6,0.1,1.1,0.4,1.4
		c0,0,0.1,0,0.1,0.1c0,0,0.1,0,0.1,0.1c0,0,0.1,0.1,0.2,0.1c0.1,0,0.2,0.1,0.3,0.1c1,0.8,2.2,1.1,3.7,1.1c0.7,0,1.3-0.2,1.9-0.5
		c0.5-0.3,0.9-0.5,1.3-0.7c0.2-0.1,0.4-0.2,0.7-0.4l3.3,1.6c0,0.4,0.1,0.7,0.1,1.1c0,0.3,0,0.7,0,1.2c0,1.3-0.2,2.7-0.6,4
		c-0.4,1.3-1.1,2.6-2,3.8c-1.7,2.3-3.9,4.1-6.6,5.4c-1-0.2-2-0.5-3.1-0.9c-1.1-0.4-2.3-0.9-3.5-1.6v-17.3h-3.2c0-0.6,0-1,0-1.3
		c0-0.3,0-0.7,0-1.2h21.2v2.5H562.1z M570.3,106.7c-0.2-0.2-0.3-0.2-0.4-0.2h-0.1c0,0,0,0-0.1,0c0,0,0,0-0.1,0c-2,1-3.8,1.5-5.3,1.5
		c-0.3,0-0.6,0-1-0.1c-0.4-0.1-0.8-0.2-1.2-0.3v9.6c0.6,0.6,1.2,1.1,1.6,1.4c0.5,0.3,0.9,0.5,1.2,0.5c0.5,0,1.1-0.3,1.6-0.8
		c0.8-0.8,1.4-1.6,1.9-2.3c0.5-0.8,0.9-1.5,1.2-2.2c0.4-1.1,0.6-2.8,0.6-5V106.7z"/>
	<path class="st4" d="M201.8,148.6v7.6c0,0.3,0.2,0.6,0.5,0.8c0.3,0.2,0.8,0.3,1.5,0.3c0.8,0,1.3-0.3,1.6-0.8
		c0.1-0.1,0.2-0.4,0.2-0.7c0.1-0.3,0.1-0.8,0.3-1.5l3.8,0.7c-0.3,2.7-0.9,4.9-1.7,6.8c-0.8,1.9-1.8,3.5-3.1,4.7
		c-1.3,1.3-2.7,1.9-4,1.9c-2.2,0-4-1-5.5-2.9c-1.5-1.9-2.6-4.7-3.5-8.5c0-0.2-0.1-0.6-0.2-1.3c-0.1-0.7-0.3-1.7-0.5-3l3.6-0.9
		c0.3,2.6,0.5,4.6,0.7,6c0.2,1.4,0.4,2.4,0.5,3c0.6,2.1,1.3,3.7,2.1,4.7c0.9,1,1.8,1.5,3,1.5c0.6,0,1.3-0.3,1.8-1
		c0.6-0.7,1.1-1.7,1.6-3.1c0.3-0.8,0.5-1.6,0.7-2.5c0.2-0.9,0.3-1.8,0.4-2.8c-1.1,0.5-1.9,0.8-2.6,0.8c-1,0-2.1-0.3-3.1-0.9
		c-1.1-0.6-1.7-1.4-1.7-2.4v-6.6h-8.9v-2.5h23.5v2.5H201.8z"/>
	<path class="st4" d="M218,148.6v19.3h1.7l-0.1,0.8h-6.8l0.1-0.8h1.4v-19.3h-2.9v-2.5h10.1c0,0.4,0,0.8,0,1.1c0,0.3,0,0.8,0,1.3H218
		z"/>
	<path class="st4" d="M235.8,148.6v19.3h1.7v0.8H231l-0.1-0.9h1.3v-12.7l-3.4-2c-1.4,0.4-2.3,0.7-2.8,1.1c-0.8,0.6-1.2,1.4-1.2,2.6
		v0.1c0,0.1,0,0.2,0.1,0.4c0,0.1,0,0.3,0,0.5v1.1c0,0.5,0.1,1,0.2,1.5c0.1,0.5,0.3,1.1,0.5,1.7c0,0.1,0.1,0.2,0.2,0.3
		c0.1,0.1,0.2,0.4,0.4,0.7c0.2,0.3,0.4,0.8,0.8,1.4c0.3,0.6,0.7,1.3,1.3,2.3c-0.8-0.8-1.4-1.4-2-2c-0.5-0.5-1-1-1.3-1.4
		c-0.4-0.4-0.7-0.7-1-1c-0.3-0.3-0.5-0.6-0.8-0.8c-1.1-1.2-1.7-2.9-1.7-5c0-1.8,1-3.2,2.9-4.4c1-0.6,2-1,2.9-1c0.8,0,1.4,0,1.7,0
		c0.9,0.2,1.8,0.8,2.8,1.7l0.5,0.4v-4.6h-12.9v-2.5h20.7v2.5H235.8z"/>
	<path class="st4" d="M265.3,148.6v3.3h1.3c2.1,0,3.5,0.2,4.4,0.6c1.1,0.5,1.7,1.6,1.7,3.2c0,1.1-0.6,2.4-1.9,4.1
		c-0.2,0.3-0.4,0.5-0.7,0.8c-0.2,0.3-0.5,0.6-0.9,1c-0.4,0.4-0.8,0.8-1.3,1.3c-0.5,0.5-1.1,1.1-1.9,1.8c0.6-1.2,1.2-2.3,1.6-3.2
		s0.8-1.7,1-2.5s0.4-1.4,0.5-2c0.1-0.6,0.1-1.2,0.1-1.7c0-0.6-0.1-1-0.4-1.3c-0.1-0.1-0.2-0.2-0.4-0.4s-0.4-0.3-0.7-0.5h-2.4v15.4
		c-4.6-2.2-8.1-4.4-10.3-6.5c-2.2-2.1-3.3-4.3-3.3-6.4c0-1.6,0.9-2.7,2.6-3.2c0.5-0.2,1.1-0.3,1.8-0.4c0.7-0.1,1.6-0.1,2.6,0
		l2.9,0.1v-3.4h-14v-2.5h27.8v2.5H265.3z M261.6,153.2h-3.4c-0.9,0.3-1.5,0.8-1.8,1.2c-0.1,0.2-0.3,0.5-0.3,0.9
		c-0.1,0.3-0.1,0.8-0.1,1.3c0,1.5,0.6,3.1,1.9,4.9c1.1,1.4,2.3,2.5,3.8,3.3V153.2z"/>
	<path class="st4" d="M289.1,148.6v19.3h1.7v0.8h-6.5l-0.1-0.9h1.3v-12.7l-3.4-2c-1.4,0.4-2.3,0.7-2.8,1.1c-0.8,0.6-1.2,1.4-1.2,2.6
		v0.1c0,0.1,0,0.2,0.1,0.4c0,0.1,0,0.3,0,0.5v1.1c0,0.5,0.1,1,0.2,1.5c0.1,0.5,0.3,1.1,0.5,1.7c0,0.1,0.1,0.2,0.2,0.3
		c0.1,0.1,0.2,0.4,0.4,0.7c0.2,0.3,0.4,0.8,0.8,1.4c0.3,0.6,0.7,1.3,1.3,2.3c-0.8-0.8-1.4-1.4-2-2c-0.5-0.5-1-1-1.3-1.4
		c-0.4-0.4-0.7-0.7-1-1c-0.3-0.3-0.5-0.6-0.8-0.8c-1.1-1.2-1.7-2.9-1.7-5c0-1.8,1-3.2,2.9-4.4c1-0.6,2-1,2.9-1c0.8,0,1.4,0,1.7,0
		c0.9,0.2,1.8,0.8,2.8,1.7l0.5,0.4v-4.6h-12.9v-2.5h20.7v2.5H289.1z"/>
	<path class="st4" d="M288.1,143c-1.1,0.8-2,1.6-2.7,2.6c-0.7,0.9-1.3,2-1.6,3.2h-2.1l-1.5-3.1c1.1-0.8,2.1-1.6,3.2-2.2
		c1.1-0.7,2.2-1.3,3.4-2c0.6-0.3,1.3-0.6,1.9-0.9c0.6-0.3,1.3-0.5,2-0.8c0.7-0.2,1.5-0.5,2.3-0.7c0.8-0.2,1.8-0.4,2.9-0.6
		c-1.4,0.8-2.6,1.5-3.5,2.1s-1.7,1-2.3,1.4c-0.6,0.4-1.1,0.6-1.3,0.8S288.2,142.9,288.1,143z"/>
	<path class="st4" d="M298.1,148.6v19.3h1.7l-0.1,0.8h-6.8l0.1-0.8h1.4v-19.3h-2.9v-2.5h10.1c0,0.4,0,0.8,0,1.1c0,0.3,0,0.8,0,1.3
		H298.1z"/>
	<path class="st4" d="M309.5,148.6c-1,0.8-1.8,1.5-2.5,2.2c-0.7,0.7-1.2,1.3-1.6,1.9c-0.9,1.5-1.4,3.4-1.4,5.6
		c0,0.7,0.1,1.5,0.2,2.2c0.1,0.8,0.4,1.6,0.7,2.5c0.3,0.9,0.8,1.9,1.3,3c0.6,1.1,1.3,2.4,2.2,3.9c-1.1-1.1-1.9-2-2.6-2.7
		c-0.7-0.8-1.3-1.4-1.7-1.9c-0.4-0.5-0.8-1-1.1-1.3c-0.3-0.4-0.5-0.7-0.7-1c-1.1-1.9-1.6-4.1-1.6-6.7c0-0.7,0.1-1.4,0.2-2
		c0.1-0.6,0.3-1.2,0.5-1.7c0.3-0.6,0.7-1.3,1.2-1.9c0.5-0.6,1.3-1.3,2.1-2.1H299c0-0.4,0-0.7,0.1-0.9c0-0.2,0-0.4,0-0.5
		c0-0.1,0-0.3,0-0.4c0-0.1,0-0.4-0.1-0.7h12.9v2.5H309.5z"/>
	<path class="st4" d="M326.3,148.6v19.8c-0.9-0.7-1.7-1.2-2.4-1.6c-0.7-0.4-1.4-0.9-2.2-1.3c-1.2-0.6-2.1-1.2-2.9-1.6
		c-0.7-0.4-1.2-0.7-1.5-0.9c-1.7-1.1-3-2.3-3.8-3.4c-0.9-1.2-1.3-2.4-1.3-3.6c0-2.1,1.4-3.7,4.1-4.9h6.2v-2.3h-12.7v-2.5h20.6v2.5
		c-0.4,0-0.7,0-0.9,0c-0.2,0-0.4,0-0.6,0H326.3z M317,166.9c-0.5,0.3-1.1,0.5-1.8,0.5c-0.7,0-1.3-0.2-1.8-0.5
		c-0.5-0.4-0.8-0.9-0.8-1.5c0-0.6,0.2-1,0.7-1.4c0.4-0.4,1-0.6,1.6-0.6c1,0,1.7,0.2,2.3,0.5c0.5,0.3,0.8,0.8,0.8,1.5
		C317.9,166.1,317.6,166.6,317,166.9z M322.6,152.5h-4c-1.6,1-2.4,2.3-2.4,3.9c0,1.1,0.8,2.4,2.3,3.8c0.4,0.3,0.9,0.7,1.6,1.2
		c0.7,0.5,1.5,1.1,2.6,1.8V152.5z"/>
	<path class="st4" d="M359,148.6V168h1.5v0.8h-5.1v-12.9l-0.5-0.5l-8.2,5.7c-0.3-0.1-0.5-0.2-0.8-0.4c-0.3-0.1-0.6-0.3-0.9-0.6
		c-0.4-0.2-0.8-0.5-1.2-0.8c-0.5-0.3-1-0.8-1.7-1.2l3,0.7c0.4-0.3,0.9-0.6,1.3-0.9c0.4-0.3,0.8-0.6,1.3-1c0.2-0.6,0.1-1.2-0.3-1.5
		c-0.4-0.4-0.9-0.5-1.7-0.5c-0.4,0-1.1,0.2-1.8,0.5c-0.9,0.4-1.4,0.6-1.7,0.6c-1.5,0-2.3-0.8-2.2-2.4c0-2.2,0.9-4,2.6-5.1
		c1.5-1.1,3.5-1.6,5.8-1.6c1.6,0,2.9,0.2,4.1,0.7c0.4,0.2,0.9,0.4,1.3,0.7c0.5,0.3,1,0.7,1.6,1.2v-3.3h7.4v2.5H359z M354.7,151.6
		c-1.9-1.7-4.1-2.5-6.5-2.5c-0.5,0-1.1,0.1-1.7,0.2c-0.6,0.1-1.2,0.3-1.7,0.6c-0.5,0.3-1,0.6-1.3,0.9c-0.4,0.4-0.5,0.8-0.5,1.2
		c0,0.2,0.1,0.3,0.3,0.5c0.2,0.2,0.5,0.2,0.8,0.2c0.1,0,0.2,0,0.5-0.1c0.1,0,0.2-0.1,0.3-0.1c0.1,0,0.2-0.1,0.3-0.1
		c0.3-0.1,0.6-0.2,0.8-0.2c0.3-0.1,0.5-0.1,0.7,0c0.8,0.2,1.3,0.4,1.7,0.8s0.6,0.9,0.7,1.7c0,0.4,0.2,0.6,0.6,0.7l3.2-2.5
		c0.3,0.1,0.6,0.2,0.8,0.3c0.2,0.1,0.4,0.1,0.6,0.2l0.6,0.2V151.6z"/>
	<path class="st4" d="M354.4,173l-0.2-0.6h1.2v-0.8c-1-0.9-2-1.3-2.9-1.3c-0.1,0-0.3,0.1-0.7,0.3c-0.3,0.2-0.8,0.4-1.4,0.7
		c-1.4,0.6-2.5,1-3.3,1c-2.2,0-3.9-0.9-5.1-2.7c-0.3-0.4-0.6-1.3-1-2.6c0-0.2-0.1-0.4-0.1-0.6c0-0.2-0.1-0.5-0.1-0.8
		c0-0.3-0.1-0.7-0.2-1.2c-0.1-0.5-0.1-1.1-0.2-1.9c0.7,1.5,1.3,2.6,1.9,3.6c0.6,0.9,1.1,1.7,1.6,2.2c0.5,0.6,1,0.9,1.5,1.2
		c0.5,0.2,1,0.3,1.5,0.3c0.5,0,1.3-0.2,2.3-0.5c1-0.4,1.8-0.5,2.4-0.5c0.7,0,1.3,0.1,1.8,0.2l1.9,1.3v-2.9h3.7v6h-5.2v-0.5
		L354.4,173z"/>
	<path class="st4" d="M368.6,148.6v11.7c0.5-0.8,1.1-1.5,1.7-2.1c0.6-0.6,1.2-1.2,1.8-1.8l4.6-4.2c0.3,0.2,0.5,0.4,0.7,0.6
		s0.5,0.4,0.7,0.6c0.2,0.1,0.3,0.2,0.5,0.3c0.2,0.1,0.3,0.2,0.4,0.3l0.4,0.4v13.4h2.1v1.1h-7.3v-1.1l1.6,0v-12.4
		c-0.5,0.7-1.1,1.3-1.8,2.1c-0.7,0.8-1.4,1.6-2.2,2.6c-0.7,0.9-1.4,1.7-2,2.6s-1.1,1.8-1.6,2.9l-3.3-2.2v-14.7h-3.3v-2.5h22.9v2.5
		H368.6z"/>
	<path class="st4" d="M403.7,143.7l0.9-0.2v1.2c-1-0.4-1.9-0.7-2.8-0.9s-1.8-0.5-2.8-0.7c-1.1-0.2-2.2-0.4-3-0.5
		c-0.9-0.1-1.7-0.2-2.4-0.2c-1.6,0-2.8,0.2-3.4,0.5s-1,0.8-1,1.4v1.8h4.5v2.5h-4V168h0.7v0.9h-5.6V168h1.2v-19.4h-4.1v-2.5h4.1v-0.1
		c0-1.9,0.3-3.4,1-4.3c0.8-1.2,2.2-1.7,4.3-1.7c0.8,0,1.8,0.1,3,0.3c1.1,0.2,2.5,0.6,3.9,1c1.1,0.4,2.2,0.7,3.1,1.1
		C402,142.9,402.9,143.3,403.7,143.7L403.7,143.7z"/>
	<path class="st4" d="M414.5,148.6h-1.3v20.2H408l-0.1-0.9h1.6v-13.8c-1.1-2-2.1-3.3-3-3.8c-0.5,0.4-1,0.7-1.2,0.9
		c-0.3,0.2-0.5,0.4-0.6,0.5c-0.5,0.5-0.7,1.2-0.7,2.1c0,0.6,0.1,1.3,0.2,1.9c0.1,0.7,0.4,1.5,0.7,2.4c0.3,0.9,0.8,1.9,1.4,3.1
		c0.6,1.2,1.3,2.6,2.2,4.2c-1.1-1.2-2-2.2-2.8-3.1c-0.8-0.9-1.4-1.7-2-2.4c-0.6-0.7-1-1.3-1.4-1.9c-0.4-0.6-0.7-1.1-1-1.6
		c-0.3,0.6-0.7,1.2-1.1,1.9c-0.4,0.6-0.9,1.2-1.5,1.9c-0.2,0.2-0.4,0.5-0.7,0.8c-0.2,0.3-0.5,0.6-0.9,0.9c-0.4,0.4-0.8,0.8-1.3,1.3
		s-1.2,1.2-2.1,2c0.6-1,1.2-1.8,1.6-2.5c0.4-0.7,0.7-1.2,1-1.7c0.2-0.5,0.4-0.9,0.6-1.2c0.2-0.3,0.3-0.7,0.4-1
		c0.7-2,1.1-3.8,1.1-5.2c0-1.5-0.3-2.7-0.9-3.5c-0.1-0.1-0.3-0.3-0.4-0.4s-0.4-0.3-0.7-0.5c-0.3-0.2-0.7-0.4-1.2-0.7
		c-0.5-0.2-1.1-0.5-1.8-0.9h5.4c0.7,0.6,1.2,1.1,1.7,1.7c0.4,0.5,0.8,1.1,1,1.8c0.2-0.4,0.5-0.7,0.7-1c0.2-0.3,0.5-0.6,0.8-0.8
		c0.2-0.2,0.4-0.4,0.7-0.7s0.7-0.7,1.2-1.2c1.8,0.5,3.1,1.2,3.9,2c0.1,0.1,0.2,0.3,0.4,0.5c0.1,0.2,0.3,0.5,0.4,0.9v-4.8h7.4v2.5
		H414.5z"/>
	<path class="st4" d="M412.2,143c-1.1,0.8-2,1.6-2.7,2.6c-0.7,0.9-1.3,2-1.6,3.2h-2.1l-1.5-3.1c1.1-0.8,2.1-1.6,3.2-2.2
		c1.1-0.7,2.2-1.3,3.4-2c0.6-0.3,1.3-0.6,1.9-0.9s1.3-0.5,2-0.8c0.7-0.2,1.5-0.5,2.3-0.7c0.8-0.2,1.8-0.4,2.9-0.6
		c-1.4,0.8-2.6,1.5-3.5,2.1s-1.7,1-2.3,1.4c-0.6,0.4-1.1,0.6-1.3,0.8S412.3,142.9,412.2,143z"/>
	<path class="st4" d="M434.5,148.6c1.3,1,2.2,2.3,2.7,3.8c0.6,1.5,0.8,3.3,0.8,5.4c0,2.7-0.7,5-2.1,6.9c-1.7,2.5-4.1,3.7-7.2,3.7
		c-1.5,0-2.8-0.4-3.9-1.1c-2-1.4-3.4-2.7-4.3-4c-0.7-1.1-1.6-3-2.5-5.7c-0.2-0.6-0.4-1.5-0.6-2.8c-0.1-0.5-0.2-1-0.3-1.5
		s-0.3-1-0.5-1.6l5.2-0.4c-0.1,0.9-0.2,1.7-0.2,2.2c0,0.6,0,1,0,1.4c0,1.3,0.1,2.5,0.3,3.7s0.6,2.4,1,3.6c0.7,1.7,1.5,2.9,2.4,3.7
		c0.9,0.8,2,1.2,3.2,1.2c2.1,0,3.6-1.3,4.6-3.9c0.7-1.8,1-3.8,1-5.9c0-1.8-0.2-3.5-0.6-5.1c-0.3-1.2-0.7-2.1-1.2-2.6
		c-0.4-0.5-0.9-0.8-1.5-0.8c-0.5,0-1,0.2-1.4,0.7c-0.4,0.5-0.8,1.3-1.2,2.4c-0.4,1.5-0.7,3-0.7,4.4c0,0.6,0.1,1.2,0.2,1.8
		c0.1,0.6,0.4,1.4,0.8,2.4c-0.8-0.4-1.5-0.9-2.1-1.3c-0.6-0.4-1-0.9-1.4-1.4c-0.4-0.5-0.6-1-0.8-1.5c-0.2-0.5-0.2-1.1-0.2-1.7
		c0-1.3,0.2-2.4,0.7-3.4s1.2-1.9,2.3-2.7h-11.7v-2.5h25.3c0,0.2,0,0.3,0,0.5c0,0.1,0,0.3,0,0.4s0,0.4,0,0.6c0,0.2,0,0.6,0,1H434.5z"
		/>
	<path class="st4" d="M463.6,148.6c0.9,0.7,1.6,1.3,2,2c0.4,0.7,0.6,1.5,0.6,2.3c0,1.8-0.9,3.4-2.6,4.8c-1.7,1.4-4.3,2.6-7.8,3.7
		c0.7,2.1,1.9,3.9,3.4,5.2c0.4,0.4,1.1,0.9,2,1.5c0.9,0.6,2,1.4,3.4,2.2c0.2,0.1,0.4,0.2,0.5,0.3s0.3,0.2,0.5,0.3l-0.5,0.7
		c-1.6-0.8-2.9-1.6-4.1-2.3c-1.2-0.7-2.2-1.3-3-1.9c-1.3-0.9-2.4-1.9-3.5-3s-2-2.3-3-3.7c3.8-1,6.5-2,8.2-3.2
		c1.7-1.2,2.6-2.5,2.6-3.9c0-1-0.3-1.9-1-2.8c-0.7-1-1.5-1.4-2.5-1.4c-1,0-1.8,0.2-2.4,0.7c-0.7,0.5-1.1,1.1-1.1,2
		c0,0.3,0,0.7,0.1,1c0,0.3,0.1,0.7,0.3,1.1c0.1,0.4,0.3,0.8,0.6,1.3s0.6,1,0.9,1.6c-0.6-0.3-1.2-0.6-1.6-0.9
		c-0.4-0.2-0.8-0.4-1.1-0.6c-0.3-0.2-0.6-0.4-0.7-0.5c-0.2-0.2-0.4-0.3-0.5-0.4c-0.9-0.9-1.3-2.1-1.2-3.5c0.1-0.8,0.6-1.6,1.6-2.2
		c0,0,0.1-0.1,0.2-0.2c0.1-0.1,0.2-0.1,0.4-0.2h-5.2v-2.5h19.9v2.5H463.6z"/>
	<path class="st4" d="M477.2,148.6c-1,0.8-1.8,1.5-2.5,2.2c-0.7,0.7-1.2,1.3-1.6,1.9c-0.9,1.5-1.4,3.4-1.4,5.6
		c0,0.7,0.1,1.5,0.2,2.2c0.1,0.8,0.4,1.6,0.7,2.5c0.3,0.9,0.8,1.9,1.3,3s1.3,2.4,2.2,3.9c-1.1-1.1-1.9-2-2.6-2.7s-1.3-1.4-1.7-1.9
		c-0.4-0.5-0.8-1-1.1-1.3c-0.3-0.4-0.5-0.7-0.7-1c-1.1-1.9-1.6-4.1-1.6-6.7c0-0.7,0.1-1.4,0.2-2c0.1-0.6,0.3-1.2,0.5-1.7
		c0.3-0.6,0.7-1.3,1.2-1.9c0.5-0.6,1.3-1.3,2.1-2.1h-5.9c0-0.4,0-0.7,0.1-0.9c0-0.2,0-0.4,0-0.5c0-0.1,0-0.3,0-0.4
		c0-0.1,0-0.4-0.1-0.7h12.9v2.5H477.2z"/>
	<path class="st4" d="M490.7,159.6c-1.3,1.7-2.9,3.1-4.8,4c-0.8-0.1-1.5-0.3-2.4-0.5c-0.8-0.2-1.8-0.6-2.9-1v-13.5h-2.4v-2.5h11.8
		v2.5h-6.4v2.6c0,0.2,0.1,0.4,0.2,0.6l0.6,0c0.4,0.2,0.8,0.4,1.3,0.5c0.5,0.1,1,0.2,1.5,0.2c0.5,0,1-0.1,1.4-0.3
		c0.3-0.2,0.6-0.3,0.8-0.4c0.2-0.1,0.4-0.2,0.6-0.3l2.6,1c0,0.3,0.1,0.5,0.1,0.8c0,0.2,0,0.5,0,0.7
		C492.9,155.9,492.2,157.7,490.7,159.6z M489.7,153.4l-0.2-0.1c-0.4,0-1.1,0.2-1.9,0.5c-0.9,0.3-1.6,0.4-2.2,0.4c-0.2,0-0.5,0-0.7,0
		s-0.6-0.1-0.9-0.1v6.8c0.5,0.5,1,0.8,1.3,1c0.3,0.2,0.6,0.3,0.7,0.3s0.3-0.1,0.5-0.2c0.2-0.1,0.4-0.3,0.7-0.6
		c1.8-1.5,2.8-3.9,2.8-7V153.4z"/>
	<path class="st4" d="M493.9,148.6v1.7c0.7,0.5,1.2,0.9,1.8,1.1c0.5,0.2,1,0.3,1.4,0.3c0.4,0,0.8-0.1,1.3-0.3c0.5-0.2,1-0.5,1.6-0.8
		l3.7,2l-1,1.1c1.7,0.3,2.9,0.8,3.8,1.3s1.3,1.3,1.3,2.2c0,0.8-0.4,1.5-1.2,2.2c-0.8,0.7-2,1.3-3.5,2c-0.4,0.1-1,0.4-2.1,0.7
		c-1,0.3-2.4,0.8-4.1,1.3c0.7,2.1,1.8,3.8,3.3,5.2c0.3,0.3,0.8,0.7,1.4,1.2s1.4,1,2.3,1.6l-0.5,0.7c-1.3-0.6-2.4-1.1-3.3-1.6
		c-0.9-0.5-1.7-0.9-2.3-1.3c-1.1-0.7-2.2-1.5-3.1-2.4s-1.9-2.1-2.9-3.5c4.1-1.1,7-2.3,8.8-3.4c1.8-1.2,2.7-2.4,2.7-3.6
		c0-0.1-0.1-0.3-0.2-0.5c-0.2-0.2-0.4-0.4-0.9-0.7L502,155c-0.3,0.5-0.7,1-1.2,1.6c-0.4,0.6-1,1.3-1.5,2c-0.4,0.4-1,0.9-1.7,1.4
		c-0.7,0.5-1.5,1-2.5,1.6c-0.8-0.3-1.6-0.7-2.3-1.1c-0.8-0.4-1.6-0.9-2.5-1.4v-10.6h-3.5v-2.5h23.7v2.5H493.9z M499.4,152.7
		c-1.2,0.9-2.3,1.4-3.3,1.4c-0.3,0-0.7,0-1-0.1s-0.7-0.1-1.1-0.2v5.3l1.3,1.1c0.6-0.5,1.1-1,1.6-1.6c0.4-0.5,0.8-1.1,1.1-1.6
		c0.1-0.2,0.7-1.4,1.8-3.9C499.7,153,499.6,152.8,499.4,152.7z"/>
	<path class="st4" d="M518.4,168.6v-23.3h3.7v23.3H518.4z"/>
</g>
<g>
</g>
<g>
</g>
<g>
</g>
<g>
</g>
<g>
</g>
<g>
</g>
<g>
</g>
<g>
</g>
<g>
</g>
<g>
</g>
<g>
</g>
<g>
</g>
<g>
</g>
<g>
</g>
<g>
</g>
</svg>
