<?xml version="1.0" encoding="utf-8"?>
<!-- Generator: Adobe Illustrator 21.0.0, SVG Export Plug-In . SVG Version: 6.00 Build 0)  -->
<svg version="1.1" id="Layer_1" xmlns="http://www.w3.org/2000/svg" xmlns:xlink="http://www.w3.org/1999/xlink" x="0px" y="0px"
	 viewBox="0 0 721 216" style="enable-background:new 0 0 721 216;" xml:space="preserve">
<style type="text/css">
	.st0{opacity:0.8;fill:#FFFDFF;}
	.st1{fill:#00A99D;}
	.st2{fill:#1B1464;}
	.st3{fill:#FFFFFF;}
	.st4{fill:#FF00F6;}
</style>
<rect x="1" y="1" class="st0" width="721" height="216"/>
<g>
	<g>
		<path class="st1" d="M323,79.5c-6.3,0-11.5-5.2-11.5-11.5V27c0-6.3,5.2-11.5,11.5-11.5h46c6.3,0,11.5,5.2,11.5,11.5v41
			c0,6.3-5.2,11.5-11.5,11.5H323z"/>
		<path class="st2" d="M369,16c6.1,0,11,4.9,11,11v41c0,6.1-4.9,11-11,11h-46c-6.1,0-11-4.9-11-11V27c0-6.1,4.9-11,11-11H369
			 M369,15h-46c-6.6,0-12,5.4-12,12v41c0,6.6,5.4,12,12,12h46c6.6,0,12-5.4,12-12V27C381,20.4,375.6,15,369,15L369,15z"/>
	</g>
	<g>
		<path class="st3" d="M332,28.2c3.8,0,6.8,1.3,8.9,3.9c2.6,3,3.8,8.1,3.8,15.2c0,7-1.3,12.1-3.9,15.2c-2.1,2.5-5.1,3.8-8.9,3.8
			c-3.8,0-6.9-1.4-9.2-4.2c-2.3-2.8-3.5-7.7-3.5-14.9c0-7,1.3-12.1,3.9-15.1C325.3,29.5,328.2,28.2,332,28.2z M332,34.2
			c-0.9,0-1.7,0.3-2.4,0.8c-0.7,0.6-1.3,1.5-1.7,3c-0.5,1.8-0.8,5-0.8,9.3s0.2,7.4,0.7,9c0.5,1.6,1,2.7,1.8,3.3
			c0.7,0.5,1.5,0.8,2.4,0.8c0.9,0,1.7-0.3,2.4-0.8c0.7-0.5,1.3-1.5,1.7-3c0.5-1.8,0.8-4.9,0.8-9.3s-0.2-7.4-0.7-9
			c-0.5-1.6-1-2.7-1.8-3.3C333.8,34.4,333,34.2,332,34.2z"/>
		<path class="st3" d="M349.9,56l7.5-0.7c0.2,1.6,0.8,2.9,1.9,3.8c1.1,0.9,2.3,1.4,3.6,1.4c1.6,0,2.9-0.6,4-1.8
			c1.1-1.2,1.6-3,1.6-5.5c0-2.3-0.5-4-1.6-5.1s-2.5-1.7-4.2-1.7c-2.2,0-4.1,0.9-5.8,2.7l-6.1-0.8l3.9-19.4h19.9v6.7h-14.2l-1.2,6.3
			c1.7-0.8,3.4-1.2,5.1-1.2c3.3,0,6.2,1.2,8.5,3.5c2.3,2.3,3.5,5.3,3.5,9c0,3.1-0.9,5.8-2.8,8.2c-2.6,3.3-6.1,4.9-10.6,4.9
			c-3.6,0-6.6-0.9-8.9-2.8C351.7,61.6,350.4,59.2,349.9,56z"/>
	</g>
</g>
<g>
</g>
<g>
</g>
<g>
</g>
<g>
</g>
<g>
	<path class="st4" d="M36.2,94.1v13.6c-0.3-0.1-0.4-0.2-0.5-0.2c-0.1,0-0.2,0-0.2-0.1c-0.3-0.1-0.7-0.2-1.1-0.4
		c-0.2-0.1-0.4-0.1-0.6-0.2c-0.2-0.1-0.4-0.1-0.5-0.2c-0.2-0.1-0.4-0.1-0.5-0.2c-0.6-0.2-1.2-0.4-1.7-0.7c-0.5-0.2-1-0.5-1.5-0.7
		c-1-0.6-1.9-1.3-2.7-2.1c-0.8-0.8-1.4-1.9-2-3.1c0.5-0.2,0.9-0.5,1.3-0.7c0.4-0.2,0.8-0.4,1.2-0.7c0.5-0.3,1-0.6,1.4-0.8
		c0.4-0.2,0.7-0.4,0.9-0.5c-0.5-0.6-1-1.2-1.5-1.7c-0.6-0.5-1.2-1-1.9-1.4h-2.7v-1.7h15.2l0,1.7H36.2z M33.7,94.1h-4.1
		c0.2,0.2,0.4,0.4,0.6,0.6c0.2,0.2,0.4,0.4,0.6,0.7c0.2,0.3,0.4,0.5,0.6,0.9c0.2,0.3,0.4,0.7,0.6,1.1c-0.6,0.4-1.2,0.8-1.9,1.2
		c-0.7,0.4-1.5,0.9-2.5,1.4c0.2,1,0.6,1.9,1.3,2.7c0.7,0.8,1.6,1.5,2.8,2.1l2,0.9V94.1z"/>
	<path class="st4" d="M42.5,94.1v13.2h1.2l-0.1,0.6h-4.7l0.1-0.6h1V94.1h-2v-1.7h7c0,0.3,0,0.6,0,0.8c0,0.2,0,0.5,0,0.9H42.5z"/>
	<path class="st4" d="M54.7,94.1v13.5c-0.6-0.4-1.1-0.8-1.6-1.1c-0.5-0.3-1-0.6-1.5-0.9c-0.8-0.4-1.5-0.8-2-1.1
		c-0.5-0.3-0.8-0.5-1-0.6c-1.2-0.8-2.1-1.6-2.7-2.4c-0.6-0.8-0.9-1.6-0.9-2.5c0-1.4,0.9-2.5,2.8-3.4h4.3v-1.6h-8.8v-1.7h14.2v1.7
		c-0.3,0-0.5,0-0.6,0c-0.1,0-0.3,0-0.4,0H54.7z M48.3,106.6c-0.3,0.2-0.8,0.3-1.2,0.3c-0.5,0-0.9-0.1-1.2-0.3
		c-0.4-0.3-0.6-0.6-0.6-1c0-0.4,0.2-0.7,0.5-0.9c0.3-0.3,0.7-0.4,1.1-0.4c0.7,0,1.2,0.1,1.6,0.3s0.6,0.6,0.6,1.1
		C48.9,106,48.7,106.4,48.3,106.6z M52.2,96.7h-2.8c-1.1,0.7-1.7,1.6-1.7,2.7c0,0.8,0.5,1.6,1.6,2.6c0.3,0.2,0.6,0.5,1.1,0.8
		c0.5,0.3,1.1,0.7,1.8,1.2V96.7z"/>
	<path class="st4" d="M60.9,94.1v13.2h1.2l-0.1,0.6h-4.7l0.1-0.6h1V94.1h-2v-1.7h7c0,0.3,0,0.6,0,0.8c0,0.2,0,0.5,0,0.9H60.9z"/>
	<path class="st4" d="M75.6,94.1c-0.7,0.5-1.3,1-1.7,1.5c-0.5,0.5-0.8,0.9-1.1,1.3c-0.3,0.5-0.6,1.1-0.7,1.7
		c-0.2,0.6-0.2,1.3-0.2,2.1c0,0.5,0,1,0.1,1.5c0.1,0.5,0.2,1.1,0.5,1.7c0.2,0.6,0.5,1.3,0.9,2.1c0.4,0.8,0.9,1.7,1.5,2.7
		c-0.7-0.7-1.3-1.4-1.8-1.9s-0.9-0.9-1.2-1.3c-0.3-0.4-0.6-0.7-0.7-0.9s-0.3-0.5-0.4-0.7c-0.8-1.3-1.2-2.8-1.2-4.5
		c0-0.7,0-1.2,0.1-1.7c0.1-0.5,0.2-0.9,0.3-1.2c0.9-1.9,2.6-3.2,4.8-4.1h2.6v1.7H75.6z"/>
	<path class="st4" d="M91,94.1v13.1h1v0.7h-4.6v-0.7h1v-7.1L86.9,99c-0.3,0.3-0.7,0.7-1.1,1.1c-0.5,0.5-1,1-1.6,1.6
		c-0.7,0.7-1.3,1.2-1.8,1.6c-0.5,0.4-1,0.6-1.3,0.6c-0.5,0-1.1-0.1-1.6-0.3c-0.6-0.2-1.1-0.5-1.8-1l0.1-1.3c0.5,0.4,0.9,0.7,1.2,0.8
		c0.3,0.1,0.5,0.2,0.7,0.2c0.6,0,1.3-0.4,2.1-1.3c0.4-0.4,0.7-0.8,0.9-1.2c0.2-0.3,0.3-0.6,0.3-0.9c0-0.4-0.1-0.8-0.2-0.9
		c-0.2-0.2-0.4-0.3-0.7-0.3c-0.3,0-0.7,0.1-1.2,0.3l-1.3,0.6c-0.7-0.2-1.2-0.4-1.4-0.6c-0.3-0.3-0.5-0.7-0.5-1.3
		c0-0.4,0.5-1.3,1.4-2.7h-3.1v-1.7h17.8v1.7H91z M88.4,94.1h-7.8c-0.2,0.2-0.3,0.4-0.5,0.7c-0.1,0.2-0.3,0.5-0.4,0.8
		c-0.1,0.2-0.1,0.3-0.1,0.5c0,0.1,0,0.2,0.1,0.3c0.1,0.1,0.2,0.1,0.5,0.1c0.3,0,0.7-0.1,1.3-0.3c0.3-0.1,0.6-0.2,0.8-0.2
		c0.2,0,0.4-0.1,0.6-0.1c0.5,0,0.9,0.2,1.1,0.6c0.2,0.4,0.3,0.9,0.3,1.6c0,0.1,0,0.3,0,0.4c0,0.2,0,0.3,0,0.6l2.5-1.8
		c0.3,0.1,0.6,0.3,0.8,0.5c0.3,0.2,0.6,0.4,1,0.7V94.1z"/>
	<path class="st4" d="M107.8,90.7l0.6-0.1v0.8c-0.7-0.3-1.3-0.5-2-0.6c-0.6-0.2-1.3-0.3-2-0.4c-0.8-0.2-1.5-0.3-2.1-0.4
		c-0.6-0.1-1.2-0.1-1.7-0.1c-1.1,0-1.9,0.1-2.4,0.3c-0.5,0.2-0.7,0.5-0.7,0.9v1.2h3.1v1.7H98v13.3h0.5v0.6h-3.9v-0.6h0.9V94.1h-2.8
		v-1.7h2.8v0c0-1.3,0.2-2.3,0.7-2.9c0.6-0.8,1.6-1.2,2.9-1.2c0.6,0,1.3,0.1,2,0.2c0.8,0.2,1.7,0.4,2.7,0.7c0.8,0.2,1.5,0.5,2.1,0.7
		C106.7,90.1,107.3,90.4,107.8,90.7L107.8,90.7z"/>
	<path class="st4" d="M112,94.1v13.3h1.2v0.6h-4.6l0-0.6l0.9-0.1v-5.7c-0.3-0.7-0.7-1.2-1.1-1.5c-0.4-0.3-0.8-0.4-1.3-0.4
		c-1,0-1.8,0.3-2.4,0.8c-0.6,0.5-0.9,1.3-0.9,2.2c0,0.3,0,0.6,0.1,0.9c0,0.3,0.1,0.6,0.2,1c0.1,0.4,0.3,0.8,0.5,1.2
		c0.2,0.5,0.5,1,0.8,1.6c-0.4-0.4-0.8-0.7-1.1-0.9c-0.3-0.3-0.6-0.5-0.8-0.7c-0.2-0.2-0.4-0.3-0.6-0.5c-0.2-0.1-0.3-0.3-0.5-0.4
		c-0.8-0.7-1.1-1.6-1.1-2.8c0-1,0.8-2,2.3-2.9c-0.1-0.1-0.2-0.2-0.4-0.2c-0.1-0.1-0.3-0.2-0.4-0.3c-1.1-0.7-1.7-1.5-1.7-2.4
		c0-0.4,0.1-0.8,0.4-1.1c0.3-0.3,0.7-0.6,1.3-1h-3.1v-1.7H115v1.7H112z M109.5,94.1h-4c-0.2,0.2-0.5,0.3-0.7,0.4
		c-0.2,0.1-0.5,0.3-0.7,0.4c-0.4,0.4-0.7,0.8-0.7,1.2c0,0.4,0.1,0.8,0.3,1.3c0.1,0.2,0.2,0.3,0.3,0.5c0.1,0.2,0.2,0.4,0.3,0.6
		c0.7-0.2,1.3-0.3,1.9-0.3c0.5,0,1,0.1,1.5,0.4c0.5,0.3,1.1,0.6,1.7,1.1V94.1z"/>
	<path class="st4" d="M127.6,94.1V105c0,0.1,0,0.3,0,0.4c0,0.2,0.1,0.3,0.2,0.5c0.1,0.2,0.3,0.5,0.6,0.6c2.3-1.5,3.4-3.7,3.4-6.6
		c0-0.2,0-0.4-0.1-0.5s-0.3-0.1-0.5-0.1c-0.1,0.1-0.3,0.2-0.6,0.3c-0.2,0.1-0.6,0.3-1,0.6l-0.3-1.1l2.7-1.1l2.1,0.9
		c-0.2,2.2-0.7,4-1.6,5.5c-0.9,1.4-2.2,2.6-3.9,3.3c-0.8-0.2-1.5-0.5-2.1-0.8c-0.6-0.3-1.1-0.7-1.5-1.2v-7.4
		c-0.4-0.1-0.7-0.1-0.9-0.1c-0.7,0.4-1.6,1.1-2.7,2.1c-0.6,0.5-1.1,0.9-1.6,1.3c-0.5,0.4-0.9,0.7-1.2,0.9l-3.3-1.5l0.2-1.1l1.3,0.9
		l0.9,0.1c0.3-0.3,0.6-0.6,1-0.9c0.4-0.3,0.8-0.6,1.3-1v0c0-0.3-0.1-0.5-0.2-0.7c-0.2-0.1-0.4-0.2-0.8-0.2c-0.2,0-0.5,0.1-0.9,0.4
		c-0.5,0.3-0.8,0.5-1.1,0.5c-0.4,0-0.8-0.2-1.1-0.6c-0.3-0.4-0.5-0.8-0.5-1.2c0-0.5,0.1-1.5,0.4-3h-2.1v-1.7h18.2v-1.2
		c-0.4-0.8-1-1.1-2-1.1c-1.3,0-3.1,0.3-5.4,0.8l-0.2-0.6c0.4-0.1,0.8-0.3,1.2-0.4c0.4-0.1,0.9-0.3,1.3-0.4c0.9-0.2,1.7-0.4,2.3-0.5
		c0.7-0.1,1.2-0.2,1.7-0.2c0.8,0,1.5,0.2,2.1,0.5c0.2,0.1,0.4,0.3,0.7,0.5c0.2,0.2,0.5,0.5,0.8,0.8v1.8h1.8v1.7H127.6z M125,94.1
		h-7.8c-0.1,0.4-0.1,0.6-0.2,0.9c0,0.2,0,0.4,0,0.6c0,0.4,0.1,0.7,0.2,0.8c0.1,0.1,0.3,0.2,0.5,0.2c0.2,0,0.3-0.1,0.4-0.2l0.2-0.1
		c0.3-0.3,0.7-0.4,1.2-0.4c0.5,0,1,0.1,1.3,0.3c0.3,0.2,0.5,0.5,0.5,1c0,0.1,0,0.2,0,0.3c0,0.1-0.1,0.2-0.1,0.4l1.8-1.8l0.8,0.1
		l1.3,0.7V94.1z"/>
	<path class="st4" d="M139.6,94.1v13.2h1.2l-0.1,0.6H136l0.1-0.6h1V94.1h-2v-1.7h7c0,0.3,0,0.6,0,0.8c0,0.2,0,0.5,0,0.9H139.6z"/>
	<path class="st4" d="M151.8,94.1v13.5c-0.6-0.4-1.1-0.8-1.6-1.1c-0.5-0.3-1-0.6-1.5-0.9c-0.8-0.4-1.5-0.8-2-1.1
		c-0.5-0.3-0.8-0.5-1-0.6c-1.2-0.8-2.1-1.6-2.7-2.4c-0.6-0.8-0.9-1.6-0.9-2.5c0-1.4,0.9-2.5,2.8-3.4h4.3v-1.6h-8.8v-1.7h14.2v1.7
		c-0.3,0-0.5,0-0.6,0c-0.1,0-0.3,0-0.4,0H151.8z M145.4,106.6c-0.3,0.2-0.8,0.3-1.2,0.3c-0.5,0-0.9-0.1-1.2-0.3
		c-0.4-0.3-0.6-0.6-0.6-1c0-0.4,0.2-0.7,0.5-0.9c0.3-0.3,0.7-0.4,1.1-0.4c0.7,0,1.2,0.1,1.6,0.3s0.6,0.6,0.6,1.1
		C146.1,106,145.8,106.4,145.4,106.6z M149.3,96.7h-2.8c-1.1,0.7-1.7,1.6-1.7,2.7c0,0.8,0.5,1.6,1.6,2.6c0.3,0.2,0.6,0.5,1.1,0.8
		c0.5,0.3,1.1,0.7,1.8,1.2V96.7z"/>
	<path class="st4" d="M175.3,90.7l0.6-0.1v0.8c-0.7-0.3-1.3-0.5-2-0.6c-0.6-0.2-1.3-0.3-2-0.4c-0.8-0.2-1.5-0.3-2.1-0.4
		c-0.6-0.1-1.2-0.1-1.7-0.1c-1.1,0-1.9,0.1-2.4,0.3c-0.5,0.2-0.7,0.5-0.7,0.9v1.2h3.1v1.7h-2.8v13.3h0.5v0.6h-3.9v-0.6h0.9V94.1
		h-2.8v-1.7h2.8v0c0-1.3,0.2-2.3,0.7-2.9c0.6-0.8,1.6-1.2,2.9-1.2c0.6,0,1.3,0.1,2,0.2c0.8,0.2,1.7,0.4,2.7,0.7
		c0.8,0.2,1.5,0.5,2.1,0.7C174.2,90.1,174.8,90.4,175.3,90.7L175.3,90.7z"/>
	<path class="st4" d="M173.9,94.1c0.2,0.2,0.4,0.4,0.6,0.6c0.2,0.2,0.4,0.4,0.6,0.7c0.2,0.3,0.4,0.5,0.6,0.8
		c0.2,0.3,0.4,0.7,0.6,1.1c-0.6,0.3-1.3,0.7-2,1c-0.7,0.4-1.6,0.8-2.5,1.3c0.1,0.6,0.3,1.1,0.5,1.6c0.2,0.5,0.5,0.9,0.8,1.3
		c0.3,0.4,0.7,0.7,1.1,1c0.4,0.3,1,0.7,1.6,1c0.1,0.1,0.4,0.2,0.7,0.4c0.4,0.2,0.9,0.4,1.5,0.8V94.7h0.6c0.1,0,0.3,0,0.4,0
		c0.1,0,0.3,0,0.4,0c1.6,0,3,0.3,4.1,1c1.2,0.8,1.9,2,1.9,3.4c0,0.4-0.1,0.9-0.2,1.4c-0.1,0.5-0.3,1-0.5,1.5c-0.2,0.5-0.6,1.1-1,1.8
		c-0.4,0.6-0.9,1.3-1.5,2.1c0.3-0.9,0.5-1.6,0.7-2.2s0.3-1.1,0.4-1.5s0.2-0.7,0.2-1c0-0.3,0.1-0.5,0.1-0.6c0-1.1-0.2-2-0.7-2.5
		c-0.2-0.2-0.5-0.4-0.9-0.6c-0.4-0.2-0.8-0.4-1.4-0.6v10.7c-1.1-0.3-2.2-0.7-3.3-1.2c-1-0.5-2.1-1.1-3.2-1.8c-1.2-0.8-2.2-1.6-3-2.3
		c-0.8-0.8-1.4-1.6-1.9-2.5c0.1-0.1,0.2-0.1,0.3-0.2c0.1,0,0.1-0.1,0.2-0.1c0.1-0.1,0.2-0.1,0.4-0.2c0.2-0.1,0.3-0.2,0.6-0.3
		c0.4-0.2,0.9-0.5,1.4-0.8c0.6-0.3,1.3-0.7,2-1.1c-0.8-1.1-2-2.1-3.5-3.1h-3.6v-1.7h19.7v1.7H173.9z"/>
	<path class="st4" d="M199.2,94.2h-0.2c-0.1,0-0.2,0-0.3,0c-0.1,0-0.2,0-0.4,0c-0.3,0-0.6,0-1,0c-0.4,0-0.8,0-1.2,0
		c-0.8,0-1.5,0-2.3,0c-0.7,0-1.3,0-1.6,0v-1.7h22.7v1.7h-13.2v0.5c0.6,0.2,1.2,0.5,1.9,0.7c0.7,0.2,1.4,0.5,2.1,0.8
		c0.7,0.2,1.5,0.4,2.2,0.5c0.7,0.1,1.4,0.1,2.1,0.1c0.3,0,0.7,0,1-0.1c0.4-0.1,0.8-0.1,1.4-0.3l1.3,1.9c-0.8,0.6-1.4,1.1-1.9,1.5
		s-0.8,0.8-1,1c-0.6,0.8-0.9,1.8-0.9,3.1c0,0,0,0.1,0,0.2c0,0.1,0,0.4,0.1,0.7c0,0.3,0.1,0.8,0.2,1.3c0.1,0.6,0.2,1.3,0.3,2.1
		c-0.4-0.8-0.7-1.4-0.9-2c-0.2-0.6-0.4-1-0.6-1.5s-0.2-0.8-0.3-1.1c0-0.3-0.1-0.6-0.1-1c0-1.3,0.3-2.5,0.9-3.4
		c0.1-0.1,0.2-0.2,0.3-0.4c0.1-0.2,0.3-0.4,0.4-0.7c-1.6-0.2-3-0.4-4.4-0.8c-1.4-0.4-2.7-1-4.1-1.7v4c0,0.4,0.2,0.7,0.5,1
		c0.4,0.3,0.8,0.4,1.3,0.4c0.5,0,0.9-0.1,1.2-0.4c0.1-0.1,0.2-0.2,0.3-0.4c0.1-0.2,0.2-0.4,0.4-0.6l0-1.6l2.5,0.2c0,0.4,0,0.8,0,1.2
		c0,0.4,0,0.7,0,1.1c0,1.6-0.4,3.1-1.2,4.5c-1.1,1.8-2.6,2.6-4.6,2.6c-2.3,0-4.3-1.3-5.9-3.8c-0.6-0.9-1.1-1.9-1.4-2.9
		c-0.4-1-0.7-2.1-0.9-3.4l3.2-0.4c0,0.4,0,0.7,0,0.9c0,0.2,0,0.4,0,0.5c0,1.6,0.4,3.3,1.1,5.1c0.5,1.2,1.1,2,1.7,2.6
		c0.6,0.6,1.3,0.8,2.1,0.8c1.2,0,2.1-0.7,2.8-2c0.5-1,0.8-2.1,0.8-3.2c0-0.1,0-0.2,0-0.3s0-0.2,0-0.4c-1,0.8-1.9,1.2-2.8,1.2
		c-0.9,0-1.6-0.3-2.3-0.8c-0.7-0.6-1.1-1.2-1.1-2V94.2z"/>
	<path class="st4" d="M226.3,94.1v13.3h1.2v0.6h-4.6l0-0.6l0.9-0.1v-5.7c-0.3-0.7-0.7-1.2-1.1-1.5c-0.4-0.3-0.8-0.4-1.3-0.4
		c-1,0-1.8,0.3-2.4,0.8c-0.6,0.5-0.9,1.3-0.9,2.2c0,0.3,0,0.6,0.1,0.9c0,0.3,0.1,0.6,0.2,1c0.1,0.4,0.3,0.8,0.5,1.2
		c0.2,0.5,0.5,1,0.8,1.6c-0.4-0.4-0.8-0.7-1.1-0.9c-0.3-0.3-0.6-0.5-0.8-0.7c-0.2-0.2-0.4-0.3-0.6-0.5c-0.2-0.1-0.3-0.3-0.5-0.4
		c-0.8-0.7-1.1-1.6-1.1-2.8c0-1,0.8-2,2.3-2.9c-0.1-0.1-0.2-0.2-0.4-0.2c-0.1-0.1-0.3-0.2-0.4-0.3c-1.1-0.7-1.7-1.5-1.7-2.4
		c0-0.4,0.1-0.8,0.4-1.1c0.3-0.3,0.7-0.6,1.3-1h-3.1v-1.7h15.2v1.7H226.3z M223.8,94.1h-4c-0.2,0.2-0.5,0.3-0.7,0.4
		c-0.2,0.1-0.5,0.3-0.7,0.4c-0.4,0.4-0.7,0.8-0.7,1.2c0,0.4,0.1,0.8,0.3,1.3c0.1,0.2,0.2,0.3,0.3,0.5c0.1,0.2,0.2,0.4,0.3,0.6
		c0.7-0.2,1.3-0.3,1.9-0.3c0.5,0,1,0.1,1.5,0.4c0.5,0.3,1.1,0.6,1.7,1.1V94.1z"/>
	<path class="st4" d="M232.6,94.1v13.2h1.2l-0.1,0.6H229l0.1-0.6h1V94.1h-2v-1.7h7c0,0.3,0,0.6,0,0.8c0,0.2,0,0.5,0,0.9H232.6z"/>
	<path class="st4" d="M255.3,90.7l0.6-0.1v0.8c-0.7-0.3-1.3-0.5-2-0.6c-0.6-0.2-1.3-0.3-2-0.4c-0.8-0.2-1.5-0.3-2.1-0.4
		c-0.6-0.1-1.2-0.1-1.7-0.1c-1.1,0-1.9,0.1-2.4,0.3c-0.5,0.2-0.7,0.5-0.7,0.9v1.2h3.1v1.7h-2.8v13.3h0.5v0.6h-3.9v-0.6h0.9V94.1
		h-2.8v-1.7h2.8v0c0-1.3,0.2-2.3,0.7-2.9c0.6-0.8,1.6-1.2,2.9-1.2c0.6,0,1.3,0.1,2,0.2c0.8,0.2,1.7,0.4,2.7,0.7
		c0.8,0.2,1.5,0.5,2.1,0.7C254.2,90.1,254.8,90.4,255.3,90.7L255.3,90.7z"/>
	<path class="st4" d="M252.2,94.1v8c0.4-0.5,0.8-1,1.2-1.4c0.4-0.4,0.8-0.8,1.2-1.2l3.2-2.9c0.2,0.1,0.4,0.3,0.5,0.4
		c0.2,0.1,0.3,0.3,0.5,0.4c0.1,0.1,0.2,0.2,0.3,0.2s0.2,0.2,0.3,0.2l0.3,0.3v9.2h1.4v0.8H256v-0.8l1.1,0v-8.5
		c-0.4,0.4-0.8,0.9-1.2,1.4c-0.5,0.5-1,1.1-1.5,1.8c-0.5,0.6-1,1.2-1.4,1.8c-0.4,0.6-0.8,1.2-1.1,2l-2.3-1.5V94.1h-2.3v-1.7h15.9
		v1.7H252.2z"/>
	<path class="st4" d="M268.4,94.1c-0.7,0.5-1.3,1-1.7,1.5c-0.5,0.5-0.8,0.9-1.1,1.3c-0.6,1.1-1,2.3-1,3.8c0,0.5,0,1,0.1,1.5
		s0.2,1.1,0.5,1.7c0.2,0.6,0.5,1.3,0.9,2.1c0.4,0.8,0.9,1.7,1.5,2.7c-0.7-0.7-1.3-1.4-1.8-1.9s-0.9-0.9-1.2-1.3
		c-0.3-0.4-0.6-0.7-0.7-0.9c-0.2-0.2-0.3-0.5-0.5-0.7c-0.8-1.3-1.1-2.8-1.1-4.5c0-0.5,0-1,0.1-1.4c0.1-0.4,0.2-0.8,0.4-1.2
		c0.2-0.4,0.5-0.9,0.9-1.3c0.4-0.4,0.9-0.9,1.5-1.4h-4.1c0-0.3,0-0.5,0-0.6c0-0.1,0-0.2,0-0.3s0-0.2,0-0.3c0-0.1,0-0.3,0-0.5h8.9
		v1.7H268.4z"/>
	<path class="st4" d="M281.7,94.1c0.9,0.7,1.5,1.6,1.9,2.6c0.4,1,0.6,2.3,0.6,3.7c0,1.8-0.5,3.4-1.4,4.7c-1.2,1.7-2.8,2.5-5,2.5
		c-1,0-1.9-0.3-2.7-0.8c-1.4-0.9-2.4-1.9-2.9-2.7c-0.5-0.7-1.1-2-1.7-3.9c-0.1-0.4-0.3-1-0.4-1.9c-0.1-0.4-0.1-0.7-0.2-1
		c-0.1-0.3-0.2-0.7-0.4-1.1l3.6-0.3c-0.1,0.6-0.1,1.1-0.1,1.5c0,0.4,0,0.7,0,1c0,0.9,0.1,1.7,0.2,2.6c0.2,0.8,0.4,1.7,0.7,2.5
		c0.5,1.1,1,2,1.6,2.5s1.4,0.8,2.2,0.8c1.4,0,2.5-0.9,3.2-2.7c0.5-1.3,0.7-2.6,0.7-4.1c0-1.2-0.1-2.4-0.4-3.5
		c-0.2-0.8-0.5-1.4-0.8-1.8s-0.6-0.5-1-0.5c-0.3,0-0.7,0.2-1,0.5c-0.3,0.3-0.6,0.9-0.8,1.7c-0.3,1.1-0.5,2.1-0.5,3
		c0,0.4,0,0.8,0.1,1.2c0.1,0.4,0.3,1,0.6,1.6c-0.6-0.3-1.1-0.6-1.4-0.9c-0.4-0.3-0.7-0.6-1-1c-0.2-0.3-0.4-0.7-0.5-1
		s-0.2-0.7-0.2-1.1c0-0.9,0.2-1.6,0.5-2.3c0.3-0.7,0.8-1.3,1.6-1.8h-8.1v-1.7h17.5c0,0.1,0,0.2,0,0.3c0,0.1,0,0.2,0,0.3s0,0.3,0,0.4
		c0,0.2,0,0.4,0,0.7H281.7z"/>
	<path class="st4" d="M306.1,94.1v13.2h1.1v0.6h-3.6V99l-0.3-0.3l-5.6,3.9c-0.2-0.1-0.4-0.2-0.6-0.3c-0.2-0.1-0.4-0.2-0.7-0.4
		c-0.2-0.2-0.5-0.3-0.8-0.6c-0.3-0.2-0.7-0.5-1.2-0.8l2.1,0.5c0.3-0.2,0.6-0.4,0.9-0.6c0.3-0.2,0.6-0.4,0.9-0.7c0.1-0.4,0-0.8-0.2-1
		c-0.3-0.2-0.7-0.4-1.2-0.4c-0.3,0-0.7,0.1-1.3,0.4c-0.6,0.3-1,0.4-1.2,0.4c-1.1,0-1.6-0.5-1.5-1.6c0-1.5,0.6-2.7,1.8-3.5
		c1.1-0.7,2.4-1.1,4.1-1.1c1.1,0,2,0.2,2.8,0.5c0.3,0.1,0.6,0.3,0.9,0.5c0.3,0.2,0.7,0.5,1.1,0.8v-2.3h5.1v1.7H306.1z M303.1,96.1
		c-1.3-1.1-2.8-1.7-4.5-1.7c-0.3,0-0.7,0-1.2,0.1c-0.4,0.1-0.8,0.2-1.2,0.4c-0.4,0.2-0.7,0.4-0.9,0.6c-0.3,0.2-0.4,0.5-0.4,0.8
		c0,0.1,0.1,0.2,0.2,0.3c0.2,0.1,0.3,0.2,0.5,0.2c0.1,0,0.2,0,0.3-0.1c0.1,0,0.1-0.1,0.2-0.1c0.1,0,0.1,0,0.2-0.1
		c0.2-0.1,0.4-0.1,0.6-0.1c0.2,0,0.3,0,0.5,0c0.5,0.1,0.9,0.3,1.2,0.5c0.2,0.2,0.4,0.6,0.5,1.2c0,0.3,0.2,0.4,0.4,0.5l2.2-1.7
		c0.2,0.1,0.4,0.2,0.6,0.2c0.1,0,0.3,0.1,0.4,0.1l0.4,0.1V96.1z"/>
	<path class="st4" d="M312.4,94.1v13.2h1.2l-0.1,0.6h-4.7l0.1-0.6h1V94.1h-2v-1.7h7c0,0.3,0,0.6,0,0.8c0,0.2,0,0.5,0,0.9H312.4z"/>
	<path class="st4" d="M324.6,94.1v13.5c-0.6-0.4-1.1-0.8-1.6-1.1c-0.5-0.3-1-0.6-1.5-0.9c-0.8-0.4-1.5-0.8-2-1.1
		c-0.5-0.3-0.8-0.5-1-0.6c-1.2-0.8-2.1-1.6-2.7-2.4c-0.6-0.8-0.9-1.6-0.9-2.5c0-1.4,0.9-2.5,2.8-3.4h4.3v-1.6h-8.8v-1.7h14.2v1.7
		c-0.3,0-0.5,0-0.6,0c-0.1,0-0.3,0-0.4,0H324.6z M318.2,106.6c-0.3,0.2-0.8,0.3-1.2,0.3c-0.5,0-0.9-0.1-1.2-0.3
		c-0.4-0.3-0.6-0.6-0.6-1c0-0.4,0.2-0.7,0.5-0.9c0.3-0.3,0.7-0.4,1.1-0.4c0.7,0,1.2,0.1,1.6,0.3s0.6,0.6,0.6,1.1
		C318.8,106,318.6,106.4,318.2,106.6z M322,96.7h-2.8c-1.1,0.7-1.7,1.6-1.7,2.7c0,0.8,0.5,1.6,1.6,2.6c0.3,0.2,0.6,0.5,1.1,0.8
		c0.5,0.3,1.1,0.7,1.8,1.2V96.7z"/>
	<path class="st4" d="M333.3,94.1c-0.7,0.5-1.3,1-1.7,1.5c-0.5,0.5-0.8,0.9-1.1,1.3c-0.6,1.1-1,2.3-1,3.8c0,0.5,0,1,0.1,1.5
		s0.2,1.1,0.5,1.7c0.2,0.6,0.5,1.3,0.9,2.1c0.4,0.8,0.9,1.7,1.5,2.7c-0.7-0.7-1.3-1.4-1.8-1.9s-0.9-0.9-1.2-1.3
		c-0.3-0.4-0.6-0.7-0.7-0.9c-0.2-0.2-0.3-0.5-0.5-0.7c-0.8-1.3-1.1-2.8-1.1-4.5c0-0.5,0-1,0.1-1.4c0.1-0.4,0.2-0.8,0.4-1.2
		c0.2-0.4,0.5-0.9,0.9-1.3c0.4-0.4,0.9-0.9,1.5-1.4H326c0-0.3,0-0.5,0-0.6c0-0.1,0-0.2,0-0.3s0-0.2,0-0.3c0-0.1,0-0.3,0-0.5h8.9v1.7
		H333.3z"/>
	<path class="st4" d="M338.3,94.1v1.1c0.5,0.4,0.9,0.6,1.2,0.8c0.4,0.2,0.7,0.2,0.9,0.2s0.6-0.1,0.9-0.2s0.7-0.3,1.1-0.6l2.6,1.4
		l-0.7,0.7c1.1,0.2,2,0.5,2.6,0.9s0.9,0.9,0.9,1.5c0,0.5-0.3,1-0.8,1.5c-0.6,0.5-1.4,0.9-2.4,1.3c-0.2,0.1-0.7,0.2-1.4,0.5
		s-1.7,0.5-2.9,0.9c0.5,1.4,1.2,2.6,2.3,3.6c0.2,0.2,0.6,0.5,1,0.8c0.4,0.3,0.9,0.7,1.6,1.1l-0.3,0.5c-0.9-0.4-1.6-0.8-2.3-1.1
		s-1.2-0.6-1.6-0.9c-0.8-0.5-1.5-1-2.2-1.7c-0.7-0.7-1.4-1.4-2-2.4c2.8-0.8,4.9-1.6,6.1-2.4c1.3-0.8,1.9-1.6,1.9-2.4
		c0-0.1-0.1-0.2-0.2-0.3c-0.1-0.1-0.3-0.3-0.6-0.5l-0.2-0.1c-0.2,0.3-0.5,0.7-0.8,1.1c-0.3,0.4-0.7,0.9-1.1,1.4
		c-0.3,0.3-0.7,0.6-1.2,1c-0.5,0.3-1.1,0.7-1.7,1.1c-0.5-0.2-1.1-0.5-1.6-0.7c-0.5-0.3-1.1-0.6-1.7-1v-7.2h-2.4v-1.7h16.4v1.7H338.3
		z M342,96.8c-0.8,0.6-1.6,1-2.3,1c-0.2,0-0.5,0-0.7,0c-0.2,0-0.5-0.1-0.8-0.2v3.6l0.9,0.8c0.4-0.4,0.8-0.7,1.1-1.1
		c0.3-0.4,0.6-0.7,0.8-1.1c0.1-0.1,0.5-1,1.2-2.6C342.3,97.1,342.2,97,342,96.8z"/>
	<path class="st4" d="M359.9,94.1v13.2h1.2v0.6h-4.5l-0.1-0.6h0.9v-8.7l-2.4-1.4c-1,0.2-1.6,0.5-1.9,0.7c-0.5,0.4-0.8,1-0.8,1.8v0.1
		c0,0.1,0,0.2,0,0.3c0,0.1,0,0.2,0,0.3v0.7c0,0.3,0,0.7,0.1,1.1c0.1,0.4,0.2,0.8,0.4,1.1c0,0,0.1,0.1,0.1,0.2
		c0.1,0.1,0.2,0.3,0.3,0.5c0.1,0.2,0.3,0.5,0.5,0.9c0.2,0.4,0.5,0.9,0.9,1.6c-0.5-0.5-1-1-1.4-1.4c-0.4-0.4-0.7-0.7-0.9-0.9
		c-0.3-0.3-0.5-0.5-0.7-0.7c-0.2-0.2-0.4-0.4-0.6-0.6c-0.8-0.8-1.2-2-1.2-3.4c0-1.2,0.7-2.2,2-3c0.7-0.4,1.4-0.7,2-0.7
		c0.6,0,0.9,0,1.2,0c0.6,0.1,1.3,0.5,1.9,1.1l0.3,0.3v-3.2h-9v-1.7h14.4v1.7H359.9z"/>
	<path class="st4" d="M379.7,94.1v13.2h1.2v0.6h-4.5l-0.1-0.6h0.9v-8.7l-2.4-1.4c-1,0.2-1.6,0.5-1.9,0.7c-0.5,0.4-0.8,1-0.8,1.8v0.1
		c0,0.1,0,0.2,0,0.3s0,0.2,0,0.3v0.7c0,0.3,0,0.7,0.1,1.1c0.1,0.4,0.2,0.8,0.4,1.1c0,0,0.1,0.1,0.1,0.2c0.1,0.1,0.2,0.3,0.3,0.5
		c0.1,0.2,0.3,0.5,0.5,0.9c0.2,0.4,0.5,0.9,0.9,1.6c-0.5-0.5-1-1-1.4-1.4c-0.4-0.4-0.7-0.7-0.9-0.9c-0.3-0.3-0.5-0.5-0.7-0.7
		c-0.2-0.2-0.4-0.4-0.6-0.6c-0.8-0.8-1.2-2-1.2-3.4c0-1.2,0.7-2.2,2-3c0.7-0.4,1.4-0.7,2-0.7c0.6,0,0.9,0,1.2,0
		c0.6,0.1,1.3,0.5,1.9,1.1l0.3,0.3v-3.2h-9v-1.7h14.4v1.7H379.7z"/>
	<path class="st4" d="M385.9,94.1v13.2h1.2l-0.1,0.6h-4.7l0.1-0.6h1V94.1h-2v-1.7h7c0,0.3,0,0.6,0,0.8c0,0.2,0,0.5,0,0.9H385.9z"/>
	<path class="st4" d="M406.6,94.1c0.9,0.7,1.5,1.6,1.9,2.6s0.6,2.3,0.6,3.7c0,1.8-0.5,3.4-1.4,4.7c-1.2,1.7-2.8,2.5-5,2.5
		c-1,0-1.9-0.3-2.7-0.8c-1.4-0.9-2.4-1.9-2.9-2.7c-0.5-0.7-1.1-2-1.7-3.9c-0.1-0.4-0.3-1-0.4-1.9c-0.1-0.4-0.1-0.7-0.2-1
		s-0.2-0.7-0.4-1.1l3.6-0.3c-0.1,0.6-0.1,1.1-0.1,1.5c0,0.4,0,0.7,0,1c0,0.9,0.1,1.7,0.2,2.6c0.2,0.8,0.4,1.7,0.7,2.5
		c0.5,1.1,1,2,1.6,2.5s1.4,0.8,2.2,0.8c1.4,0,2.5-0.9,3.2-2.7c0.5-1.3,0.7-2.6,0.7-4.1c0-1.2-0.1-2.4-0.4-3.5
		c-0.2-0.8-0.5-1.4-0.8-1.8s-0.6-0.5-1-0.5c-0.3,0-0.7,0.2-1,0.5c-0.3,0.3-0.6,0.9-0.8,1.7c-0.3,1.1-0.5,2.1-0.5,3
		c0,0.4,0,0.8,0.1,1.2c0.1,0.4,0.3,1,0.6,1.6c-0.6-0.3-1.1-0.6-1.4-0.9c-0.4-0.3-0.7-0.6-1-1c-0.2-0.3-0.4-0.7-0.5-1
		s-0.2-0.7-0.2-1.1c0-0.9,0.2-1.6,0.5-2.3c0.3-0.7,0.8-1.3,1.6-1.8h-8.1v-1.7H411c0,0.1,0,0.2,0,0.3c0,0.1,0,0.2,0,0.3
		c0,0.1,0,0.3,0,0.4c0,0.2,0,0.4,0,0.7H406.6z"/>
	<path class="st4" d="M414.5,94.1v13.2h1.2l-0.1,0.6h-4.7l0.1-0.6h1V94.1h-2v-1.7h7c0,0.3,0,0.6,0,0.8c0,0.2,0,0.5,0,0.9H414.5z"/>
	<path class="st4" d="M422.4,94.1c-0.7,0.5-1.3,1-1.7,1.5c-0.5,0.5-0.8,0.9-1.1,1.3c-0.6,1.1-1,2.3-1,3.8c0,0.5,0,1,0.1,1.5
		c0.1,0.5,0.2,1.1,0.5,1.7c0.2,0.6,0.5,1.3,0.9,2.1s0.9,1.7,1.5,2.7c-0.7-0.7-1.3-1.4-1.8-1.9c-0.5-0.5-0.9-0.9-1.2-1.3
		c-0.3-0.4-0.6-0.7-0.7-0.9c-0.2-0.2-0.3-0.5-0.5-0.7c-0.8-1.3-1.1-2.8-1.1-4.5c0-0.5,0-1,0.1-1.4c0.1-0.4,0.2-0.8,0.4-1.2
		c0.2-0.4,0.5-0.9,0.9-1.3c0.4-0.4,0.9-0.9,1.5-1.4h-4.1c0-0.3,0-0.5,0-0.6c0-0.1,0-0.2,0-0.3s0-0.2,0-0.3c0-0.1,0-0.3,0-0.5h8.9
		v1.7H422.4z"/>
	<path class="st4" d="M427.6,94.1v8c0.4-0.5,0.8-1,1.2-1.4c0.4-0.4,0.8-0.8,1.2-1.2l3.2-2.9c0.2,0.1,0.4,0.3,0.5,0.4
		c0.2,0.1,0.3,0.3,0.5,0.4c0.1,0.1,0.2,0.2,0.3,0.2s0.2,0.2,0.3,0.2l0.3,0.3v9.2h1.4v0.8h-5.1v-0.8l1.1,0v-8.5
		c-0.4,0.4-0.8,0.9-1.2,1.4c-0.5,0.5-1,1.1-1.5,1.8c-0.5,0.6-1,1.2-1.4,1.8c-0.4,0.6-0.8,1.2-1.1,2l-2.3-1.5V94.1h-2.3v-1.7h15.9
		v1.7H427.6z"/>
	<path class="st4" d="M448.1,94.1v13.5c-0.6-0.4-1.2-0.8-1.6-1.1c-0.5-0.3-1-0.6-1.5-0.9c-0.8-0.4-1.5-0.8-2-1.1
		c-0.5-0.3-0.8-0.5-1-0.6c-1.2-0.8-2.1-1.6-2.7-2.4c-0.6-0.8-0.9-1.6-0.9-2.5c0-1.4,0.9-2.5,2.8-3.4h4.3v-1.6h-8.8v-1.7h14.2v1.7
		c-0.3,0-0.5,0-0.6,0s-0.3,0-0.4,0H448.1z M441.7,106.6c-0.3,0.2-0.8,0.3-1.2,0.3c-0.5,0-0.9-0.1-1.2-0.3c-0.4-0.3-0.6-0.6-0.6-1
		c0-0.4,0.2-0.7,0.5-0.9c0.3-0.3,0.7-0.4,1.1-0.4c0.7,0,1.2,0.1,1.6,0.3s0.6,0.6,0.6,1.1C442.4,106,442.2,106.4,441.7,106.6z
		 M445.6,96.7h-2.8c-1.1,0.7-1.7,1.6-1.7,2.7c0,0.8,0.5,1.6,1.6,2.6c0.3,0.2,0.6,0.5,1.1,0.8s1.1,0.7,1.8,1.2V96.7z"/>
	<path class="st4" d="M471.7,90.7l0.6-0.1v0.8c-0.7-0.3-1.3-0.5-2-0.6c-0.6-0.2-1.3-0.3-2-0.4c-0.8-0.2-1.5-0.3-2.1-0.4
		s-1.2-0.1-1.7-0.1c-1.1,0-1.9,0.1-2.4,0.3c-0.5,0.2-0.7,0.5-0.7,0.9v1.2h3.1v1.7h-2.8v13.3h0.5v0.6h-3.9v-0.6h0.9V94.1h-2.8v-1.7
		h2.8v0c0-1.3,0.2-2.3,0.7-2.9c0.6-0.8,1.6-1.2,2.9-1.2c0.6,0,1.3,0.1,2,0.2c0.8,0.2,1.7,0.4,2.7,0.7c0.8,0.2,1.5,0.5,2.1,0.7
		C470.5,90.1,471.1,90.4,471.7,90.7L471.7,90.7z"/>
	<path class="st4" d="M467.6,94.1c0,0.1,0,0.1,0,0.2c0,0.1,0,0.1,0,0.2c0,0.1,0,0.2,0,0.3s0,0.2,0,0.2c0,0.4,0.1,0.7,0.3,0.9
		c0,0,0.1,0,0.1,0c0,0,0.1,0,0.1,0c0,0,0.1,0.1,0.1,0.1c0.1,0,0.1,0,0.2,0.1c0.7,0.5,1.5,0.8,2.6,0.8c0.5,0,0.9-0.1,1.3-0.3
		c0.4-0.2,0.7-0.4,0.9-0.5c0.1-0.1,0.3-0.2,0.5-0.3L476,97c0,0.2,0.1,0.5,0.1,0.7c0,0.2,0,0.5,0,0.8c0,0.9-0.1,1.8-0.4,2.7
		s-0.8,1.7-1.4,2.6c-1.1,1.5-2.7,2.8-4.6,3.7c-0.7-0.1-1.4-0.3-2.1-0.6c-0.7-0.3-1.6-0.6-2.4-1.1V94.1h-2.2c0-0.4,0-0.7,0-0.9
		c0-0.2,0-0.5,0-0.8h14.7v1.7H467.6z M473.3,97.9c-0.1-0.1-0.2-0.2-0.3-0.1h-0.1c0,0,0,0,0,0c0,0,0,0,0,0c-1.4,0.7-2.6,1.1-3.7,1.1
		c-0.2,0-0.4,0-0.7-0.1c-0.2,0-0.5-0.1-0.9-0.2v6.5c0.4,0.4,0.8,0.8,1.1,1c0.3,0.2,0.6,0.3,0.8,0.3c0.4,0,0.7-0.2,1.1-0.6
		c0.5-0.5,1-1.1,1.3-1.6s0.6-1,0.8-1.5c0.3-0.8,0.4-1.9,0.4-3.4V97.9z"/>
	<path class="st4" d="M490.4,90.7l0.6-0.1v0.8c-0.7-0.3-1.3-0.5-2-0.6c-0.6-0.2-1.3-0.3-2-0.4c-0.8-0.2-1.5-0.3-2.1-0.4
		s-1.2-0.1-1.7-0.1c-1.1,0-1.9,0.1-2.4,0.3c-0.5,0.2-0.7,0.5-0.7,0.9v1.2h3.1v1.7h-2.8v13.3h0.5v0.6h-3.9v-0.6h0.9V94.1h-2.8v-1.7
		h2.8v0c0-1.3,0.2-2.3,0.7-2.9c0.6-0.8,1.6-1.2,2.9-1.2c0.6,0,1.3,0.1,2,0.2c0.8,0.2,1.7,0.4,2.7,0.7c0.8,0.2,1.5,0.5,2.1,0.7
		C489.2,90.1,489.8,90.4,490.4,90.7L490.4,90.7z"/>
	<path class="st4" d="M491.6,94.1v7.8c-0.9-0.3-1.5-0.6-1.8-0.8c-0.4-0.2-0.6-0.5-0.6-0.6l-0.1-3c-0.3-0.4-0.6-0.7-0.8-0.9
		c-0.3-0.2-0.6-0.3-0.9-0.3c-0.2,0-0.4,0-0.7,0.1s-0.5,0.2-0.7,0.4c-0.2,0.2-0.4,0.3-0.5,0.5s-0.2,0.4-0.2,0.6
		c0,0.3,0.1,0.7,0.3,1.1s0.6,0.9,1.2,1.6c-0.7-0.1-1.2-0.2-1.5-0.3c-0.3-0.1-0.6-0.3-0.9-0.6c-0.6-0.5-0.9-1.1-0.9-1.8
		c0-0.8,0.4-1.4,1.2-1.9c0.3-0.2,0.6-0.4,1-0.5c0.4-0.1,0.7-0.2,1.1-0.2c0.4,0,0.8,0,1.1,0.1c0.4,0.1,0.8,0.3,1.1,0.5v-2l-7,0.3
		v-1.7h12.4v1.7H491.6z"/>
	<path class="st4" d="M493.3,108.5c-0.9,0.8-2.2,1.2-3.7,1.2c-1.8,0-3.5-0.8-5-2.3c-0.6-0.6-1.1-1.3-1.5-2c-0.4-0.7-0.7-1.5-1-2.3
		l3.1-0.7l0,0.8c0,1.1,0.3,2.1,0.9,2.9c0.2,0.3,1,1,2.4,2.1c0.5,0.4,0.9,0.6,1.3,0.6c1,0,1.7-0.4,2.3-1.3c0.4-0.7,0.6-1.5,0.6-2.4
		c0-0.5,0-1-0.1-1.4s-0.2-0.8-0.3-1.2c-0.2-0.5-0.4-0.9-0.7-1.1c-0.3-0.2-0.6-0.3-1-0.3c-0.5,0-0.9,0.2-1.1,0.5
		c-0.3,0.4-0.4,0.8-0.4,1.3c0,0.2,0,0.5,0.1,0.7c0.1,0.3,0.1,0.5,0.2,0.8c0,0.1,0.1,0.3,0.2,0.4c0.1,0.2,0.1,0.4,0.2,0.6
		c0.1,0.3,0.2,0.6,0.4,1c-0.4-0.3-0.8-0.6-1.1-0.9s-0.5-0.5-0.7-0.6c-0.2-0.2-0.4-0.3-0.5-0.5c-0.1-0.1-0.2-0.3-0.3-0.4
		c-0.5-0.6-0.7-1.5-0.7-2.5c0-0.7,0.3-1.3,0.8-1.6c0.6-0.3,1.4-0.5,2.4-0.5c0.2,0,0.4,0,0.7,0c0.2,0,0.4,0,0.7,0.1
		c0.6,0.5,1.1,0.9,1.6,1.3c0.4,0.4,0.7,0.7,0.9,1.1c0.3,0.4,0.5,0.9,0.6,1.4c0.1,0.5,0.2,1.1,0.2,1.8
		C494.7,106.5,494.3,107.6,493.3,108.5z"/>
	<path class="st4" d="M506.4,94.1c0.9,0.7,1.5,1.6,1.9,2.6s0.6,2.3,0.6,3.7c0,1.8-0.5,3.4-1.4,4.7c-1.2,1.7-2.8,2.5-5,2.5
		c-1,0-1.9-0.3-2.7-0.8c-1.4-0.9-2.4-1.9-2.9-2.7c-0.5-0.7-1.1-2-1.7-3.9c-0.1-0.4-0.3-1-0.4-1.9c-0.1-0.4-0.1-0.7-0.2-1
		s-0.2-0.7-0.4-1.1l3.6-0.3c-0.1,0.6-0.1,1.1-0.1,1.5c0,0.4,0,0.7,0,1c0,0.9,0.1,1.7,0.2,2.6c0.2,0.8,0.4,1.7,0.7,2.5
		c0.5,1.1,1,2,1.6,2.5s1.4,0.8,2.2,0.8c1.4,0,2.5-0.9,3.2-2.7c0.5-1.3,0.7-2.6,0.7-4.1c0-1.2-0.1-2.4-0.4-3.5
		c-0.2-0.8-0.5-1.4-0.8-1.8s-0.6-0.5-1-0.5c-0.3,0-0.7,0.2-1,0.5c-0.3,0.3-0.6,0.9-0.8,1.7c-0.3,1.1-0.5,2.1-0.5,3
		c0,0.4,0,0.8,0.1,1.2c0.1,0.4,0.3,1,0.6,1.6c-0.6-0.3-1.1-0.6-1.4-0.9c-0.4-0.3-0.7-0.6-1-1c-0.2-0.3-0.4-0.7-0.5-1
		s-0.2-0.7-0.2-1.1c0-0.9,0.2-1.6,0.5-2.3c0.3-0.7,0.8-1.3,1.6-1.8h-8.1v-1.7h17.5c0,0.1,0,0.2,0,0.3c0,0.1,0,0.2,0,0.3
		c0,0.1,0,0.3,0,0.4c0,0.2,0,0.4,0,0.7H506.4z"/>
	<path class="st4" d="M526.5,94.1c0.6,0.4,1.1,0.9,1.4,1.4c0.3,0.5,0.4,1,0.4,1.6c0,1.2-0.6,2.3-1.8,3.3c-1.2,0.9-3,1.8-5.4,2.5
		c0.5,1.5,1.3,2.6,2.3,3.6c0.3,0.3,0.8,0.6,1.4,1s1.4,0.9,2.4,1.5c0.1,0.1,0.3,0.2,0.4,0.2c0.1,0.1,0.2,0.2,0.3,0.2l-0.3,0.5
		c-1.1-0.6-2-1.1-2.8-1.5s-1.5-0.9-2.1-1.3c-0.9-0.6-1.7-1.3-2.4-2c-0.7-0.7-1.4-1.6-2.1-2.6c2.6-0.7,4.5-1.4,5.7-2.2
		c1.2-0.8,1.8-1.7,1.8-2.7c0-0.7-0.2-1.3-0.7-1.9c-0.5-0.7-1.1-1-1.7-1c-0.7,0-1.3,0.2-1.7,0.5c-0.5,0.3-0.8,0.8-0.8,1.4
		c0,0.2,0,0.5,0,0.7c0,0.2,0.1,0.5,0.2,0.7c0.1,0.3,0.2,0.6,0.4,0.9s0.4,0.7,0.7,1.1c-0.4-0.2-0.8-0.4-1.1-0.6
		c-0.3-0.2-0.6-0.3-0.8-0.4c-0.2-0.1-0.4-0.2-0.5-0.4c-0.1-0.1-0.2-0.2-0.3-0.3c-0.6-0.6-0.9-1.4-0.8-2.4c0-0.6,0.4-1.1,1.1-1.5
		c0,0,0.1-0.1,0.2-0.1c0.1,0,0.2-0.1,0.3-0.1h-3.6v-1.7h13.8v1.7H526.5z"/>
	<path class="st4" d="M540.2,107.6c-0.6-0.4-1.1-0.8-1.6-1.1s-1-0.6-1.6-1c-1.4-0.8-2.4-1.4-3-1.8c-2.3-1.6-3.5-3.3-3.5-5
		c0-1.4,0.9-2.5,2.8-3.3h4.3v-1.3H529v-1.7h14.3v1.7c-0.2,0-0.4,0-0.7,0c-0.3,0-0.6,0-0.8,0s-0.6,0-0.8,0c-0.3,0-0.5,0-0.7,0V107.6z
		 M537.7,96.4h-2.8c-1.1,0.7-1.7,1.6-1.7,2.7c0,0.6,0.4,1.3,1.1,2.1c0.7,0.8,1.9,1.7,3.4,2.8V96.4z"/>
	<path class="st4" d="M546.5,94.1v13.2h1.2l-0.1,0.6h-4.7l0.1-0.6h1V94.1h-2v-1.7h7c0,0.3,0,0.6,0,0.8c0,0.2,0,0.5,0,0.9H546.5z"/>
	<path class="st4" d="M558.7,94.1v13.5c-0.6-0.4-1.2-0.8-1.6-1.1c-0.5-0.3-1-0.6-1.5-0.9c-0.8-0.4-1.5-0.8-2-1.1
		c-0.5-0.3-0.8-0.5-1-0.6c-1.2-0.8-2.1-1.6-2.7-2.4c-0.6-0.8-0.9-1.6-0.9-2.5c0-1.4,0.9-2.5,2.8-3.4h4.3v-1.6h-8.8v-1.7h14.2v1.7
		c-0.3,0-0.5,0-0.6,0s-0.3,0-0.4,0H558.7z M552.3,106.6c-0.3,0.2-0.8,0.3-1.2,0.3c-0.5,0-0.9-0.1-1.2-0.3c-0.4-0.3-0.6-0.6-0.6-1
		c0-0.4,0.2-0.7,0.5-0.9c0.3-0.3,0.7-0.4,1.1-0.4c0.7,0,1.2,0.1,1.6,0.3s0.6,0.6,0.6,1.1C552.9,106,552.7,106.4,552.3,106.6z
		 M556.1,96.7h-2.8c-1.1,0.7-1.7,1.6-1.7,2.7c0,0.8,0.5,1.6,1.6,2.6c0.3,0.2,0.6,0.5,1.1,0.8s1.1,0.7,1.8,1.2V96.7z"/>
	<path class="st4" d="M581.4,94.1v13.2h1.1v0.6h-3.6V99l-0.3-0.3l-5.6,3.9c-0.2-0.1-0.4-0.2-0.6-0.3c-0.2-0.1-0.4-0.2-0.7-0.4
		c-0.2-0.2-0.5-0.3-0.8-0.6c-0.3-0.2-0.7-0.5-1.2-0.8l2.1,0.5c0.3-0.2,0.6-0.4,0.9-0.6c0.3-0.2,0.6-0.4,0.9-0.7c0.1-0.4,0-0.8-0.2-1
		c-0.3-0.2-0.7-0.4-1.2-0.4c-0.3,0-0.7,0.1-1.3,0.4c-0.6,0.3-1,0.4-1.2,0.4c-1.1,0-1.6-0.5-1.5-1.6c0-1.5,0.6-2.7,1.8-3.5
		c1.1-0.7,2.4-1.1,4.1-1.1c1.1,0,2,0.2,2.8,0.5c0.3,0.1,0.6,0.3,0.9,0.5c0.3,0.2,0.7,0.5,1.1,0.8v-2.3h5.1v1.7H581.4z M578.4,96.1
		c-1.3-1.1-2.8-1.7-4.5-1.7c-0.3,0-0.7,0-1.2,0.1c-0.4,0.1-0.8,0.2-1.2,0.4c-0.4,0.2-0.7,0.4-0.9,0.6s-0.4,0.5-0.4,0.8
		c0,0.1,0.1,0.2,0.2,0.3c0.2,0.1,0.3,0.2,0.5,0.2c0.1,0,0.2,0,0.3-0.1c0.1,0,0.1-0.1,0.2-0.1c0.1,0,0.1,0,0.2-0.1
		c0.2-0.1,0.4-0.1,0.6-0.1c0.2,0,0.3,0,0.5,0c0.5,0.1,0.9,0.3,1.2,0.5c0.2,0.2,0.4,0.6,0.5,1.2c0,0.3,0.2,0.4,0.4,0.5L577,97
		c0.2,0.1,0.4,0.2,0.6,0.2c0.1,0,0.3,0.1,0.4,0.1l0.4,0.1V96.1z"/>
	<path class="st4" d="M578.2,110.8l-0.2-0.4h0.9v-0.6c-0.7-0.6-1.4-0.9-2-0.9c-0.1,0-0.2,0.1-0.5,0.2c-0.2,0.1-0.6,0.3-1,0.5
		c-1,0.4-1.7,0.7-2.3,0.7c-1.5,0-2.7-0.6-3.5-1.8c-0.2-0.3-0.4-0.9-0.7-1.8c0-0.1-0.1-0.3-0.1-0.4c0-0.1-0.1-0.3-0.1-0.5
		s-0.1-0.5-0.1-0.8c0-0.3-0.1-0.8-0.1-1.3c0.5,1,0.9,1.8,1.3,2.4c0.4,0.6,0.8,1.1,1.1,1.5c0.4,0.4,0.7,0.6,1.1,0.8
		c0.3,0.1,0.7,0.2,1.1,0.2c0.4,0,0.9-0.1,1.6-0.4c0.7-0.2,1.2-0.4,1.7-0.4c0.5,0,0.9,0,1.3,0.1l1.3,0.9v-2h2.5v4.1h-3.6v-0.3
		L578.2,110.8z"/>
	<path class="st4" d="M590.2,94.1c-0.7,0.5-1.3,1-1.7,1.5c-0.5,0.5-0.8,0.9-1.1,1.3c-0.6,1.1-1,2.3-1,3.8c0,0.5,0,1,0.1,1.5
		c0.1,0.5,0.2,1.1,0.5,1.7c0.2,0.6,0.5,1.3,0.9,2.1s0.9,1.7,1.5,2.7c-0.7-0.7-1.3-1.4-1.8-1.9c-0.5-0.5-0.9-0.9-1.2-1.3
		c-0.3-0.4-0.6-0.7-0.7-0.9c-0.2-0.2-0.3-0.5-0.5-0.7c-0.8-1.3-1.1-2.8-1.1-4.5c0-0.5,0-1,0.1-1.4c0.1-0.4,0.2-0.8,0.4-1.2
		c0.2-0.4,0.5-0.9,0.9-1.3c0.4-0.4,0.9-0.9,1.5-1.4h-4.1c0-0.3,0-0.5,0-0.6c0-0.1,0-0.2,0-0.3s0-0.2,0-0.3c0-0.1,0-0.3,0-0.5h8.9
		v1.7H590.2z"/>
	<path class="st4" d="M604.1,94.1v13.7c-0.6-0.3-1.2-0.6-1.7-0.9s-1.1-0.5-1.7-0.8c-0.8-0.4-1.4-0.7-2-0.9c-0.5-0.3-0.9-0.5-1.2-0.6
		c-1.1-0.6-2.1-1.4-3-2.2c-0.9-0.9-1.6-1.9-2.2-3.1l3.8-2.6c-0.5-0.6-0.9-1.1-1.4-1.5c-0.4-0.4-0.8-0.7-1.2-1h-3.2v-1.7h16.7v1.7
		H604.1z M597.7,107.5c-0.4,0.2-0.9,0.3-1.3,0.3c-0.5,0-0.9-0.1-1.3-0.4c-0.4-0.3-0.6-0.7-0.6-1.1c0-0.4,0.2-0.8,0.7-1
		c0.4-0.2,0.8-0.3,1.3-0.3c0.2,0,0.5,0,0.7,0.1s0.4,0.1,0.6,0.3c0.4,0.3,0.6,0.7,0.6,1.1C598.4,106.9,598.1,107.3,597.7,107.5z
		 M601.6,94.1h-4.4l1.8,2.8l-4,2.5c0.5,0.9,0.9,1.5,1.4,2.1c0.5,0.5,1,0.9,1.4,1.1c0.1,0,0.5,0.2,1.1,0.5c0.6,0.3,1.5,0.7,2.7,1.3
		V94.1z"/>
	<path class="st4" d="M610.3,94.1v13.2h1.2l-0.1,0.6h-4.7l0.1-0.6h1V94.1h-2v-1.7h7c0,0.3,0,0.6,0,0.8c0,0.2,0,0.5,0,0.9H610.3z"/>
	<path class="st4" d="M618.1,94.2H618c-0.1,0-0.2,0-0.3,0c-0.1,0-0.2,0-0.4,0c-0.3,0-0.6,0-1,0c-0.4,0-0.8,0-1.2,0
		c-0.8,0-1.5,0-2.3,0c-0.7,0-1.3,0-1.6,0v-1.7h22.7v1.7h-13.2v0.5c0.6,0.2,1.2,0.5,1.9,0.7c0.7,0.2,1.4,0.5,2.1,0.8
		c0.7,0.2,1.5,0.4,2.2,0.5c0.7,0.1,1.4,0.1,2.1,0.1c0.3,0,0.7,0,1-0.1c0.4-0.1,0.8-0.1,1.4-0.3l1.3,1.9c-0.8,0.6-1.4,1.1-1.9,1.5
		c-0.5,0.4-0.8,0.8-1,1c-0.6,0.8-0.9,1.8-0.9,3.1c0,0,0,0.1,0,0.2c0,0.1,0,0.4,0.1,0.7c0,0.3,0.1,0.8,0.2,1.3
		c0.1,0.6,0.2,1.3,0.3,2.1c-0.4-0.8-0.7-1.4-0.9-2s-0.4-1-0.6-1.5c-0.1-0.4-0.2-0.8-0.3-1.1c0-0.3-0.1-0.6-0.1-1
		c0-1.3,0.3-2.5,0.9-3.4c0.1-0.1,0.2-0.2,0.3-0.4c0.1-0.2,0.3-0.4,0.4-0.7c-1.6-0.2-3-0.4-4.4-0.8s-2.7-1-4.1-1.7v4
		c0,0.4,0.2,0.7,0.5,1c0.4,0.3,0.8,0.4,1.3,0.4s0.9-0.1,1.2-0.4c0.1-0.1,0.2-0.2,0.3-0.4c0.1-0.2,0.3-0.4,0.4-0.6l0-1.6l2.5,0.2
		c0,0.4,0,0.8,0,1.2c0,0.4,0,0.7,0,1.1c0,1.6-0.4,3.1-1.2,4.5c-1.1,1.8-2.6,2.6-4.6,2.6c-2.3,0-4.3-1.3-5.9-3.8
		c-0.6-0.9-1.1-1.9-1.4-2.9s-0.7-2.1-0.9-3.4l3.2-0.4c0,0.4,0,0.7,0,0.9c0,0.2,0,0.4,0,0.5c0,1.6,0.4,3.3,1.1,5.1
		c0.5,1.2,1.1,2,1.7,2.6c0.6,0.6,1.3,0.8,2.1,0.8c1.2,0,2.1-0.7,2.8-2c0.5-1,0.8-2.1,0.8-3.2c0-0.1,0-0.2,0-0.3s0-0.2,0-0.4
		c-1,0.8-1.9,1.2-2.8,1.2c-0.9,0-1.6-0.3-2.3-0.8c-0.7-0.6-1.1-1.2-1.1-2V94.2z"/>
	<path class="st4" d="M644.4,94.1v13.2h1.2v0.6H641l-0.1-0.6h0.9v-8.7l-2.4-1.4c-1,0.2-1.6,0.5-1.9,0.7c-0.5,0.4-0.8,1-0.8,1.8v0.1
		c0,0.1,0,0.2,0,0.3c0,0.1,0,0.2,0,0.3v0.7c0,0.3,0,0.7,0.1,1.1c0.1,0.4,0.2,0.8,0.4,1.1c0,0,0.1,0.1,0.1,0.2
		c0.1,0.1,0.2,0.3,0.3,0.5c0.1,0.2,0.3,0.5,0.5,0.9c0.2,0.4,0.5,0.9,0.9,1.6c-0.5-0.5-1-1-1.4-1.4c-0.4-0.4-0.7-0.7-0.9-0.9
		c-0.3-0.3-0.5-0.5-0.7-0.7c-0.2-0.2-0.4-0.4-0.6-0.6c-0.8-0.8-1.2-2-1.2-3.4c0-1.2,0.7-2.2,2-3c0.7-0.4,1.4-0.7,2-0.7
		c0.6,0,0.9,0,1.2,0c0.6,0.1,1.3,0.5,1.9,1.1l0.3,0.3v-3.2h-9v-1.7h14.4v1.7H644.4z"/>
	<path class="st4" d="M659.8,94.1c-0.7,0.5-1.3,1-1.7,1.5c-0.5,0.5-0.8,0.9-1.1,1.3c-0.3,0.5-0.6,1.1-0.7,1.7
		c-0.2,0.6-0.2,1.3-0.2,2.1c0,0.5,0,1,0.1,1.5s0.2,1.1,0.5,1.7c0.2,0.6,0.5,1.3,0.9,2.1c0.4,0.8,0.9,1.7,1.5,2.7
		c-0.7-0.7-1.3-1.4-1.8-1.9c-0.5-0.5-0.9-0.9-1.2-1.3c-0.3-0.4-0.6-0.7-0.7-0.9s-0.3-0.5-0.4-0.7c-0.8-1.3-1.2-2.8-1.2-4.5
		c0-0.7,0-1.2,0.1-1.7s0.2-0.9,0.3-1.2c0.9-1.9,2.6-3.2,4.8-4.1h2.6v1.7H659.8z"/>
	<path class="st4" d="M671.6,94.1v13.2h1.2v0.6h-4.5l-0.1-0.6h0.9v-8.7l-2.4-1.4c-1,0.2-1.6,0.5-1.9,0.7c-0.5,0.4-0.8,1-0.8,1.8v0.1
		c0,0.1,0,0.2,0,0.3c0,0.1,0,0.2,0,0.3v0.7c0,0.3,0,0.7,0.1,1.1c0.1,0.4,0.2,0.8,0.4,1.1c0,0,0.1,0.1,0.1,0.2
		c0.1,0.1,0.2,0.3,0.3,0.5c0.1,0.2,0.3,0.5,0.5,0.9c0.2,0.4,0.5,0.9,0.9,1.6c-0.5-0.5-1-1-1.4-1.4c-0.4-0.4-0.7-0.7-0.9-0.9
		c-0.3-0.3-0.5-0.5-0.7-0.7c-0.2-0.2-0.4-0.4-0.6-0.6c-0.8-0.8-1.2-2-1.2-3.4c0-1.2,0.7-2.2,2-3c0.7-0.4,1.4-0.7,2-0.7
		c0.6,0,0.9,0,1.2,0c0.6,0.1,1.3,0.5,1.9,1.1l0.3,0.3v-3.2h-9v-1.7h14.4v1.7H671.6z"/>
	<path class="st4" d="M683.2,94.1c0.7,0.5,1.1,1,1.4,1.4c0.3,0.5,0.4,1,0.4,1.5c0,1.5-0.9,2.9-2.6,4.2c-0.6,0.4-1.3,0.8-2,1.2
		c-0.7,0.4-1.6,0.7-2.5,0.9c0.5,1.5,1.2,2.6,2.3,3.6c0.6,0.5,1.8,1.4,3.8,2.6c0.1,0.1,0.2,0.1,0.3,0.2c0.1,0.1,0.2,0.1,0.3,0.2
		l-0.3,0.5l-2.1-1.1c-1.6-0.8-2.9-1.6-4.1-2.6c-1.2-1-2.2-2.1-3.2-3.3c1.1-0.3,2-0.6,2.8-0.9c0.8-0.3,1.4-0.7,2-1
		c0.8-0.6,1.4-1.1,1.8-1.7s0.6-1.2,0.6-1.9c0-0.6-0.2-1.3-0.5-1.9c-0.4-0.8-1-1.2-1.7-1.2c-0.3,0-0.7,0.1-1,0.3
		c-0.3,0.2-0.6,0.6-0.9,1.1c-0.5,0.8-0.8,1.6-0.8,2.2c0,0.2,0,0.4,0,0.5c0,0.2,0.1,0.4,0.2,0.6c0.1,0.2,0.2,0.5,0.4,0.8
		c0.2,0.3,0.4,0.6,0.7,1c-0.7-0.4-1.3-0.7-1.8-1c-0.5-0.3-0.9-0.7-1.1-1c-0.3-0.3-0.5-0.7-0.6-1c-0.1-0.3-0.2-0.7-0.2-1
		c0-0.5,0.2-1,0.5-1.5c0.3-0.5,0.8-1,1.5-1.6h-3.5v-1.7h7.1v-0.8c-0.6-0.8-1.4-1.1-2.3-1.1c-0.9,0-2.1,0.2-3.6,0.6
		c-0.5,0.2-1,0.3-1.4,0.4c-0.4,0.1-0.8,0.2-1.1,0.3l-0.2-0.5c0.5-0.2,1.1-0.4,1.6-0.7s1-0.4,1.4-0.6c1.5-0.6,3-0.9,4.4-0.9
		c0.4,0,0.8,0,1.2,0.1s0.7,0.2,1,0.4c0.2,0.1,0.4,0.3,0.7,0.5c0.2,0.2,0.5,0.5,0.9,0.8v1.5h3.8v1.7H683.2z"/>
	<path class="st4" d="M699.2,107.7V91.8h2.5v15.9H699.2z"/>
	<path class="st4" d="M62.4,136.9c-0.2,1.1-0.6,1.9-0.9,2.7c-0.4,0.7-0.9,1.3-1.4,1.7c-0.7,0.5-1.3,0.9-1.9,1.2
		c-0.5,0.3-0.9,0.4-1.2,0.4c-0.7,0-1.4-0.3-2.2-1c-0.8-0.6-1.7-1.6-2.6-2.8c-0.9-1.3-1.7-2.9-2.2-5c0,0-0.1-0.5-0.3-1.4
		c-0.2-0.9-0.4-2.2-0.8-4.1l3-0.5c0,0.9-0.1,1.6-0.1,2c0,0.5,0,0.7,0,0.9c0,1.3,0.3,3,0.9,5c0.3,1.1,0.8,2.3,1.5,3.5
		c0.5,0.9,0.9,1.5,1.3,1.9s0.8,0.6,1.1,0.6c0.5,0,1.1-0.3,1.5-0.8c0.5-0.5,0.9-1.3,1.3-2.5c0.3-0.9,0.5-1.7,0.7-2.4
		c0.1-0.8,0.2-1.5,0.2-2.2c0-1.6-0.2-2.9-0.5-4.1c-0.3-1.1-0.9-2.3-1.7-3.6c-0.2,0.1-0.4,0.3-0.6,0.6c-0.2,0.3-0.4,0.8-0.6,1.5
		c-0.2,0.6-0.3,1.2-0.4,1.6s-0.1,0.8-0.1,1.1c0,0.3,0,0.6,0.1,0.9c0,0.3,0.1,0.6,0.2,1c0.1,0.4,0.2,0.8,0.4,1.2
		c0.2,0.5,0.3,1,0.6,1.6c-1.4-0.9-2.3-1.9-2.9-2.8c-0.5-1-0.8-2-0.8-3.1c0-1,0.4-2.1,1.1-3.2c0.8-1.4,1.8-2,3-2c0.7,0,1.4,0.2,2,0.7
		s1.2,1.2,1.7,2.2c0.8,1.5,1.2,3,1.2,4.3C63,133.7,62.8,135.4,62.4,136.9z"/>
	<path class="st4" d="M76.4,126.6v13.7c-0.6-0.3-1.2-0.6-1.7-0.9s-1.1-0.5-1.7-0.8c-0.8-0.4-1.4-0.7-2-0.9c-0.5-0.3-0.9-0.5-1.2-0.6
		c-1.1-0.6-2.1-1.4-3-2.2c-0.9-0.9-1.6-1.9-2.2-3.1l3.8-2.6c-0.5-0.6-0.9-1.1-1.4-1.5c-0.4-0.4-0.8-0.7-1.2-1h-3.2v-1.7h16.7v1.7
		H76.4z M70,140c-0.4,0.2-0.9,0.3-1.3,0.3s-0.9-0.1-1.3-0.4c-0.4-0.3-0.6-0.7-0.6-1.1c0-0.4,0.2-0.8,0.7-1c0.4-0.2,0.8-0.3,1.3-0.3
		c0.2,0,0.4,0,0.7,0.1c0.2,0,0.4,0.1,0.6,0.3c0.4,0.3,0.6,0.7,0.6,1.1C70.7,139.4,70.5,139.7,70,140z M73.9,126.6h-4.4l1.8,2.8
		l-4,2.5c0.5,0.9,0.9,1.5,1.4,2.1c0.5,0.5,1,0.9,1.4,1.1c0.1,0,0.5,0.2,1.1,0.5s1.5,0.7,2.7,1.3V126.6z"/>
	<path class="st4" d="M91.8,126.6c-0.7,0.5-1.3,1-1.7,1.5c-0.5,0.5-0.8,0.9-1.1,1.3c-0.3,0.5-0.6,1.1-0.7,1.7
		c-0.2,0.6-0.2,1.3-0.2,2.1c0,0.5,0,1,0.1,1.5c0.1,0.5,0.2,1.1,0.5,1.7c0.2,0.6,0.5,1.3,0.9,2.1c0.4,0.8,0.9,1.7,1.5,2.7
		c-0.7-0.7-1.3-1.4-1.8-1.9s-0.9-0.9-1.2-1.3c-0.3-0.4-0.6-0.7-0.7-0.9s-0.3-0.5-0.4-0.7c-0.8-1.3-1.2-2.8-1.2-4.5
		c0-0.7,0-1.2,0.1-1.7c0.1-0.5,0.2-0.9,0.3-1.2c0.9-1.9,2.6-3.2,4.8-4.1h2.6v1.7H91.8z"/>
	<path class="st4" d="M107.2,126.6v13.1h1v0.7h-4.6v-0.7h1v-7.1l-1.5-1.1c-0.3,0.3-0.7,0.7-1.1,1.1c-0.5,0.5-1,1-1.6,1.6
		c-0.7,0.7-1.3,1.2-1.8,1.6c-0.5,0.4-1,0.6-1.3,0.6c-0.5,0-1.1-0.1-1.6-0.3c-0.6-0.2-1.1-0.5-1.8-1l0.1-1.3c0.5,0.4,0.9,0.7,1.2,0.8
		c0.3,0.1,0.5,0.2,0.7,0.2c0.6,0,1.3-0.4,2.1-1.3c0.4-0.4,0.7-0.8,0.9-1.2c0.2-0.3,0.3-0.6,0.3-0.9c0-0.4-0.1-0.8-0.2-0.9
		c-0.2-0.2-0.4-0.3-0.7-0.3c-0.3,0-0.7,0.1-1.2,0.3l-1.3,0.6c-0.7-0.2-1.2-0.4-1.4-0.6c-0.3-0.3-0.5-0.7-0.5-1.3
		c0-0.4,0.5-1.3,1.4-2.7h-3.1v-1.7h17.8v1.7H107.2z M104.7,126.6h-7.8c-0.2,0.2-0.3,0.4-0.5,0.7c-0.1,0.2-0.3,0.5-0.4,0.8
		c-0.1,0.2-0.1,0.3-0.1,0.5c0,0.1,0,0.2,0.1,0.3c0.1,0.1,0.2,0.1,0.5,0.1c0.3,0,0.7-0.1,1.3-0.3c0.3-0.1,0.6-0.2,0.8-0.2
		c0.2,0,0.4-0.1,0.6-0.1c0.5,0,0.9,0.2,1.1,0.6c0.2,0.4,0.3,0.9,0.3,1.6c0,0.1,0,0.3,0,0.4c0,0.2,0,0.3,0,0.6l2.5-1.8
		c0.3,0.1,0.6,0.3,0.8,0.5c0.3,0.2,0.6,0.4,1,0.7V126.6z"/>
	<path class="st4" d="M124.1,123.2l0.6-0.1v0.8c-0.7-0.3-1.3-0.5-2-0.6c-0.6-0.2-1.3-0.3-2-0.4c-0.8-0.2-1.5-0.3-2.1-0.4
		c-0.6-0.1-1.2-0.1-1.7-0.1c-1.1,0-1.9,0.1-2.4,0.3c-0.5,0.2-0.7,0.5-0.7,0.9v1.2h3.1v1.7h-2.8v13.3h0.5v0.6h-3.9v-0.6h0.9v-13.3
		h-2.8v-1.7h2.8v0c0-1.3,0.2-2.3,0.7-2.9c0.6-0.8,1.6-1.2,2.9-1.2c0.6,0,1.3,0.1,2,0.2c0.8,0.2,1.7,0.4,2.7,0.7
		c0.8,0.2,1.5,0.5,2.1,0.7C122.9,122.6,123.5,122.9,124.1,123.2L124.1,123.2z"/>
	<path class="st4" d="M128.3,126.6v13.3h1.2v0.6h-4.6l0-0.6l0.9-0.1V134c-0.3-0.7-0.7-1.2-1.1-1.5c-0.4-0.3-0.8-0.4-1.3-0.4
		c-1,0-1.8,0.3-2.4,0.8c-0.6,0.5-0.9,1.3-0.9,2.2c0,0.3,0,0.6,0.1,0.9c0,0.3,0.1,0.6,0.2,1c0.1,0.4,0.3,0.8,0.5,1.2
		c0.2,0.5,0.5,1,0.8,1.6c-0.4-0.4-0.8-0.7-1.1-0.9c-0.3-0.3-0.6-0.5-0.8-0.7c-0.2-0.2-0.4-0.3-0.6-0.5c-0.2-0.1-0.3-0.3-0.5-0.4
		c-0.8-0.7-1.1-1.6-1.1-2.8c0-1,0.8-2,2.3-2.9c-0.1-0.1-0.2-0.2-0.4-0.2c-0.1-0.1-0.3-0.2-0.4-0.3c-1.1-0.7-1.7-1.5-1.7-2.4
		c0-0.4,0.1-0.8,0.4-1.1c0.3-0.3,0.7-0.6,1.3-1h-3.1v-1.7h15.2v1.7H128.3z M125.7,126.6h-4c-0.2,0.2-0.5,0.3-0.7,0.4
		c-0.2,0.1-0.5,0.3-0.7,0.4c-0.4,0.4-0.7,0.8-0.7,1.2c0,0.4,0.1,0.8,0.3,1.3c0.1,0.2,0.2,0.3,0.3,0.5c0.1,0.2,0.2,0.4,0.3,0.6
		c0.7-0.2,1.3-0.3,1.9-0.3c0.5,0,1,0.1,1.5,0.4c0.5,0.3,1.1,0.6,1.7,1.1V126.6z"/>
	<path class="st4" d="M142.5,126.6v11.3c0,0.2,0.1,0.4,0.2,0.5s0.3,0.3,0.5,0.4c0.3,0.3,0.7,0.4,1,0.5c0.6-0.4,1.1-0.9,1.6-1.3
		c0.4-0.5,0.8-0.9,1-1.4c0.3-0.5,0.5-1.1,0.6-1.7c0.1-0.6,0.2-1.3,0.2-2c0-0.2-0.1-0.4-0.2-0.5c-0.1-0.1-0.3-0.1-0.6-0.1l-1.5,0.8
		l-0.5-0.8l2.9-1.3l2,0.9c-0.1,1.1-0.2,2-0.5,2.8c-0.2,0.8-0.6,1.6-1,2.3c-0.8,1.3-2.2,2.5-4,3.7c-0.9-0.1-1.8-0.3-2.7-0.5
		c-0.9-0.2-1.8-0.6-2.7-1c-1.8-0.8-3.4-1.7-4.8-2.8c-0.3-0.2-0.6-0.5-0.8-0.8c-0.3-0.3-0.5-0.6-0.8-1c-0.1-0.1-0.2-0.3-0.3-0.5
		c-0.1-0.2-0.3-0.4-0.4-0.7c-0.2-0.3-0.4-0.6-0.6-1l5.4-2.8l-1-1.2c-0.2-0.3-0.4-0.5-0.7-0.6c-0.2-0.2-0.5-0.3-0.7-0.4
		c-0.3-0.2-0.9-0.3-1.5-0.4c-0.7-0.1-1.6-0.1-2.7-0.2v-1.7h16.1v-1.7c0-0.3-0.1-0.6-0.3-0.8c-0.2-0.2-0.5-0.3-0.8-0.3
		c-0.8,0-1.8,0.1-2.8,0.2c-1,0.1-2.2,0.4-3.6,0.7l-0.2-0.6c0.4-0.2,0.8-0.3,1.2-0.4s0.9-0.3,1.4-0.4c1.7-0.5,3.1-0.7,4.1-0.7
		c1.2,0,2.5,0.6,3.7,1.8v2.2h2.4v1.7H142.5z M140,132.2L138,130l-4.6,2.3c0.2,0.4,0.6,1,1.1,1.7l1,1c0.2,0.3,0.5,0.6,0.7,0.8
		c0.2,0.3,0.5,0.5,0.8,0.6c0.1,0.1,0.4,0.2,0.7,0.4c0.3,0.2,0.7,0.4,1.2,0.6c0.2,0.1,0.3,0.2,0.4,0.2c0.1,0.1,0.3,0.2,0.4,0.2
		c0.1,0,0.2,0.1,0.4,0.3V132.2z M140,126.6h-3.9c0.3,0.4,0.6,0.7,0.9,1c0.3,0.3,0.7,0.7,1,1l1.9,1.8V126.6z"/>
	<path class="st4" d="M154.6,126.6v13.2h1.2l-0.1,0.6H151l0.1-0.6h1v-13.2h-2v-1.7h7c0,0.3,0,0.6,0,0.8c0,0.2,0,0.5,0,0.9H154.6z"/>
	<path class="st4" d="M162.5,126.6c-0.7,0.5-1.3,1-1.7,1.5c-0.5,0.5-0.8,0.9-1.1,1.3c-0.6,1.1-1,2.3-1,3.8c0,0.5,0,1,0.1,1.5
		s0.2,1.1,0.5,1.7c0.2,0.6,0.5,1.3,0.9,2.1c0.4,0.8,0.9,1.7,1.5,2.7c-0.7-0.7-1.3-1.4-1.8-1.9s-0.9-0.9-1.2-1.3
		c-0.3-0.4-0.6-0.7-0.7-0.9c-0.2-0.2-0.3-0.5-0.5-0.7c-0.8-1.3-1.1-2.8-1.1-4.5c0-0.5,0-1,0.1-1.4c0.1-0.4,0.2-0.8,0.4-1.2
		c0.2-0.4,0.5-0.9,0.9-1.3c0.4-0.4,0.9-0.9,1.5-1.4h-4.1c0-0.3,0-0.5,0-0.6c0-0.1,0-0.2,0-0.3s0-0.2,0-0.3c0-0.1,0-0.3,0-0.5h8.9
		v1.7H162.5z"/>
	<path class="st4" d="M174.1,126.6v13.5c-0.6-0.4-1.1-0.8-1.6-1.1c-0.5-0.3-1-0.6-1.5-0.9c-0.8-0.4-1.5-0.8-2-1.1
		c-0.5-0.3-0.8-0.5-1-0.6c-1.2-0.8-2.1-1.6-2.7-2.4c-0.6-0.8-0.9-1.6-0.9-2.5c0-1.4,0.9-2.5,2.8-3.4h4.3v-1.6h-8.8v-1.7H177v1.7
		c-0.3,0-0.5,0-0.6,0c-0.1,0-0.3,0-0.4,0H174.1z M167.7,139.1c-0.3,0.2-0.8,0.3-1.2,0.3c-0.5,0-0.9-0.1-1.2-0.3
		c-0.4-0.3-0.6-0.6-0.6-1c0-0.4,0.2-0.7,0.5-0.9c0.3-0.3,0.7-0.4,1.1-0.4c0.7,0,1.2,0.1,1.6,0.3s0.6,0.6,0.6,1.1
		C168.3,138.5,168.1,138.8,167.7,139.1z M171.6,129.2h-2.8c-1.1,0.7-1.7,1.6-1.7,2.7c0,0.8,0.5,1.6,1.6,2.6c0.3,0.2,0.6,0.5,1.1,0.8
		c0.5,0.3,1.1,0.7,1.8,1.2V129.2z"/>
	<path class="st4" d="M195.4,140.4l0.1-0.6h0.9l-0.1-0.8c-0.6-0.8-1.5-1.3-2.8-1.3c-1.7-0.1-3-0.3-3.9-0.7c-1-0.5-2-1.4-2.9-2.7
		c-0.3-0.5-0.6-1-0.8-1.6s-0.5-1.3-0.7-2c0-0.2-0.1-0.4-0.1-0.7c0-0.3-0.1-0.6-0.1-1.1c0.5-0.2,1-0.4,1.5-0.5
		c0.5-0.1,1.1-0.2,1.8-0.2c0,0.2-0.1,0.4-0.1,0.5c0,0.1-0.1,0.2-0.1,0.4c-0.1,0.3-0.1,0.6-0.1,0.8c0,0.9,0.2,1.8,0.6,2.9
		c0.4,1.1,0.9,2,1.5,2.6c0.6,0.6,1.4,1,2.2,1h0.1c0.1,0,0.2,0,0.3,0c0.1,0,0.3,0,0.5,0c0.5,0,1.1,0.1,1.6,0.3c0.5,0.2,1,0.5,1.5,0.9
		v-11c-0.1-0.1-0.3-0.2-0.4-0.3c-0.1-0.1-0.3-0.1-0.5-0.2c-1,0.7-1.7,1.4-2.2,2c-0.5,0.6-0.7,1.2-0.7,1.7c0,0.3,0,0.5,0,0.8
		c0,0.3,0.1,0.6,0.2,0.9s0.2,0.7,0.4,1.1c0.2,0.4,0.4,0.9,0.7,1.5c-0.7-0.6-1.3-1.1-1.7-1.6c-0.5-0.5-0.8-1-1.1-1.4
		s-0.5-0.9-0.6-1.3c-0.1-0.4-0.2-0.8-0.2-1.2c0-0.4,0.1-0.8,0.2-1.2c0.2-0.4,0.4-0.7,0.7-0.9c0.2-0.2,0.6-0.4,0.9-0.7
		c0.4-0.3,0.8-0.6,1.4-1c0.7,0.2,1.3,0.3,1.7,0.4c0.5,0.1,0.8,0.3,1.1,0.4c0.7,0.3,1.6,0.8,2.6,1.5v12.7h1.4l0,0.6H195.4z"/>
	<path class="st4" d="M212.5,126.6v2.3h0.9c1.4,0,2.5,0.1,3,0.4c0.8,0.4,1.2,1.1,1.2,2.2c0,0.7-0.4,1.7-1.3,2.8
		c-0.1,0.2-0.3,0.4-0.5,0.6c-0.2,0.2-0.4,0.4-0.6,0.7c-0.2,0.3-0.5,0.5-0.9,0.9c-0.4,0.3-0.8,0.7-1.3,1.2c0.4-0.8,0.8-1.6,1.1-2.2
		c0.3-0.6,0.5-1.2,0.7-1.7s0.3-1,0.4-1.4s0.1-0.8,0.1-1.2s-0.1-0.7-0.3-0.9c-0.1-0.1-0.2-0.2-0.3-0.3s-0.3-0.2-0.5-0.4h-1.7v10.5
		c-3.2-1.5-5.6-3-7.1-4.5c-1.5-1.4-2.3-2.9-2.3-4.4c0-1.1,0.6-1.8,1.8-2.2c0.3-0.1,0.7-0.2,1.3-0.2s1.1,0,1.8,0l2,0v-2.3h-9.7v-1.7
		h19.3v1.7H212.5z M210,129.7h-2.4c-0.6,0.2-1,0.5-1.3,0.9c-0.1,0.2-0.2,0.4-0.2,0.6c-0.1,0.2-0.1,0.5-0.1,0.9c0,1,0.5,2.1,1.4,3.3
		c0.7,0.9,1.6,1.7,2.6,2.3V129.7z"/>
	<path class="st4" d="M239.3,126.6v13.1h1v0.7h-4.6v-0.7h1v-7.1l-1.5-1.1c-0.3,0.3-0.7,0.7-1.1,1.1c-0.5,0.5-1,1-1.6,1.6
		c-0.7,0.7-1.3,1.2-1.8,1.6c-0.5,0.4-1,0.6-1.3,0.6c-0.5,0-1.1-0.1-1.6-0.3c-0.6-0.2-1.1-0.5-1.8-1l0.1-1.3c0.5,0.4,0.9,0.7,1.2,0.8
		c0.3,0.1,0.5,0.2,0.7,0.2c0.6,0,1.3-0.4,2.1-1.3c0.4-0.4,0.7-0.8,0.9-1.2c0.2-0.3,0.3-0.6,0.3-0.9c0-0.4-0.1-0.8-0.2-0.9
		c-0.2-0.2-0.4-0.3-0.7-0.3c-0.3,0-0.7,0.1-1.2,0.3l-1.3,0.6c-0.7-0.2-1.2-0.4-1.4-0.6c-0.3-0.3-0.5-0.7-0.5-1.3
		c0-0.4,0.5-1.3,1.4-2.7h-3.1v-1.7H242v1.7H239.3z M236.8,126.6H229c-0.2,0.2-0.3,0.4-0.5,0.7c-0.1,0.2-0.3,0.5-0.4,0.8
		c-0.1,0.2-0.1,0.3-0.1,0.5c0,0.1,0,0.2,0.1,0.3c0.1,0.1,0.2,0.1,0.5,0.1c0.3,0,0.7-0.1,1.3-0.3c0.3-0.1,0.6-0.2,0.8-0.2
		c0.2,0,0.4-0.1,0.6-0.1c0.5,0,0.9,0.2,1.1,0.6c0.2,0.4,0.3,0.9,0.3,1.6c0,0.1,0,0.3,0,0.4c0,0.2,0,0.3,0,0.6l2.5-1.8
		c0.3,0.1,0.6,0.3,0.8,0.5c0.3,0.2,0.6,0.4,1,0.7V126.6z"/>
	<path class="st4" d="M245.6,126.6v13.2h1.2l-0.1,0.6H242l0.1-0.6h1v-13.2h-2v-1.7h7c0,0.3,0,0.6,0,0.8c0,0.2,0,0.5,0,0.9H245.6z"/>
	<path class="st4" d="M253.5,126.6c-0.7,0.5-1.3,1-1.7,1.5c-0.5,0.5-0.8,0.9-1.1,1.3c-0.6,1.1-1,2.3-1,3.8c0,0.5,0,1,0.1,1.5
		s0.2,1.1,0.5,1.7c0.2,0.6,0.5,1.3,0.9,2.1c0.4,0.8,0.9,1.7,1.5,2.7c-0.7-0.7-1.3-1.4-1.8-1.9s-0.9-0.9-1.2-1.3
		c-0.3-0.4-0.6-0.7-0.7-0.9c-0.2-0.2-0.3-0.5-0.5-0.7c-0.8-1.3-1.1-2.8-1.1-4.5c0-0.5,0-1,0.1-1.4c0.1-0.4,0.2-0.8,0.4-1.2
		c0.2-0.4,0.5-0.9,0.9-1.3c0.4-0.4,0.9-0.9,1.5-1.4h-4.1c0-0.3,0-0.5,0-0.6c0-0.1,0-0.2,0-0.3s0-0.2,0-0.3c0-0.1,0-0.3,0-0.5h8.9
		v1.7H253.5z"/>
	<path class="st4" d="M266.3,126.6v13.5c-0.1,0-0.2,0-0.2,0s-0.1,0-0.1,0c-1.3,0-3.1-0.5-5.4-1.5c-2.4-1-4-1.9-4.8-2.8
		c-0.1-0.1-0.2-0.2-0.4-0.5s-0.4-0.7-0.7-1.2c1.1-0.5,2.1-0.9,2.9-1.4s1.5-1.1,2.1-1.7c0.2-0.7,0.3-1.3,0.4-1.7s0.1-0.6,0.1-0.7
		c0-0.2,0-0.5-0.1-0.8c0-0.3-0.1-0.5-0.3-0.8c-0.2-0.4-0.4-0.6-0.6-0.8c-0.2-0.2-0.4-0.2-0.7-0.2c-0.2,0-0.4,0.1-0.6,0.3
		c-0.2,0.2-0.5,0.5-0.7,1c-0.4,0.7-0.6,1.3-0.6,1.7c0,0.2,0.1,0.6,0.2,1.1c0.1,0.5,0.3,1.3,0.6,2.4c-1.1-0.8-1.8-1.6-2.2-2.2
		s-0.6-1.3-0.6-1.9c0-1,0.4-1.8,1.1-2.5c0.8-0.7,1.7-1,2.7-1c1,0,2,0.4,2.9,1.1c0.9,0.7,1.4,1.5,1.4,2.5c0,1.6-0.8,2.9-2.5,4.1
		c-0.4,0.2-0.9,0.5-1.4,0.8c-0.5,0.3-1.1,0.7-1.7,1.1c0.3,0.6,0.6,1.1,1.1,1.6c0.5,0.4,1,0.8,1.7,1.2l4,1.4v-13.7h5.1v1.7H266.3z"/>
	<path class="st4" d="M281.7,126.6h-0.2c-0.1,0-0.2,0-0.3,0c-0.1,0-0.2,0-0.4,0c-0.3,0-0.6,0-1,0c-0.4,0-0.8,0-1.2,0
		c-0.8,0-1.5,0-2.3,0c-0.7,0-1.3,0-1.6,0v-1.7h22.7v1.7h-13.2v0.5c0.6,0.2,1.2,0.5,1.9,0.7c0.7,0.2,1.4,0.5,2.1,0.8
		c0.7,0.2,1.5,0.4,2.2,0.5c0.7,0.1,1.4,0.1,2.1,0.1c0.3,0,0.7,0,1-0.1c0.4-0.1,0.8-0.1,1.4-0.3l1.3,1.9c-0.8,0.6-1.4,1.1-1.9,1.5
		s-0.8,0.8-1,1c-0.6,0.8-0.9,1.8-0.9,3.1c0,0,0,0.1,0,0.2c0,0.1,0,0.4,0.1,0.7c0,0.3,0.1,0.8,0.2,1.3c0.1,0.6,0.2,1.3,0.3,2.1
		c-0.4-0.8-0.7-1.4-0.9-2c-0.2-0.6-0.4-1-0.6-1.5s-0.2-0.8-0.3-1.1c0-0.3-0.1-0.6-0.1-1c0-1.3,0.3-2.5,0.9-3.4
		c0.1-0.1,0.2-0.2,0.3-0.4c0.1-0.2,0.3-0.4,0.4-0.7c-1.6-0.2-3-0.4-4.4-0.8c-1.4-0.4-2.7-1-4.1-1.7v4c0,0.4,0.2,0.7,0.5,1
		c0.4,0.3,0.8,0.4,1.3,0.4c0.5,0,0.9-0.1,1.2-0.4c0.1-0.1,0.2-0.2,0.3-0.4c0.1-0.2,0.2-0.4,0.4-0.6l0-1.6l2.5,0.2c0,0.4,0,0.8,0,1.2
		c0,0.4,0,0.7,0,1.1c0,1.6-0.4,3.1-1.2,4.5c-1.1,1.8-2.6,2.6-4.6,2.6c-2.3,0-4.3-1.3-5.9-3.8c-0.6-0.9-1.1-1.9-1.4-2.9
		c-0.4-1-0.7-2.1-0.9-3.4l3.2-0.4c0,0.4,0,0.7,0,0.9c0,0.2,0,0.4,0,0.5c0,1.6,0.4,3.3,1.1,5.1c0.5,1.2,1.1,2,1.7,2.6
		c0.6,0.6,1.3,0.8,2.1,0.8c1.2,0,2.1-0.7,2.8-2c0.5-1,0.8-2.1,0.8-3.2c0-0.1,0-0.2,0-0.3s0-0.2,0-0.4c-1,0.8-1.9,1.2-2.8,1.2
		c-0.9,0-1.6-0.3-2.3-0.8c-0.7-0.6-1.1-1.2-1.1-2V126.6z"/>
	<path class="st4" d="M308.8,126.6v13.3h1.2v0.6h-4.6l0-0.6l0.9-0.1V134c-0.3-0.7-0.7-1.2-1.1-1.5c-0.4-0.3-0.8-0.4-1.3-0.4
		c-1,0-1.8,0.3-2.4,0.8c-0.6,0.5-0.9,1.3-0.9,2.2c0,0.3,0,0.6,0.1,0.9c0,0.3,0.1,0.6,0.2,1c0.1,0.4,0.3,0.8,0.5,1.2
		c0.2,0.5,0.5,1,0.8,1.6c-0.4-0.4-0.8-0.7-1.1-0.9c-0.3-0.3-0.6-0.5-0.8-0.7c-0.2-0.2-0.4-0.3-0.6-0.5c-0.2-0.1-0.3-0.3-0.5-0.4
		c-0.8-0.7-1.1-1.6-1.1-2.8c0-1,0.8-2,2.3-2.9c-0.1-0.1-0.2-0.2-0.4-0.2c-0.1-0.1-0.3-0.2-0.4-0.3c-1.1-0.7-1.7-1.5-1.7-2.4
		c0-0.4,0.1-0.8,0.4-1.1c0.3-0.3,0.7-0.6,1.3-1h-3.1v-1.7h15.2v1.7H308.8z M306.2,126.6h-4c-0.2,0.2-0.5,0.3-0.7,0.4
		c-0.2,0.1-0.5,0.3-0.7,0.4c-0.4,0.4-0.7,0.8-0.7,1.2c0,0.4,0.1,0.8,0.3,1.3c0.1,0.2,0.2,0.3,0.3,0.5c0.1,0.2,0.2,0.4,0.3,0.6
		c0.7-0.2,1.3-0.3,1.9-0.3c0.5,0,1,0.1,1.5,0.4c0.5,0.3,1.1,0.6,1.7,1.1V126.6z"/>
	<path class="st4" d="M315.1,126.6v13.2h1.2l-0.1,0.6h-4.7l0.1-0.6h1v-13.2h-2v-1.7h7c0,0.3,0,0.6,0,0.8c0,0.2,0,0.5,0,0.9H315.1z"
		/>
	<path class="st4" d="M337.8,123.2l0.6-0.1v0.8c-0.7-0.3-1.3-0.5-2-0.6c-0.6-0.2-1.3-0.3-2-0.4c-0.8-0.2-1.5-0.3-2.1-0.4
		c-0.6-0.1-1.2-0.1-1.7-0.1c-1.1,0-1.9,0.1-2.4,0.3c-0.5,0.2-0.7,0.5-0.7,0.9v1.2h3.1v1.7h-2.8v13.3h0.5v0.6h-3.9v-0.6h0.9v-13.3
		h-2.8v-1.7h2.8v0c0-1.3,0.2-2.3,0.7-2.9c0.6-0.8,1.6-1.2,2.9-1.2c0.6,0,1.3,0.1,2,0.2c0.8,0.2,1.7,0.4,2.7,0.7
		c0.8,0.2,1.5,0.5,2.1,0.7C336.6,122.6,337.2,122.9,337.8,123.2L337.8,123.2z"/>
	<path class="st4" d="M334.6,126.6v8c0.4-0.5,0.8-1,1.2-1.4c0.4-0.4,0.8-0.8,1.2-1.2l3.2-2.9c0.2,0.1,0.4,0.3,0.5,0.4
		c0.2,0.1,0.3,0.3,0.5,0.4c0.1,0.1,0.2,0.2,0.3,0.2s0.2,0.2,0.3,0.2l0.3,0.3v9.2h1.4v0.8h-5.1v-0.8l1.1,0v-8.5
		c-0.4,0.4-0.8,0.9-1.2,1.4c-0.5,0.5-1,1.1-1.5,1.8c-0.5,0.6-1,1.2-1.4,1.8c-0.4,0.6-0.8,1.2-1.1,2l-2.3-1.5v-10.1h-2.3v-1.7h15.9
		v1.7H334.6z"/>
	<path class="st4" d="M350.8,126.6c-0.7,0.5-1.3,1-1.7,1.5c-0.5,0.5-0.8,0.9-1.1,1.3c-0.6,1.1-1,2.3-1,3.8c0,0.5,0,1,0.1,1.5
		s0.2,1.1,0.5,1.7c0.2,0.6,0.5,1.3,0.9,2.1c0.4,0.8,0.9,1.7,1.5,2.7c-0.7-0.7-1.3-1.4-1.8-1.9s-0.9-0.9-1.2-1.3
		c-0.3-0.4-0.6-0.7-0.7-0.9c-0.2-0.2-0.3-0.5-0.5-0.7c-0.8-1.3-1.1-2.8-1.1-4.5c0-0.5,0-1,0.1-1.4c0.1-0.4,0.2-0.8,0.4-1.2
		c0.2-0.4,0.5-0.9,0.9-1.3c0.4-0.4,0.9-0.9,1.5-1.4h-4.1c0-0.3,0-0.5,0-0.6c0-0.1,0-0.2,0-0.3s0-0.2,0-0.3c0-0.1,0-0.3,0-0.5h8.9
		v1.7H350.8z"/>
	<path class="st4" d="M364.2,126.6c0.9,0.7,1.5,1.6,1.9,2.6c0.4,1,0.6,2.3,0.6,3.7c0,1.8-0.5,3.4-1.4,4.7c-1.2,1.7-2.8,2.5-5,2.5
		c-1,0-1.9-0.3-2.7-0.8c-1.4-0.9-2.4-1.9-2.9-2.7c-0.5-0.7-1.1-2-1.7-3.9c-0.1-0.4-0.3-1-0.4-1.9c-0.1-0.4-0.1-0.7-0.2-1
		c-0.1-0.3-0.2-0.7-0.4-1.1l3.6-0.3c-0.1,0.6-0.1,1.1-0.1,1.5c0,0.4,0,0.7,0,1c0,0.9,0.1,1.7,0.2,2.6c0.2,0.8,0.4,1.7,0.7,2.5
		c0.5,1.1,1,2,1.6,2.5s1.4,0.8,2.2,0.8c1.4,0,2.5-0.9,3.2-2.7c0.5-1.3,0.7-2.6,0.7-4.1c0-1.2-0.1-2.4-0.4-3.5
		c-0.2-0.8-0.5-1.4-0.8-1.8s-0.6-0.5-1-0.5c-0.3,0-0.7,0.2-1,0.5c-0.3,0.3-0.6,0.9-0.8,1.7c-0.3,1.1-0.5,2.1-0.5,3
		c0,0.4,0,0.8,0.1,1.2c0.1,0.4,0.3,1,0.6,1.6c-0.6-0.3-1.1-0.6-1.4-0.9c-0.4-0.3-0.7-0.6-1-1c-0.2-0.3-0.4-0.7-0.5-1
		s-0.2-0.7-0.2-1.1c0-0.9,0.2-1.6,0.5-2.3c0.3-0.7,0.8-1.3,1.6-1.8H351v-1.7h17.5c0,0.1,0,0.2,0,0.3c0,0.1,0,0.2,0,0.3
		c0,0.1,0,0.3,0,0.4c0,0.2,0,0.4,0,0.7H364.2z"/>
	<path class="st4" d="M388.5,126.6v13.2h1.1v0.6H386v-8.8l-0.3-0.3l-5.6,3.9c-0.2-0.1-0.4-0.2-0.6-0.3s-0.4-0.2-0.7-0.4
		c-0.2-0.2-0.5-0.3-0.8-0.6c-0.3-0.2-0.7-0.5-1.2-0.8l2.1,0.5c0.3-0.2,0.6-0.4,0.9-0.6c0.3-0.2,0.6-0.4,0.9-0.7c0.1-0.4,0-0.8-0.2-1
		c-0.3-0.2-0.7-0.4-1.2-0.4c-0.3,0-0.7,0.1-1.3,0.4c-0.6,0.3-1,0.4-1.2,0.4c-1.1,0-1.6-0.5-1.5-1.6c0-1.5,0.6-2.7,1.8-3.5
		c1.1-0.7,2.4-1.1,4.1-1.1c1.1,0,2,0.2,2.8,0.5c0.3,0.1,0.6,0.3,0.9,0.5c0.3,0.2,0.7,0.5,1.1,0.8v-2.3h5.1v1.7H388.5z M385.5,128.6
		c-1.3-1.1-2.8-1.7-4.5-1.7c-0.3,0-0.7,0-1.2,0.1c-0.4,0.1-0.8,0.2-1.2,0.4c-0.4,0.2-0.7,0.4-0.9,0.6s-0.4,0.5-0.4,0.8
		c0,0.1,0.1,0.2,0.2,0.3c0.2,0.1,0.3,0.2,0.5,0.2c0.1,0,0.2,0,0.3-0.1c0.1,0,0.1-0.1,0.2-0.1c0.1,0,0.1,0,0.2-0.1
		c0.2-0.1,0.4-0.1,0.6-0.1c0.2,0,0.3,0,0.5,0c0.5,0.1,0.9,0.3,1.2,0.5c0.2,0.2,0.4,0.6,0.5,1.2c0,0.3,0.2,0.4,0.4,0.5l2.2-1.7
		c0.2,0.1,0.4,0.2,0.6,0.2c0.1,0,0.3,0.1,0.4,0.1l0.4,0.1V128.6z"/>
	<path class="st4" d="M394.8,126.6v13.2h1.2l-0.1,0.6h-4.7l0.1-0.6h1v-13.2h-2v-1.7h7c0,0.3,0,0.6,0,0.8c0,0.2,0,0.5,0,0.9H394.8z"
		/>
	<path class="st4" d="M407,126.6v13.5c-0.6-0.4-1.2-0.8-1.6-1.1c-0.5-0.3-1-0.6-1.5-0.9c-0.8-0.4-1.5-0.8-2-1.1
		c-0.5-0.3-0.8-0.5-1-0.6c-1.2-0.8-2.1-1.6-2.7-2.4c-0.6-0.8-0.9-1.6-0.9-2.5c0-1.4,0.9-2.5,2.8-3.4h4.3v-1.6h-8.8v-1.7H410v1.7
		c-0.3,0-0.5,0-0.6,0s-0.3,0-0.4,0H407z M400.6,139.1c-0.3,0.2-0.8,0.3-1.2,0.3c-0.5,0-0.9-0.1-1.2-0.3c-0.4-0.3-0.6-0.6-0.6-1
		c0-0.4,0.2-0.7,0.5-0.9c0.3-0.3,0.7-0.4,1.1-0.4c0.7,0,1.2,0.1,1.6,0.3s0.6,0.6,0.6,1.1C401.3,138.5,401,138.8,400.6,139.1z
		 M404.5,129.2h-2.8c-1.1,0.7-1.7,1.6-1.7,2.7c0,0.8,0.5,1.6,1.6,2.6c0.3,0.2,0.6,0.5,1.1,0.8s1.1,0.7,1.8,1.2V129.2z"/>
	<path class="st4" d="M415.8,126.6c-0.7,0.5-1.3,1-1.7,1.5c-0.5,0.5-0.8,0.9-1.1,1.3c-0.6,1.1-1,2.3-1,3.8c0,0.5,0,1,0.1,1.5
		c0.1,0.5,0.2,1.1,0.5,1.7c0.2,0.6,0.5,1.3,0.9,2.1s0.9,1.7,1.5,2.7c-0.7-0.7-1.3-1.4-1.8-1.9c-0.5-0.5-0.9-0.9-1.2-1.3
		c-0.3-0.4-0.6-0.7-0.7-0.9c-0.2-0.2-0.3-0.5-0.5-0.7c-0.8-1.3-1.1-2.8-1.1-4.5c0-0.5,0-1,0.1-1.4c0.1-0.4,0.2-0.8,0.4-1.2
		c0.2-0.4,0.5-0.9,0.9-1.3c0.4-0.4,0.9-0.9,1.5-1.4h-4.1c0-0.3,0-0.5,0-0.6c0-0.1,0-0.2,0-0.3s0-0.2,0-0.3c0-0.1,0-0.3,0-0.5h8.9
		v1.7H415.8z"/>
	<path class="st4" d="M427.3,140.1c-0.6-0.4-1.1-0.8-1.6-1.1s-1-0.6-1.6-1c-1.4-0.8-2.4-1.4-3-1.8c-2.3-1.6-3.5-3.3-3.5-5
		c0-1.4,0.9-2.5,2.8-3.3h4.3v-1.3H416v-1.7h14.3v1.7c-0.2,0-0.4,0-0.7,0c-0.3,0-0.6,0-0.8,0s-0.6,0-0.8,0c-0.3,0-0.5,0-0.7,0V140.1z
		 M424.8,128.9H422c-1.1,0.7-1.7,1.6-1.7,2.7c0,0.6,0.4,1.3,1.1,2.1c0.7,0.8,1.9,1.7,3.4,2.8V128.9z"/>
	<path class="st4" d="M440.5,126.6v13.2h1.2v0.6h-4.5l-0.1-0.6h0.9V131l-2.4-1.4c-1,0.2-1.6,0.5-1.9,0.7c-0.5,0.4-0.8,1-0.8,1.8v0.1
		c0,0.1,0,0.2,0,0.3c0,0.1,0,0.2,0,0.3v0.7c0,0.3,0,0.7,0.1,1.1c0.1,0.4,0.2,0.8,0.4,1.1c0,0,0.1,0.1,0.1,0.2
		c0.1,0.1,0.2,0.3,0.3,0.5c0.1,0.2,0.3,0.5,0.5,0.9c0.2,0.4,0.5,0.9,0.9,1.6c-0.5-0.5-1-1-1.4-1.4c-0.4-0.4-0.7-0.7-0.9-0.9
		c-0.3-0.3-0.5-0.5-0.7-0.7c-0.2-0.2-0.4-0.4-0.6-0.6c-0.8-0.8-1.2-2-1.2-3.4c0-1.2,0.7-2.2,2-3c0.7-0.4,1.4-0.7,2-0.7
		c0.6,0,0.9,0,1.2,0c0.6,0.1,1.3,0.5,1.9,1.1l0.3,0.3v-3.2h-9v-1.7h14.4v1.7H440.5z"/>
	<path class="st4" d="M442.5,144.1c0.8-0.6,1.4-1.2,2-1.7s0.9-0.9,1.2-1.3s0.5-0.7,0.6-1c0.1-0.3,0.2-0.6,0.2-0.9
		c0-0.5-0.2-1.1-0.6-1.8c0,0-0.2-0.2-0.4-0.5c-0.2-0.3-0.6-0.8-1.1-1.5l3.3,0c0.9,1.6,1.4,2.7,1.4,3.3c0,0.5-0.1,1-0.3,1.4
		c-0.2,0.4-0.6,0.9-1.1,1.3s-1.2,0.8-2,1.2C444.7,143.3,443.7,143.7,442.5,144.1z"/>
	<path class="st4" d="M464,142c-0.6,0.4-1.2,0.7-1.8,0.9s-1.1,0.3-1.5,0.3c-1,0-1.8-0.4-2.5-1.1c-0.7-0.7-1-1.5-1-2.4
		c0-0.8,0.2-1.6,0.5-2.4c0.2-0.6,0.5-1,0.8-1.3c0.3-0.3,0.7-0.5,1.1-0.5c0.7,0,1.3,0.3,1.7,1c0.4,0.6,0.6,1.2,0.6,1.8
		c0,1.2-0.8,2.5-2.4,3.7c0.3,0.2,0.5,0.3,0.7,0.4s0.3,0.1,0.5,0.1c0.5-0.1,1.1-0.5,1.8-1.1c0.7-0.6,1.2-1.2,1.3-1.7
		c0.3-0.8,0.5-2,0.5-3.7c0-1.7-0.4-3-1.1-4.2c-0.2-0.3-0.6-0.7-1.1-1.3c-0.5-0.5-1.1-1.2-2-1.9c-0.6-0.6-1.1-1.2-1.5-1.8
		c-0.4-0.6-0.6-1.3-0.7-2l2.5-0.1c0.1,0.9,0.3,1.6,0.5,2.1c0.2,0.5,0.4,0.9,0.6,1.1c0.3,0.3,0.7,0.6,1.2,1c0.3,0.2,0.6,0.4,0.9,0.6
		c0.2,0.2,0.4,0.3,0.5,0.3c2,1.7,2.9,3.5,2.9,5.7C467,138.6,466,140.7,464,142z"/>
	<path class="st4" d="M476.8,144.1c-0.7,0.6-1.3,1-1.8,1c-1.9,0-3.4-1.3-4.2-3.8c-0.3-0.8-0.5-1.7-0.7-2.6c-0.1-0.9-0.2-1.9-0.2-2.9
		c0-1.8,0.3-3.5,0.9-5c0.4-1.1,1-2,1.6-2.6c0.7-0.6,1.5-0.9,2.4-0.9c0.8,0,1.5,0.4,2.1,1.1s1.1,1.8,1.6,3.2c0.7,2.1,1,4,1,5.6
		C479.5,140.2,478.6,142.5,476.8,144.1z M477.6,132.2c-0.4-0.9-0.8-1.6-1.4-2c-0.5-0.4-1.1-0.6-1.7-0.6l0.2-0.1
		c-0.7,0.1-1.4,0.3-1.8,0.8c-0.5,0.4-0.9,1.1-1.2,2c-0.5,1.3-0.7,2.6-0.7,4c0,1.1,0.3,2.4,0.9,3.9c0.4,0.9,0.9,1.6,1.3,2
		c0.5,0.4,1,0.6,1.5,0.6c0.6,0,1.1-0.2,1.5-0.7c0.5-0.4,0.9-1.1,1.3-2.1c0.6-1.5,0.9-2.8,0.9-3.9c0-0.6-0.1-1.2-0.2-1.9
		C478.1,133.7,477.9,133,477.6,132.2z"/>
	<path class="st4" d="M489.7,144.1c-0.7,0.6-1.3,1-1.8,1c-1.9,0-3.4-1.3-4.2-3.8c-0.3-0.8-0.5-1.7-0.7-2.6c-0.1-0.9-0.2-1.9-0.2-2.9
		c0-1.8,0.3-3.5,0.9-5c0.4-1.1,1-2,1.6-2.6c0.7-0.6,1.5-0.9,2.4-0.9c0.8,0,1.5,0.4,2.1,1.1s1.1,1.8,1.6,3.2c0.7,2.1,1,4,1,5.6
		C492.5,140.2,491.5,142.5,489.7,144.1z M490.5,132.2c-0.4-0.9-0.8-1.6-1.4-2c-0.5-0.4-1.1-0.6-1.7-0.6l0.2-0.1
		c-0.7,0.1-1.4,0.3-1.8,0.8c-0.5,0.4-0.9,1.1-1.2,2c-0.5,1.3-0.7,2.6-0.7,4c0,1.1,0.3,2.4,0.9,3.9c0.4,0.9,0.9,1.6,1.3,2
		c0.5,0.4,1,0.6,1.5,0.6c0.6,0,1.1-0.2,1.5-0.7c0.5-0.4,0.9-1.1,1.3-2.1c0.6-1.5,0.9-2.8,0.9-3.9c0-0.6-0.1-1.2-0.2-1.9
		C491,133.7,490.8,133,490.5,132.2z"/>
	<path class="st4" d="M502.6,144.1c-0.7,0.6-1.3,1-1.8,1c-1.9,0-3.4-1.3-4.2-3.8c-0.3-0.8-0.5-1.7-0.7-2.6c-0.1-0.9-0.2-1.9-0.2-2.9
		c0-1.8,0.3-3.5,0.9-5c0.4-1.1,1-2,1.6-2.6c0.7-0.6,1.5-0.9,2.4-0.9c0.8,0,1.5,0.4,2.1,1.1s1.1,1.8,1.6,3.2c0.7,2.1,1,4,1,5.6
		C505.4,140.2,504.5,142.5,502.6,144.1z M503.4,132.2c-0.4-0.9-0.8-1.6-1.4-2c-0.5-0.4-1.1-0.6-1.7-0.6l0.2-0.1
		c-0.7,0.1-1.4,0.3-1.8,0.8c-0.5,0.4-0.9,1.1-1.2,2c-0.5,1.3-0.7,2.6-0.7,4c0,1.1,0.3,2.4,0.9,3.9c0.4,0.9,0.9,1.6,1.3,2
		c0.5,0.4,1,0.6,1.5,0.6c0.6,0,1.1-0.2,1.5-0.7c0.5-0.4,0.9-1.1,1.3-2.1c0.6-1.5,0.9-2.8,0.9-3.9c0-0.6-0.1-1.2-0.2-1.9
		C504,133.7,503.7,133,503.4,132.2z"/>
	<path class="st4" d="M517,126.6V138c0,0.2,0.1,0.3,0.3,0.4c0.2,0.1,0.4,0.3,0.6,0.4c1.1-0.6,2-1.8,2.7-3.5c0.6-1.5,0.8-2.9,0.8-4.3
		c0-0.4,0-0.6-0.1-0.7c-0.1-0.1-0.2-0.2-0.4-0.2c-0.1,0-0.3,0.1-0.6,0.2s-0.6,0.3-1.1,0.6l-0.8-0.3l3.3-1.9l1.9,0.9v0.5
		c0,2.1-0.5,4-1.5,5.6s-2.5,3-4.6,4.2c-0.3-0.1-0.7-0.3-1.2-0.7c-0.5-0.3-1.1-0.8-1.8-1.4v-11.5h-1.8v-1.7h8.7c0-0.1,0-0.2,0-0.3
		c0-0.1,0-0.2,0-0.4c0-0.4,0.1-0.6,0.1-0.8c0-0.4-0.3-0.7-0.8-0.9c-0.4-0.2-0.9-0.3-1.4-0.3c-1.4,0-3.2,0.3-5.6,0.8l-0.2-0.5
		c2.6-1.1,5-1.6,7.1-1.6c1.4,0,2.4,0.6,3.1,1.8v2.2h2.8v1.7H517z"/>
	<path class="st4" d="M529.6,126.6v13.2h1.2l-0.1,0.6H526l0.1-0.6h1v-13.2h-2v-1.7h7c0,0.3,0,0.6,0,0.8c0,0.2,0,0.5,0,0.9H529.6z"/>
	<path class="st4" d="M542.5,126.6v2.3h0.9c1.4,0,2.5,0.1,3,0.4c0.8,0.4,1.2,1.1,1.2,2.2c0,0.7-0.4,1.7-1.3,2.8
		c-0.1,0.2-0.3,0.4-0.5,0.6c-0.2,0.2-0.4,0.4-0.6,0.7c-0.2,0.3-0.5,0.5-0.9,0.9c-0.4,0.3-0.8,0.7-1.3,1.2c0.4-0.8,0.8-1.6,1.1-2.2
		c0.3-0.6,0.5-1.2,0.7-1.7s0.3-1,0.4-1.4c0.1-0.4,0.1-0.8,0.1-1.2s-0.1-0.7-0.3-0.9c-0.1-0.1-0.2-0.2-0.3-0.3
		c-0.1-0.1-0.3-0.2-0.5-0.4h-1.7v10.5c-3.2-1.5-5.6-3-7.1-4.5c-1.5-1.4-2.3-2.9-2.3-4.4c0-1.1,0.6-1.8,1.8-2.2
		c0.3-0.1,0.7-0.2,1.3-0.2s1.1,0,1.8,0l2,0v-2.3h-9.7v-1.7h19.3v1.7H542.5z M540,129.7h-2.4c-0.6,0.2-1,0.5-1.3,0.9
		c-0.1,0.2-0.2,0.4-0.2,0.6c-0.1,0.2-0.1,0.5-0.1,0.9c0,1,0.5,2.1,1.4,3.3c0.7,0.9,1.6,1.7,2.6,2.3V129.7z"/>
	<path class="st4" d="M552.1,126.6v13.2h1.2l-0.1,0.6h-4.7l0.1-0.6h1v-13.2h-2v-1.7h7c0,0.3,0,0.6,0,0.8c0,0.2,0,0.5,0,0.9H552.1z"
		/>
	<path class="st4" d="M566.6,126.6h-0.2c-0.1,0-0.2,0-0.3,0c-0.1,0-0.2,0-0.4,0c-0.3,0-0.6,0-1,0c-0.4,0-0.8,0-1.2,0
		c-0.8,0-1.5,0-2.3,0c-0.7,0-1.3,0-1.6,0v-1.7h22.7v1.7h-13.2v0.5c0.6,0.2,1.2,0.5,1.9,0.7c0.7,0.2,1.4,0.5,2.1,0.8
		c0.7,0.2,1.5,0.4,2.2,0.5c0.7,0.1,1.4,0.1,2.1,0.1c0.3,0,0.7,0,1-0.1c0.4-0.1,0.8-0.1,1.4-0.3l1.3,1.9c-0.8,0.6-1.4,1.1-1.9,1.5
		c-0.5,0.4-0.8,0.8-1,1c-0.6,0.8-0.9,1.8-0.9,3.1c0,0,0,0.1,0,0.2c0,0.1,0,0.4,0.1,0.7c0,0.3,0.1,0.8,0.2,1.3
		c0.1,0.6,0.2,1.3,0.3,2.1c-0.4-0.8-0.7-1.4-0.9-2s-0.4-1-0.6-1.5c-0.1-0.4-0.2-0.8-0.3-1.1c0-0.3-0.1-0.6-0.1-1
		c0-1.3,0.3-2.5,0.9-3.4c0.1-0.1,0.2-0.2,0.3-0.4c0.1-0.2,0.3-0.4,0.4-0.7c-1.6-0.2-3-0.4-4.4-0.8s-2.7-1-4.1-1.7v4
		c0,0.4,0.2,0.7,0.5,1c0.4,0.3,0.8,0.4,1.3,0.4s0.9-0.1,1.2-0.4c0.1-0.1,0.2-0.2,0.3-0.4c0.1-0.2,0.3-0.4,0.4-0.6l0-1.6l2.5,0.2
		c0,0.4,0,0.8,0,1.2c0,0.4,0,0.7,0,1.1c0,1.6-0.4,3.1-1.2,4.5c-1.1,1.8-2.6,2.6-4.6,2.6c-2.3,0-4.3-1.3-5.9-3.8
		c-0.6-0.9-1.1-1.9-1.4-2.9s-0.7-2.1-0.9-3.4l3.2-0.4c0,0.4,0,0.7,0,0.9c0,0.2,0,0.4,0,0.5c0,1.6,0.4,3.3,1.1,5.1
		c0.5,1.2,1.1,2,1.7,2.6c0.6,0.6,1.3,0.8,2.1,0.8c1.2,0,2.1-0.7,2.8-2c0.5-1,0.8-2.1,0.8-3.2c0-0.1,0-0.2,0-0.3s0-0.2,0-0.4
		c-1,0.8-1.9,1.2-2.8,1.2c-0.9,0-1.6-0.3-2.3-0.8c-0.7-0.6-1.1-1.2-1.1-2V126.6z"/>
	<path class="st4" d="M596.5,123.2l0.6-0.1v0.8c-0.7-0.3-1.3-0.5-2-0.6c-0.6-0.2-1.3-0.3-2-0.4c-0.8-0.2-1.5-0.3-2.1-0.4
		s-1.2-0.1-1.7-0.1c-1.1,0-1.9,0.1-2.4,0.3c-0.5,0.2-0.7,0.5-0.7,0.9v1.2h3.1v1.7h-2.8v13.3h0.5v0.6h-3.9v-0.6h0.9v-13.3h-2.8v-1.7
		h2.8v0c0-1.3,0.2-2.3,0.7-2.9c0.6-0.8,1.6-1.2,2.9-1.2c0.6,0,1.3,0.1,2,0.2c0.8,0.2,1.7,0.4,2.7,0.7c0.8,0.2,1.5,0.5,2.1,0.7
		C595.3,122.6,595.9,122.9,596.5,123.2L596.5,123.2z"/>
	<path class="st4" d="M599.7,126.6v13.5c-0.6-0.4-1.2-0.8-1.6-1.1c-0.5-0.3-1-0.6-1.5-0.9c-0.8-0.4-1.5-0.8-2-1.1
		c-0.5-0.3-0.8-0.5-1-0.6c-1.2-0.8-2.1-1.6-2.7-2.4c-0.6-0.8-0.9-1.6-0.9-2.5c0-1.4,0.9-2.5,2.8-3.4h4.3v-1.6h-8.8v-1.7h14.2v1.7
		c-0.3,0-0.5,0-0.6,0s-0.3,0-0.4,0H599.7z M593.3,139.1c-0.3,0.2-0.8,0.3-1.2,0.3c-0.5,0-0.9-0.1-1.2-0.3c-0.4-0.3-0.6-0.6-0.6-1
		c0-0.4,0.2-0.7,0.5-0.9c0.3-0.3,0.7-0.4,1.1-0.4c0.7,0,1.2,0.1,1.6,0.3s0.6,0.6,0.6,1.1C594,138.5,593.8,138.8,593.3,139.1z
		 M597.2,129.2h-2.8c-1.1,0.7-1.7,1.6-1.7,2.7c0,0.8,0.5,1.6,1.6,2.6c0.3,0.2,0.6,0.5,1.1,0.8s1.1,0.7,1.8,1.2V129.2z"/>
	<path class="st4" d="M613.8,126.6v13.3h1.2v0.6h-4.6l0-0.6l0.9-0.1V134c-0.3-0.7-0.7-1.2-1.1-1.5c-0.4-0.3-0.8-0.4-1.3-0.4
		c-1,0-1.8,0.3-2.4,0.8c-0.6,0.5-0.9,1.3-0.9,2.2c0,0.3,0,0.6,0.1,0.9c0,0.3,0.1,0.6,0.2,1c0.1,0.4,0.3,0.8,0.5,1.2
		c0.2,0.5,0.5,1,0.8,1.6c-0.4-0.4-0.8-0.7-1.1-0.9c-0.3-0.3-0.6-0.5-0.8-0.7c-0.2-0.2-0.4-0.3-0.6-0.5c-0.2-0.1-0.3-0.3-0.5-0.4
		c-0.8-0.7-1.1-1.6-1.1-2.8c0-1,0.8-2,2.3-2.9c-0.1-0.1-0.2-0.2-0.4-0.2c-0.1-0.1-0.3-0.2-0.4-0.3c-1.1-0.7-1.7-1.5-1.7-2.4
		c0-0.4,0.1-0.8,0.4-1.1c0.3-0.3,0.7-0.6,1.3-1h-3.1v-1.7h15.2v1.7H613.8z M611.2,126.6h-4c-0.2,0.2-0.5,0.3-0.7,0.4
		c-0.2,0.1-0.5,0.3-0.7,0.4c-0.4,0.4-0.7,0.8-0.7,1.2c0,0.4,0.1,0.8,0.3,1.3c0.1,0.2,0.2,0.3,0.3,0.5c0.1,0.2,0.2,0.4,0.3,0.6
		c0.7-0.2,1.3-0.3,1.9-0.3c0.5,0,1,0.1,1.5,0.4c0.5,0.3,1.1,0.6,1.7,1.1V126.6z"/>
	<path class="st4" d="M620.1,126.6v13.2h1.2l-0.1,0.6h-4.7l0.1-0.6h1v-13.2h-2v-1.7h7c0,0.3,0,0.6,0,0.8c0,0.2,0,0.5,0,0.9H620.1z"
		/>
	<path class="st4" d="M632.4,126.6v13.2h1.2v0.6h-4.5l-0.1-0.6h0.9V131l-2.4-1.4c-1,0.2-1.6,0.5-1.9,0.7c-0.5,0.4-0.8,1-0.8,1.8v0.1
		c0,0.1,0,0.2,0,0.3c0,0.1,0,0.2,0,0.3v0.7c0,0.3,0,0.7,0.1,1.1c0.1,0.4,0.2,0.8,0.4,1.1c0,0,0.1,0.1,0.1,0.2
		c0.1,0.1,0.2,0.3,0.3,0.5c0.1,0.2,0.3,0.5,0.5,0.9c0.2,0.4,0.5,0.9,0.9,1.6c-0.5-0.5-1-1-1.4-1.4c-0.4-0.4-0.7-0.7-0.9-0.9
		c-0.3-0.3-0.5-0.5-0.7-0.7c-0.2-0.2-0.4-0.4-0.6-0.6c-0.8-0.8-1.2-2-1.2-3.4c0-1.2,0.7-2.2,2-3c0.7-0.4,1.4-0.7,2-0.7
		c0.6,0,0.9,0,1.2,0c0.6,0.1,1.3,0.5,1.9,1.1l0.3,0.3v-3.2h-9v-1.7h14.4v1.7H632.4z"/>
	<path class="st4" d="M638.6,126.6v13.2h1.2l-0.1,0.6H635l0.1-0.6h1v-13.2h-2v-1.7h7c0,0.3,0,0.6,0,0.8c0,0.2,0,0.5,0,0.9H638.6z"/>
	<path class="st4" d="M661.3,126.6v13.1h1v0.7h-4.6v-0.7h1v-7.1l-1.5-1.1c-0.3,0.3-0.7,0.7-1.1,1.1s-1,1-1.6,1.6
		c-0.7,0.7-1.3,1.2-1.8,1.6c-0.5,0.4-1,0.6-1.3,0.6c-0.5,0-1.1-0.1-1.6-0.3c-0.6-0.2-1.1-0.5-1.8-1l0.1-1.3c0.5,0.4,0.9,0.7,1.2,0.8
		c0.3,0.1,0.5,0.2,0.7,0.2c0.6,0,1.3-0.4,2.1-1.3c0.4-0.4,0.7-0.8,0.9-1.2c0.2-0.3,0.3-0.6,0.3-0.9c0-0.4-0.1-0.8-0.2-0.9
		c-0.2-0.2-0.4-0.3-0.7-0.3c-0.3,0-0.7,0.1-1.2,0.3l-1.3,0.6c-0.7-0.2-1.2-0.4-1.4-0.6c-0.3-0.3-0.5-0.7-0.5-1.3
		c0-0.4,0.4-1.3,1.3-2.7h-3.1v-1.7H664v1.7H661.3z M658.8,126.6H651c-0.2,0.2-0.3,0.4-0.5,0.7c-0.1,0.2-0.3,0.5-0.4,0.8
		c-0.1,0.2-0.1,0.3-0.1,0.5c0,0.1,0,0.2,0.1,0.3c0.1,0.1,0.2,0.1,0.5,0.1c0.3,0,0.7-0.1,1.3-0.3c0.3-0.1,0.6-0.2,0.8-0.2
		s0.4-0.1,0.6-0.1c0.5,0,0.9,0.2,1.1,0.6c0.2,0.4,0.3,0.9,0.3,1.6c0,0.1,0,0.3,0,0.4c0,0.2,0,0.3,0,0.6l2.5-1.8
		c0.3,0.1,0.6,0.3,0.8,0.5c0.3,0.2,0.6,0.4,1,0.7V126.6z"/>
	<path class="st4" d="M673.1,126.6c0.6,0.4,1.1,0.9,1.4,1.4c0.3,0.5,0.4,1,0.4,1.6c0,1.2-0.6,2.3-1.8,3.3c-1.2,0.9-3,1.8-5.4,2.5
		c0.5,1.5,1.3,2.6,2.3,3.6c0.3,0.3,0.8,0.6,1.4,1s1.4,0.9,2.4,1.5c0.1,0.1,0.3,0.2,0.4,0.2c0.1,0.1,0.2,0.2,0.3,0.2l-0.3,0.5
		c-1.1-0.6-2-1.1-2.8-1.5s-1.5-0.9-2.1-1.3c-0.9-0.6-1.7-1.3-2.4-2c-0.7-0.7-1.4-1.6-2.1-2.6c2.6-0.7,4.5-1.4,5.7-2.2
		c1.2-0.8,1.8-1.7,1.8-2.7c0-0.7-0.2-1.3-0.7-1.9c-0.5-0.7-1.1-1-1.7-1c-0.7,0-1.3,0.2-1.7,0.5c-0.5,0.3-0.8,0.8-0.8,1.4
		c0,0.2,0,0.5,0,0.7c0,0.2,0.1,0.5,0.2,0.7c0.1,0.3,0.2,0.6,0.4,0.9s0.4,0.7,0.7,1.1c-0.4-0.2-0.8-0.4-1.1-0.6
		c-0.3-0.2-0.6-0.3-0.8-0.4c-0.2-0.1-0.4-0.2-0.5-0.4c-0.1-0.1-0.2-0.2-0.3-0.3c-0.6-0.6-0.9-1.4-0.8-2.4c0-0.6,0.4-1.1,1.1-1.5
		c0,0,0.1-0.1,0.2-0.1c0.1,0,0.2-0.1,0.3-0.1h-3.6v-1.7h13.8v1.7H673.1z"/>
	<path class="st4" d="M682.4,140.2v-15.9h2.5v15.9H682.4z"/>
	<path class="st4" d="M177,159h-2.9v13.1h1.4v0.8h-5.1v-0.6h1.1v-3l-1.4-1c-0.6,1.3-1.3,2.3-2.3,2.9s-2.2,0.9-3.6,0.9
		c-1.3,0-2.5-0.4-3.7-1.1c-1.2-0.7-2.1-1.6-2.7-2.7c-0.6-1.1-1-2.2-1.4-3.2c-0.4-1-0.7-2.1-0.9-3.1l3.4-0.6c0.1,0.9,0.1,1.6,0.2,2.1
		c0,0.5,0.1,0.9,0.1,1.1c0.1,1.1,0.3,2,0.6,2.8c0.9,2.5,2.3,3.7,4.4,3.7c1.3,0,2.3-0.7,3-2.2c0.5-1,0.7-2.2,0.7-3.5
		c0-1.8-0.2-3.1-0.6-3.8c-0.3-0.4-0.7-0.9-1.2-1.4l-0.1-0.1c-0.1-0.1-0.2-0.2-0.3-0.2s-0.2-0.1-0.2-0.1c-0.3,0-0.6,0.1-0.8,0.4
		s-0.5,0.6-0.8,1.2c-0.4,0.9-0.6,1.6-0.6,2.3c0,0.2,0.1,0.5,0.2,1c0.1,0.5,0.3,1.4,0.6,2.5c-1.2-0.8-2-1.6-2.5-2.3
		c-0.5-0.7-0.7-1.5-0.7-2.3c0-1,0.5-1.9,1.5-2.9l0.7-0.7h-8.9c0-0.4,0-0.7,0-1s0-0.5,0-0.7h22.7L177,159z M171.7,159h-3.3l1,1.2
		c0.2,0.3,0.4,0.5,0.6,0.8c0.2,0.3,0.3,0.5,0.4,0.8c0.4,0.8,0.6,1.9,0.6,3.3c0,0.6-0.1,1.2-0.4,1.9l1.3,1.1V159z"/>
	<path class="st4" d="M187.4,159v13.2h1.2v0.6H184l-0.1-0.6h0.9v-8.7l-2.4-1.4c-1,0.2-1.6,0.5-1.9,0.7c-0.5,0.4-0.8,1-0.8,1.8v0.1
		c0,0.1,0,0.2,0,0.3c0,0.1,0,0.2,0,0.3v0.7c0,0.3,0,0.7,0.1,1.1c0.1,0.4,0.2,0.8,0.4,1.1c0,0,0.1,0.1,0.1,0.2
		c0.1,0.1,0.2,0.3,0.3,0.5c0.1,0.2,0.3,0.5,0.5,0.9s0.5,0.9,0.9,1.6c-0.5-0.5-1-1-1.4-1.4c-0.4-0.4-0.7-0.7-0.9-0.9
		c-0.3-0.3-0.5-0.5-0.7-0.7c-0.2-0.2-0.4-0.4-0.6-0.6c-0.8-0.8-1.2-2-1.2-3.4c0-1.2,0.7-2.2,2-3c0.7-0.4,1.4-0.7,2-0.7
		c0.6,0,0.9,0,1.2,0c0.6,0.1,1.3,0.5,1.9,1.1l0.3,0.3V159h-9v-1.7h14.4v1.7H187.4z"/>
	<path class="st4" d="M193.6,159c-0.3,0.3-0.4,0.5-0.6,0.8c-0.1,0.3-0.2,0.5-0.2,0.7c0,0.1,0,0.2,0.1,0.4c0.1,0.2,0.2,0.4,0.5,0.6
		c0.1,0.1,0.3,0.3,0.4,0.4s0.4,0.4,0.6,0.6c0.8,0.8,1.1,1.4,1.1,2c0,0.9-0.2,1.9-0.6,2.9c-0.4,1-1,2-1.7,3.1l-0.5-0.3
		c0.1-0.1,0.1-0.3,0.2-0.4c0.1-0.2,0.1-0.3,0.2-0.5c0.2-0.6,0.4-1.1,0.5-1.5c0.1-0.4,0.1-0.7,0.1-1c0-0.9-0.2-1.7-0.6-2.5
		c-0.1-0.3-0.5-0.8-1.1-1.6c-0.5-0.6-0.7-1.2-0.7-1.7c0-0.7,0.2-1.4,0.7-2H189v-1.7h8.1v1.7H193.6z"/>
	<path class="st4" d="M209.8,159c-0.7,0.5-1.3,1-1.7,1.5c-0.5,0.5-0.8,0.9-1.1,1.3c-0.3,0.5-0.6,1.1-0.7,1.7s-0.2,1.3-0.2,2.1
		c0,0.5,0,1,0.1,1.5c0.1,0.5,0.2,1.1,0.5,1.7c0.2,0.6,0.5,1.3,0.9,2.1c0.4,0.8,0.9,1.7,1.5,2.7c-0.7-0.7-1.3-1.4-1.8-1.9
		c-0.5-0.5-0.9-0.9-1.2-1.3c-0.3-0.4-0.6-0.7-0.7-0.9c-0.2-0.2-0.3-0.5-0.4-0.7c-0.8-1.3-1.2-2.8-1.2-4.5c0-0.7,0-1.2,0.1-1.7
		c0.1-0.5,0.2-0.9,0.3-1.2c0.9-1.9,2.6-3.2,4.8-4.1h2.6v1.7H209.8z"/>
	<path class="st4" d="M222.2,159v2.3h0.9c1.4,0,2.5,0.1,3,0.4c0.8,0.4,1.2,1.1,1.2,2.2c0,0.7-0.4,1.7-1.3,2.8
		c-0.1,0.2-0.3,0.4-0.5,0.6c-0.2,0.2-0.4,0.4-0.6,0.7c-0.2,0.3-0.5,0.5-0.9,0.9s-0.8,0.7-1.3,1.2c0.4-0.8,0.8-1.6,1.1-2.2
		c0.3-0.6,0.5-1.2,0.7-1.7c0.2-0.5,0.3-1,0.4-1.4c0.1-0.4,0.1-0.8,0.1-1.2c0-0.4-0.1-0.7-0.3-0.9c-0.1-0.1-0.2-0.2-0.3-0.3
		c-0.1-0.1-0.3-0.2-0.5-0.4h-1.7v10.5c-3.2-1.5-5.6-3-7.1-4.5c-1.5-1.4-2.3-2.9-2.3-4.4c0-1.1,0.6-1.8,1.8-2.2
		c0.3-0.1,0.7-0.2,1.3-0.2c0.5,0,1.1,0,1.8,0l2,0V159H210v-1.7h19.3v1.7H222.2z M219.6,162.2h-2.4c-0.6,0.2-1,0.5-1.3,0.8
		c-0.1,0.2-0.2,0.4-0.2,0.6s-0.1,0.5-0.1,0.9c0,1,0.5,2.1,1.4,3.3c0.7,0.9,1.6,1.7,2.6,2.3V162.2z"/>
	<path class="st4" d="M231.7,159v13.2h1.2l-0.1,0.6h-4.7l0.1-0.6h1V159h-2v-1.7h7c0,0.3,0,0.6,0,0.8c0,0.2,0,0.5,0,0.9H231.7z"/>
	<path class="st4" d="M244.1,159v13.2h1.2v0.6h-4.5l-0.1-0.6h0.9v-8.7l-2.4-1.4c-1,0.2-1.6,0.5-1.9,0.7c-0.5,0.4-0.8,1-0.8,1.8v0.1
		c0,0.1,0,0.2,0,0.3c0,0.1,0,0.2,0,0.3v0.7c0,0.3,0,0.7,0.1,1.1c0.1,0.4,0.2,0.8,0.4,1.1c0,0,0.1,0.1,0.1,0.2
		c0.1,0.1,0.2,0.3,0.3,0.5c0.1,0.2,0.3,0.5,0.5,0.9s0.5,0.9,0.9,1.6c-0.5-0.5-1-1-1.4-1.4c-0.4-0.4-0.7-0.7-0.9-0.9
		c-0.3-0.3-0.5-0.5-0.7-0.7c-0.2-0.2-0.4-0.4-0.6-0.6c-0.8-0.8-1.2-2-1.2-3.4c0-1.2,0.7-2.2,2-3c0.7-0.4,1.4-0.7,2-0.7
		c0.6,0,0.9,0,1.2,0c0.6,0.1,1.3,0.5,1.9,1.1l0.3,0.3V159h-9v-1.7H247v1.7H244.1z"/>
	<path class="st4" d="M265.6,159c0.9,0.7,1.5,1.6,1.9,2.6c0.4,1,0.6,2.3,0.6,3.7c0,1.8-0.5,3.4-1.4,4.7c-1.2,1.7-2.8,2.5-5,2.5
		c-1,0-1.9-0.3-2.7-0.8c-1.4-0.9-2.4-1.9-2.9-2.7c-0.5-0.7-1.1-2-1.7-3.9c-0.1-0.4-0.3-1-0.4-1.9c-0.1-0.4-0.1-0.7-0.2-1
		c-0.1-0.3-0.2-0.7-0.4-1.1l3.6-0.3c-0.1,0.6-0.1,1.1-0.1,1.5c0,0.4,0,0.7,0,1c0,0.9,0.1,1.7,0.2,2.5c0.2,0.8,0.4,1.7,0.7,2.5
		c0.5,1.1,1,2,1.6,2.5s1.4,0.8,2.2,0.8c1.4,0,2.5-0.9,3.2-2.7c0.5-1.3,0.7-2.6,0.7-4.1c0-1.2-0.1-2.4-0.4-3.5
		c-0.2-0.8-0.5-1.4-0.8-1.8c-0.3-0.4-0.6-0.5-1-0.5c-0.3,0-0.7,0.2-1,0.5c-0.3,0.3-0.6,0.9-0.8,1.7c-0.3,1.1-0.5,2.1-0.5,3
		c0,0.4,0,0.8,0.1,1.2c0.1,0.4,0.3,1,0.6,1.6c-0.6-0.3-1.1-0.6-1.4-0.9s-0.7-0.6-1-1s-0.4-0.7-0.5-1c-0.1-0.4-0.2-0.7-0.2-1.1
		c0-0.9,0.2-1.7,0.5-2.3c0.3-0.7,0.8-1.3,1.6-1.8h-8.1v-1.7h17.5c0,0.1,0,0.2,0,0.3c0,0.1,0,0.2,0,0.3s0,0.3,0,0.4
		c0,0.2,0,0.4,0,0.7H265.6z"/>
	<path class="st4" d="M281.5,159v13.5c-0.1,0-0.2,0-0.2,0s-0.1,0-0.1,0c-1.3,0-3.1-0.5-5.4-1.5c-2.4-1-4-1.9-4.8-2.8
		c-0.1-0.1-0.2-0.2-0.4-0.5c-0.2-0.3-0.4-0.7-0.7-1.2c1.1-0.5,2.1-0.9,2.9-1.4c0.8-0.5,1.5-1.1,2.1-1.7c0.2-0.7,0.3-1.3,0.4-1.7
		c0.1-0.4,0.1-0.6,0.1-0.7c0-0.2,0-0.5-0.1-0.8c0-0.3-0.1-0.5-0.3-0.8c-0.2-0.4-0.4-0.6-0.6-0.8c-0.2-0.2-0.4-0.2-0.7-0.2
		c-0.2,0-0.4,0.1-0.6,0.3c-0.2,0.2-0.5,0.5-0.7,1c-0.4,0.7-0.6,1.3-0.6,1.7c0,0.2,0.1,0.6,0.2,1.1c0.1,0.5,0.3,1.3,0.6,2.4
		c-1.1-0.8-1.8-1.6-2.2-2.2c-0.4-0.6-0.6-1.3-0.6-1.9c0-1,0.4-1.8,1.1-2.5c0.8-0.7,1.7-1,2.7-1c1,0,2,0.4,2.9,1.1
		c0.9,0.7,1.4,1.5,1.4,2.5c0,1.6-0.8,2.9-2.5,4.1c-0.4,0.2-0.9,0.5-1.4,0.8s-1.1,0.7-1.7,1.1c0.3,0.6,0.6,1.1,1.1,1.6
		c0.5,0.4,1,0.8,1.7,1.2l4,1.4v-13.7h5.1v1.7H281.5z"/>
	<path class="st4" d="M287.8,159c-0.3,0.3-0.4,0.5-0.6,0.8c-0.1,0.3-0.2,0.5-0.2,0.7c0,0.1,0,0.2,0.1,0.4c0.1,0.2,0.2,0.4,0.5,0.6
		c0.1,0.1,0.3,0.3,0.4,0.4s0.4,0.4,0.6,0.6c0.8,0.8,1.1,1.4,1.1,2c0,0.9-0.2,1.9-0.6,2.9c-0.4,1-1,2-1.7,3.1l-0.5-0.3
		c0.1-0.1,0.1-0.3,0.2-0.4c0.1-0.2,0.1-0.3,0.2-0.5c0.2-0.6,0.4-1.1,0.5-1.5c0.1-0.4,0.1-0.7,0.1-1c0-0.9-0.2-1.7-0.6-2.5
		c-0.1-0.3-0.5-0.8-1.1-1.6c-0.5-0.6-0.7-1.2-0.7-1.7c0-0.7,0.2-1.4,0.7-2h-3.2v-1.7h8.1v1.7H287.8z"/>
	<path class="st4" d="M311.2,159v13.2h1.1v0.6h-3.6V164l-0.3-0.3l-5.6,3.9c-0.2-0.1-0.4-0.2-0.6-0.3c-0.2-0.1-0.4-0.2-0.7-0.4
		c-0.2-0.2-0.5-0.3-0.8-0.6c-0.3-0.2-0.7-0.5-1.2-0.9l2.1,0.5c0.3-0.2,0.6-0.4,0.9-0.6c0.3-0.2,0.6-0.4,0.9-0.7c0.1-0.4,0-0.8-0.2-1
		c-0.3-0.2-0.7-0.4-1.2-0.4c-0.3,0-0.7,0.1-1.3,0.4c-0.6,0.3-1,0.4-1.2,0.4c-1.1,0-1.6-0.5-1.5-1.6c0-1.5,0.6-2.7,1.8-3.5
		c1.1-0.7,2.4-1.1,4.1-1.1c1.1,0,2,0.2,2.8,0.5c0.3,0.1,0.6,0.3,0.9,0.5c0.3,0.2,0.7,0.5,1.1,0.8v-2.3h5.1v1.7H311.2z M308.2,161.1
		c-1.3-1.1-2.8-1.7-4.5-1.7c-0.3,0-0.7,0-1.2,0.1c-0.4,0.1-0.8,0.2-1.2,0.4c-0.4,0.2-0.7,0.4-0.9,0.6c-0.3,0.2-0.4,0.5-0.4,0.8
		c0,0.1,0.1,0.2,0.2,0.3s0.3,0.2,0.5,0.2c0.1,0,0.2,0,0.3-0.1c0.1,0,0.1-0.1,0.2-0.1c0.1,0,0.1,0,0.2-0.1c0.2-0.1,0.4-0.1,0.6-0.1
		c0.2,0,0.3,0,0.5,0c0.5,0.1,0.9,0.3,1.2,0.5c0.2,0.2,0.4,0.6,0.5,1.2c0,0.3,0.2,0.4,0.4,0.5l2.2-1.7c0.2,0.1,0.4,0.2,0.6,0.2
		c0.1,0,0.3,0.1,0.4,0.1l0.4,0.1V161.1z"/>
	<path class="st4" d="M308.1,175.7l-0.2-0.4h0.9v-0.6c-0.7-0.6-1.4-0.9-2-0.9c-0.1,0-0.2,0.1-0.5,0.2s-0.6,0.3-1,0.5
		c-1,0.4-1.7,0.7-2.3,0.7c-1.5,0-2.7-0.6-3.5-1.8c-0.2-0.3-0.4-0.9-0.7-1.8c0-0.1-0.1-0.3-0.1-0.4c0-0.1-0.1-0.3-0.1-0.5
		c0-0.2-0.1-0.5-0.1-0.8c0-0.3-0.1-0.8-0.1-1.3c0.5,1,0.9,1.8,1.3,2.4s0.8,1.1,1.1,1.5c0.4,0.4,0.7,0.6,1.1,0.8s0.7,0.2,1.1,0.2
		c0.4,0,0.9-0.1,1.6-0.4s1.2-0.4,1.7-0.4c0.5,0,0.9,0,1.3,0.1l1.3,0.9v-2h2.5v4.1h-3.6v-0.3L308.1,175.7z"/>
	<path class="st4" d="M320,159c-0.7,0.5-1.3,1-1.7,1.5c-0.5,0.5-0.8,0.9-1.1,1.3c-0.6,1.1-1,2.3-1,3.8c0,0.5,0,1,0.1,1.5
		c0.1,0.5,0.2,1.1,0.5,1.7c0.2,0.6,0.5,1.3,0.9,2.1c0.4,0.8,0.9,1.7,1.5,2.7c-0.7-0.7-1.3-1.4-1.8-1.9s-0.9-0.9-1.2-1.3
		c-0.3-0.4-0.6-0.7-0.7-0.9c-0.2-0.2-0.3-0.5-0.5-0.7c-0.8-1.3-1.1-2.8-1.1-4.5c0-0.5,0-1,0.1-1.4s0.2-0.8,0.4-1.2
		c0.2-0.4,0.5-0.9,0.9-1.3c0.4-0.4,0.9-0.9,1.5-1.4h-4.1c0-0.3,0-0.5,0-0.6c0-0.1,0-0.2,0-0.3s0-0.2,0-0.3c0-0.1,0-0.3,0-0.5h8.9
		v1.7H320z"/>
	<path class="st4" d="M333.9,159v13.7c-0.6-0.3-1.2-0.6-1.7-0.9c-0.5-0.3-1.1-0.5-1.7-0.8c-0.8-0.4-1.4-0.7-2-0.9
		c-0.5-0.3-0.9-0.5-1.2-0.6c-1.1-0.6-2.1-1.4-3-2.2c-0.9-0.9-1.6-1.9-2.2-3.1l3.8-2.6c-0.5-0.6-0.9-1.1-1.4-1.5
		c-0.4-0.4-0.8-0.7-1.2-1h-3.2v-1.7h16.7v1.7H333.9z M327.6,172.5c-0.4,0.2-0.9,0.3-1.3,0.3s-0.9-0.1-1.3-0.4
		c-0.4-0.3-0.6-0.7-0.6-1.1s0.2-0.8,0.7-1c0.4-0.2,0.8-0.3,1.3-0.3c0.2,0,0.4,0,0.7,0.1c0.2,0,0.4,0.1,0.6,0.3
		c0.4,0.3,0.6,0.7,0.6,1.1C328.2,171.8,328,172.2,327.6,172.5z M331.4,159H327l1.8,2.8l-4,2.5c0.5,0.9,0.9,1.5,1.4,2.1
		c0.5,0.5,1,0.9,1.4,1.1c0.1,0,0.5,0.2,1.1,0.5s1.5,0.7,2.7,1.3V159z"/>
	<path class="st4" d="M340.2,159v13.2h1.2l-0.1,0.6h-4.7l0.1-0.6h1V159h-2v-1.7h7c0,0.3,0,0.6,0,0.8c0,0.2,0,0.5,0,0.9H340.2z"/>
	<path class="st4" d="M348,159.1h-0.2c-0.1,0-0.2,0-0.3,0c-0.1,0-0.2,0-0.4,0c-0.3,0-0.6,0-1,0c-0.4,0-0.8,0-1.2,0
		c-0.8,0-1.5,0-2.3,0c-0.7,0-1.3,0-1.6,0v-1.7h22.7v1.7h-13.2v0.5c0.6,0.2,1.2,0.5,1.9,0.7c0.7,0.2,1.4,0.5,2.1,0.8
		c0.7,0.2,1.5,0.4,2.2,0.5s1.4,0.1,2.1,0.1c0.3,0,0.7,0,1-0.1c0.4-0.1,0.8-0.1,1.4-0.3l1.3,1.9c-0.8,0.6-1.4,1.1-1.9,1.5
		c-0.5,0.4-0.8,0.8-1,1c-0.6,0.8-0.9,1.8-0.9,3.1c0,0,0,0.1,0,0.2c0,0.1,0,0.4,0.1,0.7c0,0.3,0.1,0.8,0.2,1.3
		c0.1,0.6,0.2,1.3,0.3,2.1c-0.4-0.8-0.7-1.4-0.9-2c-0.2-0.6-0.4-1-0.6-1.5s-0.2-0.8-0.3-1.1c0-0.3-0.1-0.6-0.1-1
		c0-1.3,0.3-2.5,0.9-3.4c0.1-0.1,0.2-0.2,0.3-0.4c0.1-0.2,0.3-0.4,0.4-0.7c-1.6-0.2-3-0.4-4.4-0.8c-1.4-0.4-2.7-1-4.1-1.7v4
		c0,0.4,0.2,0.7,0.5,1c0.4,0.3,0.8,0.4,1.3,0.4c0.5,0,0.9-0.1,1.2-0.4c0.1-0.1,0.2-0.2,0.3-0.4c0.1-0.2,0.2-0.4,0.4-0.6l0-1.6
		l2.5,0.2c0,0.4,0,0.8,0,1.2c0,0.4,0,0.7,0,1.1c0,1.6-0.4,3.1-1.2,4.5c-1.1,1.8-2.6,2.6-4.6,2.6c-2.3,0-4.3-1.3-5.9-3.8
		c-0.6-0.9-1.1-1.9-1.4-2.9c-0.4-1-0.7-2.1-0.9-3.4l3.2-0.4c0,0.4,0,0.7,0,0.9c0,0.2,0,0.4,0,0.5c0,1.6,0.4,3.3,1.1,5.1
		c0.5,1.2,1.1,2,1.7,2.6c0.6,0.6,1.3,0.8,2.1,0.8c1.2,0,2.1-0.7,2.8-2c0.5-1,0.8-2.1,0.8-3.2c0-0.1,0-0.2,0-0.3c0-0.1,0-0.2,0-0.4
		c-1,0.8-1.9,1.2-2.8,1.2c-0.9,0-1.6-0.3-2.3-0.8c-0.7-0.6-1.1-1.2-1.1-2V159.1z"/>
	<path class="st4" d="M374.2,159v13.2h1.2v0.6h-4.5l-0.1-0.6h0.9v-8.7l-2.4-1.4c-1,0.2-1.6,0.5-1.9,0.7c-0.5,0.4-0.8,1-0.8,1.8v0.1
		c0,0.1,0,0.2,0,0.3c0,0.1,0,0.2,0,0.3v0.7c0,0.3,0,0.7,0.1,1.1c0.1,0.4,0.2,0.8,0.4,1.1c0,0,0.1,0.1,0.1,0.2
		c0.1,0.1,0.2,0.3,0.3,0.5s0.3,0.5,0.5,0.9s0.5,0.9,0.9,1.6c-0.5-0.5-1-1-1.4-1.4c-0.4-0.4-0.7-0.7-0.9-0.9s-0.5-0.5-0.7-0.7
		c-0.2-0.2-0.4-0.4-0.6-0.6c-0.8-0.8-1.2-2-1.2-3.4c0-1.2,0.7-2.2,2-3c0.7-0.4,1.4-0.7,2-0.7c0.6,0,0.9,0,1.2,0
		c0.6,0.1,1.3,0.5,1.9,1.1l0.3,0.3V159h-9v-1.7h14.4v1.7H374.2z"/>
	<path class="st4" d="M392.7,159c0.6,0.4,1.1,0.9,1.4,1.4c0.3,0.5,0.4,1,0.4,1.6c0,1.2-0.6,2.3-1.8,3.3c-1.2,1-3,1.8-5.4,2.5
		c0.5,1.5,1.3,2.6,2.3,3.6c0.3,0.3,0.8,0.6,1.4,1s1.4,0.9,2.4,1.5c0.1,0.1,0.3,0.2,0.4,0.2c0.1,0.1,0.2,0.2,0.3,0.2l-0.3,0.5
		c-1.1-0.6-2-1.1-2.8-1.5c-0.8-0.5-1.5-0.9-2.1-1.3c-0.9-0.6-1.7-1.3-2.4-2c-0.7-0.7-1.4-1.6-2.1-2.5c2.6-0.7,4.5-1.4,5.7-2.2
		c1.2-0.8,1.8-1.7,1.8-2.7c0-0.7-0.2-1.3-0.7-1.9c-0.5-0.7-1.1-1-1.7-1c-0.7,0-1.3,0.2-1.7,0.5c-0.5,0.3-0.8,0.8-0.8,1.4
		c0,0.2,0,0.5,0,0.7c0,0.2,0.1,0.5,0.2,0.7c0.1,0.3,0.2,0.6,0.4,0.9c0.2,0.3,0.4,0.7,0.7,1.1c-0.4-0.2-0.8-0.4-1.1-0.6
		c-0.3-0.2-0.6-0.3-0.8-0.4c-0.2-0.1-0.4-0.2-0.5-0.4s-0.2-0.2-0.3-0.3c-0.6-0.6-0.9-1.4-0.8-2.4c0-0.6,0.4-1.1,1.1-1.5
		c0,0,0.1-0.1,0.2-0.1c0.1,0,0.2-0.1,0.3-0.1h-3.6v-1.7h13.8v1.7H392.7z"/>
	<path class="st4" d="M402.1,159c-0.7,0.5-1.3,1-1.7,1.5c-0.5,0.5-0.8,0.9-1.1,1.3c-0.6,1.1-1,2.3-1,3.8c0,0.5,0,1,0.1,1.5
		c0.1,0.5,0.2,1.1,0.5,1.7c0.2,0.6,0.5,1.3,0.9,2.1c0.4,0.8,0.9,1.7,1.5,2.7c-0.7-0.7-1.3-1.4-1.8-1.9c-0.5-0.5-0.9-0.9-1.2-1.3
		c-0.3-0.4-0.6-0.7-0.7-0.9c-0.2-0.2-0.3-0.5-0.5-0.7c-0.8-1.3-1.1-2.8-1.1-4.5c0-0.5,0-1,0.1-1.4c0.1-0.4,0.2-0.8,0.4-1.2
		c0.2-0.4,0.5-0.9,0.9-1.3c0.4-0.4,0.9-0.9,1.5-1.4h-4.1c0-0.3,0-0.5,0-0.6c0-0.1,0-0.2,0-0.3s0-0.2,0-0.3c0-0.1,0-0.3,0-0.5h8.9
		v1.7H402.1z"/>
	<path class="st4" d="M416.6,159v13.2h0.4l0,0.6h-2.9v-8.5c0-0.3-0.3-0.7-0.8-1c-0.5-0.3-1-0.4-1.4-0.4c-0.2,0-0.5,0.1-0.7,0.4
		s-0.6,0.7-0.9,1.4c-0.5-0.7-0.9-1.1-1.2-1.3c-0.3-0.2-0.6-0.3-0.8-0.3c-0.7,0-1.3,0.2-1.6,0.7c-0.4,0.5-0.5,1.2-0.5,2.2
		c0,0.9,0.1,1.6,0.3,2.1c0.1,0.2,0.2,0.5,0.5,0.8c0.2,0.3,0.5,0.6,0.8,1c0.1,0.1,0.1,0.1,0.2,0.2c0.1,0.1,0.2,0.2,0.4,0.4
		c0.2,0.2,0.5,0.4,0.8,0.6c0.3,0.3,0.7,0.6,1.2,1c-0.8-0.3-1.4-0.6-2-0.9c-0.5-0.3-1-0.5-1.4-0.7c-0.4-0.2-0.7-0.4-0.9-0.7
		c-0.2-0.2-0.5-0.4-0.7-0.6c-1.1-1.2-1.7-2.5-1.7-3.9c0-1.3,0.4-2.3,1.1-3c0.7-0.8,1.8-1.1,3.1-1.1c0.8,0,1.4,0.4,1.8,1.3
		c0,0.1,0.1,0.3,0.2,0.4l0.2-0.5c0.4-0.7,1-1,2-1c0.3,0,0.6,0.1,0.9,0.3c0.3,0.2,0.6,0.5,0.8,0.9c0,0,0.1,0.1,0.1,0.1
		c0,0,0,0.1,0,0.1V159h-11.9v-1.7h17.2l0,1.7H416.6z"/>
	<path class="st4" d="M432.1,159c-0.7,0.5-1.3,1-1.7,1.5c-0.5,0.5-0.8,0.9-1.1,1.3c-0.6,1.1-1,2.3-1,3.8c0,0.5,0,1,0.1,1.5
		c0.1,0.5,0.2,1.1,0.5,1.7c0.2,0.6,0.5,1.3,0.9,2.1c0.4,0.8,0.9,1.7,1.5,2.7c-0.7-0.7-1.3-1.4-1.8-1.9c-0.5-0.5-0.9-0.9-1.2-1.3
		c-0.3-0.4-0.6-0.7-0.7-0.9c-0.2-0.2-0.3-0.5-0.5-0.7c-0.8-1.3-1.1-2.8-1.1-4.5c0-0.5,0-1,0.1-1.4c0.1-0.4,0.2-0.8,0.4-1.2
		c0.2-0.4,0.5-0.9,0.9-1.3c0.4-0.4,0.9-0.9,1.5-1.4h-4.1c0-0.3,0-0.5,0-0.6c0-0.1,0-0.2,0-0.3s0-0.2,0-0.3c0-0.1,0-0.3,0-0.5h8.9
		v1.7H432.1z"/>
	<path class="st4" d="M444.9,159v13.6c-0.3-0.1-0.4-0.2-0.5-0.2c-0.1,0-0.2,0-0.2-0.1c-0.3-0.1-0.7-0.2-1.1-0.4
		c-0.2-0.1-0.4-0.1-0.6-0.2c-0.2-0.1-0.4-0.1-0.5-0.2c-0.2-0.1-0.4-0.1-0.5-0.2c-0.6-0.2-1.2-0.4-1.7-0.7c-0.5-0.2-1-0.5-1.5-0.7
		c-1-0.6-1.9-1.3-2.7-2.1c-0.8-0.8-1.4-1.9-2-3.1c0.5-0.2,0.9-0.5,1.3-0.7c0.4-0.2,0.8-0.4,1.2-0.7c0.5-0.3,1-0.6,1.4-0.8
		c0.4-0.2,0.7-0.4,0.9-0.5c-0.5-0.6-1-1.2-1.5-1.7c-0.6-0.5-1.2-1-1.9-1.4h-2.7v-1.7h15.2l0,1.7H444.9z M442.4,159h-4.1
		c0.2,0.2,0.4,0.4,0.6,0.6c0.2,0.2,0.4,0.4,0.6,0.7c0.2,0.3,0.4,0.5,0.6,0.8c0.2,0.3,0.4,0.7,0.6,1.1c-0.6,0.4-1.2,0.8-1.9,1.2
		c-0.7,0.4-1.5,0.9-2.5,1.4c0.2,1,0.6,1.9,1.3,2.7c0.7,0.8,1.6,1.5,2.8,2.1l2,0.9V159z"/>
	<path class="st4" d="M451.2,159v13.2h1.2l-0.1,0.6h-4.7l0.1-0.6h1V159h-2v-1.7h7c0,0.3,0,0.6,0,0.8c0,0.2,0,0.5,0,0.9H451.2z"/>
	<path class="st4" d="M465.4,159v13.3h1v0.6h-4.6v-0.6h1v-10.7c0-0.1,0-0.2-0.1-0.3s-0.2-0.3-0.4-0.6c-0.2-0.2-0.3-0.5-0.4-0.6
		c-0.1-0.2-0.2-0.3-0.3-0.4c-0.4-0.4-0.9-0.8-1.6-1c-0.7-0.3-1.4-0.4-2.1-0.4c-0.9,0-1.8,0.3-2.5,0.9c-0.8,0.6-1.1,1.3-1.1,2.1
		c0,0.4,0.2,0.7,0.7,0.8c0.7-0.3,1.3-0.6,1.8-0.8c0.6-0.2,1.1-0.3,1.6-0.3c0.8,0,1.5,0.3,2.1,0.8c0.6,0.5,0.9,1.1,0.9,1.9
		c0,0.4-0.1,0.9-0.4,1.4c-0.2,0.5-0.6,1.1-1.2,1.7c-0.6,0.6-1.3,1.3-2.3,2.1s-2.1,1.6-3.5,2.6c0.6-0.7,1.1-1.2,1.5-1.6
		c0.4-0.4,0.7-0.8,1-1.1s0.5-0.5,0.7-0.7c0.2-0.2,0.3-0.4,0.5-0.5c0.9-1.1,1.4-2.1,1.4-3.1c0-0.4-0.1-0.8-0.3-1s-0.4-0.3-0.7-0.3
		c-0.2,0-0.8,0.2-1.7,0.5c-0.9,0.4-1.5,0.6-1.9,0.6c-0.6,0-1.1-0.2-1.5-0.6c-0.4-0.4-0.6-0.9-0.6-1.4c0-1.4,0.6-2.6,1.8-3.7
		c1.2-1.1,2.6-1.6,4-1.6c1.1,0,2.1,0.3,3,0.9c0.3,0.2,0.6,0.5,0.9,0.7c0.3,0.3,0.5,0.6,0.7,1v-2.4h5.3v1.7H465.4z"/>
	<path class="st4" d="M471.6,159v13.2h1.2l-0.1,0.6H468l0.1-0.6h1V159h-2v-1.7h7c0,0.3,0,0.6,0,0.8c0,0.2,0,0.5,0,0.9H471.6z"/>
	<path class="st4" d="M479.6,159c-0.7,0.5-1.3,1-1.7,1.5c-0.5,0.5-0.8,0.9-1.1,1.3c-0.6,1.1-1,2.3-1,3.8c0,0.5,0,1,0.1,1.5
		c0.1,0.5,0.2,1.1,0.5,1.7c0.2,0.6,0.5,1.3,0.9,2.1c0.4,0.8,0.9,1.7,1.5,2.7c-0.7-0.7-1.3-1.4-1.8-1.9c-0.5-0.5-0.9-0.9-1.2-1.3
		c-0.3-0.4-0.6-0.7-0.7-0.9c-0.2-0.2-0.3-0.5-0.5-0.7c-0.8-1.3-1.1-2.8-1.1-4.5c0-0.5,0-1,0.1-1.4c0.1-0.4,0.2-0.8,0.4-1.2
		c0.2-0.4,0.5-0.9,0.9-1.3c0.4-0.4,0.9-0.9,1.5-1.4h-4.1c0-0.3,0-0.5,0-0.6c0-0.1,0-0.2,0-0.3s0-0.2,0-0.3c0-0.1,0-0.3,0-0.5h8.9
		v1.7H479.6z"/>
	<path class="st4" d="M492.4,159v13.6c-0.3-0.1-0.4-0.2-0.5-0.2c-0.1,0-0.2,0-0.2-0.1c-0.3-0.1-0.7-0.2-1.1-0.4
		c-0.2-0.1-0.4-0.1-0.6-0.2c-0.2-0.1-0.4-0.1-0.5-0.2c-0.2-0.1-0.4-0.1-0.5-0.2c-0.6-0.2-1.2-0.4-1.7-0.7c-0.5-0.2-1-0.5-1.5-0.7
		c-1-0.6-1.9-1.3-2.7-2.1c-0.8-0.8-1.4-1.9-2-3.1c0.5-0.2,0.9-0.5,1.3-0.7c0.4-0.2,0.8-0.4,1.2-0.7c0.5-0.3,1-0.6,1.4-0.8
		c0.4-0.2,0.7-0.4,0.9-0.5c-0.5-0.6-1-1.2-1.5-1.7c-0.6-0.5-1.2-1-1.9-1.4h-2.7v-1.7H495l0,1.7H492.4z M489.8,159h-4.1
		c0.2,0.2,0.4,0.4,0.6,0.6c0.2,0.2,0.4,0.4,0.6,0.7c0.2,0.3,0.4,0.5,0.6,0.8c0.2,0.3,0.4,0.7,0.6,1.1c-0.6,0.4-1.2,0.8-1.9,1.2
		c-0.7,0.4-1.5,0.9-2.5,1.4c0.2,1,0.6,1.9,1.3,2.7c0.7,0.8,1.6,1.5,2.8,2.1l2,0.9V159z"/>
	<path class="st4" d="M498.6,159v13.2h1.2l-0.1,0.6H495l0.1-0.6h1V159h-2v-1.7h7c0,0.3,0,0.6,0,0.8c0,0.2,0,0.5,0,0.9H498.6z"/>
	<path class="st4" d="M512.8,159v13.3h1v0.6h-4.6v-0.6h1v-10.7c0-0.1,0-0.2-0.1-0.3s-0.2-0.3-0.4-0.6c-0.2-0.2-0.3-0.5-0.4-0.6
		c-0.1-0.2-0.2-0.3-0.3-0.4c-0.4-0.4-0.9-0.8-1.6-1c-0.7-0.3-1.4-0.4-2.1-0.4c-0.9,0-1.8,0.3-2.5,0.9c-0.8,0.6-1.1,1.3-1.1,2.1
		c0,0.4,0.2,0.7,0.7,0.8c0.7-0.3,1.3-0.6,1.8-0.8c0.6-0.2,1.1-0.3,1.6-0.3c0.8,0,1.5,0.3,2.1,0.8c0.6,0.5,0.9,1.1,0.9,1.9
		c0,0.4-0.1,0.9-0.4,1.4c-0.2,0.5-0.6,1.1-1.2,1.7c-0.6,0.6-1.3,1.3-2.3,2.1s-2.1,1.6-3.5,2.6c0.6-0.7,1.1-1.2,1.5-1.6
		c0.4-0.4,0.7-0.8,1-1.1s0.5-0.5,0.7-0.7c0.2-0.2,0.3-0.4,0.5-0.5c0.9-1.1,1.4-2.1,1.4-3.1c0-0.4-0.1-0.8-0.3-1s-0.4-0.3-0.7-0.3
		c-0.2,0-0.8,0.2-1.7,0.5c-0.9,0.4-1.5,0.6-1.9,0.6c-0.6,0-1.1-0.2-1.5-0.6c-0.4-0.4-0.6-0.9-0.6-1.4c0-1.4,0.6-2.6,1.8-3.7
		c1.2-1.1,2.6-1.6,4-1.6c1.1,0,2.1,0.3,3,0.9c0.3,0.2,0.6,0.5,0.9,0.7c0.3,0.3,0.5,0.6,0.7,1v-2.4h5.3v1.7H512.8z"/>
	<path class="st4" d="M533.3,159v2.3h0.9c1.4,0,2.5,0.1,3,0.4c0.8,0.4,1.2,1.1,1.2,2.2c0,0.7-0.4,1.7-1.3,2.8
		c-0.1,0.2-0.3,0.4-0.5,0.6c-0.2,0.2-0.4,0.4-0.6,0.7c-0.2,0.3-0.5,0.5-0.9,0.9c-0.4,0.3-0.8,0.7-1.3,1.2c0.4-0.8,0.8-1.6,1.1-2.2
		c0.3-0.6,0.5-1.2,0.7-1.7c0.2-0.5,0.3-1,0.4-1.4c0.1-0.4,0.1-0.8,0.1-1.2c0-0.4-0.1-0.7-0.3-0.9c-0.1-0.1-0.2-0.2-0.3-0.3
		c-0.1-0.1-0.3-0.2-0.5-0.4h-1.7v10.5c-3.2-1.5-5.6-3-7.1-4.5c-1.5-1.4-2.3-2.9-2.3-4.4c0-1.1,0.6-1.8,1.8-2.2
		c0.3-0.1,0.7-0.2,1.3-0.2c0.5,0,1.1,0,1.8,0l2,0V159h-9.7v-1.7h19.3v1.7H533.3z M530.7,162.2h-2.4c-0.6,0.2-1,0.5-1.3,0.8
		c-0.1,0.2-0.2,0.4-0.2,0.6s-0.1,0.5-0.1,0.9c0,1,0.5,2.1,1.4,3.3c0.7,0.9,1.6,1.7,2.6,2.3V162.2z"/>
	<path class="st4" d="M549.6,159v13.5c-0.6-0.4-1.2-0.8-1.6-1.1c-0.5-0.3-1-0.6-1.5-0.9c-0.8-0.4-1.5-0.8-2-1.1s-0.8-0.5-1-0.6
		c-1.2-0.8-2.1-1.6-2.7-2.4c-0.6-0.8-0.9-1.6-0.9-2.5c0-1.4,0.9-2.5,2.8-3.4h4.3V159h-8.8v-1.7h14.2v1.7c-0.3,0-0.5,0-0.6,0
		s-0.3,0-0.4,0H549.6z M543.2,171.5c-0.3,0.2-0.8,0.3-1.2,0.3c-0.5,0-0.9-0.1-1.2-0.3c-0.4-0.3-0.6-0.6-0.6-1c0-0.4,0.2-0.7,0.5-0.9
		c0.3-0.3,0.7-0.4,1.1-0.4c0.7,0,1.2,0.1,1.6,0.3s0.6,0.6,0.6,1.1C543.9,171,543.7,171.3,543.2,171.5z M547.1,161.7h-2.8
		c-1.1,0.7-1.7,1.6-1.7,2.7c0,0.8,0.5,1.6,1.6,2.6c0.3,0.2,0.6,0.5,1.1,0.8c0.5,0.3,1.1,0.7,1.8,1.2V161.7z"/>
	<path class="st4" d="M553.5,167c-0.5,0.5-1,0.7-1.6,0.7c-1.2,0-2.3-0.6-3.3-1.9v-1.5c0.5,0.5,0.9,0.9,1.2,1.1
		c0.3,0.2,0.7,0.3,1.1,0.3c0.4,0,0.7-0.1,0.8-0.3c0.2-0.2,0.3-0.6,0.3-1.1c0-0.1,0-0.3,0-0.4c0-0.2,0-0.4-0.1-0.6
		c0-0.2-0.1-0.5-0.2-0.8c-0.1-0.3-0.2-0.7-0.3-1.1c0.5,0.5,1,1,1.3,1.4c0.4,0.4,0.6,0.8,0.9,1.1c0.2,0.3,0.4,0.6,0.5,0.9
		s0.1,0.5,0.1,0.8C554.2,166,554,166.5,553.5,167z M549.8,159v-1.7h6.4v1.7H549.8z"/>
	<path class="st4" d="M566.6,159v13.2h1.2v0.6h-4.5l-0.1-0.6h0.9v-8.7l-2.4-1.4c-1,0.2-1.6,0.5-1.9,0.7c-0.5,0.4-0.8,1-0.8,1.8v0.1
		c0,0.1,0,0.2,0,0.3c0,0.1,0,0.2,0,0.3v0.7c0,0.3,0,0.7,0.1,1.1c0.1,0.4,0.2,0.8,0.4,1.1c0,0,0.1,0.1,0.1,0.2
		c0.1,0.1,0.2,0.3,0.3,0.5c0.1,0.2,0.3,0.5,0.5,0.9s0.5,0.9,0.9,1.6c-0.5-0.5-1-1-1.4-1.4c-0.4-0.4-0.7-0.7-0.9-0.9
		s-0.5-0.5-0.7-0.7c-0.2-0.2-0.4-0.4-0.6-0.6c-0.8-0.8-1.2-2-1.2-3.4c0-1.2,0.7-2.2,2-3c0.7-0.4,1.4-0.7,2-0.7c0.6,0,0.9,0,1.2,0
		c0.6,0.1,1.3,0.5,1.9,1.1l0.3,0.3V159h-9v-1.7h14.4v1.7H566.6z"/>
	<path class="st4" d="M575.1,172.7v-15.9h2.5v15.9H575.1z"/>
</g>
<g>
</g>
<g>
</g>
<g>
</g>
<g>
</g>
<g>
</g>
<g>
</g>
<g>
</g>
<g>
</g>
<g>
</g>
<g>
</g>
<g>
</g>
<g>
</g>
<g>
</g>
<g>
</g>
<g>
</g>
</svg>
