<?xml version="1.0" encoding="utf-8"?>
<!-- Generator: Adobe Illustrator 21.0.0, SVG Export Plug-In . SVG Version: 6.00 Build 0)  -->
<svg version="1.1" id="Layer_1" xmlns="http://www.w3.org/2000/svg" xmlns:xlink="http://www.w3.org/1999/xlink" x="0px" y="0px"
	 viewBox="0 0 721 216" style="enable-background:new 0 0 721 216;" xml:space="preserve">
<style type="text/css">
	.st0{opacity:0.8;fill:#FFFDFF;enable-background:new    ;}
	.st1{fill:#00A99D;}
	.st2{fill:#1B1464;}
	.st3{fill:#FFFFFF;}
	.st4{fill:#CA00C6;}
</style>
<rect x="1" y="1" class="st0" width="721" height="216"/>
<g>
	<g>
		<path class="st1" d="M323,79.5c-6.3,0-11.5-5.2-11.5-11.5V27c0-6.3,5.2-11.5,11.5-11.5h46c6.3,0,11.5,5.2,11.5,11.5v41
			c0,6.3-5.2,11.5-11.5,11.5H323z"/>
		<path class="st2" d="M369,16c6.1,0,11,4.9,11,11v41c0,6.1-4.9,11-11,11h-46c-6.1,0-11-4.9-11-11V27c0-6.1,4.9-11,11-11H369
			 M369,15h-46c-6.6,0-12,5.4-12,12v41c0,6.6,5.4,12,12,12h46c6.6,0,12-5.4,12-12V27C381,20.4,375.6,15,369,15L369,15z"/>
	</g>
	<g>
		<path class="st3" d="M334,28.2c3.8,0,6.8,1.3,8.9,3.9c2.6,3,3.8,8.1,3.8,15.2c0,7-1.3,12.1-3.9,15.2c-2.1,2.5-5.1,3.8-8.9,3.8
			s-6.9-1.4-9.2-4.2c-2.3-2.8-3.5-7.7-3.5-14.9c0-7,1.3-12.1,3.9-15.1C327.3,29.5,330.2,28.2,334,28.2z M334,34.2
			c-0.9,0-1.7,0.3-2.4,0.8c-0.7,0.6-1.3,1.5-1.7,3c-0.5,1.8-0.8,5-0.8,9.3s0.2,7.4,0.7,9s1,2.7,1.8,3.3c0.7,0.5,1.5,0.8,2.4,0.8
			s1.7-0.3,2.4-0.8c0.7-0.5,1.3-1.5,1.7-3c0.5-1.8,0.8-4.9,0.8-9.3s-0.2-7.4-0.7-9s-1-2.7-1.8-3.3C335.8,34.4,335,34.2,334,34.2z"/>
		<path class="st3" d="M371.1,65.6h-7.5V38.7c-2.7,2.4-6,4.2-9.7,5.4v-6.5c2-0.6,4.1-1.8,6.4-3.5s3.9-3.7,4.7-6h6.1V65.6z"/>
	</g>
</g>
<g>
	<path class="st4" d="M48,145c-1.4,1.1-2.6,1.7-3.6,1.7c-1,0-1.9-0.5-2.6-1.5c-0.7-1-1.1-2-1.1-3.3c0-1.1,0.2-2.2,0.6-3.4
		c0.5-1.6,1.1-2.4,1.9-2.4c0.6,0,1.2,0.4,1.7,1.2c0.2,0.4,0.4,0.8,0.5,1.2c0.1,0.4,0.2,0.8,0.2,1.2c0,0.9-0.2,1.8-0.7,2.7
		c-0.5,0.9-1.2,1.8-2.3,2.7c0.8,0.8,1.4,1.2,1.9,1.2c0.7-0.1,1.5-0.7,2.3-1.8c0.8-0.9,1.3-1.8,1.6-2.7c0.2-0.6,0.4-1.3,0.4-2.3
		c0.1-0.9,0.1-2,0.1-3.3c0-2.5-0.4-4.6-1.3-6.3c-0.3-0.5-0.7-1.1-1.3-1.9c-0.6-0.8-1.3-1.7-2.3-2.8c-1.4-1.6-2.2-3.2-2.4-4.8
		l2.2-0.1c0.2,1.1,0.3,2.1,0.5,2.8c0.2,0.8,0.4,1.3,0.7,1.7c0.2,0.2,0.4,0.5,0.7,0.7c0.2,0.2,0.5,0.5,0.8,0.8
		c0.8,0.7,1.3,1.2,1.5,1.4c2.2,2.3,3.3,5,3.3,7.9c0,2.2-0.3,4-0.8,5.5S49.1,144.1,48,145z"/>
	<path class="st4" d="M64.4,141.9c-1.7,2.7-3.5,4-5.6,4c-2.1,0-3.6-1.2-4.6-3.7c-0.7-1.8-1.1-4-1.1-6.4c0-4.1,1.4-9.2,4.3-15.2
		l2.2,0.6l-0.5,1.3c0.5,0.2,1,0.3,1.4,0.4c0.4,0.1,0.7,0.1,1,0.1c0.6,0,1.4-0.2,2.4-0.7l1.2-1.6l1.6,1.1c-1,1.3-2,2.9-3,4.6
		c-1.2,2.2-1.9,3.9-1.9,5.1c0,0.5,0.2,1,0.5,1.2c0.3,0.3,0.7,0.4,1.2,0.4c0.9,0,1.6-0.4,2.4-1.3c0.5,0.7,0.8,1.8,0.8,3.2
		C66.6,137.3,65.9,139.6,64.4,141.9z M63.7,135.1c-0.4,0.1-0.7,0.1-1,0.1c-0.3,0-0.6,0-0.8,0c-1.1,0-1.9-0.6-2.4-1.9
		c0.1-1.9,0.4-3.6,1-5.2c0.3-0.6,0.6-1.4,1-2.2c0.4-0.8,1-1.7,1.7-2.8c-0.7,0.2-1.2,0.3-1.6,0.4c-0.4,0.1-0.7,0.1-1,0.1
		c-0.5,0-1.2-0.2-2.2-0.7c-3,6-4.6,11-4.6,14.8c0,1.6,0.4,3.3,1.2,4.9c1,2,2.3,3,3.8,3c0.8,0,1.4-0.3,2-1c0.6-0.7,1.1-1.7,1.6-3
		c0.7-2,1.1-3.9,1.1-5.7V135.1z"/>
	<path class="st4" d="M68.8,137.1v-1.3h6.8l0.1,1.2L68.8,137.1z"/>
	<path class="st4" d="M87.9,148.1c-0.8,0.9-1.4,1.3-1.8,1.3c-1,0-1.9-0.4-2.7-1.3c-0.8-0.9-1.4-2.2-1.9-4c-0.3-1.2-0.6-2.5-0.7-3.8
		c-0.2-1.3-0.2-2.7-0.2-4.2c0-2.5,0.3-4.9,1-7.2c0.9-3.2,2.4-4.8,4.3-4.8c0.8,0,1.5,0.5,2.1,1.4s1.2,2.5,1.7,4.5
		c0.4,1.5,0.7,3,0.9,4.3c0.2,1.3,0.3,2.6,0.3,3.7C90.9,142.5,89.9,145.9,87.9,148.1z M89.3,130.9c-0.5-1.4-1-2.4-1.7-3.1
		c-0.6-0.7-1.4-1-2.2-1l-0.1,0c-1.6,0.1-2.8,1.5-3.6,4.2c-0.3,0.9-0.5,1.9-0.6,2.9c-0.1,1-0.2,2-0.2,3.1c0,1.7,0.4,3.7,1.1,5.8
		c0.5,1.3,1,2.4,1.6,3.1s1.3,1.1,2,1.1c0.8,0,1.4-0.4,2-1.1s1.1-1.8,1.6-3.2c0.7-2.1,1.1-4,1.1-5.8c0-0.9-0.1-1.9-0.3-2.9
		C90,133,89.7,132,89.3,130.9z"/>
	<path class="st4" d="M108,136.5c-0.4,2.9-1.1,5.1-2.2,6.7c-0.6,0.9-1,1.5-1.4,1.8c-0.6,0.6-1.2,0.9-1.8,0.9c-1.3,0-2.5-0.6-3.6-1.9
		c-1.1-1.3-2-3.3-2.9-6c-0.5-1.6-1-3.4-1.4-5.3c-0.4-1.9-0.7-3.9-1-6.1l2.8-0.8l0,2.4c0,1,0,2.1,0.1,3.2c0.1,1.1,0.2,2.3,0.4,3.7
		c0.4,3,1,5.2,1.8,6.6c0.1,0.1,0.1,0.3,0.2,0.4c0.1,0.2,0.2,0.4,0.3,0.6c0.5,0.9,0.9,1.6,1.4,2.1c0.5,0.5,0.9,0.7,1.4,0.7
		c1.4,0,2.4-1.1,3-3.2c0.6-2.2,0.9-5.4,0.9-9.7c-0.7,0.8-1.3,1.4-1.9,1.8c-0.5,0.3-1,0.5-1.5,0.5c-0.4,0-0.8-0.1-1.1-0.2
		c-0.4-0.1-0.7-0.3-1.1-0.6c-0.8-0.6-1.2-1.3-1.2-2.1v-11.3h2.3v10.4c0,0.7,0.2,1.2,0.7,1.7c0.5,0.5,1,0.7,1.5,0.7
		c0.7,0,1.2-0.3,1.5-1c0.3-0.6,0.5-1.6,0.5-2.8v-1l2.5,0.5c0,1.5-0.1,2.9-0.1,4.1C108.2,134.6,108.1,135.6,108,136.5z"/>
	<path class="st4" d="M110.3,137.1v-1.3h6.8l0.1,1.2L110.3,137.1z"/>
	<path class="st4" d="M128.8,133.4c-0.4,0.1-0.8,0.2-1.2,0.3s-0.9,0.2-1.5,0.3c0.4,1.4,0.9,2.7,1.4,3.8c0.5,1.1,1,2.1,1.5,3
		c0.3,0.6,0.7,1.3,1.2,1.9c0.5,0.6,1,1.3,1.5,2c-3.4-3-6.2-6.6-8.3-10.7c1.9-0.3,3.5-0.9,5-1.6c1.1-0.5,1.9-1.1,2.4-1.7
		c0.5-0.6,0.8-1.4,0.8-2.2c0-1.1-0.4-2-1.2-2.8c-0.6-0.5-1.5-1-2.7-1.6c-0.7-0.3-1.3-0.6-1.8-0.8c-0.5-0.2-0.8-0.4-1-0.6
		c-0.8-0.6-1.4-1.3-1.8-2.2h2.2c0.7,1.5,1.7,2.7,3,3.4c0.4,0.2,0.8,0.5,1.4,0.9c0.6,0.4,1.4,0.8,2.3,1.4c1.4,0.8,2.1,1.8,2.1,2.8
		c0,0.9-0.4,1.8-1.3,2.5C132.1,132.3,130.7,132.9,128.8,133.4z"/>
	<path class="st4" d="M145.8,148.1c-0.8,0.9-1.4,1.3-1.8,1.3c-1,0-1.9-0.4-2.7-1.3c-0.8-0.9-1.4-2.2-1.9-4c-0.3-1.2-0.6-2.5-0.7-3.8
		c-0.2-1.3-0.2-2.7-0.2-4.2c0-2.5,0.3-4.9,1-7.2c0.9-3.2,2.4-4.8,4.3-4.8c0.8,0,1.5,0.5,2.1,1.4s1.2,2.5,1.7,4.5
		c0.4,1.5,0.7,3,0.9,4.3c0.2,1.3,0.3,2.6,0.3,3.7C148.8,142.5,147.8,145.9,145.8,148.1z M147.2,130.9c-0.5-1.4-1-2.4-1.7-3.1
		c-0.6-0.7-1.4-1-2.2-1l-0.1,0c-1.6,0.1-2.8,1.5-3.6,4.2c-0.3,0.9-0.5,1.9-0.6,2.9c-0.1,1-0.2,2-0.2,3.1c0,1.7,0.4,3.7,1.1,5.8
		c0.5,1.3,1,2.4,1.6,3.1s1.3,1.1,2,1.1c0.8,0,1.4-0.4,2-1.1s1.1-1.8,1.6-3.2c0.7-2.1,1.1-4,1.1-5.8c0-0.9-0.1-1.9-0.3-2.9
		C147.9,133,147.6,132,147.2,130.9z"/>
	<path class="st4" d="M159.2,145c-1.4,1.1-2.6,1.7-3.6,1.7c-1,0-1.9-0.5-2.6-1.5c-0.7-1-1.1-2-1.1-3.3c0-1.1,0.2-2.2,0.6-3.4
		c0.5-1.6,1.1-2.4,1.9-2.4c0.6,0,1.2,0.4,1.7,1.2c0.2,0.4,0.4,0.8,0.5,1.2c0.1,0.4,0.2,0.8,0.2,1.2c0,0.9-0.2,1.8-0.7,2.7
		c-0.5,0.9-1.2,1.8-2.3,2.7c0.8,0.8,1.4,1.2,1.9,1.2c0.7-0.1,1.5-0.7,2.3-1.8c0.8-0.9,1.3-1.8,1.6-2.7c0.2-0.6,0.4-1.3,0.4-2.3
		c0.1-0.9,0.1-2,0.1-3.3c0-2.5-0.4-4.6-1.3-6.3c-0.3-0.5-0.7-1.1-1.3-1.9c-0.6-0.8-1.3-1.7-2.3-2.8c-1.4-1.6-2.2-3.2-2.4-4.8
		l2.2-0.1c0.2,1.1,0.3,2.1,0.5,2.8c0.2,0.8,0.4,1.3,0.7,1.7c0.2,0.2,0.4,0.5,0.7,0.7c0.2,0.2,0.5,0.5,0.8,0.8
		c0.8,0.7,1.3,1.2,1.5,1.4c2.2,2.3,3.3,5,3.3,7.9c0,2.2-0.3,4-0.8,5.5S160.3,144.1,159.2,145z"/>
	<path class="st4" d="M171.9,146.2c0.3-0.7,0.4-1.4,0.4-2.1c0-0.7-0.2-1.3-0.5-2c-0.4-0.7-0.9-1.4-1.7-2.2c0,0.5,0.1,0.8,0.1,1.1
		c0,0.2,0,0.5,0,0.6c0,0.9-0.2,1.8-0.7,2.9c-0.5,1.2-1.1,1.8-1.8,1.8s-1.3-0.6-1.8-1.8c-0.5-1.1-0.7-2.1-0.7-2.9
		c0-1.5,0.3-2.8,1-3.8c0.7-1.1,1.7-1.6,2.9-1.6c1.2,0,2.1,0.5,2.8,1.5c0.7,1,1.1,2.2,1.1,3.6c0,0.2,0,0.5,0,0.8
		c0,0.3-0.1,0.5-0.1,0.9c-0.1,0.3-0.1,0.7-0.3,1.1c-0.1,0.4-0.3,0.9-0.4,1.4c1-1.5,1.7-2.9,2.1-4.2c0.4-1.3,0.6-2.7,0.6-4
		c0-2.5-0.5-4.6-1.6-6.4c-0.5-0.9-1.7-2.5-3.7-4.8c-1.6-1.8-2.5-3.6-2.7-5.2h2.4c-0.1,0.4-0.1,0.8-0.1,1.2c0,1.3,0.5,2.5,1.4,3.7
		c0,0,0.1,0.1,0.3,0.3c0.1,0.1,0.3,0.3,0.5,0.6c0.2,0.2,0.5,0.5,0.8,0.8c0.3,0.3,0.7,0.7,1,1c0.6,0.6,1.1,1.2,1.6,1.8
		c0.4,0.6,0.8,1.1,1.1,1.6c0.8,1.4,1.1,3.1,1.1,4.9c0,1.8-0.4,3.5-1.2,5.1C174.8,143.2,173.6,144.7,171.9,146.2z"/>
	<path class="st4" d="M199.3,122.3c1.3,1,2.2,2.3,2.7,3.8c0.6,1.6,0.8,3.5,0.8,5.9c0,2.6-0.5,4.8-1.6,6.7c-1.3,2.4-3.1,3.5-5.5,3.5
		c-0.6,0-1.1-0.1-1.6-0.3c-0.5-0.2-0.9-0.5-1.3-0.8c-1.6-1.4-2.7-2.7-3.3-3.9c-0.6-1.1-1.2-2.9-2-5.6c-0.1-0.3-0.2-0.7-0.2-1.1
		c-0.1-0.4-0.2-1-0.3-1.6c-0.2-1-0.4-1.9-0.6-2.6l3.3-0.3c0,0.6-0.1,1.2-0.1,1.8c0,0.5,0,1,0,1.4c0,2.6,0.4,5.1,1.1,7.5
		c1.1,3.4,2.7,5.1,4.8,5.1c0.9,0,1.7-0.4,2.4-1.1c0.7-0.7,1.2-1.7,1.6-3.1c0.3-0.9,0.5-1.9,0.7-2.9c0.1-1,0.2-2.1,0.2-3.2
		c0-1.8-0.2-3.5-0.5-5.2c-0.2-1.2-0.6-2.1-1-2.8c-0.4-0.6-0.9-1-1.5-1c-0.5,0-1,0.3-1.4,0.9c-0.4,0.6-0.7,1.5-1,2.6
		c-0.4,1.7-0.6,3.2-0.6,4.5c0,1.2,0.2,2.3,0.5,3.2c-1.7-1.1-2.5-2.8-2.5-5c0-1.4,0.2-2.7,0.7-3.7c0.5-1.1,1.3-2,2.4-2.8h-10.2v-1.6
		h19.6c0,0.2,0,0.3,0,0.5c0,0.2,0,0.6,0,1.1H199.3z"/>
	<path class="st4" d="M209.1,122.3v20.2h1.4v0h-4.8v0h1.2v-20.2h-2.4v-1.6h7.4v1.6H209.1z"/>
	<path class="st4" d="M228.3,117.6v0.6c-0.5-0.3-1.2-0.5-1.9-0.7c-0.7-0.2-1.4-0.4-2.3-0.7c-1.8-0.4-3.3-0.7-4.4-0.7
		c-1.3,0-2.2,0.2-2.9,0.6c-0.7,0.4-1,1-1,1.8v2.2h3.6v1.6h-3.2v20.3h0.5v0.1h-3.8v-0.1h1v-20.3h-3.3v-1.6h3.3v-0.5
		c0-1.9,0.2-3.3,0.7-4.1c0.6-1,1.6-1.5,3.1-1.5c0.6,0,1.4,0.1,2.3,0.3s1.9,0.6,3.1,1c1.2,0.4,2.2,0.9,3.1,1.4s1.7,1,2.5,1.7
		L228.3,117.6z"/>
	<path class="st4" d="M233.9,122.3c-0.1,0-0.2,0-0.5,0c-0.2,0-0.4,0-0.7,0c-0.3,0-0.5,0-0.8,0s-0.5,0-0.6,0v19.3
		c-0.8-0.8-1.9-1.6-3.1-2.5c-0.9-0.6-1.7-1.2-2.3-1.6c-0.6-0.4-1-0.7-1.2-0.9c-1.3-1.1-2.3-2.2-3-3.3c-0.6-1.1-1-2.2-1-3.4
		c0-1.9,1-3.4,3-4.5h5.3v-3.2H219v-1.6h15.7v1.6c-0.1,0-0.2,0-0.4,0C234.2,122.3,234.1,122.3,233.9,122.3z M224.2,140.7
		c-0.4,0.3-0.8,0.4-1.2,0.4c-0.4,0-0.8-0.2-1.2-0.5c-0.3-0.3-0.5-0.6-0.5-1.1c0-0.4,0.1-0.8,0.4-1.1c0.3-0.3,0.7-0.5,1-0.5
		c0.7,0,1.3,0.1,1.6,0.4s0.5,0.7,0.5,1.2C224.7,140.1,224.5,140.4,224.2,140.7z M229.1,126.2h-3.7c-1.5,1.1-2.2,2.5-2.2,4.3
		c0,1.3,0.7,2.6,2,4.1c0.3,0.4,0.8,0.9,1.4,1.4c0.6,0.6,1.4,1.2,2.5,2V126.2z"/>
	<path class="st4" d="M249.2,122.3V142c-0.9-0.2-1.9-0.5-3.1-1c-1.1-0.4-2.3-1-3.6-1.7c-0.4-0.2-1-0.5-1.8-1c-0.8-0.4-1.8-1-2.9-1.7
		c-1-0.6-1.7-1.2-2.2-1.9s-0.7-1.4-0.7-2.1c0-0.6,0.2-1.1,0.6-1.5c0.4-0.3,1-0.5,1.9-0.5c0.2,0,0.3,0,0.5,0c0.2,0,0.5,0.1,0.7,0.1
		c0.6,0.1,1,0.2,1.3,0.2c0.9,0,1.8-0.3,2.5-1c0.8-0.7,1.1-1.6,1.1-2.6c0-1.4-0.5-2.4-1.4-3c-1.9,2.2-3.7,3.3-5.4,3.3
		c-0.9,0-1.5-0.4-1.8-1.3c-0.2-0.4-0.2-1.3-0.2-2.6c0-0.8,0.2-1.9,0.6-3.3h2.4c-1.1,1.8-1.6,3.6-1.6,5.5c0,0.9,0.4,1.3,1.2,1.3
		s1.6-0.6,2.3-1.7s1.6-2.9,2.4-5.1h1.2c1.3,2,1.9,3.8,1.9,5.4c0,2-0.7,3.5-2.1,4.3c-0.4,0.2-1.8,0.7-4.4,1.5c-0.4,0.1-0.8,0.3-1,0.5
		c-0.2,0.2-0.4,0.4-0.4,0.8c-0.1,1.4,0.8,2.8,2.9,4.2c0.4,0.3,1,0.6,1.7,1c0.7,0.4,1.7,0.8,2.8,1.3l1.3,0.6c0.2,0.1,0.3,0.1,0.5,0.2
		c0.2,0.1,0.4,0.2,0.6,0.4v-20.2h5.9v1.6H249.2z"/>
	<path class="st4" d="M267.3,122.3c-0.9,0.8-1.6,1.6-2.1,2.3c-0.6,0.7-1,1.4-1.3,2.1c-0.4,0.8-0.7,1.7-0.9,2.6c-0.2,1-0.3,2-0.3,3.1
		c0,3,0.7,5.9,2,8.7c-1.2-1.6-2.1-3-2.7-4.2c-0.9-1.8-1.3-4-1.3-6.5c0-2,0.2-3.3,0.5-4c0.5-1.3,1.2-2.5,2.1-3.4
		c0.9-0.9,2-1.7,3.2-2.4h2.5v1.6H267.3z"/>
	<path class="st4" d="M281.9,122.3v19.9c0,0-0.1,0-0.1,0c-0.7,0-1.6-0.2-2.6-0.6c-1-0.4-2.2-0.9-3.5-1.6c-2.8-1.5-4.6-2.8-5.4-4
		c-0.1-0.1-0.2-0.3-0.4-0.7c-0.2-0.3-0.4-0.8-0.7-1.4c1.2-0.6,2.2-1.3,3.2-2c0.9-0.8,1.7-1.6,2.4-2.6c0.4-2.1,0.6-3.3,0.6-3.6
		c0-0.4,0-0.8-0.1-1.2c-0.1-0.4-0.2-0.8-0.4-1.3c-0.4-1.2-1-1.8-1.8-1.8c-0.6,0-1.2,0.7-1.8,2.1c-0.5,1.1-0.8,2.1-0.8,2.8
		c0,0.4,0,0.9,0.1,1.5s0.2,1.5,0.5,2.4c-1.6-1.6-2.4-3.2-2.4-4.9c0-1.3,0.4-2.4,1.2-3.4c0.8-0.9,1.8-1.4,2.9-1.4
		c1.1,0,2.2,0.5,3.2,1.4c0.9,0.9,1.4,2,1.4,3.4c0,2.2-0.9,4-2.7,5.6c-0.5,0.3-1.1,0.7-1.7,1.2s-1.4,1.1-2.2,1.8
		c0.3,1,0.8,1.9,1.3,2.7c0.6,0.7,1.3,1.4,2.2,1.9l5.1,2.4v-20.2h5.2v1.6H281.9z"/>
	<path class="st4" d="M292.2,122.3c-0.9,0.8-1.6,1.6-2.1,2.3c-0.6,0.7-1,1.4-1.3,2.1c-0.8,1.6-1.1,3.5-1.1,5.8c0,3,0.7,5.9,2,8.7
		c-1.3-1.6-2.2-3-2.7-4.2c-0.8-1.8-1.2-3.9-1.2-6.5c0-1.5,0.2-2.7,0.5-3.6c0.3-0.7,0.7-1.4,1.2-2.1c0.5-0.7,1.2-1.6,2.2-2.5h-5.3
		c0-0.2,0-0.3,0-0.5c0-0.2,0-0.3,0-0.4c0-0.1,0-0.3,0-0.4s0-0.2,0-0.3h9.6v1.6H292.2z"/>
	<path class="st4" d="M306.2,122.3v4.1h1.4c0.9,0,1.6,0,2.1,0.1c0.5,0.1,1,0.2,1.2,0.4c0.8,0.4,1.2,1.4,1.2,2.8
		c0,0.9-0.5,2.2-1.5,3.9c-0.6,1.1-1.4,2.1-2.2,3c1.1-2.6,1.7-5,1.7-7.3c0-0.6-0.1-1.2-0.4-1.6c-0.2-0.3-0.6-0.6-1.1-1h-2.4v15.1
		c-3.5-2.1-6-4.1-7.7-6.2c-1.7-2-2.5-4.1-2.5-6.1c0-1.4,0.6-2.3,1.8-2.8c0.7-0.3,1.8-0.4,3.4-0.3l2.7,0.1v-4.2h-11.2v-1.6h21.5v1.6
		H306.2z M304,126.9h-3.2c-0.8,0.4-1.4,0.9-1.6,1.4c-0.2,0.3-0.3,0.6-0.3,1c-0.1,0.4-0.1,0.8-0.1,1.4c0,0.8,0.1,1.7,0.4,2.5
		c0.3,0.9,0.7,1.7,1.2,2.6c0.5,0.8,1.1,1.6,1.6,2.2c0.6,0.6,1.2,1.1,2,1.6V126.9z"/>
	<path class="st4" d="M333.7,122.3v4.1h1.4c0.9,0,1.6,0,2.1,0.1c0.5,0.1,1,0.2,1.2,0.4c0.8,0.4,1.2,1.4,1.2,2.8
		c0,0.9-0.5,2.2-1.5,3.9c-0.6,1.1-1.4,2.1-2.2,3c1.1-2.6,1.7-5,1.7-7.3c0-0.6-0.1-1.2-0.4-1.6c-0.2-0.3-0.6-0.6-1.1-1h-2.4v15.1
		c-3.5-2.1-6-4.1-7.7-6.2c-1.7-2-2.5-4.1-2.5-6.1c0-1.4,0.6-2.3,1.8-2.8c0.7-0.3,1.8-0.4,3.4-0.3l2.7,0.1v-4.2h-11.2v-1.6h21.5v1.6
		H333.7z M331.5,126.9h-3.2c-0.8,0.4-1.4,0.9-1.6,1.4c-0.2,0.3-0.3,0.6-0.3,1c-0.1,0.4-0.1,0.8-0.1,1.4c0,0.8,0.1,1.7,0.4,2.5
		c0.3,0.9,0.7,1.7,1.2,2.6c0.5,0.8,1.1,1.6,1.6,2.2c0.6,0.6,1.2,1.1,2,1.6V126.9z"/>
	<path class="st4" d="M330.3,147.2v-0.1h1.3v-2v-1.9c-0.3-0.6-0.6-1.1-1-1.4c-0.3-0.3-0.7-0.5-1-0.5c-0.4,0-0.8,0.3-1.1,0.9
		s-0.7,1.4-0.9,2.4c-0.2-0.5-0.6-1-0.9-1.4c-0.6-0.6-1.2-1-1.7-1c-0.3,0-0.6,0.1-0.8,0.2c-0.2,0.1-0.3,0.4-0.3,0.7
		c0,0.7,0.3,1.4,0.8,2.2c0.1,0.2,0.3,0.3,0.4,0.5c0.1,0.2,0.3,0.3,0.4,0.5c-1.9-0.6-2.8-1.9-2.8-3.7c0-0.6,0.2-1.1,0.5-1.5
		c0.3-0.5,0.7-0.7,1.1-0.7c0.6,0,1.1,0.3,1.7,0.9s1.1,1.7,1.7,3.3l-0.1-1.9c0-0.6,0.1-1.2,0.5-1.6c0.4-0.5,0.9-0.7,1.4-0.7
		c0.3,0,0.6,0.2,1,0.5s0.8,1,1.3,1.8v-4.9h2.2v9.3h1.4v0.3H330.3z"/>
	<path class="st4" d="M344.8,122.3v20.2h1.4v0h-4.8v0h1.2v-20.2h-2.4v-1.6h7.4v1.6H344.8z"/>
	<path class="st4" d="M363.3,122.3v20h1.1v0.2h-4.5v-0.2h1.2v-11l-2.1-2c-0.3,0.4-0.8,1-1.3,1.7c-0.6,0.7-1.2,1.6-2,2.6
		c-0.8,1-1.5,1.8-2,2.3c-0.6,0.5-1,0.7-1.3,0.7c-1.2,0-2.3-0.5-3.5-1.6l0-0.9c0.6,0.7,1.2,1,1.8,1c0.8,0,1.7-0.6,2.7-1.9
		s1.5-2.4,1.5-3.3c0-0.7-0.1-1.2-0.3-1.6s-0.6-0.6-1.1-0.6c-0.4,0-0.9,0.2-1.5,0.5l-1.3,0.8c-0.7-0.2-1.1-0.4-1.4-0.7
		c-0.3-0.3-0.5-0.9-0.5-1.6c0-0.2,0.1-0.7,0.4-1.4c0.3-0.7,0.8-1.7,1.4-2.9h-3.8v-1.6h19.8v1.6H363.3z M361.1,122.3h-9.5
		c-0.2,0.4-0.4,0.7-0.6,1.1c-0.2,0.4-0.4,0.8-0.6,1.2c-0.2,0.3-0.2,0.6-0.2,0.9c0,0.3,0.1,0.6,0.3,0.7c0.2,0.1,0.4,0.2,0.8,0.2
		c0.4,0,0.9-0.1,1.6-0.4c0.6-0.2,1.1-0.3,1.4-0.3c0.4,0,0.7,0.2,1,0.6c0.2,0.4,0.3,1.1,0.3,2.1c0,0.2,0,0.5,0,0.9s-0.1,0.9-0.1,1.5
		l3.3-3.2c0.3,0.2,0.6,0.4,1,0.7c0.4,0.3,0.9,0.8,1.4,1.4V122.3z"/>
	<path class="st4" d="M378.8,122.3v13.6c0.5-1.1,1-2,1.6-2.8c0.6-0.8,1.2-1.5,1.8-2.3l3.4-3.9c0.1,0.1,0.2,0.2,0.4,0.4
		c0.2,0.2,0.3,0.3,0.5,0.5c0.1,0.1,0.3,0.3,0.4,0.4c0.1,0.1,0.2,0.2,0.3,0.3c0.1,0.1,0.2,0.2,0.2,0.2v13.7h1.6v0.3h-5.2v-0.3
		l1.3-0.1v-13.9c-0.5,0.7-1,1.5-1.7,2.4c-0.6,0.9-1.3,1.9-2.1,3.1c-1.2,1.7-2.1,3.4-2.7,5.1l-2.1-1.7v-14.9h-2.7v-1.6h17.7v1.6
		H378.8z"/>
	<path class="st4" d="M386.9,146.6c-1.8,2.4-3.7,3.6-5.8,3.6c-1,0-1.9-0.2-2.7-0.6c-1-0.5-1.5-1.2-1.5-2.2c0-1.3,0.7-2.2,2.1-2.8
		c1-0.4,2.2-0.6,3.6-0.6c0.4,0,0.7,0,1.1,0.1c0.4,0.1,0.9,0.2,1.4,0.3V140h2.2v5.2c2.5,0.7,5.6,3,9.5,6.9
		C393,149.4,389.6,147.5,386.9,146.6z M382.8,145.8c-1.4,0-2.5,0.2-3.2,0.5c-0.8,0.3-1.1,0.8-1.1,1.6c0,0.4,0.2,0.8,0.6,1
		c0.4,0.2,0.9,0.3,1.5,0.3c0.7,0,1.4-0.3,2.2-0.8c0.8-0.5,1.7-1.3,2.7-2.4c-0.6,0-1.1-0.1-1.5-0.1
		C383.5,145.8,383.1,145.8,382.8,145.8z"/>
	<path class="st4" d="M395.2,133.4c0.8-0.7,1.5-1.4,2.3-2.2c0.2-0.9,0.1-1.5-0.3-2c-0.4-0.5-0.9-0.7-1.7-0.7c-0.4,0-0.9,0.2-1.6,0.6
		c-0.6,0.4-1,0.5-1.2,0.5c-1,0-1.4-0.6-1.4-1.9c0-2.1,0.7-3.7,2-4.8c1.2-1,2.6-1.5,4.5-1.5c1.2,0,2.2,0.2,3.1,0.7
		c0.4,0.2,0.8,0.5,1.2,0.9c0.4,0.4,1,0.9,1.6,1.6v-3.9h5.3v1.6h-3.1v20.2h1.2v0h-3.4v-12.7L403,129l-6.6,5.8
		c-0.6-0.4-1.4-0.9-2.2-1.7L395.2,133.4z M403.1,125.5c-1.7-1.8-3.5-2.8-5.6-2.8c-0.4,0-0.8,0.1-1.4,0.2c-0.5,0.1-1,0.3-1.5,0.6
		c-0.5,0.3-0.9,0.6-1.2,1.1c-0.3,0.4-0.5,0.9-0.5,1.5c0,0.4,0.1,0.7,0.4,0.9c0.3,0.2,0.6,0.3,0.8,0.3c0.1,0,0.3,0,0.5-0.1
		c0.2-0.1,0.3-0.1,0.5-0.2c0.2-0.1,0.4-0.2,0.5-0.2c0.2,0,0.3-0.1,0.5,0c0.6,0.2,1,0.4,1.2,0.7c0.2,0.3,0.4,0.8,0.5,1.4
		c0.1,0.7,0.4,1,0.9,1.1l2.5-2.4c0.3,0.2,0.6,0.3,1,0.4c0.3,0.1,0.6,0.2,1,0.4V125.5z"/>
	<path class="st4" d="M405.5,146.6c-1.8,2.4-3.7,3.6-5.8,3.6c-1,0-1.9-0.2-2.7-0.6c-1-0.5-1.5-1.2-1.5-2.2c0-1.3,0.7-2.2,2.1-2.8
		c1-0.4,2.2-0.6,3.6-0.6c0.4,0,0.7,0,1.1,0.1c0.4,0.1,0.9,0.2,1.4,0.3V140h2.2v5.2c2.5,0.7,5.6,3,9.5,6.9
		C411.5,149.4,408.2,147.5,405.5,146.6z M401.3,145.8c-1.4,0-2.5,0.2-3.2,0.5c-0.8,0.3-1.1,0.8-1.1,1.6c0,0.4,0.2,0.8,0.6,1
		c0.4,0.2,0.9,0.3,1.5,0.3c0.7,0,1.4-0.3,2.2-0.8c0.8-0.5,1.7-1.3,2.7-2.4c-0.6,0-1.1-0.1-1.5-0.1
		C402,145.8,401.6,145.8,401.3,145.8z"/>
	<path class="st4" d="M423.6,122.3c-0.1,0-0.2,0-0.5,0s-0.4,0-0.7,0c-0.3,0-0.5,0-0.8,0c-0.3,0-0.5,0-0.6,0v19.3
		c-0.8-0.8-1.9-1.6-3.1-2.5c-0.9-0.6-1.7-1.2-2.3-1.6c-0.6-0.4-1-0.7-1.2-0.9c-1.3-1.1-2.3-2.2-3-3.3c-0.6-1.1-1-2.2-1-3.4
		c0-1.9,1-3.4,3-4.5h5.3v-3.2h-10.1v-1.6h15.7v1.6c-0.1,0-0.2,0-0.4,0S423.7,122.3,423.6,122.3z M413.8,140.7
		c-0.4,0.3-0.8,0.4-1.2,0.4c-0.4,0-0.8-0.2-1.2-0.5c-0.3-0.3-0.5-0.6-0.5-1.1c0-0.4,0.1-0.8,0.4-1.1c0.3-0.3,0.7-0.5,1-0.5
		c0.7,0,1.3,0.1,1.6,0.4s0.5,0.7,0.5,1.2C414.4,140.1,414.2,140.4,413.8,140.7z M418.8,126.2h-3.7c-1.5,1.1-2.2,2.5-2.2,4.3
		c0,1.3,0.7,2.6,2,4.1c0.3,0.4,0.8,0.9,1.4,1.4c0.6,0.6,1.4,1.2,2.5,2V126.2z"/>
	<path class="st4" d="M441.7,133.4c-0.4,0.1-0.8,0.2-1.2,0.3s-0.9,0.2-1.5,0.3c0.4,1.4,0.9,2.7,1.4,3.8s1,2.1,1.5,3
		c0.3,0.6,0.7,1.3,1.2,1.9c0.5,0.6,1,1.3,1.5,2c-3.4-3-6.2-6.6-8.3-10.7c1.9-0.3,3.5-0.9,5-1.6c1.1-0.5,1.9-1.1,2.4-1.7
		s0.8-1.4,0.8-2.2c0-1.1-0.4-2-1.2-2.8c-0.6-0.5-1.5-1-2.7-1.6c-0.7-0.3-1.3-0.6-1.8-0.8c-0.5-0.2-0.8-0.4-1-0.6
		c-0.8-0.6-1.4-1.3-1.8-2.2h2.2c0.7,1.5,1.7,2.7,3,3.4c0.4,0.2,0.8,0.5,1.4,0.9c0.6,0.4,1.4,0.8,2.3,1.4c1.4,0.8,2.1,1.8,2.1,2.8
		c0,0.9-0.4,1.8-1.3,2.5C445,132.3,443.6,132.9,441.7,133.4z"/>
	<path class="st4" d="M458.6,141.5c-0.9,0.6-1.9,0.8-3,0.8c-0.4,0-0.9-0.1-1.3-0.3s-0.9-0.5-1.4-0.8c-0.7-0.6-1.2-1.3-1.4-2.3
		c0-1.2,0.5-2.2,1.5-2.9c0.9-0.6,1.9-1,3-1c1,0,1.9,0.3,2.8,1c1,0.8,1.5,1.7,1.5,2.8C460.3,139.9,459.7,140.8,458.6,141.5z"/>
	<path class="st4" d="M472.5,148.1c-0.8,0.9-1.4,1.3-1.8,1.3c-1,0-1.9-0.4-2.7-1.3c-0.8-0.9-1.4-2.2-1.9-4c-0.3-1.2-0.6-2.5-0.7-3.8
		c-0.2-1.3-0.2-2.7-0.2-4.2c0-2.5,0.3-4.9,1-7.2c0.9-3.2,2.4-4.8,4.3-4.8c0.8,0,1.5,0.5,2.1,1.4c0.7,1,1.2,2.5,1.7,4.5
		c0.4,1.5,0.7,3,0.9,4.3s0.3,2.6,0.3,3.7C475.6,142.5,474.6,145.9,472.5,148.1z M474,130.9c-0.5-1.4-1-2.4-1.7-3.1
		c-0.6-0.7-1.4-1-2.2-1l-0.1,0c-1.6,0.1-2.8,1.5-3.6,4.2c-0.3,0.9-0.5,1.9-0.6,2.9c-0.1,1-0.2,2-0.2,3.1c0,1.7,0.4,3.7,1.1,5.8
		c0.5,1.3,1,2.4,1.6,3.1c0.6,0.7,1.3,1.1,2,1.1s1.4-0.4,2-1.1s1.1-1.8,1.6-3.2c0.7-2.1,1.1-4,1.1-5.8c0-0.9-0.1-1.9-0.3-2.9
		S474.3,132,474,130.9z"/>
	<path class="st4" d="M487.5,148.1c-0.8,0.9-1.4,1.3-1.8,1.3c-1,0-1.9-0.4-2.7-1.3c-0.8-0.9-1.4-2.2-1.9-4c-0.3-1.2-0.6-2.5-0.7-3.8
		c-0.2-1.3-0.2-2.7-0.2-4.2c0-2.5,0.3-4.9,1-7.2c0.9-3.2,2.4-4.8,4.3-4.8c0.8,0,1.5,0.5,2.1,1.4c0.7,1,1.2,2.5,1.7,4.5
		c0.4,1.5,0.7,3,0.9,4.3s0.3,2.6,0.3,3.7C490.5,142.5,489.5,145.9,487.5,148.1z M488.9,130.9c-0.5-1.4-1-2.4-1.7-3.1
		c-0.6-0.7-1.4-1-2.2-1l-0.1,0c-1.6,0.1-2.8,1.5-3.6,4.2c-0.3,0.9-0.5,1.9-0.6,2.9c-0.1,1-0.2,2-0.2,3.1c0,1.7,0.4,3.7,1.1,5.8
		c0.5,1.3,1,2.4,1.6,3.1c0.6,0.7,1.3,1.1,2,1.1s1.4-0.4,2-1.1s1.1-1.8,1.6-3.2c0.7-2.1,1.1-4,1.1-5.8c0-0.9-0.1-1.9-0.3-2.9
		S489.3,132,488.9,130.9z"/>
	<path class="st4" d="M516.7,117.6v0.6c-0.5-0.3-1.2-0.5-1.9-0.7c-0.7-0.2-1.4-0.4-2.3-0.7c-1.8-0.4-3.3-0.7-4.4-0.7
		c-1.3,0-2.2,0.2-2.9,0.6c-0.7,0.4-1,1-1,1.8v2.2h3.6v1.6h-3.2v20.3h0.5v0.1h-3.8v-0.1h1v-20.3h-3.3v-1.6h3.3v-0.5
		c0-1.9,0.2-3.3,0.7-4.1c0.6-1,1.6-1.5,3.1-1.5c0.6,0,1.4,0.1,2.3,0.3c0.9,0.2,1.9,0.6,3.1,1c1.2,0.4,2.2,0.9,3.1,1.4s1.7,1,2.5,1.7
		L516.7,117.6z"/>
	<path class="st4" d="M520.9,122.3v20.3h1.3v0.1h-4.6v-0.1l1.1-0.2v-8.8c-0.4-1.1-0.9-1.8-1.4-2.4c-0.5-0.5-1.1-0.8-1.7-0.8
		c-1.3,0-2.3,0.4-3,1.3c-0.8,0.9-1.1,2.1-1.1,3.6c0,1.7,0.3,3.4,1,5c-0.3-0.4-0.7-0.7-1-1.1c-0.3-0.4-0.7-0.8-1-1.2
		c-0.8-0.9-1.2-2.2-1.2-3.9c0-0.7,0.2-1.4,0.7-2.1c0.5-0.7,1.2-1.4,2.3-2.1c-0.2-0.2-0.4-0.3-0.6-0.5c-0.2-0.2-0.5-0.4-0.8-0.6
		c-1.2-1-1.8-2-1.8-3.2c0-0.3,0.1-0.6,0.2-0.9c0.1-0.3,0.3-0.6,0.6-0.9c0.3-0.3,0.6-0.6,1-0.9c0.4-0.3,1-0.6,1.6-0.8h-4.9v-1.6h16.9
		v1.6H520.9z M518.6,122.3h-5.1c-0.3,0.2-0.6,0.5-0.9,0.7c-0.3,0.2-0.6,0.4-0.8,0.6c-0.6,0.6-0.9,1.3-0.9,2.1c0,0.6,0.2,1.3,0.5,2.1
		c0.2,0.3,0.3,0.6,0.4,1c0.1,0.3,0.3,0.7,0.4,1.1c0.4-0.2,0.8-0.4,1.2-0.5c0.4-0.1,0.7-0.1,1.1-0.1c0.6,0,1.2,0.2,1.8,0.6
		c0.7,0.4,1.4,1.1,2.3,2.1V122.3z"/>
	<path class="st4" d="M534.4,141.5c-0.9,0.6-1.9,0.8-3,0.8c-0.4,0-0.9-0.1-1.3-0.3s-0.9-0.5-1.4-0.8c-0.7-0.6-1.2-1.3-1.4-2.3
		c0-1.2,0.5-2.2,1.5-2.9c0.9-0.6,1.9-1,3-1c1,0,1.9,0.3,2.8,1c1,0.8,1.5,1.7,1.5,2.8C536.1,139.9,535.5,140.8,534.4,141.5z"/>
	<path class="st4" d="M560.2,142.5L560.2,142.5l1.2,0l-0.3-1.7c-0.7-1.4-1.9-2.2-3.6-2.2c-1,0-1.9-0.1-2.6-0.3
		c-0.7-0.2-1.3-0.4-1.7-0.6c-1.1-0.6-2.2-1.9-3.2-3.8c-0.7-1.3-1.3-3-1.7-5.1c-0.1-0.2-0.1-0.6-0.2-0.9c0-0.4-0.1-0.8-0.1-1.3
		c0.4-0.2,0.9-0.4,1.4-0.6s1.1-0.2,1.6-0.3c0,0.2-0.1,0.4-0.2,0.7c-0.2,0.5-0.2,0.9-0.2,1.3c0,0.7,0.1,1.3,0.2,2.1
		c0.1,0.8,0.3,1.5,0.5,2.3c0.2,0.8,0.5,1.5,0.8,2.2c0.3,0.7,0.6,1.2,1,1.7c0.7,1.1,1.7,1.6,2.8,1.6l0.2,0c0.1,0,0.2,0,0.4,0
		c0.2,0,0.3,0,0.6,0c0.7,0,1.3,0.2,2,0.5c0.6,0.3,1.3,0.9,2,1.7v-17.2c-0.4-0.4-0.9-0.8-1.6-0.9c-2.4,2.2-3.6,4.2-3.6,5.9
		c0,1.6,0.3,3.1,0.8,4.7c-1.8-2-2.8-4.2-2.8-6.4c0-1.2,0.3-2.1,1-2.8c0.3-0.2,0.6-0.6,1.1-1s0.9-0.8,1.5-1.4c1.4,0.4,2.4,0.8,3,1.1
		c0.4,0.2,0.9,0.5,1.3,0.8c0.5,0.3,0.9,0.7,1.4,1.2v18.7h1.6v0H560.2z"/>
	<path class="st4" d="M589.5,140.7c-1.5,1.3-3.1,2-4.9,2c-1.2,0-2.1-0.3-2.9-1c-3.9-3.2-6.1-8-6.7-14.4l2.4-0.6
		c0.1,2.9,0.4,5.3,0.9,7.1c0.3,1.1,0.7,2.2,1.2,3.2c0.5,1,1.1,2,1.9,3.1c0.5,0.7,1.1,1.3,1.6,1.7c0.5,0.4,1,0.6,1.4,0.6
		c1.7,0,3.1-0.8,4-2.3c0.8-1.3,1.1-3,1.1-5.1c0-1.4-0.6-2.1-1.7-2.1c-0.7,0-1.3,0.2-1.9,0.5c1.5-1.9,2.6-3.5,3.3-4.8
		c0.7-1.3,1.1-2.4,1.1-3.2c0-0.7-0.3-1.6-1-2.5c-0.6-0.9-1.2-1.4-1.9-1.4c-0.7,0-1.4,0.5-1.9,1.5c-0.2,0.4-0.4,0.9-0.5,1.3
		c-0.1,0.4-0.2,0.9-0.2,1.3c0,1.2,0.3,2.5,1,3.9c-0.7-0.5-1.2-1-1.5-1.4c-0.2-0.3-0.4-0.7-0.6-1.1c-0.2-0.4-0.3-1.1-0.5-1.8l-1.6,3
		l-1.5,1.2c0.6-1.2,0.9-2.2,0.9-3.1c0-2-1-3.8-3-5.5h2.6c0.5,0.4,1,1,1.3,1.6s0.6,1.4,0.8,2.4c0.2-0.3,0.3-0.6,0.4-0.8
		c0.1-0.2,0.2-0.5,0.4-0.8c0.7-1.5,1.6-2.3,2.7-2.3c1,0,2.1,0.5,3.4,1.6c1.3,1.1,2,2.3,2,3.5c0,1.5-0.9,3.1-2.8,4.8
		c-0.1,0.1-0.3,0.3-0.6,0.5s-0.6,0.5-1,0.9l0.3,0.4c0.4-0.4,0.9-0.5,1.4-0.5c1.9,0,2.9,1.3,2.9,3.8
		C591.9,137.5,591.1,139.2,589.5,140.7z"/>
	<path class="st4" d="M607.7,122.3c-0.1,0-0.2,0-0.5,0s-0.4,0-0.7,0c-0.3,0-0.5,0-0.8,0c-0.3,0-0.5,0-0.6,0v19.3
		c-0.8-0.8-1.9-1.6-3.1-2.5c-0.9-0.6-1.7-1.2-2.3-1.6c-0.6-0.4-1-0.7-1.2-0.9c-1.3-1.1-2.3-2.2-3-3.3c-0.6-1.1-1-2.2-1-3.4
		c0-1.9,1-3.4,3-4.5h5.3v-3.2h-10.1v-1.6h15.7v1.6c-0.1,0-0.2,0-0.4,0S607.9,122.3,607.7,122.3z M598,140.7
		c-0.4,0.3-0.8,0.4-1.2,0.4c-0.4,0-0.8-0.2-1.2-0.5c-0.3-0.3-0.5-0.6-0.5-1.1c0-0.4,0.1-0.8,0.4-1.1c0.3-0.3,0.7-0.5,1-0.5
		c0.7,0,1.3,0.1,1.6,0.4s0.5,0.7,0.5,1.2C598.5,140.1,598.3,140.4,598,140.7z M602.9,126.2h-3.7c-1.5,1.1-2.2,2.5-2.2,4.3
		c0,1.3,0.7,2.6,2,4.1c0.3,0.4,0.8,0.9,1.4,1.4c0.6,0.6,1.4,1.2,2.5,2V126.2z"/>
	<path class="st4" d="M609.8,134c-0.5,0.6-1.1,0.9-1.6,0.9c-1.2,0-2.4-0.8-3.4-2.5v-0.8c0.5,0.8,1.3,1.2,2.3,1.2
		c1.1,0,1.6-0.9,1.6-2.6c0-0.9-0.1-1.8-0.3-2.8c1.4,1.8,2.2,3.3,2.2,4.6C610.5,132.8,610.2,133.4,609.8,134z M606.1,122.3v-1.6h6.6
		v1.6H606.1z"/>
	<path class="st4" d="M630.1,122.3c1.1,0.8,1.8,1.6,2.3,2.3c0.4,0.8,0.7,1.6,0.7,2.4c0,1.7-0.7,3.2-2.1,4.6
		c-1.4,1.4-3.5,2.6-6.4,3.7c0.6,2.3,1.5,4.3,2.9,5.8c0.4,0.4,0.9,0.9,1.6,1.5s1.7,1.4,2.8,2.2c0.2,0.1,0.3,0.2,0.4,0.3
		c0.1,0.1,0.2,0.2,0.4,0.3c-1.2-0.8-2.3-1.6-3.3-2.2s-1.8-1.3-2.4-1.9c-1-0.9-1.9-1.8-2.7-2.9c-0.8-1-1.5-2.1-2.2-3.3
		c2.8-0.9,4.9-1.9,6.3-3.1c1.4-1.2,2.1-2.6,2.1-4.2c0-1.1-0.3-2.1-0.9-3.1c-0.7-1.1-1.4-1.6-2.3-1.6s-1.6,0.2-2.2,0.7
		c-0.7,0.6-1.1,1.4-1.1,2.4c0,0.7,0.1,1.4,0.2,2c0.2,0.6,0.4,1.2,0.7,1.8c-0.9-0.6-1.6-1.1-2-1.6c-0.6-0.8-0.9-1.9-0.8-3.2
		c0-0.7,0.4-1.3,1.1-1.9c0.1-0.1,0.3-0.2,0.5-0.4c0.2-0.1,0.6-0.4,1.1-0.8h-5v-1.6h15.2v1.6H630.1z"/>
	<path class="st4" d="M642,122.3c-0.9,0.8-1.6,1.6-2.1,2.3c-0.6,0.7-1,1.4-1.3,2.1c-0.8,1.6-1.1,3.5-1.1,5.8c0,3,0.7,5.9,2,8.7
		c-1.3-1.6-2.2-3-2.7-4.2c-0.8-1.8-1.2-3.9-1.2-6.5c0-1.5,0.2-2.7,0.5-3.6c0.3-0.7,0.7-1.4,1.2-2.1c0.5-0.7,1.2-1.6,2.2-2.5h-5.3
		c0-0.2,0-0.3,0-0.5c0-0.2,0-0.3,0-0.4c0-0.1,0-0.3,0-0.4s0-0.2,0-0.3h9.6v1.6H642z"/>
	<path class="st4" d="M655.1,141.6c-0.4-0.3-0.8-0.7-1.3-1.1c-0.5-0.4-1.1-0.9-1.8-1.4c-0.8-0.6-1.5-1.1-2.1-1.5
		c-0.6-0.4-1-0.8-1.4-1.1c-2.6-2.3-3.9-4.6-3.9-6.9c0-1.9,1-3.4,3-4.5h5.3v-2.8h-10v-1.6h15.8v1.6c-0.2,0-0.5,0-0.9,0
		c-0.4,0-0.8,0-1.2,0h-1.5V141.6z M652.9,125.8h-3.7c-1.5,1.1-2.2,2.5-2.2,4.3c0,2,2,4.6,5.9,7.9V125.8z"/>
	<path class="st4" d="M665.7,142.3v-22.5h2.2v22.5H665.7z"/>
</g>
</svg>
