<?xml version="1.0" encoding="utf-8"?>
<!-- Generator: Adobe Illustrator 21.0.0, SVG Export Plug-In . SVG Version: 6.00 Build 0)  -->
<svg version="1.1" id="Layer_1" xmlns="http://www.w3.org/2000/svg" xmlns:xlink="http://www.w3.org/1999/xlink" x="0px" y="0px"
	 viewBox="0 0 721 216" style="enable-background:new 0 0 721 216;" xml:space="preserve">
<style type="text/css">
	.st0{opacity:0.8;fill:#FFFDFF;enable-background:new    ;}
	.st1{fill:#00A99D;}
	.st2{fill:#1B1464;}
	.st3{enable-background:new    ;}
	.st4{fill:#CA00C6;}
	.st5{font-family:'MyriadPro-Regular';}
	.st6{font-size:37.1415px;}
	.st7{fill:#FCFAFA;}
	.st8{font-size:39.3915px;}
</style>
<rect x="1" y="1" class="st0" width="721" height="216"/>
<g>
	<path class="st1" d="M323,79.5c-6.3,0-11.5-5.2-11.5-11.5V27c0-6.3,5.2-11.5,11.5-11.5h46c6.3,0,11.5,5.2,11.5,11.5v41
		c0,6.3-5.2,11.5-11.5,11.5H323z"/>
	<path class="st2" d="M369,16c6.1,0,11,4.9,11,11v41c0,6.1-4.9,11-11,11h-46c-6.1,0-11-4.9-11-11V27c0-6.1,4.9-11,11-11H369 M369,15
		h-46c-6.6,0-12,5.4-12,12v41c0,6.6,5.4,12,12,12h46c6.6,0,12-5.4,12-12V27C381,20.4,375.6,15,369,15L369,15z"/>
</g>
<g class="st3">
	<path class="st4" d="M151.9,104.4c0.8-0.7,1.5-1.4,2.3-2.2c0.2-0.9,0.1-1.5-0.3-2c-0.4-0.5-0.9-0.7-1.7-0.7c-0.4,0-0.9,0.2-1.6,0.6
		c-0.6,0.4-1,0.5-1.2,0.5c-1,0-1.4-0.6-1.4-1.9c0-2.1,0.7-3.7,2-4.8c1.2-1,2.6-1.5,4.5-1.5c1.2,0,2.2,0.2,3.1,0.7
		c0.4,0.2,0.8,0.5,1.2,0.9c0.4,0.4,1,0.9,1.6,1.6v-3.9h5.3v1.6h-3.1v20.2h1.2v0h-3.4v-12.7l-0.7-0.9l-6.6,5.8
		c-0.6-0.4-1.4-0.9-2.2-1.7L151.9,104.4z M159.7,96.5c-1.7-1.8-3.5-2.8-5.6-2.8c-0.4,0-0.8,0.1-1.4,0.2c-0.5,0.1-1,0.3-1.5,0.6
		c-0.5,0.3-0.9,0.6-1.2,1.1c-0.3,0.4-0.5,0.9-0.5,1.5c0,0.4,0.1,0.7,0.4,0.9c0.3,0.2,0.6,0.3,0.8,0.3c0.1,0,0.3,0,0.5-0.1
		c0.2-0.1,0.3-0.1,0.5-0.2c0.2-0.1,0.4-0.2,0.5-0.2c0.2,0,0.3-0.1,0.5,0c0.6,0.2,1,0.4,1.2,0.7c0.2,0.3,0.4,0.8,0.5,1.4
		c0.1,0.7,0.4,1,0.9,1.1l2.5-2.4c0.3,0.2,0.6,0.3,1,0.4c0.3,0.1,0.6,0.2,1,0.4V96.5z"/>
	<path class="st4" d="M162.6,118h-3.5v-0.1L159,118h1.4v-1.5c-0.9-1-1.8-1.5-2.7-1.5c-0.1,0-0.7,0.3-1.8,1c-1.1,0.6-1.9,0.9-2.5,0.9
		c-1.6,0-2.8-0.8-3.8-2.5c-0.2-0.4-0.4-1.2-0.7-2.5c-0.1-0.4-0.1-0.7-0.2-1c0-0.3-0.1-0.6-0.1-0.8c1.3,3.4,2.8,5.1,4.7,5.1
		c0.2,0,0.5-0.1,0.9-0.2c0.3-0.1,0.7-0.2,1.1-0.4c0.4-0.2,0.8-0.3,1.1-0.4c0.3-0.1,0.5-0.1,0.8-0.1c0.6,0,1,0,1.3,0.1l2,1.8v-3.4
		h2.2V118z"/>
	<path class="st4" d="M172.9,93.3c-0.9,0.8-1.6,1.6-2.1,2.3c-0.6,0.7-1,1.4-1.3,2.1c-0.8,1.6-1.1,3.5-1.1,5.8c0,3,0.7,5.9,2,8.7
		c-1.3-1.6-2.2-3-2.7-4.2c-0.8-1.8-1.2-3.9-1.2-6.5c0-1.5,0.2-2.7,0.5-3.6c0.3-0.7,0.7-1.4,1.2-2.1c0.5-0.7,1.2-1.6,2.2-2.5h-5.3
		c0-0.2,0-0.3,0-0.5c0-0.2,0-0.3,0-0.4c0-0.1,0-0.3,0-0.4c0-0.1,0-0.2,0-0.3h9.6v1.6H172.9z"/>
	<path class="st4" d="M188.7,93.3v19.8c-0.8-0.6-2-1.4-3.4-2.3c-1.8-1-3-1.8-3.6-2.3c-2.6-1.8-4.5-4.2-5.7-7.3l4.5-3.9
		c-0.6-1-1.2-1.8-1.8-2.5c-0.5-0.7-1.1-1.2-1.6-1.6h-3.5v-1.6H192v1.6H188.7z M186.5,93.3h-6.1l2.2,4.4l-4.6,3.7
		c1.1,2.7,2.3,4.4,3.6,5.2c0.1,0.1,0.6,0.3,1.4,0.8c0.8,0.5,2,1.2,3.5,2.1V93.3z M181.6,113c-0.4,0.3-0.8,0.5-1.3,0.5
		c-0.5,0-0.9-0.2-1.2-0.6c-0.4-0.4-0.6-0.8-0.6-1.3c0-0.5,0.2-0.9,0.7-1.1c0.4-0.2,0.8-0.4,1.3-0.4c0.5,0,0.9,0.1,1.2,0.4
		c0.4,0.3,0.5,0.7,0.5,1.3S181.9,112.8,181.6,113z"/>
	<path class="st4" d="M196,93.3v20.2h1.4v0h-4.8v0h1.2V93.3h-2.4v-1.6h7.4v1.6H196z"/>
	<path class="st4" d="M208,93.3v1.5c0.7,0.3,1.5,0.7,2.3,1.1c0.8,0.4,1.7,0.8,2.6,1.2c0.9,0.4,1.7,0.6,2.6,0.8
		c0.9,0.1,1.7,0.2,2.5,0.2c0.4,0,0.8,0,1.2-0.1c0.4-0.1,0.9-0.2,1.4-0.4l1.1,2.2c-0.8,0.8-1.5,1.5-2,2c-0.5,0.6-0.9,1.1-1.2,1.5
		c-0.7,1.3-1.1,2.8-1.1,4.7c0,0.1,0,0.4,0.1,1c0.1,0.6,0.2,1.5,0.3,2.7c-0.7-1.9-1.1-3.7-1.1-5.4c0-1.9,0.3-3.5,1-4.8
		c0.1-0.2,0.2-0.4,0.4-0.8s0.4-0.8,0.7-1.4c-2-0.2-3.9-0.6-5.6-1.3c-1.7-0.7-3.4-1.6-5.1-2.8v6.6c0,0.8,0.3,1.4,0.8,1.8
		c0.5,0.4,1,0.6,1.7,0.6c0.7,0,1.2-0.3,1.6-0.8c0.1-0.2,0.3-0.4,0.4-0.7c0.2-0.3,0.3-0.6,0.5-1l0-1.9l2.1,0.2c0,0.4,0,0.9,0,1.4
		c0,0.5,0,1,0,1.6c0,2.3-0.5,4.4-1.4,6.3c-1.2,2.5-2.9,3.7-5.1,3.7c-2.5,0-4.7-1.8-6.5-5.4c-1.3-2.6-2.2-5.5-2.6-8.6l3-0.4
		c0,0.3,0,0.6,0,0.8c0,0.2,0,0.5,0,0.7c0,2.5,0.4,5,1.3,7.5c0.6,1.7,1.2,3.1,2,3.9c0.8,0.9,1.7,1.3,2.7,1.3c1.5,0,2.7-1.1,3.6-3.2
		c0.6-1.5,0.9-3.1,0.9-4.8c0-0.2,0-0.4,0-0.7c0-0.3-0.1-0.7-0.2-1.2c-0.7,0.8-1.3,1.4-1.8,1.7c-0.6,0.4-1.1,0.5-1.7,0.5
		c-0.9,0-1.7-0.4-2.4-1.1c-0.7-0.7-1.1-1.6-1.1-2.6v-8.3h-0.3c0,0-0.1,0.1-0.3,0c-0.2,0-0.4,0-0.8,0c-0.3,0-0.7,0-1.2,0
		c-0.4,0-0.9,0-1.4,0c-0.5,0-0.9,0-1.3,0c-0.4,0-0.9,0-1.2,0c-0.4,0-0.7,0-1,0s-0.5,0-0.6,0v-1.6h25.5v1.6H208z"/>
	<path class="st4" d="M235.4,93.3v20.2h1.3v0h-4.5v-0.1h1V100l-3.1-2.3c-1.2,0.4-2.1,0.8-2.5,1.2c-0.7,0.6-1.1,1.6-1.1,3v0.1
		c0,0.1,0,0.2,0,0.4c0,0.1,0,0.3,0,0.5v1.1c0,0.5,0,1.1,0.1,1.6c0.1,0.6,0.3,1.2,0.5,1.8c0,0.2,0.1,0.4,0.3,0.7
		c0.2,0.3,0.3,0.7,0.6,1.2c-0.3-0.4-0.7-0.9-1.1-1.4c-0.4-0.5-0.8-1-1.2-1.5c-0.8-1.1-1.2-2.6-1.2-4.7c0-1.6,0.7-3,2.1-4.1
		c0.8-0.6,1.5-0.9,2.2-0.9c0.3,0,0.6-0.1,0.8-0.1c0.2,0,0.4,0,0.5,0.1c0.6,0.1,1.3,0.6,2,1.5c0.1,0.2,0.3,0.3,0.4,0.5
		c0.1,0.2,0.3,0.4,0.6,0.7v-6h-10.4c0-0.4,0-0.7,0-1c0-0.3,0-0.5,0-0.6h15.9v1.6H235.4z"/>
	<path class="st4" d="M243.4,93.3v20.1h0.8v0.3h-3.7v-0.3h0.7v-20h-3.1v-1.6h2.9c0.1-0.6,0.2-1.2,0.2-1.8c0-0.5-0.1-1-0.3-1.6
		c-0.7-0.8-1.9-1.1-3.6-1.1c-1.9,0-4.2,0.5-7,1.6c1-0.7,2.5-1.3,4.4-1.9c2.2-0.7,3.9-1.1,4.9-1.1c1.5,0,2.6,0.7,3.2,2.1
		c0.2,0.3,0.3,0.8,0.3,1.4s0.1,1.5,0.1,2.5h3.7v1.6H243.4z"/>
	<path class="st4" d="M261.5,93.3v19.8c-0.8-0.6-2-1.4-3.4-2.3c-1.8-1-3-1.8-3.6-2.3c-2.6-1.8-4.5-4.2-5.7-7.3l4.5-3.9
		c-0.6-1-1.2-1.8-1.8-2.5c-0.5-0.7-1.1-1.2-1.6-1.6h-3.5v-1.6h18.5v1.6H261.5z M259.3,93.3h-6.1l2.2,4.4l-4.6,3.7
		c1.1,2.7,2.3,4.4,3.6,5.2c0.1,0.1,0.6,0.3,1.4,0.8c0.8,0.5,2,1.2,3.5,2.1V93.3z M254.4,113c-0.4,0.3-0.8,0.5-1.3,0.5
		c-0.5,0-0.9-0.2-1.2-0.6c-0.4-0.4-0.6-0.8-0.6-1.3c0-0.5,0.2-0.9,0.7-1.1c0.4-0.2,0.8-0.4,1.3-0.4c0.5,0,0.9,0.1,1.2,0.4
		c0.4,0.3,0.5,0.7,0.5,1.3S254.8,112.8,254.4,113z"/>
	<path class="st4" d="M288.7,93.3v20h1.1v0.2h-4.5v-0.2h1.2v-11l-2.1-2c-0.3,0.4-0.8,1-1.3,1.7c-0.6,0.7-1.2,1.6-2,2.6
		c-0.8,1-1.5,1.8-2,2.3c-0.6,0.5-1,0.7-1.3,0.7c-1.2,0-2.3-0.5-3.5-1.6l0-0.9c0.6,0.7,1.2,1,1.8,1c0.8,0,1.7-0.6,2.7-1.9
		c1-1.3,1.5-2.4,1.5-3.3c0-0.7-0.1-1.2-0.3-1.6c-0.2-0.4-0.6-0.6-1.1-0.6c-0.4,0-0.9,0.2-1.5,0.5l-1.3,0.8c-0.7-0.2-1.1-0.4-1.4-0.7
		c-0.3-0.3-0.5-0.9-0.5-1.6c0-0.2,0.1-0.7,0.4-1.4c0.3-0.7,0.8-1.7,1.4-2.9H272v-1.6h19.8v1.6H288.7z M286.5,93.3H277
		c-0.2,0.4-0.4,0.7-0.6,1.1c-0.2,0.4-0.4,0.8-0.6,1.2c-0.2,0.3-0.2,0.6-0.2,0.9c0,0.3,0.1,0.6,0.3,0.7c0.2,0.1,0.4,0.2,0.8,0.2
		c0.4,0,0.9-0.1,1.6-0.4c0.6-0.2,1.1-0.3,1.4-0.3c0.4,0,0.7,0.2,1,0.6s0.3,1.1,0.3,2.1c0,0.2,0,0.5,0,0.9s-0.1,0.9-0.1,1.5l3.3-3.2
		c0.3,0.2,0.6,0.4,1,0.7c0.4,0.3,0.9,0.8,1.4,1.4V93.3z"/>
	<path class="st4" d="M304.7,93.3v4.1h1.4c0.9,0,1.6,0,2.1,0.1c0.5,0.1,1,0.2,1.2,0.4c0.8,0.4,1.2,1.4,1.2,2.8
		c0,0.9-0.5,2.2-1.5,3.9c-0.6,1.1-1.4,2.1-2.2,3c1.1-2.6,1.7-5,1.7-7.3c0-0.6-0.1-1.2-0.4-1.6c-0.2-0.3-0.6-0.6-1.1-1h-2.4v15.1
		c-3.5-2.1-6-4.1-7.7-6.2c-1.7-2-2.5-4.1-2.5-6.1c0-1.4,0.6-2.3,1.8-2.8c0.7-0.3,1.8-0.4,3.4-0.3l2.7,0.1v-4.2h-11.2v-1.6h21.5v1.6
		H304.7z M302.5,97.9h-3.2c-0.8,0.4-1.4,0.9-1.6,1.4c-0.2,0.3-0.3,0.6-0.3,1c-0.1,0.4-0.1,0.8-0.1,1.4c0,0.8,0.1,1.7,0.4,2.5
		c0.3,0.9,0.7,1.7,1.2,2.6c0.5,0.8,1.1,1.6,1.6,2.2s1.2,1.1,2,1.6V97.9z"/>
	<path class="st4" d="M324.8,113.5v-12c0-0.6-0.4-1.2-1.1-1.8c-0.6-0.4-1.2-0.6-1.8-0.6c-0.4,0-0.7,0.2-1,0.5
		c-0.3,0.4-0.6,0.9-0.9,1.5c-0.8-1.4-1.5-2-2.2-2c-1.9,0-2.8,1.6-2.8,4.7c0,1.4,0.1,2.5,0.4,3.2c0.3,0.8,0.8,1.7,1.5,2.7
		c0.4,0.4,0.8,0.8,1.3,1.4c-1.3-0.7-2.5-1.7-3.4-3c-1.2-1.6-1.8-3.5-1.8-5.5c0-1.8,0.4-3.2,1.1-4.2c0.7-1,1.8-1.5,3.3-1.5
		c0.8,0,1.4,0.5,1.8,1.6c0.1,0.2,0.1,0.3,0.2,0.5c0.1,0.2,0.2,0.5,0.3,0.8c0.1-0.3,0.2-0.6,0.3-0.8c0.1-0.2,0.2-0.5,0.3-0.7
		c0.3-0.8,1-1.2,2-1.2c0.3,0,0.5,0.1,0.8,0.4c0.3,0.2,0.6,0.6,0.9,1.2c0.1,0.2,0.2,0.3,0.3,0.5c0.1,0.2,0.3,0.5,0.5,1v-6.9H311v-1.6
		h19.2l0,1.6H327v20.2c0.1,0,0.2,0,0.3,0c0.2,0,0.3,0,0.5,0H324.8z"/>
	<path class="st4" d="M354.9,88.6v0.6c-0.5-0.3-1.2-0.5-1.9-0.7c-0.7-0.2-1.4-0.4-2.3-0.7c-1.8-0.4-3.3-0.7-4.4-0.7
		c-1.3,0-2.2,0.2-2.9,0.6c-0.7,0.4-1,1-1,1.8v2.2h3.6v1.6h-3.2v20.3h0.5v0.1h-3.8v-0.1h1V93.3h-3.3v-1.6h3.3v-0.5
		c0-1.9,0.2-3.3,0.7-4.1c0.6-1,1.6-1.5,3.1-1.5c0.6,0,1.4,0.1,2.3,0.3c0.9,0.2,1.9,0.6,3.1,1c1.2,0.4,2.2,0.9,3.1,1.4
		c0.9,0.5,1.7,1,2.5,1.7L354.9,88.6z"/>
	<path class="st4" d="M358.8,93.3v4.1h1.4c0.9,0,1.6,0,2.1,0.1c0.5,0.1,1,0.2,1.2,0.4c0.8,0.4,1.2,1.4,1.2,2.8
		c0,0.9-0.5,2.2-1.5,3.9c-0.6,1.1-1.4,2.1-2.2,3c1.1-2.6,1.7-5,1.7-7.3c0-0.6-0.1-1.2-0.4-1.6c-0.2-0.3-0.6-0.6-1.1-1h-2.4v15.1
		c-3.5-2.1-6-4.1-7.7-6.2c-1.7-2-2.5-4.1-2.5-6.1c0-1.4,0.6-2.3,1.8-2.8c0.7-0.3,1.8-0.4,3.4-0.3l2.7,0.1v-4.2h-11.2v-1.6H367v1.6
		H358.8z M356.6,97.9h-3.2c-0.8,0.4-1.4,0.9-1.6,1.4c-0.2,0.3-0.3,0.6-0.3,1c-0.1,0.4-0.1,0.8-0.1,1.4c0,0.8,0.1,1.7,0.4,2.5
		c0.3,0.9,0.7,1.7,1.2,2.6c0.5,0.8,1.1,1.6,1.6,2.2s1.2,1.1,2,1.6V97.9z"/>
	<path class="st4" d="M370.1,93.3v2.3c1.2,1.1,2.1,1.6,2.9,1.6c0.8,0,1.6-0.3,2.4-1l2.4,1.6l-0.9,1.3c1.5,0.3,2.6,0.7,3.3,1.2
		c0.7,0.5,1,1.2,1,2c0,0.6-0.3,1.3-0.9,1.9c-0.6,0.6-1.5,1.3-2.7,1.9c-0.3,0.2-0.9,0.4-1.7,0.7s-2,0.8-3.5,1.4
		c0.5,2.4,1.5,4.3,2.8,5.8c0.5,0.7,1.6,1.6,3,2.9c-1-0.6-1.9-1.1-2.6-1.5c-0.7-0.4-1.3-0.9-1.8-1.2c-1.7-1.4-3.2-3.1-4.5-5.3
		c3-1.1,5.3-2.2,6.8-3.4s2.3-2.5,2.3-3.9c0-0.2-0.1-0.5-0.3-0.8s-0.4-0.5-0.8-0.8c0,0-0.1-0.1-0.2-0.2c-0.1-0.1-0.2-0.2-0.4-0.3
		c-0.3,0.5-0.6,1.1-1,1.8c-0.4,0.6-0.8,1.4-1.3,2.2c-0.4,0.4-0.8,0.9-1.3,1.4c-0.5,0.5-1.1,0.9-1.8,1.5c-1.1-0.5-2.2-1.3-3.5-2.3
		V93.3h-2.8v-1.6h18.3v1.6H370.1z M374.8,97.2c-0.5,0.6-1,1-1.4,1.2c-0.4,0.2-0.8,0.4-1.2,0.4c-0.6,0-1.3-0.2-2.1-0.5v6.1l1.4,1.5
		c0.6-0.6,1.1-1.1,1.5-1.7c0.4-0.6,0.7-1.2,1-1.8c0.1-0.2,0.6-1.5,1.5-4C375.4,98,375.2,97.6,374.8,97.2z"/>
	<path class="st4" d="M377.4,117c-1.9,1.2-3.6,1.8-5.4,1.8c-1.4,0-2.4-0.3-3-0.8s-1-1.3-1-2.4c0-0.6,0.2-1.2,0.7-1.8
		c0.5-0.5,1.2-1,2.1-1.3c0.7-0.3,1.5-0.5,2.3-0.6s1.7-0.2,2.5-0.2h0.3v1.8c-0.6,0-1.3,0.1-2,0.2s-1.4,0.2-2.1,0.4
		c-0.9,0.3-1.7,0.6-2.2,1s-0.8,0.8-0.8,1.3c0,0.4,0.2,0.8,0.5,1c0.3,0.2,0.7,0.3,1.2,0.3c1.5,0,3.5-0.8,6-2.5
		c1.1,0.6,2.2,1.3,3.3,2.1c1.1,0.8,2.3,1.7,3.4,2.7c-0.7-0.4-1.6-0.9-2.6-1.4C379.9,118.2,378.7,117.7,377.4,117z"/>
	<path class="st4" d="M405.2,113.5L405.2,113.5l1.2,0l-0.3-1.7c-0.7-1.4-1.9-2.1-3.6-2.2c-1,0-1.9-0.1-2.6-0.3
		c-0.7-0.2-1.3-0.4-1.7-0.6c-1.1-0.6-2.2-1.9-3.2-3.8c-0.7-1.3-1.3-3-1.7-5.1c-0.1-0.2-0.1-0.6-0.2-0.9c0-0.4-0.1-0.8-0.1-1.3
		c0.4-0.2,0.9-0.4,1.4-0.6c0.5-0.1,1.1-0.2,1.6-0.3c0,0.2-0.1,0.4-0.2,0.7c-0.2,0.5-0.2,0.9-0.2,1.3c0,0.6,0.1,1.3,0.2,2.1
		c0.1,0.8,0.3,1.5,0.5,2.3c0.2,0.8,0.5,1.5,0.8,2.2c0.3,0.6,0.6,1.2,1,1.7c0.7,1.1,1.7,1.6,2.8,1.6l0.2,0c0.1,0,0.2,0,0.4,0
		c0.2,0,0.3,0,0.6,0c0.7,0,1.3,0.2,2,0.5c0.6,0.3,1.3,0.9,2,1.7V93.6c-0.4-0.4-0.9-0.8-1.6-0.9c-2.4,2.2-3.6,4.2-3.6,5.9
		c0,1.6,0.3,3.1,0.8,4.7c-1.8-2-2.8-4.2-2.8-6.4c0-1.2,0.3-2.1,1-2.8c0.3-0.2,0.6-0.6,1.1-1c0.4-0.4,0.9-0.8,1.5-1.4
		c1.4,0.4,2.4,0.8,3,1.1c0.4,0.2,0.9,0.5,1.3,0.8c0.5,0.3,0.9,0.7,1.4,1.2v18.7h1.6v0H405.2z"/>
	<path class="st4" d="M424.2,93.3v4.1h1.4c0.9,0,1.6,0,2.1,0.1c0.5,0.1,1,0.2,1.2,0.4c0.8,0.4,1.2,1.4,1.2,2.8
		c0,0.9-0.5,2.2-1.5,3.9c-0.6,1.1-1.4,2.1-2.2,3c1.1-2.6,1.7-5,1.7-7.3c0-0.6-0.1-1.2-0.4-1.6c-0.2-0.3-0.6-0.6-1.1-1h-2.4v15.1
		c-3.5-2.1-6-4.1-7.7-6.2c-1.7-2-2.5-4.1-2.5-6.1c0-1.4,0.6-2.3,1.8-2.8c0.7-0.3,1.8-0.4,3.4-0.3l2.7,0.1v-4.2h-11.2v-1.6h21.5v1.6
		H424.2z M422,97.9h-3.2c-0.8,0.4-1.4,0.9-1.6,1.4c-0.2,0.3-0.3,0.6-0.3,1c-0.1,0.4-0.1,0.8-0.1,1.4c0,0.8,0.1,1.7,0.4,2.5
		s0.7,1.7,1.2,2.6c0.5,0.8,1.1,1.6,1.6,2.2c0.6,0.6,1.2,1.1,2,1.6V97.9z"/>
	<path class="st4" d="M447.4,93.3v20h1.1v0.2H444v-0.2h1.2v-11l-2.1-2c-0.3,0.4-0.8,1-1.3,1.7c-0.6,0.7-1.2,1.6-2,2.6
		c-0.8,1-1.5,1.8-2,2.3c-0.6,0.5-1,0.7-1.3,0.7c-1.2,0-2.3-0.5-3.5-1.6l0-0.9c0.6,0.7,1.2,1,1.8,1c0.8,0,1.7-0.6,2.7-1.9
		c1-1.3,1.5-2.4,1.5-3.3c0-0.7-0.1-1.2-0.3-1.6c-0.2-0.4-0.6-0.6-1.1-0.6c-0.4,0-0.9,0.2-1.5,0.5l-1.3,0.8c-0.7-0.2-1.1-0.4-1.4-0.7
		c-0.3-0.3-0.5-0.9-0.5-1.6c0-0.2,0.1-0.7,0.4-1.4c0.3-0.7,0.8-1.7,1.4-2.9h-3.8v-1.6h19.8v1.6H447.4z M445.2,93.3h-9.5
		c-0.2,0.4-0.4,0.7-0.6,1.1c-0.2,0.4-0.4,0.8-0.6,1.2c-0.2,0.3-0.2,0.6-0.2,0.9c0,0.3,0.1,0.6,0.3,0.7c0.2,0.1,0.4,0.2,0.8,0.2
		c0.4,0,0.9-0.1,1.6-0.4c0.6-0.2,1.1-0.3,1.4-0.3c0.4,0,0.7,0.2,1,0.6c0.2,0.4,0.3,1.1,0.3,2.1c0,0.2,0,0.5,0,0.9s-0.1,0.9-0.1,1.5
		l3.3-3.2c0.3,0.2,0.6,0.4,1,0.7c0.4,0.3,0.9,0.8,1.4,1.4V93.3z"/>
	<path class="st4" d="M454.7,93.3v20.2h1.4v0h-4.8v0h1.2V93.3h-2.4v-1.6h7.4v1.6H454.7z"/>
	<path class="st4" d="M464.1,93.3c-0.9,0.8-1.6,1.6-2.1,2.3c-0.6,0.7-1,1.4-1.3,2.1c-0.8,1.6-1.1,3.5-1.1,5.8c0,3,0.7,5.9,2,8.7
		c-1.3-1.6-2.2-3-2.7-4.2c-0.8-1.8-1.2-3.9-1.2-6.5c0-1.5,0.2-2.7,0.5-3.6c0.3-0.7,0.7-1.4,1.2-2.1c0.5-0.7,1.2-1.6,2.2-2.5h-5.3
		c0-0.2,0-0.3,0-0.5c0-0.2,0-0.3,0-0.4c0-0.1,0-0.3,0-0.4c0-0.1,0-0.2,0-0.3h9.6v1.6H464.1z"/>
	<path class="st4" d="M478.7,93.3v19.9c0,0-0.1,0-0.1,0c-0.7,0-1.6-0.2-2.6-0.6c-1-0.4-2.2-0.9-3.5-1.6c-2.8-1.5-4.6-2.8-5.4-4
		c-0.1-0.1-0.2-0.3-0.4-0.7s-0.4-0.8-0.7-1.4c1.2-0.6,2.2-1.3,3.2-2c0.9-0.8,1.7-1.6,2.4-2.6c0.4-2.1,0.6-3.3,0.6-3.6
		c0-0.4,0-0.8-0.1-1.2c-0.1-0.4-0.2-0.8-0.4-1.3c-0.4-1.2-1-1.8-1.8-1.8c-0.6,0-1.2,0.7-1.8,2.1c-0.5,1.1-0.8,2.1-0.8,2.8
		c0,0.4,0,0.9,0.1,1.5c0.1,0.6,0.2,1.5,0.5,2.4c-1.6-1.6-2.4-3.2-2.4-4.9c0-1.3,0.4-2.4,1.2-3.4c0.8-0.9,1.8-1.4,2.9-1.4
		c1.1,0,2.2,0.5,3.2,1.4c0.9,0.9,1.4,2,1.4,3.4c0,2.2-0.9,4-2.7,5.6c-0.5,0.3-1.1,0.7-1.7,1.2c-0.6,0.5-1.4,1.1-2.2,1.8
		c0.3,1,0.8,1.9,1.3,2.7c0.6,0.7,1.3,1.4,2.2,1.9l5.1,2.4V91.7h5.2v1.6H478.7z"/>
	<path class="st4" d="M496.8,93.3c-0.9,0.8-1.6,1.6-2.1,2.3c-0.6,0.7-1,1.4-1.3,2.1c-0.4,0.8-0.7,1.7-0.9,2.6c-0.2,1-0.3,2-0.3,3.1
		c0,3,0.7,5.9,2,8.7c-1.2-1.6-2.1-3-2.7-4.2c-0.9-1.8-1.3-4-1.3-6.5c0-2,0.2-3.3,0.5-4c0.5-1.3,1.2-2.5,2.1-3.4
		c0.9-0.9,2-1.7,3.2-2.4h2.5v1.6H496.8z"/>
	<path class="st4" d="M502.8,104.4c0.8-0.7,1.5-1.4,2.3-2.2c0.2-0.9,0.1-1.5-0.3-2c-0.4-0.5-0.9-0.7-1.7-0.7c-0.4,0-0.9,0.2-1.6,0.6
		c-0.6,0.4-1,0.5-1.2,0.5c-1,0-1.4-0.6-1.4-1.9c0-2.1,0.7-3.7,2-4.8c1.2-1,2.6-1.5,4.5-1.5c1.2,0,2.2,0.2,3.1,0.7
		c0.4,0.2,0.8,0.5,1.2,0.9c0.4,0.4,1,0.9,1.6,1.6v-3.9h5.3v1.6h-3.1v20.2h1.2v0h-3.4v-12.7l-0.7-0.9l-6.6,5.8
		c-0.6-0.4-1.4-0.9-2.2-1.7L502.8,104.4z M510.7,96.5c-1.7-1.8-3.5-2.8-5.6-2.8c-0.4,0-0.8,0.1-1.4,0.2c-0.5,0.1-1,0.3-1.5,0.6
		c-0.5,0.3-0.9,0.6-1.2,1.1c-0.3,0.4-0.5,0.9-0.5,1.5c0,0.4,0.1,0.7,0.4,0.9c0.3,0.2,0.6,0.3,0.8,0.3c0.1,0,0.3,0,0.5-0.1
		c0.2-0.1,0.3-0.1,0.5-0.2c0.2-0.1,0.4-0.2,0.5-0.2c0.2,0,0.3-0.1,0.5,0c0.6,0.2,1,0.4,1.2,0.7c0.2,0.3,0.4,0.8,0.5,1.4
		c0.1,0.7,0.4,1,0.9,1.1l2.5-2.4c0.3,0.2,0.6,0.3,1,0.4c0.3,0.1,0.6,0.2,1,0.4V96.5z"/>
	<path class="st4" d="M523.8,93.3c-0.9,0.8-1.6,1.6-2.1,2.3c-0.6,0.7-1,1.4-1.3,2.1c-0.8,1.6-1.1,3.5-1.1,5.8c0,3,0.7,5.9,2,8.7
		c-1.3-1.6-2.2-3-2.7-4.2c-0.8-1.8-1.2-3.9-1.2-6.5c0-1.5,0.2-2.7,0.5-3.6c0.3-0.7,0.7-1.4,1.2-2.1c0.5-0.7,1.2-1.6,2.2-2.5h-5.3
		c0-0.2,0-0.3,0-0.5c0-0.2,0-0.3,0-0.4c0-0.1,0-0.3,0-0.4c0-0.1,0-0.2,0-0.3h9.6v1.6H523.8z"/>
	<path class="st4" d="M538.3,93.3c1.3,1,2.2,2.3,2.7,3.8c0.6,1.6,0.8,3.5,0.8,5.9c0,2.6-0.5,4.8-1.6,6.7c-1.3,2.4-3.1,3.5-5.5,3.5
		c-0.6,0-1.1-0.1-1.6-0.3c-0.5-0.2-0.9-0.5-1.3-0.8c-1.6-1.4-2.7-2.7-3.3-3.9c-0.6-1.1-1.2-2.9-2-5.6c-0.1-0.3-0.2-0.7-0.2-1.1
		c-0.1-0.4-0.2-1-0.3-1.6c-0.2-1-0.4-1.9-0.6-2.6l3.3-0.3c0,0.6-0.1,1.2-0.1,1.8s0,1,0,1.4c0,2.6,0.4,5.1,1.1,7.5
		c1.1,3.4,2.7,5.1,4.8,5.1c0.9,0,1.7-0.4,2.4-1.1s1.2-1.7,1.6-3.1c0.3-0.9,0.5-1.9,0.7-2.9s0.2-2.1,0.2-3.2c0-1.8-0.2-3.5-0.5-5.2
		c-0.2-1.2-0.6-2.1-1-2.8c-0.4-0.6-0.9-1-1.5-1c-0.5,0-1,0.3-1.4,0.9c-0.4,0.6-0.7,1.5-1,2.6c-0.4,1.7-0.6,3.2-0.6,4.5
		c0,1.2,0.2,2.3,0.5,3.2c-1.7-1.1-2.5-2.8-2.5-5c0-1.4,0.2-2.7,0.7-3.7c0.5-1.1,1.3-2,2.4-2.8h-10.2v-1.6h19.6c0,0.2,0,0.3,0,0.5
		c0,0.2,0,0.6,0,1.1H538.3z"/>
	<path class="st4" d="M164.1,136.1v0.6c-0.5-0.3-1.2-0.5-1.9-0.7c-0.7-0.2-1.4-0.4-2.3-0.7c-1.8-0.4-3.3-0.7-4.4-0.7
		c-1.3,0-2.2,0.2-2.9,0.6c-0.7,0.4-1,1-1,1.8v2.2h3.6v1.6h-3.2v20.3h0.5v0.1h-3.8v-0.1h1v-20.3h-3.3v-1.6h3.3v-0.5
		c0-1.9,0.2-3.3,0.7-4.1c0.6-1,1.6-1.5,3.1-1.5c0.6,0,1.4,0.1,2.3,0.3c0.9,0.2,1.9,0.6,3.1,1c1.2,0.4,2.2,0.9,3.1,1.4
		c0.9,0.5,1.7,1,2.5,1.7L164.1,136.1z"/>
	<path class="st4" d="M167.4,140.8V161h1.3v0h-4.5v-0.1h1v-13.4l-3.1-2.3c-1.2,0.4-2.1,0.8-2.5,1.2c-0.7,0.6-1.1,1.6-1.1,3v0.1
		c0,0.1,0,0.2,0,0.4s0,0.3,0,0.5v1.1c0,0.5,0,1.1,0.1,1.6c0.1,0.6,0.3,1.2,0.5,1.8c0,0.2,0.1,0.4,0.3,0.7c0.2,0.3,0.3,0.7,0.6,1.2
		c-0.3-0.4-0.7-0.9-1.1-1.4c-0.4-0.5-0.8-1-1.2-1.5c-0.8-1.1-1.2-2.6-1.2-4.7c0-1.6,0.7-3,2.1-4.1c0.8-0.6,1.5-0.9,2.2-0.9
		c0.3,0,0.6-0.1,0.8-0.1c0.2,0,0.4,0,0.5,0.1c0.6,0.1,1.3,0.6,2,1.5c0.1,0.2,0.3,0.3,0.4,0.5c0.1,0.2,0.3,0.4,0.6,0.7v-6h-10.4
		c0-0.4,0-0.7,0-1s0-0.5,0-0.6h15.9v1.6H167.4z"/>
	<path class="st4" d="M185,140.8v19.8c-0.8-0.6-2-1.4-3.4-2.3c-1.8-1-3-1.8-3.6-2.3c-2.6-1.8-4.5-4.2-5.7-7.3l4.5-3.9
		c-0.6-1-1.2-1.8-1.8-2.5c-0.5-0.7-1.1-1.2-1.6-1.6h-3.5v-1.6h18.5v1.6H185z M182.8,140.8h-6.1l2.2,4.4l-4.6,3.7
		c1.1,2.7,2.3,4.4,3.6,5.2c0.1,0.1,0.6,0.3,1.4,0.8c0.8,0.5,2,1.2,3.5,2.1V140.8z M177.9,160.5c-0.4,0.3-0.8,0.5-1.3,0.5
		c-0.5,0-0.9-0.2-1.2-0.6c-0.4-0.4-0.6-0.8-0.6-1.3c0-0.5,0.2-0.8,0.7-1.1c0.4-0.2,0.8-0.4,1.3-0.4c0.5,0,0.9,0.1,1.2,0.4
		c0.4,0.3,0.5,0.7,0.5,1.3C178.4,159.8,178.3,160.2,177.9,160.5z"/>
	<path class="st4" d="M205.2,136.1v0.6c-0.5-0.3-1.2-0.5-1.9-0.7c-0.7-0.2-1.4-0.4-2.3-0.7c-1.8-0.4-3.3-0.7-4.4-0.7
		c-1.3,0-2.2,0.2-2.9,0.6c-0.7,0.4-1,1-1,1.8v2.2h3.6v1.6h-3.2v20.3h0.5v0.1h-3.8v-0.1h1v-20.3h-3.3v-1.6h3.3v-0.5
		c0-1.9,0.2-3.3,0.7-4.1c0.6-1,1.6-1.5,3.1-1.5c0.6,0,1.4,0.1,2.3,0.3c0.9,0.2,1.9,0.6,3.1,1c1.2,0.4,2.2,0.9,3.1,1.4
		c0.9,0.5,1.7,1,2.5,1.7L205.2,136.1z"/>
	<path class="st4" d="M209.4,140.8v20.3h1.3v0.1h-4.6V161l1.1-0.2v-8.8c-0.4-1.1-0.9-1.8-1.4-2.4c-0.5-0.5-1.1-0.8-1.7-0.8
		c-1.3,0-2.3,0.4-3,1.3c-0.8,0.9-1.1,2.1-1.1,3.6c0,1.7,0.3,3.4,1,5c-0.3-0.4-0.7-0.7-1-1.1c-0.3-0.4-0.7-0.8-1-1.2
		c-0.8-0.9-1.2-2.2-1.2-3.9c0-0.7,0.2-1.4,0.7-2.1c0.5-0.7,1.2-1.4,2.3-2.1c-0.2-0.2-0.4-0.3-0.6-0.5c-0.2-0.2-0.4-0.4-0.8-0.6
		c-1.2-1-1.8-2-1.8-3.2c0-0.3,0.1-0.6,0.2-0.9c0.1-0.3,0.3-0.6,0.6-0.9c0.3-0.3,0.6-0.6,1-0.9s1-0.6,1.6-0.8H196v-1.6h16.9v1.6
		H209.4z M207.1,140.8H202c-0.3,0.2-0.6,0.5-0.9,0.7c-0.3,0.2-0.6,0.4-0.8,0.6c-0.6,0.6-0.9,1.3-0.9,2.1c0,0.6,0.2,1.3,0.5,2.1
		c0.2,0.3,0.3,0.6,0.4,1c0.1,0.3,0.3,0.7,0.4,1.1c0.4-0.2,0.8-0.4,1.2-0.5c0.4-0.1,0.7-0.1,1.1-0.1c0.6,0,1.2,0.2,1.8,0.6
		c0.7,0.4,1.4,1.1,2.3,2.1V140.8z"/>
	<path class="st4" d="M225.8,140.8c1.3,1,2.2,2.3,2.7,3.8c0.6,1.6,0.8,3.5,0.8,5.9c0,2.6-0.5,4.8-1.6,6.7c-1.3,2.4-3.1,3.5-5.5,3.5
		c-0.6,0-1.1-0.1-1.6-0.3c-0.5-0.2-0.9-0.5-1.3-0.8c-1.6-1.4-2.7-2.7-3.3-3.9c-0.6-1.1-1.2-2.9-2-5.6c-0.1-0.3-0.2-0.7-0.2-1.1
		c-0.1-0.4-0.2-1-0.3-1.6c-0.2-1-0.4-1.9-0.6-2.6l3.3-0.3c0,0.7-0.1,1.2-0.1,1.8c0,0.5,0,1,0,1.4c0,2.6,0.4,5.1,1.1,7.5
		c1.1,3.4,2.7,5.1,4.8,5.1c0.9,0,1.7-0.4,2.4-1.1c0.7-0.7,1.2-1.7,1.6-3.1c0.3-0.9,0.5-1.9,0.7-2.9c0.1-1,0.2-2.1,0.2-3.2
		c0-1.8-0.2-3.5-0.5-5.2c-0.2-1.2-0.6-2.1-1-2.8c-0.4-0.6-0.9-1-1.5-1c-0.5,0-1,0.3-1.4,0.9c-0.4,0.6-0.7,1.5-1,2.6
		c-0.4,1.7-0.6,3.2-0.6,4.5c0,1.2,0.2,2.3,0.5,3.2c-1.7-1.1-2.5-2.8-2.5-5c0-1.4,0.2-2.7,0.7-3.7s1.3-2,2.4-2.8h-10.2v-1.6h19.6
		c0,0.2,0,0.3,0,0.5c0,0.2,0,0.6,0,1.1H225.8z"/>
	<path class="st4" d="M253.9,161L253.9,161l1.2,0l-0.3-1.7c-0.7-1.4-1.9-2.1-3.6-2.2c-1,0-1.9-0.1-2.6-0.3c-0.7-0.2-1.3-0.4-1.7-0.6
		c-1.1-0.6-2.2-1.9-3.2-3.8c-0.7-1.3-1.3-3-1.7-5.1c-0.1-0.2-0.1-0.6-0.2-0.9c0-0.4-0.1-0.8-0.1-1.3c0.4-0.2,0.9-0.4,1.4-0.6
		c0.5-0.1,1.1-0.2,1.6-0.3c0,0.2-0.1,0.4-0.2,0.7c-0.2,0.5-0.2,0.9-0.2,1.3c0,0.7,0.1,1.3,0.2,2.1c0.1,0.8,0.3,1.5,0.5,2.3
		c0.2,0.8,0.5,1.5,0.8,2.2c0.3,0.6,0.6,1.2,1,1.7c0.7,1.1,1.7,1.6,2.8,1.6l0.2,0c0.1,0,0.2,0,0.4,0c0.2,0,0.3,0,0.6,0
		c0.7,0,1.3,0.2,2,0.5c0.6,0.3,1.3,0.9,2,1.7v-17.2c-0.4-0.4-0.9-0.8-1.6-0.9c-2.4,2.2-3.6,4.2-3.6,5.9c0,1.6,0.3,3.1,0.8,4.7
		c-1.8-2-2.8-4.2-2.8-6.4c0-1.2,0.3-2.1,1-2.8c0.3-0.2,0.6-0.6,1.1-1c0.4-0.4,0.9-0.8,1.5-1.4c1.4,0.4,2.4,0.8,3,1.1
		c0.4,0.2,0.9,0.5,1.3,0.8s0.9,0.7,1.4,1.2V161h1.6v0H253.9z"/>
	<path class="st4" d="M269.7,140.8c1,0.8,1.8,1.6,2.2,2.4c0.4,0.8,0.7,1.6,0.7,2.4c0,2.1-1,4-2.9,5.7c-0.7,0.6-1.5,1.2-2.4,1.8
		c-0.9,0.5-1.9,1-3.1,1.4c0.6,2.4,1.5,4.3,2.8,5.8c0.7,0.8,2.2,2.1,4.4,3.8c0.1,0.1,0.3,0.2,0.4,0.3c0.1,0.1,0.2,0.2,0.3,0.3
		l-2.4-1.6c-1.8-1.1-3.3-2.4-4.7-3.7s-2.5-2.8-3.4-4.3c1-0.3,2-0.7,2.8-1.2c0.9-0.5,1.6-1,2.3-1.6c1.9-1.6,2.9-3.5,2.9-5.6
		c0-1-0.2-2-0.6-3c-0.5-1.3-1.3-2-2.3-2c-0.9,0-1.8,0.8-2.5,2.3c-0.6,1.3-1,2.4-1,3.4c0,1.1,0.3,2.2,0.8,3.1
		c-1.9-1.2-2.8-2.8-2.8-4.7c0-0.8,0.2-1.5,0.7-2.4s1.2-1.7,2.3-2.7h-4.7v-1.6h8.2v-1.7c-0.8-1.3-1.8-2-3-2c-0.6,0-1.2,0.1-1.9,0.2
		c-0.7,0.2-1.5,0.4-2.4,0.7c-1.1,0.4-2.1,0.8-2.9,1c0.6-0.3,1.2-0.6,1.8-0.9s1.1-0.6,1.7-0.9c1.7-0.9,3.4-1.3,4.9-1.3
		c0.9,0,1.7,0.2,2.4,0.7c0.4,0.3,1,0.8,1.6,1.7v2.5h4.3v1.6H269.7z"/>
	<path class="st4" d="M298.1,158.5c-1.5,1.5-3.2,2.2-4.9,2.2c-1.8,0-3.5-1-5.1-3.1c-1.2-1.6-2.2-3.4-2.8-5.4
		c-0.2-1.2-0.8-3.2-1.6-6.1l3.1-0.6c0.2,3.4,0.6,5.9,1.1,7.7c0.4,1.4,0.9,2.7,1.6,3.8c0.7,1.1,1.5,2.1,2.5,2.9
		c0.4,0.2,0.8,0.2,1.2,0.2c1.5,0,2.7-0.8,3.7-2.4c0.8-1.3,1.2-2.7,1.2-4.1c0-0.9-0.2-1.5-0.5-1.9c-0.3-0.4-0.8-0.6-1.5-0.6
		c-0.3,0-0.6,0.1-0.9,0.3c-0.3,0.2-0.6,0.4-0.8,0.5c0.2-0.4,0.4-0.8,0.6-1.4c0.2-0.5,0.5-1.1,0.8-1.8c0.3-0.7,0.5-1.3,0.6-2
		s0.2-1.4,0.2-2.2c0-1-0.2-1.8-0.6-2.5c-0.5-0.8-1.1-1.2-1.9-1.2c-0.7,0-1.5,0.6-2.2,1.8c-0.7,1.1-1,2.1-1,3c0,0.7,0.2,1.6,0.6,2.7
		c-1.5-1.6-2.3-3-2.3-4.3c0-1.3,0.6-2.6,1.7-3.6c1.1-1,2.2-1.5,3.4-1.5c1.3,0,2.5,0.4,3.4,1.3c1,0.9,1.4,2.2,1.4,3.7
		c0,1.2-0.4,2.4-1.1,3.6c-0.7,1.2-1.9,2.5-3.7,4c1.2-0.5,2-0.9,2.6-1s1-0.3,1.3-0.3c0.7,0,1.2,0.3,1.6,0.8c0.4,0.6,0.6,1.2,0.6,2
		C300.4,155.2,299.6,157,298.1,158.5z"/>
	<path class="st4" d="M309.1,140.8c-0.9,0.8-1.6,1.6-2.1,2.3c-0.6,0.7-1,1.4-1.3,2.1c-0.8,1.6-1.1,3.5-1.1,5.8c0,3,0.7,5.9,2,8.7
		c-1.3-1.6-2.2-3-2.7-4.2c-0.8-1.8-1.2-3.9-1.2-6.5c0-1.5,0.2-2.7,0.5-3.6c0.3-0.7,0.7-1.4,1.2-2.1c0.5-0.7,1.2-1.6,2.2-2.5h-5.3
		c0-0.2,0-0.3,0-0.5s0-0.3,0-0.4c0-0.1,0-0.3,0-0.4c0-0.1,0-0.2,0-0.3h9.6v1.6H309.1z"/>
	<path class="st4" d="M324.9,140.8v19.8c-0.8-0.6-2-1.4-3.4-2.3c-1.8-1-3-1.8-3.6-2.3c-2.6-1.8-4.5-4.2-5.7-7.3l4.5-3.9
		c-0.6-1-1.2-1.8-1.8-2.5c-0.5-0.7-1.1-1.2-1.6-1.6h-3.5v-1.6h18.5v1.6H324.9z M322.7,140.8h-6.1l2.2,4.4l-4.6,3.7
		c1.1,2.7,2.3,4.4,3.6,5.2c0.1,0.1,0.6,0.3,1.4,0.8c0.8,0.5,2,1.2,3.5,2.1V140.8z M317.7,160.5c-0.4,0.3-0.8,0.5-1.3,0.5
		c-0.5,0-0.9-0.2-1.2-0.6c-0.4-0.4-0.6-0.8-0.6-1.3c0-0.5,0.2-0.8,0.7-1.1c0.4-0.2,0.8-0.4,1.3-0.4c0.5,0,0.9,0.1,1.2,0.4
		c0.4,0.3,0.5,0.7,0.5,1.3C318.3,159.8,318.1,160.2,317.7,160.5z"/>
	<path class="st4" d="M339.9,160.1c-0.4-0.3-0.8-0.7-1.3-1.1c-0.5-0.4-1.1-0.9-1.8-1.4c-0.8-0.6-1.5-1.1-2.1-1.5
		c-0.6-0.4-1-0.8-1.4-1.1c-2.6-2.3-3.9-4.6-3.9-6.9c0-1.9,1-3.4,3-4.5h5.3v-2.8h-10v-1.6h15.8v1.6c-0.2,0-0.5,0-0.9,0
		c-0.4,0-0.8,0-1.2,0h-1.5V160.1z M337.7,144.3H334c-1.5,1.1-2.2,2.5-2.2,4.3c0,2,2,4.6,5.9,7.9V144.3z"/>
	<path class="st4" d="M367.1,140.8v20h1.1v0.2h-4.5v-0.2h1.2v-11l-2.1-2c-0.3,0.4-0.8,1-1.3,1.7c-0.6,0.7-1.2,1.6-2,2.6
		c-0.8,1-1.5,1.8-2,2.3c-0.6,0.5-1,0.7-1.3,0.7c-1.2,0-2.3-0.5-3.5-1.6l0-0.9c0.6,0.7,1.2,1,1.8,1c0.8,0,1.7-0.6,2.7-1.9
		s1.5-2.4,1.5-3.3c0-0.7-0.1-1.2-0.3-1.6c-0.2-0.4-0.6-0.6-1.1-0.6c-0.4,0-0.9,0.2-1.5,0.5l-1.3,0.8c-0.7-0.2-1.1-0.4-1.4-0.7
		c-0.3-0.3-0.5-0.9-0.5-1.6c0-0.2,0.1-0.7,0.4-1.4c0.3-0.7,0.8-1.7,1.4-2.9h-3.8v-1.6h19.8v1.6H367.1z M364.9,140.8h-9.5
		c-0.2,0.4-0.4,0.7-0.6,1.1c-0.2,0.4-0.4,0.8-0.6,1.2c-0.2,0.3-0.2,0.6-0.2,0.9c0,0.3,0.1,0.6,0.3,0.7s0.4,0.2,0.8,0.2
		c0.4,0,0.9-0.1,1.6-0.4c0.6-0.2,1.1-0.3,1.4-0.3c0.4,0,0.7,0.2,1,0.6s0.3,1.1,0.3,2.1c0,0.2,0,0.5,0,0.9c0,0.4-0.1,0.9-0.1,1.5
		l3.3-3.2c0.3,0.2,0.6,0.4,1,0.7c0.4,0.3,0.9,0.8,1.4,1.4V140.8z"/>
	<path class="st4" d="M374.4,140.8V161h1.4v0h-4.8v0h1.2v-20.2h-2.4v-1.6h7.4v1.6H374.4z"/>
	<path class="st4" d="M386.2,140.8c1,0.8,1.8,1.6,2.2,2.4c0.4,0.8,0.7,1.6,0.7,2.4c0,2.1-1,4-2.9,5.7c-0.7,0.6-1.5,1.2-2.4,1.8
		c-0.9,0.5-1.9,1-3.1,1.4c0.6,2.4,1.5,4.3,2.8,5.8c0.7,0.8,2.2,2.1,4.4,3.8c0.1,0.1,0.3,0.2,0.4,0.3s0.2,0.2,0.3,0.3l-2.4-1.6
		c-1.8-1.1-3.3-2.4-4.7-3.7s-2.5-2.8-3.4-4.3c1-0.3,2-0.7,2.8-1.2c0.9-0.5,1.6-1,2.3-1.6c1.9-1.6,2.9-3.5,2.9-5.6c0-1-0.2-2-0.6-3
		c-0.5-1.3-1.3-2-2.3-2c-0.9,0-1.8,0.8-2.5,2.3c-0.6,1.3-1,2.4-1,3.4c0,1.1,0.3,2.2,0.8,3.1c-1.9-1.2-2.8-2.8-2.8-4.7
		c0-0.8,0.2-1.5,0.7-2.4c0.5-0.8,1.2-1.7,2.3-2.7h-4.7v-1.6h8.2v-1.7c-0.8-1.3-1.8-2-3-2c-0.6,0-1.2,0.1-1.9,0.2
		c-0.7,0.2-1.5,0.4-2.4,0.7c-1.1,0.4-2.1,0.8-2.9,1c0.6-0.3,1.2-0.6,1.8-0.9s1.1-0.6,1.7-0.9c1.7-0.9,3.4-1.3,4.9-1.3
		c0.9,0,1.7,0.2,2.4,0.7c0.4,0.3,1,0.8,1.6,1.7v2.5h4.3v1.6H386.2z"/>
	<path class="st4" d="M395.2,140.8V158c0,0.3,0.1,0.6,0.4,0.9c0.3,0.3,0.6,0.6,0.9,0.9c1.5-1,2.7-2.8,3.5-5.4c0.7-2.2,1-4.3,1-6.4
		c0-0.5-0.1-0.9-0.2-1.2c-0.2-0.3-0.4-0.5-0.7-0.5c-0.4,0-1.1,0.4-2,1.1l-0.1,0l3-2.2l1.8,1.1v0.5c0,6-2.2,10.6-6.7,13.9
		c-0.4-0.2-1.4-1.1-3.1-2.8v-17.1h-2.1v-1.6H401c0-0.2,0-0.4,0-0.7s0-0.5,0-0.7c0-0.3,0-0.5,0-0.7s0-0.4,0-0.5
		c0-0.7-0.4-1.3-1.1-1.6c-0.6-0.3-1.2-0.5-1.8-0.5c-0.8,0-1.8,0.1-2.9,0.3c-1.1,0.2-2.3,0.5-3.7,0.9c3-1.5,5.7-2.3,8.1-2.3
		c1.5,0,2.6,0.8,3.2,2.3v3.5h3.2v1.6H395.2z"/>
	<path class="st4" d="M430.4,136.1v0.6c-0.5-0.3-1.2-0.5-1.9-0.7c-0.7-0.2-1.4-0.4-2.3-0.7c-1.8-0.4-3.3-0.7-4.4-0.7
		c-1.3,0-2.2,0.2-2.9,0.6s-1,1-1,1.8v2.2h3.6v1.6h-3.2v20.3h0.5v0.1h-3.8v-0.1h1v-20.3h-3.3v-1.6h3.3v-0.5c0-1.9,0.2-3.3,0.7-4.1
		c0.6-1,1.6-1.5,3.1-1.5c0.6,0,1.4,0.1,2.3,0.3c0.9,0.2,1.9,0.6,3.1,1c1.2,0.4,2.2,0.9,3.1,1.4c0.9,0.5,1.7,1,2.5,1.7L430.4,136.1z"
		/>
	<path class="st4" d="M429,140.8h-8.2v-1.6h18.4v1.6h-9.3c0.4,0.3,0.8,0.5,1,0.7c0.2,0.2,0.5,0.3,0.7,0.5c0.4,0.3,0.8,0.5,1,0.7
		c0.3,0.2,0.4,0.3,0.6,0.5c0.5,0.4,0.9,0.9,1.2,1.5l-0.4,0.2c-1.7-1.5-2.7-2.2-3.1-2.2c-0.4,0-0.7,0.1-0.9,0.2
		c-0.2,0.2-0.4,0.4-0.4,0.8v6c0.5,1.1,1.3,1.7,2.5,1.7c1.2,0,1.9-0.5,2.2-1.4c0.1-0.4,0.2-1.1,0.2-2.3c0.6,0,1.4,0.1,2.2,0.3v1.2
		c0,1.2,0,2.3-0.1,3.3s-0.2,1.8-0.4,2.6c-0.6,1.9-1.7,3.4-3.2,4.4c-1.2,0.8-2.2,1.2-3,1.2c-1.9,0-3.2-0.6-4-1.8l-1.4-2.1
		c-0.5-0.7-0.9-1.4-1.2-2.2c-0.3-0.8-0.6-1.8-0.9-3s-0.6-2.7-0.9-4.4l2.6-0.8c0,3.3,0.3,6.1,0.9,8.3c0.9,3.5,2.5,5.2,4.8,5.2
		c1.6,0,2.9-1,3.7-3c0.6-1.5,0.9-3,0.9-4.7v-1.2c-0.5,0.5-1,0.9-1.6,1.1c-0.6,0.2-1.3,0.3-2.1,0.3c-0.8,0-1.5-0.2-2.2-0.7
		c-0.8-0.5-1.2-1.2-1.2-2v-7.2c0.1-0.1,0.1-0.2,0.3-0.3s0.3-0.3,0.4-0.4c0.1-0.1,0.2-0.2,0.3-0.3c0.1-0.1,0.2-0.2,0.2-0.2
		c0,0,0.1,0,0.1-0.1s0,0,0.1-0.1l0.1,0c0-0.1,0-0.1,0-0.2L429,140.8z"/>
	<path class="st4" d="M456,136.1v0.6c-0.5-0.3-1.2-0.5-1.9-0.7c-0.7-0.2-1.4-0.4-2.3-0.7c-1.8-0.4-3.3-0.7-4.4-0.7
		c-1.3,0-2.2,0.2-2.9,0.6s-1,1-1,1.8v2.2h3.6v1.6H444v20.3h0.5v0.1h-3.8v-0.1h1v-20.3h-3.3v-1.6h3.3v-0.5c0-1.9,0.2-3.3,0.7-4.1
		c0.6-1,1.6-1.5,3.1-1.5c0.6,0,1.4,0.1,2.3,0.3c0.9,0.2,1.9,0.6,3.1,1c1.2,0.4,2.2,0.9,3.1,1.4c0.9,0.5,1.7,1,2.5,1.7L456,136.1z"/>
	<path class="st4" d="M456.9,140.8v1.5c0.7,0.3,1.5,0.7,2.3,1.1c0.8,0.4,1.7,0.8,2.6,1.2c0.9,0.4,1.7,0.6,2.6,0.8s1.7,0.2,2.5,0.2
		c0.4,0,0.8,0,1.2-0.1c0.4-0.1,0.9-0.2,1.4-0.4l1.1,2.2c-0.8,0.8-1.5,1.5-2,2c-0.5,0.6-0.9,1.1-1.2,1.5c-0.7,1.3-1.1,2.8-1.1,4.7
		c0,0.1,0,0.4,0.1,1c0.1,0.6,0.2,1.5,0.3,2.7c-0.7-1.9-1.1-3.7-1.1-5.4c0-1.9,0.3-3.5,1-4.8c0.1-0.2,0.2-0.4,0.4-0.8
		s0.4-0.8,0.7-1.4c-2-0.2-3.9-0.6-5.6-1.3c-1.7-0.7-3.4-1.6-5.1-2.8v6.6c0,0.8,0.3,1.4,0.8,1.8c0.5,0.4,1,0.6,1.7,0.6
		c0.7,0,1.2-0.3,1.6-0.8c0.1-0.2,0.3-0.4,0.4-0.7s0.3-0.6,0.5-1l0-1.9l2.1,0.2c0,0.4,0,0.9,0,1.4c0,0.5,0,1,0,1.6
		c0,2.3-0.5,4.4-1.4,6.3c-1.2,2.5-2.9,3.7-5.1,3.7c-2.5,0-4.7-1.8-6.5-5.4c-1.3-2.6-2.2-5.5-2.6-8.6l3-0.4c0,0.3,0,0.6,0,0.8
		c0,0.2,0,0.5,0,0.7c0,2.5,0.4,5,1.3,7.5c0.6,1.7,1.2,3.1,2,3.9c0.8,0.9,1.7,1.3,2.7,1.3c1.5,0,2.7-1.1,3.6-3.2
		c0.6-1.5,0.9-3.1,0.9-4.8c0-0.2,0-0.4,0-0.7c0-0.3-0.1-0.7-0.2-1.2c-0.7,0.8-1.3,1.4-1.8,1.7c-0.6,0.4-1.1,0.5-1.7,0.5
		c-0.9,0-1.7-0.4-2.4-1.1c-0.7-0.7-1.1-1.6-1.1-2.6v-8.3h-0.3c0,0-0.1,0.1-0.3,0c-0.2,0-0.4,0-0.8,0c-0.3,0-0.7,0-1.2,0
		c-0.4,0-0.9,0-1.4,0c-0.5,0-0.9,0-1.3,0s-0.9,0-1.2,0c-0.4,0-0.7,0-1,0c-0.3,0-0.5,0-0.6,0v-1.6h25.5v1.6H456.9z"/>
	<path class="st4" d="M476.5,140.8V158c0,0.3,0.1,0.6,0.4,0.9c0.3,0.3,0.6,0.6,0.9,0.9c1.5-1,2.7-2.8,3.5-5.4c0.7-2.2,1-4.3,1-6.4
		c0-0.5-0.1-0.9-0.2-1.2s-0.4-0.5-0.7-0.5c-0.4,0-1.1,0.4-2,1.1l-0.1,0l3-2.2l1.8,1.1v0.5c0,6-2.2,10.6-6.7,13.9
		c-0.4-0.2-1.4-1.1-3.1-2.8v-17.1h-2.1v-1.6h10.1c0-0.2,0-0.4,0-0.7s0-0.5,0-0.7c0-0.3,0-0.5,0-0.7s0-0.4,0-0.5
		c0-0.7-0.4-1.3-1.1-1.6c-0.6-0.3-1.2-0.5-1.8-0.5c-0.8,0-1.8,0.1-2.9,0.3c-1.1,0.2-2.3,0.5-3.7,0.9c3-1.5,5.7-2.3,8.1-2.3
		c1.5,0,2.6,0.8,3.2,2.3v3.5h3.2v1.6H476.5z"/>
	<path class="st4" d="M507.5,140.8v4.1h1.4c0.9,0,1.6,0,2.1,0.1c0.5,0.1,1,0.2,1.2,0.4c0.8,0.4,1.2,1.4,1.2,2.8
		c0,0.9-0.5,2.2-1.5,3.9c-0.6,1.1-1.4,2.1-2.2,3c1.1-2.6,1.7-5,1.7-7.3c0-0.6-0.1-1.2-0.4-1.6c-0.2-0.3-0.6-0.6-1.1-1h-2.4v15.1
		c-3.5-2.1-6-4.1-7.7-6.2c-1.7-2-2.5-4.1-2.5-6.1c0-1.4,0.6-2.3,1.8-2.8c0.7-0.3,1.8-0.4,3.4-0.3l2.7,0.1v-4.2h-11.2v-1.6h21.5v1.6
		H507.5z M505.3,145.4h-3.2c-0.8,0.4-1.4,0.9-1.6,1.4c-0.2,0.3-0.3,0.6-0.3,1c-0.1,0.4-0.1,0.8-0.1,1.4c0,0.8,0.1,1.7,0.4,2.5
		s0.7,1.7,1.2,2.6c0.5,0.8,1.1,1.6,1.6,2.2c0.6,0.6,1.2,1.1,2,1.6V145.4z"/>
	<path class="st4" d="M529,140.8c-0.1,0-0.2,0-0.5,0c-0.2,0-0.4,0-0.7,0c-0.3,0-0.5,0-0.8,0c-0.3,0-0.5,0-0.6,0v19.3
		c-0.8-0.8-1.9-1.6-3.1-2.5c-0.9-0.6-1.7-1.2-2.3-1.6c-0.6-0.4-1-0.7-1.2-0.9c-1.3-1.1-2.3-2.2-3-3.3s-1-2.2-1-3.4
		c0-1.9,1-3.4,3-4.5h5.3v-3.2h-10.1v-1.6h15.7v1.6c-0.1,0-0.2,0-0.4,0C529.3,140.8,529.1,140.8,529,140.8z M519.2,159.2
		c-0.4,0.3-0.8,0.4-1.2,0.4c-0.4,0-0.8-0.2-1.2-0.5c-0.3-0.3-0.5-0.6-0.5-1.1c0-0.4,0.1-0.8,0.4-1.1c0.3-0.3,0.7-0.5,1-0.5
		c0.7,0,1.3,0.1,1.6,0.4c0.3,0.3,0.5,0.7,0.5,1.2C519.8,158.5,519.6,158.9,519.2,159.2z M524.2,144.7h-3.7c-1.5,1.1-2.2,2.5-2.2,4.3
		c0,1.3,0.7,2.6,2,4.1c0.3,0.4,0.8,0.9,1.4,1.4c0.6,0.6,1.4,1.2,2.5,2V144.7z"/>
	<path class="st4" d="M531,152.5c-0.5,0.6-1.1,0.9-1.6,0.9c-1.2,0-2.4-0.8-3.4-2.5v-0.8c0.5,0.8,1.3,1.2,2.3,1.2
		c1.1,0,1.6-0.9,1.6-2.6c0-0.9-0.1-1.8-0.3-2.8c1.4,1.8,2.2,3.3,2.2,4.6C531.7,151.3,531.5,151.9,531,152.5z M527.3,140.8v-1.6h6.6
		v1.6H527.3z"/>
	<path class="st4" d="M546,140.8V161h1.3v0h-4.5v-0.1h1v-13.4l-3.1-2.3c-1.2,0.4-2.1,0.8-2.5,1.2c-0.7,0.6-1,1.6-1,3v0.1
		c0,0.1,0,0.2,0,0.4s0,0.3,0,0.5v1.1c0,0.5,0,1.1,0.1,1.6s0.3,1.2,0.5,1.8c0,0.2,0.1,0.4,0.3,0.7s0.3,0.7,0.6,1.2
		c-0.3-0.4-0.7-0.9-1.1-1.4c-0.4-0.5-0.8-1-1.2-1.5c-0.8-1.1-1.2-2.6-1.2-4.7c0-1.6,0.7-3,2.1-4.1c0.8-0.6,1.5-0.9,2.2-0.9
		c0.3,0,0.6-0.1,0.8-0.1c0.2,0,0.4,0,0.5,0.1c0.6,0.1,1.3,0.6,2,1.5c0.1,0.2,0.3,0.3,0.4,0.5c0.1,0.2,0.3,0.4,0.6,0.7v-6h-10.4
		c0-0.4,0-0.7,0-1s0-0.5,0-0.6h15.9v1.6H546z"/>
</g>
<text transform="matrix(1.856 0 0 1 150 197.5806)" class="st5 st6">www.pgdit.cf</text>
<text transform="matrix(1.1394 0 0 1 324.0527 59.7388)" class="st7 st5 st8">02</text>
</svg>
